<svg width="48" height="48" viewBox="0 0 48 48" fill="none" xmlns="http://www.w3.org/2000/svg">
<path d="M1.08752 21.9951C0.824278 25.004 1.15626 28.0353 2.06451 30.9159C2.97276 33.7965 4.4395 36.4701 6.38098 38.7838C8.32246 41.0976 10.7007 43.0063 13.3798 44.4009C16.0589 45.7956 18.9865 46.6489 21.9954 46.9122L23.0979 34.3103C21.7439 34.1919 20.4265 33.8079 19.2209 33.1803C18.0153 32.5527 16.9451 31.6937 16.0714 30.6526C15.1978 29.6114 14.5377 28.4083 14.129 27.112C13.7203 25.8157 13.5709 24.4516 13.6894 23.0976L1.08752 21.9951Z" fill="url(#paint0_radial_52_1081)"/>
<path d="M46.9125 26.0045C47.1757 22.9956 46.8437 19.9643 45.9355 17.0836C45.0272 14.203 43.5605 11.5295 41.619 9.21576C39.6775 6.902 37.2993 4.9933 34.6202 3.59863C31.9411 2.20396 29.0135 1.35065 26.0046 1.0874L24.902 13.6893C26.256 13.8077 27.5735 14.1917 28.7791 14.8193C29.9847 15.4469 31.0549 16.3058 31.9285 17.347C32.8022 18.3882 33.4622 19.5913 33.8709 20.8876C34.2797 22.1838 34.4291 23.5479 34.3106 24.9019L46.9125 26.0045Z" fill="url(#paint1_radial_52_1081)"/>
<path d="M46.9124 26.0044C46.6492 29.0133 45.7959 31.9409 44.4012 34.62C43.0065 37.2991 41.0978 39.6773 38.7841 41.6188C36.4703 43.5603 33.7968 45.027 30.9162 45.9353C28.0356 46.8435 25.0043 47.1755 21.9954 46.9123L23.0979 34.3104C24.4519 34.4289 25.816 34.2795 27.1122 33.8708C28.4085 33.4621 29.6116 32.802 30.6528 31.9284C31.694 31.0547 32.5529 29.9845 33.1805 28.7789C33.8081 27.5733 34.1921 26.2559 34.3106 24.9019L46.9124 26.0044Z" fill="url(#paint2_radial_52_1081)"/>
<path d="M26.0046 1.08752C22.9957 0.824278 19.9644 1.15626 17.0838 2.06451C14.2032 2.97276 11.5297 4.4395 9.21595 6.38098C6.90219 8.32246 4.99348 10.7007 3.59882 13.3798C2.20415 16.0589 1.35083 18.9865 1.08759 21.9954L13.6894 23.0979C13.8079 21.7439 14.1919 20.4265 14.8195 19.2209C15.4471 18.0153 16.306 16.9451 17.3472 16.0714C18.3884 15.1978 19.5915 14.5377 20.8878 14.129C22.184 13.7203 23.5481 13.5709 24.9021 13.6894L26.0046 1.08752Z" fill="url(#paint3_radial_52_1081)"/>
<defs>
<radialGradient id="paint0_radial_52_1081" cx="0" cy="0" r="1" gradientUnits="userSpaceOnUse" gradientTransform="translate(24 23.9998) rotate(95) scale(23 23)">
<stop offset="0.395436" stop-color="#EBE4E0"/>
<stop offset="1" stop-color="#D7CDCB"/>
</radialGradient>
<radialGradient id="paint1_radial_52_1081" cx="0" cy="0" r="1" gradientUnits="userSpaceOnUse" gradientTransform="translate(24 23.9998) rotate(95) scale(23 23)">
<stop offset="0.347825" stop-color="#D5CAC8"/>
<stop offset="0.802293" stop-color="#EBE4E0"/>
</radialGradient>
<radialGradient id="paint2_radial_52_1081" cx="0" cy="0" r="1" gradientUnits="userSpaceOnUse" gradientTransform="translate(24 23.9998) rotate(95) scale(23)">
<stop offset="0.605429" stop-color="#FF7A56"/>
<stop offset="0.90281" stop-color="#FF3D33"/>
</radialGradient>
<radialGradient id="paint3_radial_52_1081" cx="0" cy="0" r="1" gradientUnits="userSpaceOnUse" gradientTransform="translate(24 24.0001) rotate(95) scale(23)">
<stop offset="0.234558" stop-color="#FF2825"/>
<stop offset="0.790255" stop-color="#FF7B57"/>
</radialGradient>
</defs>
</svg>
