<svg width="48" height="49" viewBox="0 0 48 49" fill="none" xmlns="http://www.w3.org/2000/svg">
<path d="M30.5268 34.2417L18.4421 42.6517L19.6823 39.8243L30.5268 34.2417Z" fill="#00059F"/>
<path d="M30.3787 33.8606C30.8181 33.8606 31.0599 34.2814 30.8324 34.7025L25.0092 44.8061C24.3534 45.9295 23.2623 45.8328 22.6863 44.949L17.1084 35.2828C16.6556 34.5761 17.0542 33.8452 17.9033 33.8606H30.3787Z" fill="url(#paint0_linear_381_1763)"/>
<path d="M19.2402 38.9649L30.7572 34.1177L20.1301 40.5112L18.4655 42.6308C18.3805 42.7436 18.2167 42.6389 18.254 42.4837L19.2402 38.9649Z" fill="#0041DB"/>
<path d="M39.0231 19.5635L26.9385 27.9735L28.1787 25.1461L39.0231 19.5635Z" fill="#C50000"/>
<path d="M38.8751 19.1824C39.3144 19.1824 39.5562 19.6031 39.3287 20.0243L33.5056 30.1278C32.8497 31.2513 31.7587 31.1546 31.1826 30.2708L25.6047 20.6046C25.1519 19.8979 25.5506 19.1669 26.3996 19.1824H38.8751Z" fill="url(#paint1_linear_381_1763)"/>
<path d="M27.7366 24.2867L39.2536 19.4395L28.6264 25.833L26.9618 27.9526C26.8769 28.0653 26.713 27.9606 26.7503 27.8055L27.7366 24.2867Z" fill="#F53434"/>
<path d="M22.079 19.563L9.99438 27.973L11.2346 25.1456L22.079 19.563Z" fill="#666666"/>
<path d="M21.931 19.1819C22.3703 19.1819 22.6121 19.6026 22.3846 20.0238L16.5615 30.1274C15.9057 31.2508 14.8146 31.1541 14.2385 30.2703L8.66062 20.6041C8.20785 19.8974 8.60646 19.1664 9.45554 19.1819H21.931Z" fill="url(#paint2_linear_381_1763)"/>
<path d="M10.7925 24.2862L22.3095 19.439L11.6823 25.8325L10.0177 27.9521C9.93279 28.0649 9.76895 27.9602 9.80621 27.805L10.7925 24.2862Z" fill="#999999"/>
<path d="M47.4862 4.88135L35.4016 13.2914L36.6418 10.4639L47.4862 4.88135Z" fill="#666666"/>
<path d="M47.3382 4.50024C47.7775 4.50024 48.0194 4.921 47.7918 5.34219L41.9687 15.4457C41.3129 16.5692 40.2218 16.4724 39.6457 15.5887L34.0678 5.92246C33.6151 5.21579 34.0137 4.48481 34.8628 4.50024H47.3382Z" fill="url(#paint3_linear_381_1763)"/>
<path d="M36.1997 9.60454L47.7167 4.75732L37.0896 11.1509L35.425 13.2705C35.34 13.3832 35.1762 13.2785 35.2134 13.1234L36.1997 9.60454Z" fill="#999999"/>
<path d="M30.5468 4.88135L18.4622 13.2914L19.7023 10.4639L30.5468 4.88135Z" fill="#C50000"/>
<path d="M30.3987 4.50024C30.8381 4.50024 31.0799 4.921 30.8524 5.34219L25.0292 15.4457C24.3734 16.5692 23.2823 16.4724 22.7063 15.5887L17.1284 5.92246C16.6756 5.21579 17.0742 4.48481 17.9233 4.50024H30.3987Z" fill="url(#paint4_linear_381_1763)"/>
<path d="M19.2605 9.60454L30.7775 4.75732L20.1504 11.1509L18.4858 13.2705C18.4008 13.3832 18.237 13.2785 18.2742 13.1234L19.2605 9.60454Z" fill="#F53434"/>
<path d="M13.6073 4.88184L1.52271 13.2938L2.76289 10.4657L13.6073 4.88184Z" fill="#00059F"/>
<path d="M13.4593 4.50024C13.8986 4.50024 14.1405 4.9211 13.9129 5.34239L8.08978 15.4483C7.43397 16.572 6.34289 16.4752 5.76683 15.5913L0.188938 5.92279C-0.26383 5.21595 0.134779 4.48481 0.983858 4.50024H13.4593Z" fill="url(#paint5_linear_381_1763)"/>
<path d="M2.32131 9.60567L13.8443 4.75732L3.21163 11.1524L1.54617 13.2724C1.46118 13.3852 1.29725 13.2805 1.33453 13.1253L2.32131 9.60567Z" fill="#0041DB"/>
<defs>
<linearGradient id="paint0_linear_381_1763" x1="23.9194" y1="33.8604" x2="23.9194" y2="45.6304" gradientUnits="userSpaceOnUse">
<stop stop-color="#99AFFF"/>
<stop offset="1" stop-color="#5E65FF"/>
</linearGradient>
<linearGradient id="paint1_linear_381_1763" x1="32.4158" y1="19.1821" x2="32.4158" y2="30.9521" gradientUnits="userSpaceOnUse">
<stop stop-color="#FFA3A3"/>
<stop offset="1" stop-color="#FF6B6B"/>
</linearGradient>
<linearGradient id="paint2_linear_381_1763" x1="15.4717" y1="19.1816" x2="15.4717" y2="30.9516" gradientUnits="userSpaceOnUse">
<stop stop-color="#DDDDDD"/>
<stop offset="1" stop-color="#CCCCCC"/>
</linearGradient>
<linearGradient id="paint3_linear_381_1763" x1="40.8789" y1="4.5" x2="40.8789" y2="16.27" gradientUnits="userSpaceOnUse">
<stop stop-color="#DDDDDD"/>
<stop offset="1" stop-color="#CCCCCC"/>
</linearGradient>
<linearGradient id="paint4_linear_381_1763" x1="23.9395" y1="4.5" x2="23.9395" y2="16.27" gradientUnits="userSpaceOnUse">
<stop stop-color="#FFA3A3"/>
<stop offset="1" stop-color="#FF6B6B"/>
</linearGradient>
<linearGradient id="paint5_linear_381_1763" x1="7" y1="4.5" x2="7" y2="16.2727" gradientUnits="userSpaceOnUse">
<stop stop-color="#99AFFF"/>
<stop offset="1" stop-color="#5E65FF"/>
</linearGradient>
</defs>
</svg>
