<svg width="48" height="49" fill="none" xmlns="http://www.w3.org/2000/svg"><path d="M23.396 37.708c6.008 4.125 7.536 4.862 13.8 8.582 3.37 2 5.636.394 4.387-3.026-1.421-3.893-2.461-6.153-4.814-11.53-.617-1.408-1.242-2.552.428-4.24-.774-1.029-13.8 10.214-13.8 10.214z" fill="url(#paint0_linear)"/><path d="M3.516 18.779c-1.298.011-2.228.57-2.441 1.634-.2.997-.015 1.901.754 2.5 2.877 2.197 6.175 4.295 9.444 6.583.742.529 1.105 1.541.854 2.497-1.342 4.267-3.146 7.64-4.833 11.796-.764 1.883 1.047 3.88 3.458 2.8 5.202-2.33 9.979-4.89 15.74-9.121 7.826-5.748 12.915-11.335 20.048-23.763 1.635-2.849-1.4-5.585-4.23-3.753-6.908 4.473-15.84 7.388-21.501 8.19-6.377.904-13.046.6-17.293.637z" fill="url(#paint1_linear)"/><path d="M28.783 8.173c0 3.871-3.197 7.009-7.14 7.009-3.943 0-7.14-3.138-7.14-7.009 0-3.87 3.197-7.008 7.14-7.008 3.943 0 7.14 3.138 7.14 7.008z" fill="url(#paint2_linear)"/><defs><linearGradient id="paint0_linear" x1="43.605" y1="18.048" x2="61.248" y2="45.551" gradientUnits="userSpaceOnUse"><stop stop-color="#FE9A03"/><stop offset=".978" stop-color="#FFDE43"/></linearGradient><linearGradient id="paint1_linear" x1="7.114" y1="18.102" x2="22.837" y2="45.279" gradientUnits="userSpaceOnUse"><stop offset=".286" stop-color="#FFDE43"/><stop offset="1" stop-color="#FEB811"/></linearGradient><linearGradient id="paint2_linear" x1="28.783" y1="1.165" x2="15.695" y2="16.218" gradientUnits="userSpaceOnUse"><stop stop-color="#FFDE43"/><stop offset="1" stop-color="#FEB811"/></linearGradient></defs></svg>