<svg width="48" height="48" fill="none" xmlns="http://www.w3.org/2000/svg"><path d="M21.594 1.663a4.694 4.694 0 0 1 4.812 0l15.188 9.025c1.489.884 2.406 2.519 2.406 4.288v18.048c0 1.77-.917 3.404-2.406 4.288l-15.188 9.025a4.694 4.694 0 0 1-4.812 0L6.406 37.312C4.917 36.428 4 34.793 4 33.024V14.976c0-1.77.917-3.404 2.406-4.288l15.188-9.025Z" fill="url(#a)"/><circle cx="24" cy="24" r="11" fill="#4A4A4A"/><circle cx="24" cy="24" r="11" fill="url(#b)" fill-opacity=".84"/><circle cx="24" cy="24" r="11" fill="url(#c)"/><circle cx="24" cy="24" r="11" fill="url(#d)"/><circle cx="24" cy="24" r="11" fill="url(#e)"/><circle cx="24" cy="24" r="11" fill="url(#f)"/><circle cx="24" cy="24" r="11" fill="url(#g)"/><circle cx="24" cy="24" r="11" fill="url(#h)"/><circle cx="24" cy="24" r="11" fill="url(#i)"/><defs><radialGradient id="a" cx="0" cy="0" r="1" gradientUnits="userSpaceOnUse" gradientTransform="matrix(-.00004 -23.0001 19.9999 -.00003 24 24)"><stop offset=".291" stop-color="#FFE938"/><stop offset="1" stop-color="#FFC121"/></radialGradient><radialGradient id="b" cx="0" cy="0" r="1" gradientUnits="userSpaceOnUse" gradientTransform="rotate(90 0 24) scale(11.6548)"><stop stop-color="#F8FBFF" stop-opacity=".7"/><stop offset=".087" stop-color="#C9CED4" stop-opacity=".626"/><stop offset=".152" stop-color="#A9ADB2" stop-opacity=".511"/><stop offset=".316" stop-color="#81878C" stop-opacity=".08"/><stop offset="1" stop-color="#333638" stop-opacity="0"/></radialGradient><radialGradient id="c" cx="0" cy="0" r="1" gradientUnits="userSpaceOnUse" gradientTransform="rotate(88.862 -3.248 27.086) scale(5.20519 9.88959)"><stop offset=".512" stop-opacity=".07"/><stop offset="1" stop-opacity="0"/></radialGradient><radialGradient id="d" cx="0" cy="0" r="1" gradientUnits="userSpaceOnUse" gradientTransform="matrix(4.99125 -3.63 .88288 1.21395 27.98 21.175)"><stop offset=".329" stop-color="#fff" stop-opacity=".05"/><stop offset=".987" stop-color="#fff" stop-opacity="0"/></radialGradient><radialGradient id="e" cx="0" cy="0" r="1" gradientUnits="userSpaceOnUse" gradientTransform="matrix(-4.0833 -4.53751 1.28377 -1.15526 20.267 20.72)"><stop offset=".438" stop-color="#fff" stop-opacity=".02"/><stop offset="1" stop-color="#fff" stop-opacity="0"/></radialGradient><radialGradient id="g" cx="0" cy="0" r="1" gradientUnits="userSpaceOnUse" gradientTransform="rotate(143.13 13.562 14.268) scale(11.3438)"><stop stop-color="#fff" stop-opacity=".29"/><stop offset="1" stop-color="#7E7E7E" stop-opacity="0"/></radialGradient><radialGradient id="h" cx="0" cy="0" r="1" gradientUnits="userSpaceOnUse" gradientTransform="rotate(48.284 -9.962 26.145) scale(18.5098 7.19824)"><stop offset=".005" stop-color="#fff" stop-opacity=".16"/><stop offset="1" stop-color="#4A4A4A" stop-opacity="0"/></radialGradient><radialGradient id="i" cx="0" cy="0" r="1" gradientUnits="userSpaceOnUse" gradientTransform="matrix(0 -11.3438 8.84536 0 23.897 35.24)"><stop stop-opacity=".8"/><stop offset=".738" stop-color="#232323" stop-opacity="0"/></radialGradient><linearGradient id="f" x1="24" y1="13" x2="24" y2="35" gradientUnits="userSpaceOnUse"><stop stop-color="#fff" stop-opacity=".18"/><stop offset=".561" stop-opacity=".17"/></linearGradient></defs></svg>
