<svg xmlns="http://www.w3.org/2000/svg" width="16" height="16" viewBox="0 0 16 16"><path fill="currentColor" d="M8.326 7.703a.912.912 0 0 0-1.272-.018L.47 13.82a1.233 1.233 0 1 0 1.74 1.742l6.134-6.584a.913.913 0 0 0-.017-1.274ZM2.55 3.992a.126.126 0 0 1 .242 0l.457 1.614a.44.44 0 0 0 .303.304l1.615.456c.122.035.122.208 0 .242l-1.615.457a.44.44 0 0 0-.303.304l-.457 1.614a.126.126 0 0 1-.242 0l-.457-1.614a.44.44 0 0 0-.303-.304L.175 6.608c-.122-.034-.122-.207 0-.242L1.79 5.91a.44.44 0 0 0 .303-.304l.457-1.614ZM5 .122c.027-.092.16-.092.187 0l.351 1.217c.032.11.12.197.234.229l1.241.344a.094.094 0 0 1 0 .183l-1.241.344a.335.335 0 0 0-.234.229l-.351 1.217c-.027.092-.16.092-.186 0l-.352-1.217a.335.335 0 0 0-.233-.229l-1.242-.344a.094.094 0 0 1 0-.183l1.242-.344a.335.335 0 0 0 .233-.229L5.001.122ZM8.732 11.85c.026-.092.156-.092.182 0l.345 1.217c.031.11.118.197.229.229l1.217.344c.091.026.091.157 0 .183l-1.217.344a.332.332 0 0 0-.23.229l-.344 1.217c-.026.092-.156.092-.182 0l-.344-1.217a.332.332 0 0 0-.23-.229l-1.216-.344c-.092-.026-.092-.157 0-.183l1.217-.344a.332.332 0 0 0 .229-.229l.344-1.217Zm4.616-2.688c.033-.116.198-.116.231 0l.436 1.54c.04.14.15.25.29.29l1.54.435c.115.033.115.198 0 .23l-1.54.437a.42.42 0 0 0-.29.29l-.436 1.539c-.033.116-.198.116-.23 0l-.437-1.54a.42.42 0 0 0-.289-.29l-1.54-.435c-.116-.033-.116-.198 0-.231l1.54-.436a.42.42 0 0 0 .29-.29l.435-1.539ZM10.729.229c.066-.234.398-.234.465 0l.878 3.102c.08.282.3.503.583.583l3.102.878c.234.066.234.398 0 .465l-3.102.878a.845.845 0 0 0-.583.583l-.878 3.102c-.067.234-.399.234-.465 0L9.85 6.718a.845.845 0 0 0-.583-.583l-3.102-.878c-.234-.067-.234-.399 0-.465l3.102-.878c.282-.08.503-.3.583-.583l.878-3.102Z"/></svg>
