<svg version="1.1" xmlns="http://www.w3.org/2000/svg">
    <symbol id="arrow-left" viewBox="0 0 32 32">
        <g><path d="M21.3137085,7.41421356 L12.8284271,15.8994949 L21.3137085,24.3847763 C22.0947571,25.1658249 22.0947571,26.4321549 21.3137085,27.2132034 C20.5326599,27.994252 19.26633,27.994252 18.4852814,27.2132034 L8.58578644,17.3137085 C7.80473785,16.5326599 7.80473785,15.26633 8.58578644,14.4852814 L18.4852814,4.58578644 C19.26633,3.80473785 20.5326599,3.80473785 21.3137085,4.58578644 C22.0947571,5.36683502 22.0947571,6.63316498 21.3137085,7.41421356 Z"/></g>
    </symbol>

    <symbol id="arrow-right" viewBox="0 0 32 32">
        <g><path d="M10.5857864,24.3847763 L19.0710678,15.8994949 L10.5857864,7.41421356 C9.80473785,6.63316498 9.80473785,5.36683502 10.5857864,4.58578644 C11.366835,3.80473785 12.633165,3.80473785 13.4142136,4.58578644 L23.3137085,14.4852814 C24.0947571,15.26633 24.0947571,16.5326599 23.3137085,17.3137085 L13.4142136,27.2132034 C12.633165,27.994252 11.366835,27.994252 10.5857864,27.2132034 C9.80473785,26.4321549 9.80473785,25.1658249 10.5857864,24.3847763 Z"/></g>
    </symbol>

    <symbol id="close" viewBox="0 0 18 18">
        <g><path style="transform: translate(-3px, -3px);" d="M14.1213203,12 L19.7781746,17.6568542 C20.363961,18.2426407 20.363961,19.1923882 19.7781746,19.7781746 C19.1923882,20.363961 18.2426407,20.363961 17.6568542,19.7781746 L12,14.1213203 L6.34314575,19.7781746 C5.75735931,20.363961 4.80761184,20.363961 4.22182541,19.7781746 C3.63603897,19.1923882 3.63603897,18.2426407 4.22182541,17.6568542 L9.87867966,12 L4.22182541,6.34314575 C3.63603897,5.75735931 3.63603897,4.80761184 4.22182541,4.22182541 C4.80761184,3.63603897 5.75735931,3.63603897 6.34314575,4.22182541 L12,9.87867966 L17.6568542,4.22182541 C18.2426407,3.63603897 19.1923882,3.63603897 19.7781746,4.22182541 C20.363961,4.80761184 20.363961,5.75735931 19.7781746,6.34314575 L14.1213203,12 Z"/></g>
    </symbol>
</svg>