<svg width="48" height="48" viewBox="0 0 48 48" fill="none" xmlns="http://www.w3.org/2000/svg">
<path fill-rule="evenodd" clip-rule="evenodd" d="M16.5603 1.17541C17.2927 0.936828 18.069 1.35081 18.3217 2.07849L18.3705 2.21888C18.6484 3.01925 19.491 3.46759 20.3254 3.32034C20.5781 3.27573 20.8324 3.23564 21.0882 3.20017C21.9268 3.08384 22.5894 2.39746 22.6058 1.55094L22.6086 1.40357C22.6235 0.633396 23.2297 0 24 0C24.7703 0 25.3765 0.633418 25.3914 1.40362L25.3943 1.55094C25.4107 2.39746 26.0732 3.08384 26.9119 3.20017C27.1676 3.23565 27.4219 3.27574 27.6747 3.32034C28.5091 3.4676 29.3516 3.01926 29.6296 2.21889L29.6783 2.0785C29.9311 1.35082 30.7073 0.936841 31.4398 1.17542C32.1724 1.41408 32.5481 2.20314 32.3236 2.94028L32.2805 3.08188C32.0337 3.89231 32.4507 4.75078 33.2118 5.12287C33.4418 5.23536 33.6696 5.35193 33.8948 5.47249C34.6413 5.87201 35.581 5.70728 36.0927 5.03265L36.1818 4.91524C36.6473 4.3014 37.5114 4.14688 38.1337 4.60106C38.7553 5.05474 38.8706 5.92208 38.4295 6.55275L38.3439 6.67521C37.8585 7.3694 37.9891 8.31468 38.598 8.90359C38.7795 9.07916 38.9579 9.25798 39.133 9.43995C39.7204 10.0503 40.6654 10.1833 41.3607 9.69956L41.484 9.61379C42.1154 9.17458 42.982 9.29188 43.4338 9.91427C43.8863 10.5374 43.7297 11.4006 43.115 11.8644L42.9968 11.9535C42.3209 12.4635 42.1538 13.4028 42.5515 14.1503C42.6689 14.3708 42.7824 14.5937 42.892 14.8189C43.2629 15.5805 44.1207 15.9988 44.9314 15.7532L45.0749 15.7097C45.8113 15.4867 46.5987 15.863 46.8359 16.595C47.073 17.3267 46.6584 18.1012 45.9314 18.3524L45.7891 18.4016C44.9883 18.6782 44.5387 19.5201 44.6847 20.3546C44.7274 20.5984 44.7659 20.8437 44.8001 21.0903C44.9163 21.9289 45.6027 22.5915 46.4492 22.6078L46.5984 22.6107C47.3675 22.6255 48 23.2308 48 24C48 24.7687 47.368 25.3735 46.5994 25.3883L46.4492 25.3912C45.6027 25.4075 44.9164 26.0701 44.8002 26.9087C44.766 27.1553 44.7275 27.4006 44.6849 27.6444C44.5388 28.479 44.9885 29.3209 45.7893 29.5975L45.9317 29.6467C46.6587 29.8979 47.0732 30.6724 46.8362 31.4041C46.599 32.1361 45.8116 32.5124 45.0752 32.2894L44.9318 32.2459C44.121 32.0003 43.2632 32.4186 42.8924 33.1803C42.7827 33.4055 42.6692 33.6284 42.5519 33.849C42.1542 34.5965 42.3213 35.5358 42.9972 36.0458L43.1155 36.135C43.7301 36.5988 43.8867 37.462 43.4343 38.0851C42.9825 38.7075 42.1159 38.8248 41.4845 38.3856L41.3612 38.2998C40.6658 37.8161 39.7208 37.9491 39.1335 38.5594C38.9583 38.7414 38.7799 38.9203 38.5984 39.0959C37.9895 39.6848 37.8588 40.6302 38.3443 41.3244L38.43 41.4469C38.871 42.0776 38.7558 42.9449 38.1342 43.3986C37.5119 43.8528 36.6478 43.6983 36.1823 43.0844L36.0932 42.967C35.5815 42.2923 34.6418 42.1276 33.8952 42.5272C33.6699 42.6477 33.4422 42.7643 33.212 42.8768C32.4509 43.249 32.0339 44.1075 32.2807 44.9179L32.3239 45.0597C32.5484 45.7968 32.1727 46.5858 31.4401 46.8245C30.7076 47.0631 29.9314 46.6491 29.6787 45.9214L29.6299 45.781C29.3519 44.9806 28.5093 44.5322 27.6749 44.6795C27.4221 44.7241 27.1677 44.7642 26.9119 44.7997C26.0732 44.916 25.4106 45.6024 25.3943 46.449L25.3914 46.5964C25.3765 47.3666 24.7703 48 24 48C23.2297 48 22.6235 47.3666 22.6086 46.5964L22.6058 46.449C22.5894 45.6024 21.9268 44.916 21.0881 44.7997C20.8323 44.7642 20.578 44.7241 20.3252 44.6795C19.4908 44.5322 18.6482 44.9806 18.3702 45.781L18.3214 45.9214C18.0687 46.6491 17.2924 47.0631 16.56 46.8245C15.8273 46.5858 15.4517 45.7968 15.6762 45.0597L15.7193 44.918C15.9661 44.1075 15.5491 43.249 14.788 42.8769C14.5579 42.7643 14.3301 42.6478 14.1048 42.5272C13.3583 42.1276 12.4185 42.2923 11.9069 42.967L11.8178 43.0844C11.3522 43.6983 10.4881 43.8528 9.86584 43.3986C9.24425 42.9449 9.12902 42.0776 9.57003 41.447L9.65573 41.3244C10.1412 40.6302 10.0105 39.6849 9.40165 39.0959C9.2201 38.9203 9.04171 38.7415 8.86657 38.5595C8.27919 37.9491 7.33421 37.8161 6.63882 38.2998L6.5155 38.3856C5.8841 38.8248 5.01755 38.7075 4.56568 38.0851C4.1133 37.462 4.26988 36.5988 4.88455 36.135L5.00282 36.0458C5.67875 35.5358 5.84584 34.5965 5.44815 33.849C5.3308 33.6284 5.21727 33.4055 5.10765 33.1803C4.73683 32.4186 3.87901 32.0003 3.06824 32.2459L2.92476 32.2894C2.18836 32.5125 1.40101 32.1361 1.16384 31.4041C0.926767 30.6724 1.34134 29.8979 2.06835 29.6467L2.21069 29.5976C3.0115 29.3209 3.46115 28.479 3.31512 27.6444C3.27246 27.4006 3.234 27.1553 3.19982 26.9087C3.08362 26.0701 2.39726 25.4075 1.55077 25.3912L1.40057 25.3883C0.632041 25.3735 0 24.7687 0 24C0 23.2308 0.632515 22.6255 1.4016 22.6107L1.55083 22.6078C2.39732 22.5915 3.0837 21.9289 3.19994 21.0903C3.23412 20.8437 3.27259 20.5984 3.31526 20.3546C3.46132 19.5201 3.01169 18.6782 2.2109 18.4015L2.06864 18.3524C1.3416 18.1012 0.927032 17.3267 1.16415 16.5949C1.40133 15.863 2.18867 15.4867 2.92506 15.7097L3.06856 15.7532C3.87932 15.9988 4.73714 15.5805 5.10798 14.8188C5.2176 14.5937 5.33113 14.3708 5.44848 14.1502C5.84618 13.4027 5.67911 12.4635 5.00321 11.9535L4.88501 11.8643C4.27032 11.4006 4.11376 10.5373 4.56617 9.91424C5.01805 9.29186 5.88459 9.17456 6.51599 9.61377L6.63929 9.69954C7.33467 10.1833 8.27962 10.0503 8.867 9.43993C9.04213 9.25796 9.2205 9.07913 9.40203 8.90356C10.0109 8.31466 10.1416 7.36937 9.65613 6.67519L9.57049 6.55273C9.12947 5.92206 9.24471 5.05472 9.86633 4.60104C10.4886 4.14686 11.3527 4.30137 11.8183 4.91522L11.9073 5.03263C12.419 5.70726 13.3587 5.872 14.1052 5.47247C14.3305 5.35191 14.5582 5.23534 14.7883 5.12285C15.5494 4.75076 15.9663 3.89229 15.7195 3.08186L15.6764 2.94026C15.452 2.20312 15.8276 1.41406 16.5603 1.17541ZM24 39.0001C32.2843 39.0001 39 32.2844 39 24.0001C39 15.7158 32.2843 9.00008 24 9.00008C15.7157 9.00008 9 15.7158 9 24.0001C9 32.2844 15.7157 39.0001 24 39.0001Z" fill="url(#paint0_linear)"/>
<path fill-rule="evenodd" clip-rule="evenodd" d="M16.5603 1.17541C17.2927 0.936828 18.069 1.35081 18.3217 2.07849L18.3705 2.21888C18.6484 3.01925 19.491 3.46759 20.3254 3.32034C20.5781 3.27573 20.8324 3.23564 21.0882 3.20017C21.9268 3.08384 22.5894 2.39746 22.6058 1.55094L22.6086 1.40357C22.6235 0.633396 23.2297 0 24 0C24.7703 0 25.3765 0.633418 25.3914 1.40362L25.3943 1.55094C25.4107 2.39746 26.0732 3.08384 26.9119 3.20017C27.1676 3.23565 27.4219 3.27574 27.6747 3.32034C28.5091 3.4676 29.3516 3.01926 29.6296 2.21889L29.6783 2.0785C29.9311 1.35082 30.7073 0.936841 31.4398 1.17542C32.1724 1.41408 32.5481 2.20314 32.3236 2.94028L32.2805 3.08188C32.0337 3.89231 32.4507 4.75078 33.2118 5.12287C33.4418 5.23536 33.6696 5.35193 33.8948 5.47249C34.6413 5.87201 35.581 5.70728 36.0927 5.03265L36.1818 4.91524C36.6473 4.3014 37.5114 4.14688 38.1337 4.60106C38.7553 5.05474 38.8706 5.92208 38.4295 6.55275L38.3439 6.67521C37.8585 7.3694 37.9891 8.31468 38.598 8.90359C38.7795 9.07916 38.9579 9.25798 39.133 9.43995C39.7204 10.0503 40.6654 10.1833 41.3607 9.69956L41.484 9.61379C42.1154 9.17458 42.982 9.29188 43.4338 9.91427C43.8863 10.5374 43.7297 11.4006 43.115 11.8644L42.9968 11.9535C42.3209 12.4635 42.1538 13.4028 42.5515 14.1503C42.6689 14.3708 42.7824 14.5937 42.892 14.8189C43.2629 15.5805 44.1207 15.9988 44.9314 15.7532L45.0749 15.7097C45.8113 15.4867 46.5987 15.863 46.8359 16.595C47.073 17.3267 46.6584 18.1012 45.9314 18.3524L45.7891 18.4016C44.9883 18.6782 44.5387 19.5201 44.6847 20.3546C44.7274 20.5984 44.7659 20.8437 44.8001 21.0903C44.9163 21.9289 45.6027 22.5915 46.4492 22.6078L46.5984 22.6107C47.3675 22.6255 48 23.2308 48 24C48 24.7687 47.368 25.3735 46.5994 25.3883L46.4492 25.3912C45.6027 25.4075 44.9164 26.0701 44.8002 26.9087C44.766 27.1553 44.7275 27.4006 44.6849 27.6444C44.5388 28.479 44.9885 29.3209 45.7893 29.5975L45.9317 29.6467C46.6587 29.8979 47.0732 30.6724 46.8362 31.4041C46.599 32.1361 45.8116 32.5124 45.0752 32.2894L44.9318 32.2459C44.121 32.0003 43.2632 32.4186 42.8924 33.1803C42.7827 33.4055 42.6692 33.6284 42.5519 33.849C42.1542 34.5965 42.3213 35.5358 42.9972 36.0458L43.1155 36.135C43.7301 36.5988 43.8867 37.462 43.4343 38.0851C42.9825 38.7075 42.1159 38.8248 41.4845 38.3856L41.3612 38.2998C40.6658 37.8161 39.7208 37.9491 39.1335 38.5594C38.9583 38.7414 38.7799 38.9203 38.5984 39.0959C37.9895 39.6848 37.8588 40.6302 38.3443 41.3244L38.43 41.4469C38.871 42.0776 38.7558 42.9449 38.1342 43.3986C37.5119 43.8528 36.6478 43.6983 36.1823 43.0844L36.0932 42.967C35.5815 42.2923 34.6418 42.1276 33.8952 42.5272C33.6699 42.6477 33.4422 42.7643 33.212 42.8768C32.4509 43.249 32.0339 44.1075 32.2807 44.9179L32.3239 45.0597C32.5484 45.7968 32.1727 46.5858 31.4401 46.8245C30.7076 47.0631 29.9314 46.6491 29.6787 45.9214L29.6299 45.781C29.3519 44.9806 28.5093 44.5322 27.6749 44.6795C27.4221 44.7241 27.1677 44.7642 26.9119 44.7997C26.0732 44.916 25.4106 45.6024 25.3943 46.449L25.3914 46.5964C25.3765 47.3666 24.7703 48 24 48C23.2297 48 22.6235 47.3666 22.6086 46.5964L22.6058 46.449C22.5894 45.6024 21.9268 44.916 21.0881 44.7997C20.8323 44.7642 20.578 44.7241 20.3252 44.6795C19.4908 44.5322 18.6482 44.9806 18.3702 45.781L18.3214 45.9214C18.0687 46.6491 17.2924 47.0631 16.56 46.8245C15.8273 46.5858 15.4517 45.7968 15.6762 45.0597L15.7193 44.918C15.9661 44.1075 15.5491 43.249 14.788 42.8769C14.5579 42.7643 14.3301 42.6478 14.1048 42.5272C13.3583 42.1276 12.4185 42.2923 11.9069 42.967L11.8178 43.0844C11.3522 43.6983 10.4881 43.8528 9.86584 43.3986C9.24425 42.9449 9.12902 42.0776 9.57003 41.447L9.65573 41.3244C10.1412 40.6302 10.0105 39.6849 9.40165 39.0959C9.2201 38.9203 9.04171 38.7415 8.86657 38.5595C8.27919 37.9491 7.33421 37.8161 6.63882 38.2998L6.5155 38.3856C5.8841 38.8248 5.01755 38.7075 4.56568 38.0851C4.1133 37.462 4.26988 36.5988 4.88455 36.135L5.00282 36.0458C5.67875 35.5358 5.84584 34.5965 5.44815 33.849C5.3308 33.6284 5.21727 33.4055 5.10765 33.1803C4.73683 32.4186 3.87901 32.0003 3.06824 32.2459L2.92476 32.2894C2.18836 32.5125 1.40101 32.1361 1.16384 31.4041C0.926767 30.6724 1.34134 29.8979 2.06835 29.6467L2.21069 29.5976C3.0115 29.3209 3.46115 28.479 3.31512 27.6444C3.27246 27.4006 3.234 27.1553 3.19982 26.9087C3.08362 26.0701 2.39726 25.4075 1.55077 25.3912L1.40057 25.3883C0.632041 25.3735 0 24.7687 0 24C0 23.2308 0.632515 22.6255 1.4016 22.6107L1.55083 22.6078C2.39732 22.5915 3.0837 21.9289 3.19994 21.0903C3.23412 20.8437 3.27259 20.5984 3.31526 20.3546C3.46132 19.5201 3.01169 18.6782 2.2109 18.4015L2.06864 18.3524C1.3416 18.1012 0.927032 17.3267 1.16415 16.5949C1.40133 15.863 2.18867 15.4867 2.92506 15.7097L3.06856 15.7532C3.87932 15.9988 4.73714 15.5805 5.10798 14.8188C5.2176 14.5937 5.33113 14.3708 5.44848 14.1502C5.84618 13.4027 5.67911 12.4635 5.00321 11.9535L4.88501 11.8643C4.27032 11.4006 4.11376 10.5373 4.56617 9.91424C5.01805 9.29186 5.88459 9.17456 6.51599 9.61377L6.63929 9.69954C7.33467 10.1833 8.27962 10.0503 8.867 9.43993C9.04213 9.25796 9.2205 9.07913 9.40203 8.90356C10.0109 8.31466 10.1416 7.36937 9.65613 6.67519L9.57049 6.55273C9.12947 5.92206 9.24471 5.05472 9.86633 4.60104C10.4886 4.14686 11.3527 4.30137 11.8183 4.91522L11.9073 5.03263C12.419 5.70726 13.3587 5.872 14.1052 5.47247C14.3305 5.35191 14.5582 5.23534 14.7883 5.12285C15.5494 4.75076 15.9663 3.89229 15.7195 3.08186L15.6764 2.94026C15.452 2.20312 15.8276 1.41406 16.5603 1.17541ZM24 39.0001C32.2843 39.0001 39 32.2844 39 24.0001C39 15.7158 32.2843 9.00008 24 9.00008C15.7157 9.00008 9 15.7158 9 24.0001C9 32.2844 15.7157 39.0001 24 39.0001Z" fill="url(#paint1_radial)"/>
<path fill-rule="evenodd" clip-rule="evenodd" d="M16.5603 1.17541C17.2927 0.936828 18.069 1.35081 18.3217 2.07849L18.3705 2.21888C18.6484 3.01925 19.491 3.46759 20.3254 3.32034C20.5781 3.27573 20.8324 3.23564 21.0882 3.20017C21.9268 3.08384 22.5894 2.39746 22.6058 1.55094L22.6086 1.40357C22.6235 0.633396 23.2297 0 24 0C24.7703 0 25.3765 0.633418 25.3914 1.40362L25.3943 1.55094C25.4107 2.39746 26.0732 3.08384 26.9119 3.20017C27.1676 3.23565 27.4219 3.27574 27.6747 3.32034C28.5091 3.4676 29.3516 3.01926 29.6296 2.21889L29.6783 2.0785C29.9311 1.35082 30.7073 0.936841 31.4398 1.17542C32.1724 1.41408 32.5481 2.20314 32.3236 2.94028L32.2805 3.08188C32.0337 3.89231 32.4507 4.75078 33.2118 5.12287C33.4418 5.23536 33.6696 5.35193 33.8948 5.47249C34.6413 5.87201 35.581 5.70728 36.0927 5.03265L36.1818 4.91524C36.6473 4.3014 37.5114 4.14688 38.1337 4.60106C38.7553 5.05474 38.8706 5.92208 38.4295 6.55275L38.3439 6.67521C37.8585 7.3694 37.9891 8.31468 38.598 8.90359C38.7795 9.07916 38.9579 9.25798 39.133 9.43995C39.7204 10.0503 40.6654 10.1833 41.3607 9.69956L41.484 9.61379C42.1154 9.17458 42.982 9.29188 43.4338 9.91427C43.8863 10.5374 43.7297 11.4006 43.115 11.8644L42.9968 11.9535C42.3209 12.4635 42.1538 13.4028 42.5515 14.1503C42.6689 14.3708 42.7824 14.5937 42.892 14.8189C43.2629 15.5805 44.1207 15.9988 44.9314 15.7532L45.0749 15.7097C45.8113 15.4867 46.5987 15.863 46.8359 16.595C47.073 17.3267 46.6584 18.1012 45.9314 18.3524L45.7891 18.4016C44.9883 18.6782 44.5387 19.5201 44.6847 20.3546C44.7274 20.5984 44.7659 20.8437 44.8001 21.0903C44.9163 21.9289 45.6027 22.5915 46.4492 22.6078L46.5984 22.6107C47.3675 22.6255 48 23.2308 48 24C48 24.7687 47.368 25.3735 46.5994 25.3883L46.4492 25.3912C45.6027 25.4075 44.9164 26.0701 44.8002 26.9087C44.766 27.1553 44.7275 27.4006 44.6849 27.6444C44.5388 28.479 44.9885 29.3209 45.7893 29.5975L45.9317 29.6467C46.6587 29.8979 47.0732 30.6724 46.8362 31.4041C46.599 32.1361 45.8116 32.5124 45.0752 32.2894L44.9318 32.2459C44.121 32.0003 43.2632 32.4186 42.8924 33.1803C42.7827 33.4055 42.6692 33.6284 42.5519 33.849C42.1542 34.5965 42.3213 35.5358 42.9972 36.0458L43.1155 36.135C43.7301 36.5988 43.8867 37.462 43.4343 38.0851C42.9825 38.7075 42.1159 38.8248 41.4845 38.3856L41.3612 38.2998C40.6658 37.8161 39.7208 37.9491 39.1335 38.5594C38.9583 38.7414 38.7799 38.9203 38.5984 39.0959C37.9895 39.6848 37.8588 40.6302 38.3443 41.3244L38.43 41.4469C38.871 42.0776 38.7558 42.9449 38.1342 43.3986C37.5119 43.8528 36.6478 43.6983 36.1823 43.0844L36.0932 42.967C35.5815 42.2923 34.6418 42.1276 33.8952 42.5272C33.6699 42.6477 33.4422 42.7643 33.212 42.8768C32.4509 43.249 32.0339 44.1075 32.2807 44.9179L32.3239 45.0597C32.5484 45.7968 32.1727 46.5858 31.4401 46.8245C30.7076 47.0631 29.9314 46.6491 29.6787 45.9214L29.6299 45.781C29.3519 44.9806 28.5093 44.5322 27.6749 44.6795C27.4221 44.7241 27.1677 44.7642 26.9119 44.7997C26.0732 44.916 25.4106 45.6024 25.3943 46.449L25.3914 46.5964C25.3765 47.3666 24.7703 48 24 48C23.2297 48 22.6235 47.3666 22.6086 46.5964L22.6058 46.449C22.5894 45.6024 21.9268 44.916 21.0881 44.7997C20.8323 44.7642 20.578 44.7241 20.3252 44.6795C19.4908 44.5322 18.6482 44.9806 18.3702 45.781L18.3214 45.9214C18.0687 46.6491 17.2924 47.0631 16.56 46.8245C15.8273 46.5858 15.4517 45.7968 15.6762 45.0597L15.7193 44.918C15.9661 44.1075 15.5491 43.249 14.788 42.8769C14.5579 42.7643 14.3301 42.6478 14.1048 42.5272C13.3583 42.1276 12.4185 42.2923 11.9069 42.967L11.8178 43.0844C11.3522 43.6983 10.4881 43.8528 9.86584 43.3986C9.24425 42.9449 9.12902 42.0776 9.57003 41.447L9.65573 41.3244C10.1412 40.6302 10.0105 39.6849 9.40165 39.0959C9.2201 38.9203 9.04171 38.7415 8.86657 38.5595C8.27919 37.9491 7.33421 37.8161 6.63882 38.2998L6.5155 38.3856C5.8841 38.8248 5.01755 38.7075 4.56568 38.0851C4.1133 37.462 4.26988 36.5988 4.88455 36.135L5.00282 36.0458C5.67875 35.5358 5.84584 34.5965 5.44815 33.849C5.3308 33.6284 5.21727 33.4055 5.10765 33.1803C4.73683 32.4186 3.87901 32.0003 3.06824 32.2459L2.92476 32.2894C2.18836 32.5125 1.40101 32.1361 1.16384 31.4041C0.926767 30.6724 1.34134 29.8979 2.06835 29.6467L2.21069 29.5976C3.0115 29.3209 3.46115 28.479 3.31512 27.6444C3.27246 27.4006 3.234 27.1553 3.19982 26.9087C3.08362 26.0701 2.39726 25.4075 1.55077 25.3912L1.40057 25.3883C0.632041 25.3735 0 24.7687 0 24C0 23.2308 0.632515 22.6255 1.4016 22.6107L1.55083 22.6078C2.39732 22.5915 3.0837 21.9289 3.19994 21.0903C3.23412 20.8437 3.27259 20.5984 3.31526 20.3546C3.46132 19.5201 3.01169 18.6782 2.2109 18.4015L2.06864 18.3524C1.3416 18.1012 0.927032 17.3267 1.16415 16.5949C1.40133 15.863 2.18867 15.4867 2.92506 15.7097L3.06856 15.7532C3.87932 15.9988 4.73714 15.5805 5.10798 14.8188C5.2176 14.5937 5.33113 14.3708 5.44848 14.1502C5.84618 13.4027 5.67911 12.4635 5.00321 11.9535L4.88501 11.8643C4.27032 11.4006 4.11376 10.5373 4.56617 9.91424C5.01805 9.29186 5.88459 9.17456 6.51599 9.61377L6.63929 9.69954C7.33467 10.1833 8.27962 10.0503 8.867 9.43993C9.04213 9.25796 9.2205 9.07913 9.40203 8.90356C10.0109 8.31466 10.1416 7.36937 9.65613 6.67519L9.57049 6.55273C9.12947 5.92206 9.24471 5.05472 9.86633 4.60104C10.4886 4.14686 11.3527 4.30137 11.8183 4.91522L11.9073 5.03263C12.419 5.70726 13.3587 5.872 14.1052 5.47247C14.3305 5.35191 14.5582 5.23534 14.7883 5.12285C15.5494 4.75076 15.9663 3.89229 15.7195 3.08186L15.6764 2.94026C15.452 2.20312 15.8276 1.41406 16.5603 1.17541ZM24 39.0001C32.2843 39.0001 39 32.2844 39 24.0001C39 15.7158 32.2843 9.00008 24 9.00008C15.7157 9.00008 9 15.7158 9 24.0001C9 32.2844 15.7157 39.0001 24 39.0001Z" fill="url(#paint2_radial)"/>
<path fill-rule="evenodd" clip-rule="evenodd" d="M16.5603 1.17541C17.2927 0.936828 18.069 1.35081 18.3217 2.07849L18.3705 2.21888C18.6484 3.01925 19.491 3.46759 20.3254 3.32034C20.5781 3.27573 20.8324 3.23564 21.0882 3.20017C21.9268 3.08384 22.5894 2.39746 22.6058 1.55094L22.6086 1.40357C22.6235 0.633396 23.2297 0 24 0C24.7703 0 25.3765 0.633418 25.3914 1.40362L25.3943 1.55094C25.4107 2.39746 26.0732 3.08384 26.9119 3.20017C27.1676 3.23565 27.4219 3.27574 27.6747 3.32034C28.5091 3.4676 29.3516 3.01926 29.6296 2.21889L29.6783 2.0785C29.9311 1.35082 30.7073 0.936841 31.4398 1.17542C32.1724 1.41408 32.5481 2.20314 32.3236 2.94028L32.2805 3.08188C32.0337 3.89231 32.4507 4.75078 33.2118 5.12287C33.4418 5.23536 33.6696 5.35193 33.8948 5.47249C34.6413 5.87201 35.581 5.70728 36.0927 5.03265L36.1818 4.91524C36.6473 4.3014 37.5114 4.14688 38.1337 4.60106C38.7553 5.05474 38.8706 5.92208 38.4295 6.55275L38.3439 6.67521C37.8585 7.3694 37.9891 8.31468 38.598 8.90359C38.7795 9.07916 38.9579 9.25798 39.133 9.43995C39.7204 10.0503 40.6654 10.1833 41.3607 9.69956L41.484 9.61379C42.1154 9.17458 42.982 9.29188 43.4338 9.91427C43.8863 10.5374 43.7297 11.4006 43.115 11.8644L42.9968 11.9535C42.3209 12.4635 42.1538 13.4028 42.5515 14.1503C42.6689 14.3708 42.7824 14.5937 42.892 14.8189C43.2629 15.5805 44.1207 15.9988 44.9314 15.7532L45.0749 15.7097C45.8113 15.4867 46.5987 15.863 46.8359 16.595C47.073 17.3267 46.6584 18.1012 45.9314 18.3524L45.7891 18.4016C44.9883 18.6782 44.5387 19.5201 44.6847 20.3546C44.7274 20.5984 44.7659 20.8437 44.8001 21.0903C44.9163 21.9289 45.6027 22.5915 46.4492 22.6078L46.5984 22.6107C47.3675 22.6255 48 23.2308 48 24C48 24.7687 47.368 25.3735 46.5994 25.3883L46.4492 25.3912C45.6027 25.4075 44.9164 26.0701 44.8002 26.9087C44.766 27.1553 44.7275 27.4006 44.6849 27.6444C44.5388 28.479 44.9885 29.3209 45.7893 29.5975L45.9317 29.6467C46.6587 29.8979 47.0732 30.6724 46.8362 31.4041C46.599 32.1361 45.8116 32.5124 45.0752 32.2894L44.9318 32.2459C44.121 32.0003 43.2632 32.4186 42.8924 33.1803C42.7827 33.4055 42.6692 33.6284 42.5519 33.849C42.1542 34.5965 42.3213 35.5358 42.9972 36.0458L43.1155 36.135C43.7301 36.5988 43.8867 37.462 43.4343 38.0851C42.9825 38.7075 42.1159 38.8248 41.4845 38.3856L41.3612 38.2998C40.6658 37.8161 39.7208 37.9491 39.1335 38.5594C38.9583 38.7414 38.7799 38.9203 38.5984 39.0959C37.9895 39.6848 37.8588 40.6302 38.3443 41.3244L38.43 41.4469C38.871 42.0776 38.7558 42.9449 38.1342 43.3986C37.5119 43.8528 36.6478 43.6983 36.1823 43.0844L36.0932 42.967C35.5815 42.2923 34.6418 42.1276 33.8952 42.5272C33.6699 42.6477 33.4422 42.7643 33.212 42.8768C32.4509 43.249 32.0339 44.1075 32.2807 44.9179L32.3239 45.0597C32.5484 45.7968 32.1727 46.5858 31.4401 46.8245C30.7076 47.0631 29.9314 46.6491 29.6787 45.9214L29.6299 45.781C29.3519 44.9806 28.5093 44.5322 27.6749 44.6795C27.4221 44.7241 27.1677 44.7642 26.9119 44.7997C26.0732 44.916 25.4106 45.6024 25.3943 46.449L25.3914 46.5964C25.3765 47.3666 24.7703 48 24 48C23.2297 48 22.6235 47.3666 22.6086 46.5964L22.6058 46.449C22.5894 45.6024 21.9268 44.916 21.0881 44.7997C20.8323 44.7642 20.578 44.7241 20.3252 44.6795C19.4908 44.5322 18.6482 44.9806 18.3702 45.781L18.3214 45.9214C18.0687 46.6491 17.2924 47.0631 16.56 46.8245C15.8273 46.5858 15.4517 45.7968 15.6762 45.0597L15.7193 44.918C15.9661 44.1075 15.5491 43.249 14.788 42.8769C14.5579 42.7643 14.3301 42.6478 14.1048 42.5272C13.3583 42.1276 12.4185 42.2923 11.9069 42.967L11.8178 43.0844C11.3522 43.6983 10.4881 43.8528 9.86584 43.3986C9.24425 42.9449 9.12902 42.0776 9.57003 41.447L9.65573 41.3244C10.1412 40.6302 10.0105 39.6849 9.40165 39.0959C9.2201 38.9203 9.04171 38.7415 8.86657 38.5595C8.27919 37.9491 7.33421 37.8161 6.63882 38.2998L6.5155 38.3856C5.8841 38.8248 5.01755 38.7075 4.56568 38.0851C4.1133 37.462 4.26988 36.5988 4.88455 36.135L5.00282 36.0458C5.67875 35.5358 5.84584 34.5965 5.44815 33.849C5.3308 33.6284 5.21727 33.4055 5.10765 33.1803C4.73683 32.4186 3.87901 32.0003 3.06824 32.2459L2.92476 32.2894C2.18836 32.5125 1.40101 32.1361 1.16384 31.4041C0.926767 30.6724 1.34134 29.8979 2.06835 29.6467L2.21069 29.5976C3.0115 29.3209 3.46115 28.479 3.31512 27.6444C3.27246 27.4006 3.234 27.1553 3.19982 26.9087C3.08362 26.0701 2.39726 25.4075 1.55077 25.3912L1.40057 25.3883C0.632041 25.3735 0 24.7687 0 24C0 23.2308 0.632515 22.6255 1.4016 22.6107L1.55083 22.6078C2.39732 22.5915 3.0837 21.9289 3.19994 21.0903C3.23412 20.8437 3.27259 20.5984 3.31526 20.3546C3.46132 19.5201 3.01169 18.6782 2.2109 18.4015L2.06864 18.3524C1.3416 18.1012 0.927032 17.3267 1.16415 16.5949C1.40133 15.863 2.18867 15.4867 2.92506 15.7097L3.06856 15.7532C3.87932 15.9988 4.73714 15.5805 5.10798 14.8188C5.2176 14.5937 5.33113 14.3708 5.44848 14.1502C5.84618 13.4027 5.67911 12.4635 5.00321 11.9535L4.88501 11.8643C4.27032 11.4006 4.11376 10.5373 4.56617 9.91424C5.01805 9.29186 5.88459 9.17456 6.51599 9.61377L6.63929 9.69954C7.33467 10.1833 8.27962 10.0503 8.867 9.43993C9.04213 9.25796 9.2205 9.07913 9.40203 8.90356C10.0109 8.31466 10.1416 7.36937 9.65613 6.67519L9.57049 6.55273C9.12947 5.92206 9.24471 5.05472 9.86633 4.60104C10.4886 4.14686 11.3527 4.30137 11.8183 4.91522L11.9073 5.03263C12.419 5.70726 13.3587 5.872 14.1052 5.47247C14.3305 5.35191 14.5582 5.23534 14.7883 5.12285C15.5494 4.75076 15.9663 3.89229 15.7195 3.08186L15.6764 2.94026C15.452 2.20312 15.8276 1.41406 16.5603 1.17541ZM24 39.0001C32.2843 39.0001 39 32.2844 39 24.0001C39 15.7158 32.2843 9.00008 24 9.00008C15.7157 9.00008 9 15.7158 9 24.0001C9 32.2844 15.7157 39.0001 24 39.0001Z" fill="url(#paint3_radial)"/>
<path fill-rule="evenodd" clip-rule="evenodd" d="M16.5603 1.17541C17.2927 0.936828 18.069 1.35081 18.3217 2.07849L18.3705 2.21888C18.6484 3.01925 19.491 3.46759 20.3254 3.32034C20.5781 3.27573 20.8324 3.23564 21.0882 3.20017C21.9268 3.08384 22.5894 2.39746 22.6058 1.55094L22.6086 1.40357C22.6235 0.633396 23.2297 0 24 0C24.7703 0 25.3765 0.633418 25.3914 1.40362L25.3943 1.55094C25.4107 2.39746 26.0732 3.08384 26.9119 3.20017C27.1676 3.23565 27.4219 3.27574 27.6747 3.32034C28.5091 3.4676 29.3516 3.01926 29.6296 2.21889L29.6783 2.0785C29.9311 1.35082 30.7073 0.936841 31.4398 1.17542C32.1724 1.41408 32.5481 2.20314 32.3236 2.94028L32.2805 3.08188C32.0337 3.89231 32.4507 4.75078 33.2118 5.12287C33.4418 5.23536 33.6696 5.35193 33.8948 5.47249C34.6413 5.87201 35.581 5.70728 36.0927 5.03265L36.1818 4.91524C36.6473 4.3014 37.5114 4.14688 38.1337 4.60106C38.7553 5.05474 38.8706 5.92208 38.4295 6.55275L38.3439 6.67521C37.8585 7.3694 37.9891 8.31468 38.598 8.90359C38.7795 9.07916 38.9579 9.25798 39.133 9.43995C39.7204 10.0503 40.6654 10.1833 41.3607 9.69956L41.484 9.61379C42.1154 9.17458 42.982 9.29188 43.4338 9.91427C43.8863 10.5374 43.7297 11.4006 43.115 11.8644L42.9968 11.9535C42.3209 12.4635 42.1538 13.4028 42.5515 14.1503C42.6689 14.3708 42.7824 14.5937 42.892 14.8189C43.2629 15.5805 44.1207 15.9988 44.9314 15.7532L45.0749 15.7097C45.8113 15.4867 46.5987 15.863 46.8359 16.595C47.073 17.3267 46.6584 18.1012 45.9314 18.3524L45.7891 18.4016C44.9883 18.6782 44.5387 19.5201 44.6847 20.3546C44.7274 20.5984 44.7659 20.8437 44.8001 21.0903C44.9163 21.9289 45.6027 22.5915 46.4492 22.6078L46.5984 22.6107C47.3675 22.6255 48 23.2308 48 24C48 24.7687 47.368 25.3735 46.5994 25.3883L46.4492 25.3912C45.6027 25.4075 44.9164 26.0701 44.8002 26.9087C44.766 27.1553 44.7275 27.4006 44.6849 27.6444C44.5388 28.479 44.9885 29.3209 45.7893 29.5975L45.9317 29.6467C46.6587 29.8979 47.0732 30.6724 46.8362 31.4041C46.599 32.1361 45.8116 32.5124 45.0752 32.2894L44.9318 32.2459C44.121 32.0003 43.2632 32.4186 42.8924 33.1803C42.7827 33.4055 42.6692 33.6284 42.5519 33.849C42.1542 34.5965 42.3213 35.5358 42.9972 36.0458L43.1155 36.135C43.7301 36.5988 43.8867 37.462 43.4343 38.0851C42.9825 38.7075 42.1159 38.8248 41.4845 38.3856L41.3612 38.2998C40.6658 37.8161 39.7208 37.9491 39.1335 38.5594C38.9583 38.7414 38.7799 38.9203 38.5984 39.0959C37.9895 39.6848 37.8588 40.6302 38.3443 41.3244L38.43 41.4469C38.871 42.0776 38.7558 42.9449 38.1342 43.3986C37.5119 43.8528 36.6478 43.6983 36.1823 43.0844L36.0932 42.967C35.5815 42.2923 34.6418 42.1276 33.8952 42.5272C33.6699 42.6477 33.4422 42.7643 33.212 42.8768C32.4509 43.249 32.0339 44.1075 32.2807 44.9179L32.3239 45.0597C32.5484 45.7968 32.1727 46.5858 31.4401 46.8245C30.7076 47.0631 29.9314 46.6491 29.6787 45.9214L29.6299 45.781C29.3519 44.9806 28.5093 44.5322 27.6749 44.6795C27.4221 44.7241 27.1677 44.7642 26.9119 44.7997C26.0732 44.916 25.4106 45.6024 25.3943 46.449L25.3914 46.5964C25.3765 47.3666 24.7703 48 24 48C23.2297 48 22.6235 47.3666 22.6086 46.5964L22.6058 46.449C22.5894 45.6024 21.9268 44.916 21.0881 44.7997C20.8323 44.7642 20.578 44.7241 20.3252 44.6795C19.4908 44.5322 18.6482 44.9806 18.3702 45.781L18.3214 45.9214C18.0687 46.6491 17.2924 47.0631 16.56 46.8245C15.8273 46.5858 15.4517 45.7968 15.6762 45.0597L15.7193 44.918C15.9661 44.1075 15.5491 43.249 14.788 42.8769C14.5579 42.7643 14.3301 42.6478 14.1048 42.5272C13.3583 42.1276 12.4185 42.2923 11.9069 42.967L11.8178 43.0844C11.3522 43.6983 10.4881 43.8528 9.86584 43.3986C9.24425 42.9449 9.12902 42.0776 9.57003 41.447L9.65573 41.3244C10.1412 40.6302 10.0105 39.6849 9.40165 39.0959C9.2201 38.9203 9.04171 38.7415 8.86657 38.5595C8.27919 37.9491 7.33421 37.8161 6.63882 38.2998L6.5155 38.3856C5.8841 38.8248 5.01755 38.7075 4.56568 38.0851C4.1133 37.462 4.26988 36.5988 4.88455 36.135L5.00282 36.0458C5.67875 35.5358 5.84584 34.5965 5.44815 33.849C5.3308 33.6284 5.21727 33.4055 5.10765 33.1803C4.73683 32.4186 3.87901 32.0003 3.06824 32.2459L2.92476 32.2894C2.18836 32.5125 1.40101 32.1361 1.16384 31.4041C0.926767 30.6724 1.34134 29.8979 2.06835 29.6467L2.21069 29.5976C3.0115 29.3209 3.46115 28.479 3.31512 27.6444C3.27246 27.4006 3.234 27.1553 3.19982 26.9087C3.08362 26.0701 2.39726 25.4075 1.55077 25.3912L1.40057 25.3883C0.632041 25.3735 0 24.7687 0 24C0 23.2308 0.632515 22.6255 1.4016 22.6107L1.55083 22.6078C2.39732 22.5915 3.0837 21.9289 3.19994 21.0903C3.23412 20.8437 3.27259 20.5984 3.31526 20.3546C3.46132 19.5201 3.01169 18.6782 2.2109 18.4015L2.06864 18.3524C1.3416 18.1012 0.927032 17.3267 1.16415 16.5949C1.40133 15.863 2.18867 15.4867 2.92506 15.7097L3.06856 15.7532C3.87932 15.9988 4.73714 15.5805 5.10798 14.8188C5.2176 14.5937 5.33113 14.3708 5.44848 14.1502C5.84618 13.4027 5.67911 12.4635 5.00321 11.9535L4.88501 11.8643C4.27032 11.4006 4.11376 10.5373 4.56617 9.91424C5.01805 9.29186 5.88459 9.17456 6.51599 9.61377L6.63929 9.69954C7.33467 10.1833 8.27962 10.0503 8.867 9.43993C9.04213 9.25796 9.2205 9.07913 9.40203 8.90356C10.0109 8.31466 10.1416 7.36937 9.65613 6.67519L9.57049 6.55273C9.12947 5.92206 9.24471 5.05472 9.86633 4.60104C10.4886 4.14686 11.3527 4.30137 11.8183 4.91522L11.9073 5.03263C12.419 5.70726 13.3587 5.872 14.1052 5.47247C14.3305 5.35191 14.5582 5.23534 14.7883 5.12285C15.5494 4.75076 15.9663 3.89229 15.7195 3.08186L15.6764 2.94026C15.452 2.20312 15.8276 1.41406 16.5603 1.17541ZM24 39.0001C32.2843 39.0001 39 32.2844 39 24.0001C39 15.7158 32.2843 9.00008 24 9.00008C15.7157 9.00008 9 15.7158 9 24.0001C9 32.2844 15.7157 39.0001 24 39.0001Z" fill="url(#paint4_radial)"/>
<path fill-rule="evenodd" clip-rule="evenodd" d="M16.5603 1.17541C17.2927 0.936828 18.069 1.35081 18.3217 2.07849L18.3705 2.21888C18.6484 3.01925 19.491 3.46759 20.3254 3.32034C20.5781 3.27573 20.8324 3.23564 21.0882 3.20017C21.9268 3.08384 22.5894 2.39746 22.6058 1.55094L22.6086 1.40357C22.6235 0.633396 23.2297 0 24 0C24.7703 0 25.3765 0.633418 25.3914 1.40362L25.3943 1.55094C25.4107 2.39746 26.0732 3.08384 26.9119 3.20017C27.1676 3.23565 27.4219 3.27574 27.6747 3.32034C28.5091 3.4676 29.3516 3.01926 29.6296 2.21889L29.6783 2.0785C29.9311 1.35082 30.7073 0.936841 31.4398 1.17542C32.1724 1.41408 32.5481 2.20314 32.3236 2.94028L32.2805 3.08188C32.0337 3.89231 32.4507 4.75078 33.2118 5.12287C33.4418 5.23536 33.6696 5.35193 33.8948 5.47249C34.6413 5.87201 35.581 5.70728 36.0927 5.03265L36.1818 4.91524C36.6473 4.3014 37.5114 4.14688 38.1337 4.60106C38.7553 5.05474 38.8706 5.92208 38.4295 6.55275L38.3439 6.67521C37.8585 7.3694 37.9891 8.31468 38.598 8.90359C38.7795 9.07916 38.9579 9.25798 39.133 9.43995C39.7204 10.0503 40.6654 10.1833 41.3607 9.69956L41.484 9.61379C42.1154 9.17458 42.982 9.29188 43.4338 9.91427C43.8863 10.5374 43.7297 11.4006 43.115 11.8644L42.9968 11.9535C42.3209 12.4635 42.1538 13.4028 42.5515 14.1503C42.6689 14.3708 42.7824 14.5937 42.892 14.8189C43.2629 15.5805 44.1207 15.9988 44.9314 15.7532L45.0749 15.7097C45.8113 15.4867 46.5987 15.863 46.8359 16.595C47.073 17.3267 46.6584 18.1012 45.9314 18.3524L45.7891 18.4016C44.9883 18.6782 44.5387 19.5201 44.6847 20.3546C44.7274 20.5984 44.7659 20.8437 44.8001 21.0903C44.9163 21.9289 45.6027 22.5915 46.4492 22.6078L46.5984 22.6107C47.3675 22.6255 48 23.2308 48 24C48 24.7687 47.368 25.3735 46.5994 25.3883L46.4492 25.3912C45.6027 25.4075 44.9164 26.0701 44.8002 26.9087C44.766 27.1553 44.7275 27.4006 44.6849 27.6444C44.5388 28.479 44.9885 29.3209 45.7893 29.5975L45.9317 29.6467C46.6587 29.8979 47.0732 30.6724 46.8362 31.4041C46.599 32.1361 45.8116 32.5124 45.0752 32.2894L44.9318 32.2459C44.121 32.0003 43.2632 32.4186 42.8924 33.1803C42.7827 33.4055 42.6692 33.6284 42.5519 33.849C42.1542 34.5965 42.3213 35.5358 42.9972 36.0458L43.1155 36.135C43.7301 36.5988 43.8867 37.462 43.4343 38.0851C42.9825 38.7075 42.1159 38.8248 41.4845 38.3856L41.3612 38.2998C40.6658 37.8161 39.7208 37.9491 39.1335 38.5594C38.9583 38.7414 38.7799 38.9203 38.5984 39.0959C37.9895 39.6848 37.8588 40.6302 38.3443 41.3244L38.43 41.4469C38.871 42.0776 38.7558 42.9449 38.1342 43.3986C37.5119 43.8528 36.6478 43.6983 36.1823 43.0844L36.0932 42.967C35.5815 42.2923 34.6418 42.1276 33.8952 42.5272C33.6699 42.6477 33.4422 42.7643 33.212 42.8768C32.4509 43.249 32.0339 44.1075 32.2807 44.9179L32.3239 45.0597C32.5484 45.7968 32.1727 46.5858 31.4401 46.8245C30.7076 47.0631 29.9314 46.6491 29.6787 45.9214L29.6299 45.781C29.3519 44.9806 28.5093 44.5322 27.6749 44.6795C27.4221 44.7241 27.1677 44.7642 26.9119 44.7997C26.0732 44.916 25.4106 45.6024 25.3943 46.449L25.3914 46.5964C25.3765 47.3666 24.7703 48 24 48C23.2297 48 22.6235 47.3666 22.6086 46.5964L22.6058 46.449C22.5894 45.6024 21.9268 44.916 21.0881 44.7997C20.8323 44.7642 20.578 44.7241 20.3252 44.6795C19.4908 44.5322 18.6482 44.9806 18.3702 45.781L18.3214 45.9214C18.0687 46.6491 17.2924 47.0631 16.56 46.8245C15.8273 46.5858 15.4517 45.7968 15.6762 45.0597L15.7193 44.918C15.9661 44.1075 15.5491 43.249 14.788 42.8769C14.5579 42.7643 14.3301 42.6478 14.1048 42.5272C13.3583 42.1276 12.4185 42.2923 11.9069 42.967L11.8178 43.0844C11.3522 43.6983 10.4881 43.8528 9.86584 43.3986C9.24425 42.9449 9.12902 42.0776 9.57003 41.447L9.65573 41.3244C10.1412 40.6302 10.0105 39.6849 9.40165 39.0959C9.2201 38.9203 9.04171 38.7415 8.86657 38.5595C8.27919 37.9491 7.33421 37.8161 6.63882 38.2998L6.5155 38.3856C5.8841 38.8248 5.01755 38.7075 4.56568 38.0851C4.1133 37.462 4.26988 36.5988 4.88455 36.135L5.00282 36.0458C5.67875 35.5358 5.84584 34.5965 5.44815 33.849C5.3308 33.6284 5.21727 33.4055 5.10765 33.1803C4.73683 32.4186 3.87901 32.0003 3.06824 32.2459L2.92476 32.2894C2.18836 32.5125 1.40101 32.1361 1.16384 31.4041C0.926767 30.6724 1.34134 29.8979 2.06835 29.6467L2.21069 29.5976C3.0115 29.3209 3.46115 28.479 3.31512 27.6444C3.27246 27.4006 3.234 27.1553 3.19982 26.9087C3.08362 26.0701 2.39726 25.4075 1.55077 25.3912L1.40057 25.3883C0.632041 25.3735 0 24.7687 0 24C0 23.2308 0.632515 22.6255 1.4016 22.6107L1.55083 22.6078C2.39732 22.5915 3.0837 21.9289 3.19994 21.0903C3.23412 20.8437 3.27259 20.5984 3.31526 20.3546C3.46132 19.5201 3.01169 18.6782 2.2109 18.4015L2.06864 18.3524C1.3416 18.1012 0.927032 17.3267 1.16415 16.5949C1.40133 15.863 2.18867 15.4867 2.92506 15.7097L3.06856 15.7532C3.87932 15.9988 4.73714 15.5805 5.10798 14.8188C5.2176 14.5937 5.33113 14.3708 5.44848 14.1502C5.84618 13.4027 5.67911 12.4635 5.00321 11.9535L4.88501 11.8643C4.27032 11.4006 4.11376 10.5373 4.56617 9.91424C5.01805 9.29186 5.88459 9.17456 6.51599 9.61377L6.63929 9.69954C7.33467 10.1833 8.27962 10.0503 8.867 9.43993C9.04213 9.25796 9.2205 9.07913 9.40203 8.90356C10.0109 8.31466 10.1416 7.36937 9.65613 6.67519L9.57049 6.55273C9.12947 5.92206 9.24471 5.05472 9.86633 4.60104C10.4886 4.14686 11.3527 4.30137 11.8183 4.91522L11.9073 5.03263C12.419 5.70726 13.3587 5.872 14.1052 5.47247C14.3305 5.35191 14.5582 5.23534 14.7883 5.12285C15.5494 4.75076 15.9663 3.89229 15.7195 3.08186L15.6764 2.94026C15.452 2.20312 15.8276 1.41406 16.5603 1.17541ZM24 39.0001C32.2843 39.0001 39 32.2844 39 24.0001C39 15.7158 32.2843 9.00008 24 9.00008C15.7157 9.00008 9 15.7158 9 24.0001C9 32.2844 15.7157 39.0001 24 39.0001Z" fill="url(#paint5_radial)"/>
<path fill-rule="evenodd" clip-rule="evenodd" d="M16.5603 1.17541C17.2927 0.936828 18.069 1.35081 18.3217 2.07849L18.3705 2.21888C18.6484 3.01925 19.491 3.46759 20.3254 3.32034C20.5781 3.27573 20.8324 3.23564 21.0882 3.20017C21.9268 3.08384 22.5894 2.39746 22.6058 1.55094L22.6086 1.40357C22.6235 0.633396 23.2297 0 24 0C24.7703 0 25.3765 0.633418 25.3914 1.40362L25.3943 1.55094C25.4107 2.39746 26.0732 3.08384 26.9119 3.20017C27.1676 3.23565 27.4219 3.27574 27.6747 3.32034C28.5091 3.4676 29.3516 3.01926 29.6296 2.21889L29.6783 2.0785C29.9311 1.35082 30.7073 0.936841 31.4398 1.17542C32.1724 1.41408 32.5481 2.20314 32.3236 2.94028L32.2805 3.08188C32.0337 3.89231 32.4507 4.75078 33.2118 5.12287C33.4418 5.23536 33.6696 5.35193 33.8948 5.47249C34.6413 5.87201 35.581 5.70728 36.0927 5.03265L36.1818 4.91524C36.6473 4.3014 37.5114 4.14688 38.1337 4.60106C38.7553 5.05474 38.8706 5.92208 38.4295 6.55275L38.3439 6.67521C37.8585 7.3694 37.9891 8.31468 38.598 8.90359C38.7795 9.07916 38.9579 9.25798 39.133 9.43995C39.7204 10.0503 40.6654 10.1833 41.3607 9.69956L41.484 9.61379C42.1154 9.17458 42.982 9.29188 43.4338 9.91427C43.8863 10.5374 43.7297 11.4006 43.115 11.8644L42.9968 11.9535C42.3209 12.4635 42.1538 13.4028 42.5515 14.1503C42.6689 14.3708 42.7824 14.5937 42.892 14.8189C43.2629 15.5805 44.1207 15.9988 44.9314 15.7532L45.0749 15.7097C45.8113 15.4867 46.5987 15.863 46.8359 16.595C47.073 17.3267 46.6584 18.1012 45.9314 18.3524L45.7891 18.4016C44.9883 18.6782 44.5387 19.5201 44.6847 20.3546C44.7274 20.5984 44.7659 20.8437 44.8001 21.0903C44.9163 21.9289 45.6027 22.5915 46.4492 22.6078L46.5984 22.6107C47.3675 22.6255 48 23.2308 48 24C48 24.7687 47.368 25.3735 46.5994 25.3883L46.4492 25.3912C45.6027 25.4075 44.9164 26.0701 44.8002 26.9087C44.766 27.1553 44.7275 27.4006 44.6849 27.6444C44.5388 28.479 44.9885 29.3209 45.7893 29.5975L45.9317 29.6467C46.6587 29.8979 47.0732 30.6724 46.8362 31.4041C46.599 32.1361 45.8116 32.5124 45.0752 32.2894L44.9318 32.2459C44.121 32.0003 43.2632 32.4186 42.8924 33.1803C42.7827 33.4055 42.6692 33.6284 42.5519 33.849C42.1542 34.5965 42.3213 35.5358 42.9972 36.0458L43.1155 36.135C43.7301 36.5988 43.8867 37.462 43.4343 38.0851C42.9825 38.7075 42.1159 38.8248 41.4845 38.3856L41.3612 38.2998C40.6658 37.8161 39.7208 37.9491 39.1335 38.5594C38.9583 38.7414 38.7799 38.9203 38.5984 39.0959C37.9895 39.6848 37.8588 40.6302 38.3443 41.3244L38.43 41.4469C38.871 42.0776 38.7558 42.9449 38.1342 43.3986C37.5119 43.8528 36.6478 43.6983 36.1823 43.0844L36.0932 42.967C35.5815 42.2923 34.6418 42.1276 33.8952 42.5272C33.6699 42.6477 33.4422 42.7643 33.212 42.8768C32.4509 43.249 32.0339 44.1075 32.2807 44.9179L32.3239 45.0597C32.5484 45.7968 32.1727 46.5858 31.4401 46.8245C30.7076 47.0631 29.9314 46.6491 29.6787 45.9214L29.6299 45.781C29.3519 44.9806 28.5093 44.5322 27.6749 44.6795C27.4221 44.7241 27.1677 44.7642 26.9119 44.7997C26.0732 44.916 25.4106 45.6024 25.3943 46.449L25.3914 46.5964C25.3765 47.3666 24.7703 48 24 48C23.2297 48 22.6235 47.3666 22.6086 46.5964L22.6058 46.449C22.5894 45.6024 21.9268 44.916 21.0881 44.7997C20.8323 44.7642 20.578 44.7241 20.3252 44.6795C19.4908 44.5322 18.6482 44.9806 18.3702 45.781L18.3214 45.9214C18.0687 46.6491 17.2924 47.0631 16.56 46.8245C15.8273 46.5858 15.4517 45.7968 15.6762 45.0597L15.7193 44.918C15.9661 44.1075 15.5491 43.249 14.788 42.8769C14.5579 42.7643 14.3301 42.6478 14.1048 42.5272C13.3583 42.1276 12.4185 42.2923 11.9069 42.967L11.8178 43.0844C11.3522 43.6983 10.4881 43.8528 9.86584 43.3986C9.24425 42.9449 9.12902 42.0776 9.57003 41.447L9.65573 41.3244C10.1412 40.6302 10.0105 39.6849 9.40165 39.0959C9.2201 38.9203 9.04171 38.7415 8.86657 38.5595C8.27919 37.9491 7.33421 37.8161 6.63882 38.2998L6.5155 38.3856C5.8841 38.8248 5.01755 38.7075 4.56568 38.0851C4.1133 37.462 4.26988 36.5988 4.88455 36.135L5.00282 36.0458C5.67875 35.5358 5.84584 34.5965 5.44815 33.849C5.3308 33.6284 5.21727 33.4055 5.10765 33.1803C4.73683 32.4186 3.87901 32.0003 3.06824 32.2459L2.92476 32.2894C2.18836 32.5125 1.40101 32.1361 1.16384 31.4041C0.926767 30.6724 1.34134 29.8979 2.06835 29.6467L2.21069 29.5976C3.0115 29.3209 3.46115 28.479 3.31512 27.6444C3.27246 27.4006 3.234 27.1553 3.19982 26.9087C3.08362 26.0701 2.39726 25.4075 1.55077 25.3912L1.40057 25.3883C0.632041 25.3735 0 24.7687 0 24C0 23.2308 0.632515 22.6255 1.4016 22.6107L1.55083 22.6078C2.39732 22.5915 3.0837 21.9289 3.19994 21.0903C3.23412 20.8437 3.27259 20.5984 3.31526 20.3546C3.46132 19.5201 3.01169 18.6782 2.2109 18.4015L2.06864 18.3524C1.3416 18.1012 0.927032 17.3267 1.16415 16.5949C1.40133 15.863 2.18867 15.4867 2.92506 15.7097L3.06856 15.7532C3.87932 15.9988 4.73714 15.5805 5.10798 14.8188C5.2176 14.5937 5.33113 14.3708 5.44848 14.1502C5.84618 13.4027 5.67911 12.4635 5.00321 11.9535L4.88501 11.8643C4.27032 11.4006 4.11376 10.5373 4.56617 9.91424C5.01805 9.29186 5.88459 9.17456 6.51599 9.61377L6.63929 9.69954C7.33467 10.1833 8.27962 10.0503 8.867 9.43993C9.04213 9.25796 9.2205 9.07913 9.40203 8.90356C10.0109 8.31466 10.1416 7.36937 9.65613 6.67519L9.57049 6.55273C9.12947 5.92206 9.24471 5.05472 9.86633 4.60104C10.4886 4.14686 11.3527 4.30137 11.8183 4.91522L11.9073 5.03263C12.419 5.70726 13.3587 5.872 14.1052 5.47247C14.3305 5.35191 14.5582 5.23534 14.7883 5.12285C15.5494 4.75076 15.9663 3.89229 15.7195 3.08186L15.6764 2.94026C15.452 2.20312 15.8276 1.41406 16.5603 1.17541ZM24 39.0001C32.2843 39.0001 39 32.2844 39 24.0001C39 15.7158 32.2843 9.00008 24 9.00008C15.7157 9.00008 9 15.7158 9 24.0001C9 32.2844 15.7157 39.0001 24 39.0001Z" fill="url(#paint6_radial)"/>
<path fill-rule="evenodd" clip-rule="evenodd" d="M22.5153 7.06488C13.8217 7.81703 7 15.1123 7 24.0009C7 33.3898 14.6112 41.0009 24 41.0009C33.3888 41.0009 41 33.3898 41 24.0009C41 15.1124 34.1783 7.81707 25.4847 7.06489C25.4847 7.06489 24.6202 6.99999 24 7C23.3798 7.00001 22.5153 7.06488 22.5153 7.06488ZM14.9345 31.1939C13.3104 32.0412 12.813 34.1592 14.1992 35.3566C16.8279 37.6275 20.2536 39.0009 24 39.0009C27.7464 39.0009 31.1721 37.6275 33.8009 35.3566C35.187 34.1591 34.6896 32.0411 33.0656 31.1939L29.0249 29.0858C27.9752 28.5382 26.719 28.7362 25.5916 29.0981C25.0686 29.266 24.5109 29.3566 23.9321 29.3566C23.368 29.3566 22.8241 29.2706 22.3127 29.1108C21.1957 28.7619 19.955 28.5747 18.9175 29.1159L14.9345 31.1939ZM34.7788 28.2316C36.3256 29.2102 38.4061 28.579 38.7431 26.78C38.9118 25.8794 39 24.9505 39 24.0009C39 17.4508 34.8015 11.8812 28.9489 9.83652C27.2215 9.23304 25.6371 10.7217 25.7135 12.5499L25.8987 16.9819C25.9477 18.1548 26.7328 19.14 27.5979 19.9335C28.679 20.9251 29.3567 22.3494 29.3567 23.932C29.3567 24.4378 29.5699 24.9363 29.9973 25.2067L34.7788 28.2316ZM22.2866 12.5499C22.363 10.7217 20.7786 9.23301 19.0512 9.83648C13.1985 11.8811 9 17.4507 9 24.0009C9 24.9505 9.08823 25.8795 9.25695 26.78C9.59397 28.5791 11.6744 29.2102 13.2212 28.2317L17.8126 25.327C18.2793 25.0317 18.5075 24.4844 18.5075 23.932C18.5075 22.3172 19.213 20.8672 20.3327 19.8735C21.2331 19.0744 22.0558 18.0717 22.1061 16.8689L22.2866 12.5499ZM26 24C26 25.1045 25.1046 26 24 26C22.8954 26 22 25.1045 22 24C22 22.8954 22.8954 22 24 22C25.1046 22 26 22.8954 26 24Z" fill="url(#paint7_linear)"/>
<path fill-rule="evenodd" clip-rule="evenodd" d="M22.5153 7.06488C13.8217 7.81703 7 15.1123 7 24.0009C7 33.3898 14.6112 41.0009 24 41.0009C33.3888 41.0009 41 33.3898 41 24.0009C41 15.1124 34.1783 7.81707 25.4847 7.06489C25.4847 7.06489 24.6202 6.99999 24 7C23.3798 7.00001 22.5153 7.06488 22.5153 7.06488ZM14.9345 31.1939C13.3104 32.0412 12.813 34.1592 14.1992 35.3566C16.8279 37.6275 20.2536 39.0009 24 39.0009C27.7464 39.0009 31.1721 37.6275 33.8009 35.3566C35.187 34.1591 34.6896 32.0411 33.0656 31.1939L29.0249 29.0858C27.9752 28.5382 26.719 28.7362 25.5916 29.0981C25.0686 29.266 24.5109 29.3566 23.9321 29.3566C23.368 29.3566 22.8241 29.2706 22.3127 29.1108C21.1957 28.7619 19.955 28.5747 18.9175 29.1159L14.9345 31.1939ZM34.7788 28.2316C36.3256 29.2102 38.4061 28.579 38.7431 26.78C38.9118 25.8794 39 24.9505 39 24.0009C39 17.4508 34.8015 11.8812 28.9489 9.83652C27.2215 9.23304 25.6371 10.7217 25.7135 12.5499L25.8987 16.9819C25.9477 18.1548 26.7328 19.14 27.5979 19.9335C28.679 20.9251 29.3567 22.3494 29.3567 23.932C29.3567 24.4378 29.5699 24.9363 29.9973 25.2067L34.7788 28.2316ZM22.2866 12.5499C22.363 10.7217 20.7786 9.23301 19.0512 9.83648C13.1985 11.8811 9 17.4507 9 24.0009C9 24.9505 9.08823 25.8795 9.25695 26.78C9.59397 28.5791 11.6744 29.2102 13.2212 28.2317L17.8126 25.327C18.2793 25.0317 18.5075 24.4844 18.5075 23.932C18.5075 22.3172 19.213 20.8672 20.3327 19.8735C21.2331 19.0744 22.0558 18.0717 22.1061 16.8689L22.2866 12.5499ZM26 24C26 25.1045 25.1046 26 24 26C22.8954 26 22 25.1045 22 24C22 22.8954 22.8954 22 24 22C25.1046 22 26 22.8954 26 24Z" fill="url(#paint8_radial)"/>
<path fill-rule="evenodd" clip-rule="evenodd" d="M22.5153 7.06488C13.8217 7.81703 7 15.1123 7 24.0009C7 33.3898 14.6112 41.0009 24 41.0009C33.3888 41.0009 41 33.3898 41 24.0009C41 15.1124 34.1783 7.81707 25.4847 7.06489C25.4847 7.06489 24.6202 6.99999 24 7C23.3798 7.00001 22.5153 7.06488 22.5153 7.06488ZM14.9345 31.1939C13.3104 32.0412 12.813 34.1592 14.1992 35.3566C16.8279 37.6275 20.2536 39.0009 24 39.0009C27.7464 39.0009 31.1721 37.6275 33.8009 35.3566C35.187 34.1591 34.6896 32.0411 33.0656 31.1939L29.0249 29.0858C27.9752 28.5382 26.719 28.7362 25.5916 29.0981C25.0686 29.266 24.5109 29.3566 23.9321 29.3566C23.368 29.3566 22.8241 29.2706 22.3127 29.1108C21.1957 28.7619 19.955 28.5747 18.9175 29.1159L14.9345 31.1939ZM34.7788 28.2316C36.3256 29.2102 38.4061 28.579 38.7431 26.78C38.9118 25.8794 39 24.9505 39 24.0009C39 17.4508 34.8015 11.8812 28.9489 9.83652C27.2215 9.23304 25.6371 10.7217 25.7135 12.5499L25.8987 16.9819C25.9477 18.1548 26.7328 19.14 27.5979 19.9335C28.679 20.9251 29.3567 22.3494 29.3567 23.932C29.3567 24.4378 29.5699 24.9363 29.9973 25.2067L34.7788 28.2316ZM22.2866 12.5499C22.363 10.7217 20.7786 9.23301 19.0512 9.83648C13.1985 11.8811 9 17.4507 9 24.0009C9 24.9505 9.08823 25.8795 9.25695 26.78C9.59397 28.5791 11.6744 29.2102 13.2212 28.2317L17.8126 25.327C18.2793 25.0317 18.5075 24.4844 18.5075 23.932C18.5075 22.3172 19.213 20.8672 20.3327 19.8735C21.2331 19.0744 22.0558 18.0717 22.1061 16.8689L22.2866 12.5499ZM26 24C26 25.1045 25.1046 26 24 26C22.8954 26 22 25.1045 22 24C22 22.8954 22.8954 22 24 22C25.1046 22 26 22.8954 26 24Z" fill="url(#paint9_radial)"/>
<path fill-rule="evenodd" clip-rule="evenodd" d="M22.5153 7.06488C13.8217 7.81703 7 15.1123 7 24.0009C7 33.3898 14.6112 41.0009 24 41.0009C33.3888 41.0009 41 33.3898 41 24.0009C41 15.1124 34.1783 7.81707 25.4847 7.06489C25.4847 7.06489 24.6202 6.99999 24 7C23.3798 7.00001 22.5153 7.06488 22.5153 7.06488ZM14.9345 31.1939C13.3104 32.0412 12.813 34.1592 14.1992 35.3566C16.8279 37.6275 20.2536 39.0009 24 39.0009C27.7464 39.0009 31.1721 37.6275 33.8009 35.3566C35.187 34.1591 34.6896 32.0411 33.0656 31.1939L29.0249 29.0858C27.9752 28.5382 26.719 28.7362 25.5916 29.0981C25.0686 29.266 24.5109 29.3566 23.9321 29.3566C23.368 29.3566 22.8241 29.2706 22.3127 29.1108C21.1957 28.7619 19.955 28.5747 18.9175 29.1159L14.9345 31.1939ZM34.7788 28.2316C36.3256 29.2102 38.4061 28.579 38.7431 26.78C38.9118 25.8794 39 24.9505 39 24.0009C39 17.4508 34.8015 11.8812 28.9489 9.83652C27.2215 9.23304 25.6371 10.7217 25.7135 12.5499L25.8987 16.9819C25.9477 18.1548 26.7328 19.14 27.5979 19.9335C28.679 20.9251 29.3567 22.3494 29.3567 23.932C29.3567 24.4378 29.5699 24.9363 29.9973 25.2067L34.7788 28.2316ZM22.2866 12.5499C22.363 10.7217 20.7786 9.23301 19.0512 9.83648C13.1985 11.8811 9 17.4507 9 24.0009C9 24.9505 9.08823 25.8795 9.25695 26.78C9.59397 28.5791 11.6744 29.2102 13.2212 28.2317L17.8126 25.327C18.2793 25.0317 18.5075 24.4844 18.5075 23.932C18.5075 22.3172 19.213 20.8672 20.3327 19.8735C21.2331 19.0744 22.0558 18.0717 22.1061 16.8689L22.2866 12.5499ZM26 24C26 25.1045 25.1046 26 24 26C22.8954 26 22 25.1045 22 24C22 22.8954 22.8954 22 24 22C25.1046 22 26 22.8954 26 24Z" fill="url(#paint10_radial)"/>
<path fill-rule="evenodd" clip-rule="evenodd" d="M22.5153 7.06488C13.8217 7.81703 7 15.1123 7 24.0009C7 33.3898 14.6112 41.0009 24 41.0009C33.3888 41.0009 41 33.3898 41 24.0009C41 15.1124 34.1783 7.81707 25.4847 7.06489C25.4847 7.06489 24.6202 6.99999 24 7C23.3798 7.00001 22.5153 7.06488 22.5153 7.06488ZM14.9345 31.1939C13.3104 32.0412 12.813 34.1592 14.1992 35.3566C16.8279 37.6275 20.2536 39.0009 24 39.0009C27.7464 39.0009 31.1721 37.6275 33.8009 35.3566C35.187 34.1591 34.6896 32.0411 33.0656 31.1939L29.0249 29.0858C27.9752 28.5382 26.719 28.7362 25.5916 29.0981C25.0686 29.266 24.5109 29.3566 23.9321 29.3566C23.368 29.3566 22.8241 29.2706 22.3127 29.1108C21.1957 28.7619 19.955 28.5747 18.9175 29.1159L14.9345 31.1939ZM34.7788 28.2316C36.3256 29.2102 38.4061 28.579 38.7431 26.78C38.9118 25.8794 39 24.9505 39 24.0009C39 17.4508 34.8015 11.8812 28.9489 9.83652C27.2215 9.23304 25.6371 10.7217 25.7135 12.5499L25.8987 16.9819C25.9477 18.1548 26.7328 19.14 27.5979 19.9335C28.679 20.9251 29.3567 22.3494 29.3567 23.932C29.3567 24.4378 29.5699 24.9363 29.9973 25.2067L34.7788 28.2316ZM22.2866 12.5499C22.363 10.7217 20.7786 9.23301 19.0512 9.83648C13.1985 11.8811 9 17.4507 9 24.0009C9 24.9505 9.08823 25.8795 9.25695 26.78C9.59397 28.5791 11.6744 29.2102 13.2212 28.2317L17.8126 25.327C18.2793 25.0317 18.5075 24.4844 18.5075 23.932C18.5075 22.3172 19.213 20.8672 20.3327 19.8735C21.2331 19.0744 22.0558 18.0717 22.1061 16.8689L22.2866 12.5499ZM26 24C26 25.1045 25.1046 26 24 26C22.8954 26 22 25.1045 22 24C22 22.8954 22.8954 22 24 22C25.1046 22 26 22.8954 26 24Z" fill="url(#paint11_radial)"/>
<path fill-rule="evenodd" clip-rule="evenodd" d="M22.5153 7.06488C13.8217 7.81703 7 15.1123 7 24.0009C7 33.3898 14.6112 41.0009 24 41.0009C33.3888 41.0009 41 33.3898 41 24.0009C41 15.1124 34.1783 7.81707 25.4847 7.06489C25.4847 7.06489 24.6202 6.99999 24 7C23.3798 7.00001 22.5153 7.06488 22.5153 7.06488ZM14.9345 31.1939C13.3104 32.0412 12.813 34.1592 14.1992 35.3566C16.8279 37.6275 20.2536 39.0009 24 39.0009C27.7464 39.0009 31.1721 37.6275 33.8009 35.3566C35.187 34.1591 34.6896 32.0411 33.0656 31.1939L29.0249 29.0858C27.9752 28.5382 26.719 28.7362 25.5916 29.0981C25.0686 29.266 24.5109 29.3566 23.9321 29.3566C23.368 29.3566 22.8241 29.2706 22.3127 29.1108C21.1957 28.7619 19.955 28.5747 18.9175 29.1159L14.9345 31.1939ZM34.7788 28.2316C36.3256 29.2102 38.4061 28.579 38.7431 26.78C38.9118 25.8794 39 24.9505 39 24.0009C39 17.4508 34.8015 11.8812 28.9489 9.83652C27.2215 9.23304 25.6371 10.7217 25.7135 12.5499L25.8987 16.9819C25.9477 18.1548 26.7328 19.14 27.5979 19.9335C28.679 20.9251 29.3567 22.3494 29.3567 23.932C29.3567 24.4378 29.5699 24.9363 29.9973 25.2067L34.7788 28.2316ZM22.2866 12.5499C22.363 10.7217 20.7786 9.23301 19.0512 9.83648C13.1985 11.8811 9 17.4507 9 24.0009C9 24.9505 9.08823 25.8795 9.25695 26.78C9.59397 28.5791 11.6744 29.2102 13.2212 28.2317L17.8126 25.327C18.2793 25.0317 18.5075 24.4844 18.5075 23.932C18.5075 22.3172 19.213 20.8672 20.3327 19.8735C21.2331 19.0744 22.0558 18.0717 22.1061 16.8689L22.2866 12.5499ZM26 24C26 25.1045 25.1046 26 24 26C22.8954 26 22 25.1045 22 24C22 22.8954 22.8954 22 24 22C25.1046 22 26 22.8954 26 24Z" fill="url(#paint12_radial)"/>
<path fill-rule="evenodd" clip-rule="evenodd" d="M22.5153 7.06488C13.8217 7.81703 7 15.1123 7 24.0009C7 33.3898 14.6112 41.0009 24 41.0009C33.3888 41.0009 41 33.3898 41 24.0009C41 15.1124 34.1783 7.81707 25.4847 7.06489C25.4847 7.06489 24.6202 6.99999 24 7C23.3798 7.00001 22.5153 7.06488 22.5153 7.06488ZM14.9345 31.1939C13.3104 32.0412 12.813 34.1592 14.1992 35.3566C16.8279 37.6275 20.2536 39.0009 24 39.0009C27.7464 39.0009 31.1721 37.6275 33.8009 35.3566C35.187 34.1591 34.6896 32.0411 33.0656 31.1939L29.0249 29.0858C27.9752 28.5382 26.719 28.7362 25.5916 29.0981C25.0686 29.266 24.5109 29.3566 23.9321 29.3566C23.368 29.3566 22.8241 29.2706 22.3127 29.1108C21.1957 28.7619 19.955 28.5747 18.9175 29.1159L14.9345 31.1939ZM34.7788 28.2316C36.3256 29.2102 38.4061 28.579 38.7431 26.78C38.9118 25.8794 39 24.9505 39 24.0009C39 17.4508 34.8015 11.8812 28.9489 9.83652C27.2215 9.23304 25.6371 10.7217 25.7135 12.5499L25.8987 16.9819C25.9477 18.1548 26.7328 19.14 27.5979 19.9335C28.679 20.9251 29.3567 22.3494 29.3567 23.932C29.3567 24.4378 29.5699 24.9363 29.9973 25.2067L34.7788 28.2316ZM22.2866 12.5499C22.363 10.7217 20.7786 9.23301 19.0512 9.83648C13.1985 11.8811 9 17.4507 9 24.0009C9 24.9505 9.08823 25.8795 9.25695 26.78C9.59397 28.5791 11.6744 29.2102 13.2212 28.2317L17.8126 25.327C18.2793 25.0317 18.5075 24.4844 18.5075 23.932C18.5075 22.3172 19.213 20.8672 20.3327 19.8735C21.2331 19.0744 22.0558 18.0717 22.1061 16.8689L22.2866 12.5499ZM26 24C26 25.1045 25.1046 26 24 26C22.8954 26 22 25.1045 22 24C22 22.8954 22.8954 22 24 22C25.1046 22 26 22.8954 26 24Z" fill="url(#paint13_radial)"/>
<path fill-rule="evenodd" clip-rule="evenodd" d="M22.5153 7.06488C13.8217 7.81703 7 15.1123 7 24.0009C7 33.3898 14.6112 41.0009 24 41.0009C33.3888 41.0009 41 33.3898 41 24.0009C41 15.1124 34.1783 7.81707 25.4847 7.06489C25.4847 7.06489 24.6202 6.99999 24 7C23.3798 7.00001 22.5153 7.06488 22.5153 7.06488ZM14.9345 31.1939C13.3104 32.0412 12.813 34.1592 14.1992 35.3566C16.8279 37.6275 20.2536 39.0009 24 39.0009C27.7464 39.0009 31.1721 37.6275 33.8009 35.3566C35.187 34.1591 34.6896 32.0411 33.0656 31.1939L29.0249 29.0858C27.9752 28.5382 26.719 28.7362 25.5916 29.0981C25.0686 29.266 24.5109 29.3566 23.9321 29.3566C23.368 29.3566 22.8241 29.2706 22.3127 29.1108C21.1957 28.7619 19.955 28.5747 18.9175 29.1159L14.9345 31.1939ZM34.7788 28.2316C36.3256 29.2102 38.4061 28.579 38.7431 26.78C38.9118 25.8794 39 24.9505 39 24.0009C39 17.4508 34.8015 11.8812 28.9489 9.83652C27.2215 9.23304 25.6371 10.7217 25.7135 12.5499L25.8987 16.9819C25.9477 18.1548 26.7328 19.14 27.5979 19.9335C28.679 20.9251 29.3567 22.3494 29.3567 23.932C29.3567 24.4378 29.5699 24.9363 29.9973 25.2067L34.7788 28.2316ZM22.2866 12.5499C22.363 10.7217 20.7786 9.23301 19.0512 9.83648C13.1985 11.8811 9 17.4507 9 24.0009C9 24.9505 9.08823 25.8795 9.25695 26.78C9.59397 28.5791 11.6744 29.2102 13.2212 28.2317L17.8126 25.327C18.2793 25.0317 18.5075 24.4844 18.5075 23.932C18.5075 22.3172 19.213 20.8672 20.3327 19.8735C21.2331 19.0744 22.0558 18.0717 22.1061 16.8689L22.2866 12.5499ZM26 24C26 25.1045 25.1046 26 24 26C22.8954 26 22 25.1045 22 24C22 22.8954 22.8954 22 24 22C25.1046 22 26 22.8954 26 24Z" fill="url(#paint14_radial)"/>
<path fill-rule="evenodd" clip-rule="evenodd" d="M22.5153 7.06488C13.8217 7.81703 7 15.1123 7 24.0009C7 33.3898 14.6112 41.0009 24 41.0009C33.3888 41.0009 41 33.3898 41 24.0009C41 15.1124 34.1783 7.81707 25.4847 7.06489C25.4847 7.06489 24.6202 6.99999 24 7C23.3798 7.00001 22.5153 7.06488 22.5153 7.06488ZM14.9345 31.1939C13.3104 32.0412 12.813 34.1592 14.1992 35.3566C16.8279 37.6275 20.2536 39.0009 24 39.0009C27.7464 39.0009 31.1721 37.6275 33.8009 35.3566C35.187 34.1591 34.6896 32.0411 33.0656 31.1939L29.0249 29.0858C27.9752 28.5382 26.719 28.7362 25.5916 29.0981C25.0686 29.266 24.5109 29.3566 23.9321 29.3566C23.368 29.3566 22.8241 29.2706 22.3127 29.1108C21.1957 28.7619 19.955 28.5747 18.9175 29.1159L14.9345 31.1939ZM34.7788 28.2316C36.3256 29.2102 38.4061 28.579 38.7431 26.78C38.9118 25.8794 39 24.9505 39 24.0009C39 17.4508 34.8015 11.8812 28.9489 9.83652C27.2215 9.23304 25.6371 10.7217 25.7135 12.5499L25.8987 16.9819C25.9477 18.1548 26.7328 19.14 27.5979 19.9335C28.679 20.9251 29.3567 22.3494 29.3567 23.932C29.3567 24.4378 29.5699 24.9363 29.9973 25.2067L34.7788 28.2316ZM22.2866 12.5499C22.363 10.7217 20.7786 9.23301 19.0512 9.83648C13.1985 11.8811 9 17.4507 9 24.0009C9 24.9505 9.08823 25.8795 9.25695 26.78C9.59397 28.5791 11.6744 29.2102 13.2212 28.2317L17.8126 25.327C18.2793 25.0317 18.5075 24.4844 18.5075 23.932C18.5075 22.3172 19.213 20.8672 20.3327 19.8735C21.2331 19.0744 22.0558 18.0717 22.1061 16.8689L22.2866 12.5499ZM26 24C26 25.1045 25.1046 26 24 26C22.8954 26 22 25.1045 22 24C22 22.8954 22.8954 22 24 22C25.1046 22 26 22.8954 26 24Z" fill="url(#paint15_radial)"/>
<path fill-rule="evenodd" clip-rule="evenodd" d="M22.5153 7.06488C13.8217 7.81703 7 15.1123 7 24.0009C7 33.3898 14.6112 41.0009 24 41.0009C33.3888 41.0009 41 33.3898 41 24.0009C41 15.1124 34.1783 7.81707 25.4847 7.06489C25.4847 7.06489 24.6202 6.99999 24 7C23.3798 7.00001 22.5153 7.06488 22.5153 7.06488ZM14.9345 31.1939C13.3104 32.0412 12.813 34.1592 14.1992 35.3566C16.8279 37.6275 20.2536 39.0009 24 39.0009C27.7464 39.0009 31.1721 37.6275 33.8009 35.3566C35.187 34.1591 34.6896 32.0411 33.0656 31.1939L29.0249 29.0858C27.9752 28.5382 26.719 28.7362 25.5916 29.0981C25.0686 29.266 24.5109 29.3566 23.9321 29.3566C23.368 29.3566 22.8241 29.2706 22.3127 29.1108C21.1957 28.7619 19.955 28.5747 18.9175 29.1159L14.9345 31.1939ZM34.7788 28.2316C36.3256 29.2102 38.4061 28.579 38.7431 26.78C38.9118 25.8794 39 24.9505 39 24.0009C39 17.4508 34.8015 11.8812 28.9489 9.83652C27.2215 9.23304 25.6371 10.7217 25.7135 12.5499L25.8987 16.9819C25.9477 18.1548 26.7328 19.14 27.5979 19.9335C28.679 20.9251 29.3567 22.3494 29.3567 23.932C29.3567 24.4378 29.5699 24.9363 29.9973 25.2067L34.7788 28.2316ZM22.2866 12.5499C22.363 10.7217 20.7786 9.23301 19.0512 9.83648C13.1985 11.8811 9 17.4507 9 24.0009C9 24.9505 9.08823 25.8795 9.25695 26.78C9.59397 28.5791 11.6744 29.2102 13.2212 28.2317L17.8126 25.327C18.2793 25.0317 18.5075 24.4844 18.5075 23.932C18.5075 22.3172 19.213 20.8672 20.3327 19.8735C21.2331 19.0744 22.0558 18.0717 22.1061 16.8689L22.2866 12.5499ZM26 24C26 25.1045 25.1046 26 24 26C22.8954 26 22 25.1045 22 24C22 22.8954 22.8954 22 24 22C25.1046 22 26 22.8954 26 24Z" fill="url(#paint16_radial)"/>
<path fill-rule="evenodd" clip-rule="evenodd" d="M22.5153 7.06488C13.8217 7.81703 7 15.1123 7 24.0009C7 33.3898 14.6112 41.0009 24 41.0009C33.3888 41.0009 41 33.3898 41 24.0009C41 15.1124 34.1783 7.81707 25.4847 7.06489C25.4847 7.06489 24.6202 6.99999 24 7C23.3798 7.00001 22.5153 7.06488 22.5153 7.06488ZM14.9345 31.1939C13.3104 32.0412 12.813 34.1592 14.1992 35.3566C16.8279 37.6275 20.2536 39.0009 24 39.0009C27.7464 39.0009 31.1721 37.6275 33.8009 35.3566C35.187 34.1591 34.6896 32.0411 33.0656 31.1939L29.0249 29.0858C27.9752 28.5382 26.719 28.7362 25.5916 29.0981C25.0686 29.266 24.5109 29.3566 23.9321 29.3566C23.368 29.3566 22.8241 29.2706 22.3127 29.1108C21.1957 28.7619 19.955 28.5747 18.9175 29.1159L14.9345 31.1939ZM34.7788 28.2316C36.3256 29.2102 38.4061 28.579 38.7431 26.78C38.9118 25.8794 39 24.9505 39 24.0009C39 17.4508 34.8015 11.8812 28.9489 9.83652C27.2215 9.23304 25.6371 10.7217 25.7135 12.5499L25.8987 16.9819C25.9477 18.1548 26.7328 19.14 27.5979 19.9335C28.679 20.9251 29.3567 22.3494 29.3567 23.932C29.3567 24.4378 29.5699 24.9363 29.9973 25.2067L34.7788 28.2316ZM22.2866 12.5499C22.363 10.7217 20.7786 9.23301 19.0512 9.83648C13.1985 11.8811 9 17.4507 9 24.0009C9 24.9505 9.08823 25.8795 9.25695 26.78C9.59397 28.5791 11.6744 29.2102 13.2212 28.2317L17.8126 25.327C18.2793 25.0317 18.5075 24.4844 18.5075 23.932C18.5075 22.3172 19.213 20.8672 20.3327 19.8735C21.2331 19.0744 22.0558 18.0717 22.1061 16.8689L22.2866 12.5499ZM26 24C26 25.1045 25.1046 26 24 26C22.8954 26 22 25.1045 22 24C22 22.8954 22.8954 22 24 22C25.1046 22 26 22.8954 26 24Z" fill="url(#paint17_radial)"/>
<path fill-rule="evenodd" clip-rule="evenodd" d="M22.5153 7.06488C13.8217 7.81703 7 15.1123 7 24.0009C7 33.3898 14.6112 41.0009 24 41.0009C33.3888 41.0009 41 33.3898 41 24.0009C41 15.1124 34.1783 7.81707 25.4847 7.06489C25.4847 7.06489 24.6202 6.99999 24 7C23.3798 7.00001 22.5153 7.06488 22.5153 7.06488ZM14.9345 31.1939C13.3104 32.0412 12.813 34.1592 14.1992 35.3566C16.8279 37.6275 20.2536 39.0009 24 39.0009C27.7464 39.0009 31.1721 37.6275 33.8009 35.3566C35.187 34.1591 34.6896 32.0411 33.0656 31.1939L29.0249 29.0858C27.9752 28.5382 26.719 28.7362 25.5916 29.0981C25.0686 29.266 24.5109 29.3566 23.9321 29.3566C23.368 29.3566 22.8241 29.2706 22.3127 29.1108C21.1957 28.7619 19.955 28.5747 18.9175 29.1159L14.9345 31.1939ZM34.7788 28.2316C36.3256 29.2102 38.4061 28.579 38.7431 26.78C38.9118 25.8794 39 24.9505 39 24.0009C39 17.4508 34.8015 11.8812 28.9489 9.83652C27.2215 9.23304 25.6371 10.7217 25.7135 12.5499L25.8987 16.9819C25.9477 18.1548 26.7328 19.14 27.5979 19.9335C28.679 20.9251 29.3567 22.3494 29.3567 23.932C29.3567 24.4378 29.5699 24.9363 29.9973 25.2067L34.7788 28.2316ZM22.2866 12.5499C22.363 10.7217 20.7786 9.23301 19.0512 9.83648C13.1985 11.8811 9 17.4507 9 24.0009C9 24.9505 9.08823 25.8795 9.25695 26.78C9.59397 28.5791 11.6744 29.2102 13.2212 28.2317L17.8126 25.327C18.2793 25.0317 18.5075 24.4844 18.5075 23.932C18.5075 22.3172 19.213 20.8672 20.3327 19.8735C21.2331 19.0744 22.0558 18.0717 22.1061 16.8689L22.2866 12.5499ZM26 24C26 25.1045 25.1046 26 24 26C22.8954 26 22 25.1045 22 24C22 22.8954 22.8954 22 24 22C25.1046 22 26 22.8954 26 24Z" fill="url(#paint18_radial)"/>
<path fill-rule="evenodd" clip-rule="evenodd" d="M22.5153 7.06488C13.8217 7.81703 7 15.1123 7 24.0009C7 33.3898 14.6112 41.0009 24 41.0009C33.3888 41.0009 41 33.3898 41 24.0009C41 15.1124 34.1783 7.81707 25.4847 7.06489C25.4847 7.06489 24.6202 6.99999 24 7C23.3798 7.00001 22.5153 7.06488 22.5153 7.06488ZM14.9345 31.1939C13.3104 32.0412 12.813 34.1592 14.1992 35.3566C16.8279 37.6275 20.2536 39.0009 24 39.0009C27.7464 39.0009 31.1721 37.6275 33.8009 35.3566C35.187 34.1591 34.6896 32.0411 33.0656 31.1939L29.0249 29.0858C27.9752 28.5382 26.719 28.7362 25.5916 29.0981C25.0686 29.266 24.5109 29.3566 23.9321 29.3566C23.368 29.3566 22.8241 29.2706 22.3127 29.1108C21.1957 28.7619 19.955 28.5747 18.9175 29.1159L14.9345 31.1939ZM34.7788 28.2316C36.3256 29.2102 38.4061 28.579 38.7431 26.78C38.9118 25.8794 39 24.9505 39 24.0009C39 17.4508 34.8015 11.8812 28.9489 9.83652C27.2215 9.23304 25.6371 10.7217 25.7135 12.5499L25.8987 16.9819C25.9477 18.1548 26.7328 19.14 27.5979 19.9335C28.679 20.9251 29.3567 22.3494 29.3567 23.932C29.3567 24.4378 29.5699 24.9363 29.9973 25.2067L34.7788 28.2316ZM22.2866 12.5499C22.363 10.7217 20.7786 9.23301 19.0512 9.83648C13.1985 11.8811 9 17.4507 9 24.0009C9 24.9505 9.08823 25.8795 9.25695 26.78C9.59397 28.5791 11.6744 29.2102 13.2212 28.2317L17.8126 25.327C18.2793 25.0317 18.5075 24.4844 18.5075 23.932C18.5075 22.3172 19.213 20.8672 20.3327 19.8735C21.2331 19.0744 22.0558 18.0717 22.1061 16.8689L22.2866 12.5499ZM26 24C26 25.1045 25.1046 26 24 26C22.8954 26 22 25.1045 22 24C22 22.8954 22.8954 22 24 22C25.1046 22 26 22.8954 26 24Z" fill="url(#paint19_radial)"/>
<path fill-rule="evenodd" clip-rule="evenodd" d="M22.5153 7.06488C13.8217 7.81703 7 15.1123 7 24.0009C7 33.3898 14.6112 41.0009 24 41.0009C33.3888 41.0009 41 33.3898 41 24.0009C41 15.1124 34.1783 7.81707 25.4847 7.06489C25.4847 7.06489 24.6202 6.99999 24 7C23.3798 7.00001 22.5153 7.06488 22.5153 7.06488ZM14.9345 31.1939C13.3104 32.0412 12.813 34.1592 14.1992 35.3566C16.8279 37.6275 20.2536 39.0009 24 39.0009C27.7464 39.0009 31.1721 37.6275 33.8009 35.3566C35.187 34.1591 34.6896 32.0411 33.0656 31.1939L29.0249 29.0858C27.9752 28.5382 26.719 28.7362 25.5916 29.0981C25.0686 29.266 24.5109 29.3566 23.9321 29.3566C23.368 29.3566 22.8241 29.2706 22.3127 29.1108C21.1957 28.7619 19.955 28.5747 18.9175 29.1159L14.9345 31.1939ZM34.7788 28.2316C36.3256 29.2102 38.4061 28.579 38.7431 26.78C38.9118 25.8794 39 24.9505 39 24.0009C39 17.4508 34.8015 11.8812 28.9489 9.83652C27.2215 9.23304 25.6371 10.7217 25.7135 12.5499L25.8987 16.9819C25.9477 18.1548 26.7328 19.14 27.5979 19.9335C28.679 20.9251 29.3567 22.3494 29.3567 23.932C29.3567 24.4378 29.5699 24.9363 29.9973 25.2067L34.7788 28.2316ZM22.2866 12.5499C22.363 10.7217 20.7786 9.23301 19.0512 9.83648C13.1985 11.8811 9 17.4507 9 24.0009C9 24.9505 9.08823 25.8795 9.25695 26.78C9.59397 28.5791 11.6744 29.2102 13.2212 28.2317L17.8126 25.327C18.2793 25.0317 18.5075 24.4844 18.5075 23.932C18.5075 22.3172 19.213 20.8672 20.3327 19.8735C21.2331 19.0744 22.0558 18.0717 22.1061 16.8689L22.2866 12.5499ZM26 24C26 25.1045 25.1046 26 24 26C22.8954 26 22 25.1045 22 24C22 22.8954 22.8954 22 24 22C25.1046 22 26 22.8954 26 24Z" fill="url(#paint20_radial)"/>
<path fill-rule="evenodd" clip-rule="evenodd" d="M22.5153 7.06488C13.8217 7.81703 7 15.1123 7 24.0009C7 33.3898 14.6112 41.0009 24 41.0009C33.3888 41.0009 41 33.3898 41 24.0009C41 15.1124 34.1783 7.81707 25.4847 7.06489C25.4847 7.06489 24.6202 6.99999 24 7C23.3798 7.00001 22.5153 7.06488 22.5153 7.06488ZM14.9345 31.1939C13.3104 32.0412 12.813 34.1592 14.1992 35.3566C16.8279 37.6275 20.2536 39.0009 24 39.0009C27.7464 39.0009 31.1721 37.6275 33.8009 35.3566C35.187 34.1591 34.6896 32.0411 33.0656 31.1939L29.0249 29.0858C27.9752 28.5382 26.719 28.7362 25.5916 29.0981C25.0686 29.266 24.5109 29.3566 23.9321 29.3566C23.368 29.3566 22.8241 29.2706 22.3127 29.1108C21.1957 28.7619 19.955 28.5747 18.9175 29.1159L14.9345 31.1939ZM34.7788 28.2316C36.3256 29.2102 38.4061 28.579 38.7431 26.78C38.9118 25.8794 39 24.9505 39 24.0009C39 17.4508 34.8015 11.8812 28.9489 9.83652C27.2215 9.23304 25.6371 10.7217 25.7135 12.5499L25.8987 16.9819C25.9477 18.1548 26.7328 19.14 27.5979 19.9335C28.679 20.9251 29.3567 22.3494 29.3567 23.932C29.3567 24.4378 29.5699 24.9363 29.9973 25.2067L34.7788 28.2316ZM22.2866 12.5499C22.363 10.7217 20.7786 9.23301 19.0512 9.83648C13.1985 11.8811 9 17.4507 9 24.0009C9 24.9505 9.08823 25.8795 9.25695 26.78C9.59397 28.5791 11.6744 29.2102 13.2212 28.2317L17.8126 25.327C18.2793 25.0317 18.5075 24.4844 18.5075 23.932C18.5075 22.3172 19.213 20.8672 20.3327 19.8735C21.2331 19.0744 22.0558 18.0717 22.1061 16.8689L22.2866 12.5499ZM26 24C26 25.1045 25.1046 26 24 26C22.8954 26 22 25.1045 22 24C22 22.8954 22.8954 22 24 22C25.1046 22 26 22.8954 26 24Z" fill="url(#paint21_radial)"/>
<path fill-rule="evenodd" clip-rule="evenodd" d="M22.5153 7.06488C13.8217 7.81703 7 15.1123 7 24.0009C7 33.3898 14.6112 41.0009 24 41.0009C33.3888 41.0009 41 33.3898 41 24.0009C41 15.1124 34.1783 7.81707 25.4847 7.06489C25.4847 7.06489 24.6202 6.99999 24 7C23.3798 7.00001 22.5153 7.06488 22.5153 7.06488ZM14.9345 31.1939C13.3104 32.0412 12.813 34.1592 14.1992 35.3566C16.8279 37.6275 20.2536 39.0009 24 39.0009C27.7464 39.0009 31.1721 37.6275 33.8009 35.3566C35.187 34.1591 34.6896 32.0411 33.0656 31.1939L29.0249 29.0858C27.9752 28.5382 26.719 28.7362 25.5916 29.0981C25.0686 29.266 24.5109 29.3566 23.9321 29.3566C23.368 29.3566 22.8241 29.2706 22.3127 29.1108C21.1957 28.7619 19.955 28.5747 18.9175 29.1159L14.9345 31.1939ZM34.7788 28.2316C36.3256 29.2102 38.4061 28.579 38.7431 26.78C38.9118 25.8794 39 24.9505 39 24.0009C39 17.4508 34.8015 11.8812 28.9489 9.83652C27.2215 9.23304 25.6371 10.7217 25.7135 12.5499L25.8987 16.9819C25.9477 18.1548 26.7328 19.14 27.5979 19.9335C28.679 20.9251 29.3567 22.3494 29.3567 23.932C29.3567 24.4378 29.5699 24.9363 29.9973 25.2067L34.7788 28.2316ZM22.2866 12.5499C22.363 10.7217 20.7786 9.23301 19.0512 9.83648C13.1985 11.8811 9 17.4507 9 24.0009C9 24.9505 9.08823 25.8795 9.25695 26.78C9.59397 28.5791 11.6744 29.2102 13.2212 28.2317L17.8126 25.327C18.2793 25.0317 18.5075 24.4844 18.5075 23.932C18.5075 22.3172 19.213 20.8672 20.3327 19.8735C21.2331 19.0744 22.0558 18.0717 22.1061 16.8689L22.2866 12.5499ZM26 24C26 25.1045 25.1046 26 24 26C22.8954 26 22 25.1045 22 24C22 22.8954 22.8954 22 24 22C25.1046 22 26 22.8954 26 24Z" fill="url(#paint22_radial)"/>
<path fill-rule="evenodd" clip-rule="evenodd" d="M22.5153 7.06488C13.8217 7.81703 7 15.1123 7 24.0009C7 33.3898 14.6112 41.0009 24 41.0009C33.3888 41.0009 41 33.3898 41 24.0009C41 15.1124 34.1783 7.81707 25.4847 7.06489C25.4847 7.06489 24.6202 6.99999 24 7C23.3798 7.00001 22.5153 7.06488 22.5153 7.06488ZM14.9345 31.1939C13.3104 32.0412 12.813 34.1592 14.1992 35.3566C16.8279 37.6275 20.2536 39.0009 24 39.0009C27.7464 39.0009 31.1721 37.6275 33.8009 35.3566C35.187 34.1591 34.6896 32.0411 33.0656 31.1939L29.0249 29.0858C27.9752 28.5382 26.719 28.7362 25.5916 29.0981C25.0686 29.266 24.5109 29.3566 23.9321 29.3566C23.368 29.3566 22.8241 29.2706 22.3127 29.1108C21.1957 28.7619 19.955 28.5747 18.9175 29.1159L14.9345 31.1939ZM34.7788 28.2316C36.3256 29.2102 38.4061 28.579 38.7431 26.78C38.9118 25.8794 39 24.9505 39 24.0009C39 17.4508 34.8015 11.8812 28.9489 9.83652C27.2215 9.23304 25.6371 10.7217 25.7135 12.5499L25.8987 16.9819C25.9477 18.1548 26.7328 19.14 27.5979 19.9335C28.679 20.9251 29.3567 22.3494 29.3567 23.932C29.3567 24.4378 29.5699 24.9363 29.9973 25.2067L34.7788 28.2316ZM22.2866 12.5499C22.363 10.7217 20.7786 9.23301 19.0512 9.83648C13.1985 11.8811 9 17.4507 9 24.0009C9 24.9505 9.08823 25.8795 9.25695 26.78C9.59397 28.5791 11.6744 29.2102 13.2212 28.2317L17.8126 25.327C18.2793 25.0317 18.5075 24.4844 18.5075 23.932C18.5075 22.3172 19.213 20.8672 20.3327 19.8735C21.2331 19.0744 22.0558 18.0717 22.1061 16.8689L22.2866 12.5499ZM26 24C26 25.1045 25.1046 26 24 26C22.8954 26 22 25.1045 22 24C22 22.8954 22.8954 22 24 22C25.1046 22 26 22.8954 26 24Z" fill="url(#paint23_radial)"/>
<path fill-rule="evenodd" clip-rule="evenodd" d="M22.5153 7.06488C13.8217 7.81703 7 15.1123 7 24.0009C7 33.3898 14.6112 41.0009 24 41.0009C33.3888 41.0009 41 33.3898 41 24.0009C41 15.1124 34.1783 7.81707 25.4847 7.06489C25.4847 7.06489 24.6202 6.99999 24 7C23.3798 7.00001 22.5153 7.06488 22.5153 7.06488ZM14.9345 31.1939C13.3104 32.0412 12.813 34.1592 14.1992 35.3566C16.8279 37.6275 20.2536 39.0009 24 39.0009C27.7464 39.0009 31.1721 37.6275 33.8009 35.3566C35.187 34.1591 34.6896 32.0411 33.0656 31.1939L29.0249 29.0858C27.9752 28.5382 26.719 28.7362 25.5916 29.0981C25.0686 29.266 24.5109 29.3566 23.9321 29.3566C23.368 29.3566 22.8241 29.2706 22.3127 29.1108C21.1957 28.7619 19.955 28.5747 18.9175 29.1159L14.9345 31.1939ZM34.7788 28.2316C36.3256 29.2102 38.4061 28.579 38.7431 26.78C38.9118 25.8794 39 24.9505 39 24.0009C39 17.4508 34.8015 11.8812 28.9489 9.83652C27.2215 9.23304 25.6371 10.7217 25.7135 12.5499L25.8987 16.9819C25.9477 18.1548 26.7328 19.14 27.5979 19.9335C28.679 20.9251 29.3567 22.3494 29.3567 23.932C29.3567 24.4378 29.5699 24.9363 29.9973 25.2067L34.7788 28.2316ZM22.2866 12.5499C22.363 10.7217 20.7786 9.23301 19.0512 9.83648C13.1985 11.8811 9 17.4507 9 24.0009C9 24.9505 9.08823 25.8795 9.25695 26.78C9.59397 28.5791 11.6744 29.2102 13.2212 28.2317L17.8126 25.327C18.2793 25.0317 18.5075 24.4844 18.5075 23.932C18.5075 22.3172 19.213 20.8672 20.3327 19.8735C21.2331 19.0744 22.0558 18.0717 22.1061 16.8689L22.2866 12.5499ZM26 24C26 25.1045 25.1046 26 24 26C22.8954 26 22 25.1045 22 24C22 22.8954 22.8954 22 24 22C25.1046 22 26 22.8954 26 24Z" fill="url(#paint24_radial)"/>
<defs>
<linearGradient id="paint0_linear" x1="24" y1="0" x2="24" y2="48" gradientUnits="userSpaceOnUse">
<stop stop-color="#CCCCD5"/>
<stop offset="1" stop-color="#908A95"/>
</linearGradient>
<radialGradient id="paint1_radial" cx="0" cy="0" r="1" gradientUnits="userSpaceOnUse" gradientTransform="translate(23.6951 23.4353) rotate(90) scale(66.2782 66.4614)">
<stop stop-color="#95919B" stop-opacity="0.7"/>
<stop offset="1" stop-color="#D3D4D9" stop-opacity="0.2"/>
</radialGradient>
<radialGradient id="paint2_radial" cx="0" cy="0" r="1" gradientUnits="userSpaceOnUse" gradientTransform="rotate(45) scale(33.9411 9.93253)">
<stop stop-color="white" stop-opacity="0.6"/>
<stop offset="1" stop-color="white" stop-opacity="0"/>
</radialGradient>
<radialGradient id="paint3_radial" cx="0" cy="0" r="1" gradientUnits="userSpaceOnUse" gradientTransform="translate(47.5313 32.5781) rotate(-159.971) scale(25.046 17.7409)">
<stop stop-color="#3B3B3B" stop-opacity="0.6"/>
<stop offset="0.994833" stop-color="#AAA8B0" stop-opacity="0"/>
</radialGradient>
<radialGradient id="paint4_radial" cx="0" cy="0" r="1" gradientUnits="userSpaceOnUse" gradientTransform="translate(43 46) rotate(-130.815) scale(29.0689 14.7254)">
<stop stop-color="white" stop-opacity="0.7"/>
<stop offset="1" stop-color="#A6A3AA" stop-opacity="0"/>
</radialGradient>
<radialGradient id="paint5_radial" cx="0" cy="0" r="1" gradientUnits="userSpaceOnUse" gradientTransform="translate(48.5) rotate(135.591) scale(34.2965 10.3296)">
<stop stop-color="white" stop-opacity="0.93"/>
<stop offset="1" stop-color="#B4B3BC" stop-opacity="0"/>
</radialGradient>
<radialGradient id="paint6_radial" cx="0" cy="0" r="1" gradientUnits="userSpaceOnUse" gradientTransform="translate(-4.5 42) rotate(-32.2756) scale(33.7083 15.2481)">
<stop stop-opacity="0.35"/>
<stop offset="1" stop-color="#A9A7AE" stop-opacity="0"/>
</radialGradient>
<linearGradient id="paint7_linear" x1="24" y1="7" x2="24" y2="41.001" gradientUnits="userSpaceOnUse">
<stop stop-color="#989AA6"/>
<stop offset="1" stop-color="#898492"/>
</linearGradient>
<radialGradient id="paint8_radial" cx="0" cy="0" r="1" gradientUnits="userSpaceOnUse" gradientTransform="translate(29 18.5) rotate(132.274) scale(7.43304 1.88261)">
<stop stop-color="white" stop-opacity="0.5"/>
<stop offset="1" stop-color="#93939C" stop-opacity="0"/>
</radialGradient>
<radialGradient id="paint9_radial" cx="0" cy="0" r="1" gradientUnits="userSpaceOnUse" gradientTransform="translate(21 30) rotate(-63.4349) scale(6.7082 1.61559)">
<stop offset="0.0772568" stop-opacity="0.21"/>
<stop offset="1" stop-color="#9697A0" stop-opacity="0"/>
</radialGradient>
<radialGradient id="paint10_radial" cx="0" cy="0" r="1" gradientUnits="userSpaceOnUse" gradientTransform="translate(31.5 24) rotate(-180) scale(7.5 3.40769)">
<stop stop-opacity="0.3"/>
<stop offset="1" stop-color="#93949C" stop-opacity="0"/>
</radialGradient>
<radialGradient id="paint11_radial" cx="0" cy="0" r="1" gradientUnits="userSpaceOnUse" gradientTransform="translate(27.5 29) rotate(-124.992) scale(6.10327 2.42774)">
<stop offset="0.282521" stop-color="white" stop-opacity="0.28"/>
<stop offset="1" stop-color="#9798A1" stop-opacity="0"/>
</radialGradient>
<radialGradient id="paint12_radial" cx="0" cy="0" r="1" gradientUnits="userSpaceOnUse" gradientTransform="translate(20.5 18.5) rotate(59.7436) scale(6.94622 1.76127)">
<stop offset="0.0701562" stop-color="white" stop-opacity="0.44"/>
<stop offset="1" stop-color="#93949C" stop-opacity="0"/>
</radialGradient>
<radialGradient id="paint13_radial" cx="0" cy="0" r="1" gradientUnits="userSpaceOnUse" gradientTransform="translate(17.5 22) rotate(17.1027) scale(6.80074 2.09253)">
<stop stop-opacity="0.06"/>
<stop offset="1" stop-color="#838288" stop-opacity="0"/>
</radialGradient>
<radialGradient id="paint14_radial" cx="0" cy="0" r="1" gradientUnits="userSpaceOnUse" gradientTransform="translate(24 14) rotate(90) scale(10 3.09813)">
<stop stop-opacity="0.22"/>
<stop offset="1" stop-color="#84838A" stop-opacity="0"/>
</radialGradient>
<radialGradient id="paint15_radial" cx="0" cy="0" r="1" gradientUnits="userSpaceOnUse" gradientTransform="translate(18 24) scale(6 1.76739)">
<stop stop-color="white" stop-opacity="0.47"/>
<stop offset="1" stop-color="#838389" stop-opacity="0"/>
</radialGradient>
<radialGradient id="paint16_radial" cx="0" cy="0" r="1" gradientUnits="userSpaceOnUse" gradientTransform="translate(35 37.5) rotate(-129.174) scale(17.4141 11.3295)">
<stop stop-color="white" stop-opacity="0.3"/>
<stop offset="1" stop-color="#7D7B80" stop-opacity="0"/>
</radialGradient>
<radialGradient id="paint17_radial" cx="0" cy="0" r="1" gradientUnits="userSpaceOnUse" gradientTransform="translate(41 20.5) rotate(168.366) scale(17.3566 16.4868)">
<stop stop-opacity="0.16"/>
<stop offset="1" stop-color="#7C7B80" stop-opacity="0"/>
</radialGradient>
<radialGradient id="paint18_radial" cx="0" cy="0" r="1" gradientUnits="userSpaceOnUse" gradientTransform="translate(14.5 9.5) rotate(56.7683) scale(17.3349 7.84628)">
<stop stop-color="white" stop-opacity="0.16"/>
<stop offset="1" stop-color="#7D7C81" stop-opacity="0"/>
</radialGradient>
<radialGradient id="paint19_radial" cx="0" cy="0" r="1" gradientUnits="userSpaceOnUse" gradientTransform="translate(7 26) rotate(-6.70984) scale(17.1172 14.4305)">
<stop stop-color="white" stop-opacity="0.06"/>
<stop offset="1" stop-color="#7C7B7F" stop-opacity="0"/>
</radialGradient>
<radialGradient id="paint20_radial" cx="0" cy="0" r="1" gradientUnits="userSpaceOnUse" gradientTransform="translate(8.5 16) rotate(27.2996) scale(17.4428 8.7817)">
<stop stop-opacity="0.08"/>
<stop offset="1" stop-color="#7C7B7F" stop-opacity="0"/>
</radialGradient>
<radialGradient id="paint21_radial" cx="0" cy="0" r="1" gradientUnits="userSpaceOnUse" gradientTransform="translate(15 39) rotate(-59.0362) scale(17.4929 17.4924)">
<stop stop-opacity="0.08"/>
<stop offset="1" stop-color="#7E7C81" stop-opacity="0"/>
</radialGradient>
<radialGradient id="paint22_radial" cx="0" cy="0" r="1" gradientUnits="userSpaceOnUse" gradientTransform="translate(15 38.5) rotate(-58.1725) scale(17.066 2.84434)">
<stop stop-opacity="0.12"/>
<stop offset="1" stop-opacity="0"/>
</radialGradient>
<radialGradient id="paint23_radial" cx="0" cy="0" r="1" gradientUnits="userSpaceOnUse" gradientTransform="translate(37.5 15) rotate(146.31) scale(16.225 5.70741)">
<stop stop-color="white" stop-opacity="0.1"/>
<stop offset="1" stop-color="#747377" stop-opacity="0"/>
</radialGradient>
<radialGradient id="paint24_radial" cx="0" cy="0" r="1" gradientUnits="userSpaceOnUse" gradientTransform="translate(39.5 33) rotate(-149.859) scale(17.9234 3.5718)">
<stop stop-opacity="0.12"/>
<stop offset="1" stop-color="#91929B" stop-opacity="0"/>
</radialGradient>
</defs>
</svg>
