<svg width="48" height="48" viewBox="0 0 48 48" fill="none" xmlns="http://www.w3.org/2000/svg"><path fill-rule="evenodd" clip-rule="evenodd" d="M42 24c0 9.941-8.059 18-18 18S6 33.941 6 24 14.059 6 24 6s18 8.059 18 18zM14.2 35.357c-1.387-1.198-.89-3.316.735-4.163l3.982-2.078c1.038-.541 2.279-.354 3.396-.005.511.16 1.055.246 1.62.246a5.42 5.42 0 001.659-.259c1.127-.362 2.383-.56 3.433-.012l4.04 2.108c1.625.847 2.122 2.965.736 4.162A14.942 14.942 0 0124 39.002a14.942 14.942 0 01-9.8-3.644zm24.543-8.577c-.337 1.799-2.417 2.43-3.964 1.452l-4.782-3.025c-.427-.27-.64-.77-.64-1.275a5.41 5.41 0 00-1.76-3.998c-.864-.794-1.65-1.78-1.698-2.952l-.186-4.432c-.076-1.828 1.508-3.317 3.236-2.714C34.8 11.881 39 17.451 39 24.001c0 .95-.088 1.878-.257 2.779zM19.051 9.836c1.728-.603 3.312.886 3.236 2.714l-.18 4.319c-.051 1.203-.874 2.205-1.774 3.005a5.411 5.411 0 00-1.825 4.058c0 .552-.229 1.1-.695 1.395l-4.592 2.905c-1.547.978-3.627.347-3.964-1.452C9.088 25.88 9 24.95 9 24c0-6.55 4.198-12.119 10.051-14.164zM24 26a2 2 0 100-4 2 2 0 000 4z" fill="url(#paint0_linear)"/><path fill-rule="evenodd" clip-rule="evenodd" d="M42 24c0 9.941-8.059 18-18 18S6 33.941 6 24 14.059 6 24 6s18 8.059 18 18zM14.2 35.357c-1.387-1.198-.89-3.316.735-4.163l3.982-2.078c1.038-.541 2.279-.354 3.396-.005.511.16 1.055.246 1.62.246a5.42 5.42 0 001.659-.259c1.127-.362 2.383-.56 3.433-.012l4.04 2.108c1.625.847 2.122 2.965.736 4.162A14.942 14.942 0 0124 39.002a14.942 14.942 0 01-9.8-3.644zm24.543-8.577c-.337 1.799-2.417 2.43-3.964 1.452l-4.782-3.025c-.427-.27-.64-.77-.64-1.275a5.41 5.41 0 00-1.76-3.998c-.864-.794-1.65-1.78-1.698-2.952l-.186-4.432c-.076-1.828 1.508-3.317 3.236-2.714C34.8 11.881 39 17.451 39 24.001c0 .95-.088 1.878-.257 2.779zM19.051 9.836c1.728-.603 3.312.886 3.236 2.714l-.18 4.319c-.051 1.203-.874 2.205-1.774 3.005a5.411 5.411 0 00-1.825 4.058c0 .552-.229 1.1-.695 1.395l-4.592 2.905c-1.547.978-3.627.347-3.964-1.452C9.088 25.88 9 24.95 9 24c0-6.55 4.198-12.119 10.051-14.164zM24 26a2 2 0 100-4 2 2 0 000 4z" fill="url(#paint1_radial)" fill-opacity=".5"/><path fill-rule="evenodd" clip-rule="evenodd" d="M18.322 2.078c-.253-.727-1.03-1.141-1.762-.903-.732.24-1.108 1.028-.884 1.765l.043.142c.247.81-.17 1.669-.93 2.04-.23.113-.458.23-.684.35-.746.4-1.686.235-2.198-.44l-.089-.117c-.465-.614-1.33-.768-1.952-.314-.621.454-.737 1.321-.296 1.952l.086.122c.486.694.355 1.64-.254 2.229-.181.175-.36.354-.535.536-.587.61-1.532.743-2.228.26l-.123-.086c-.631-.44-1.498-.322-1.95.3-.452.623-.296 1.487.319 1.95l.118.09c.676.51.843 1.449.445 2.196-.117.22-.23.444-.34.669-.37.761-1.229 1.18-2.04.934l-.143-.043c-.736-.223-1.524.153-1.76.885-.238.732.177 1.506.904 1.757l.142.05c.8.276 1.25 1.118 1.104 1.953-.042.243-.08.489-.115.735-.116.839-.803 1.502-1.65 1.518l-.148.003C.632 22.625 0 23.23 0 24s.632 1.373 1.4 1.388l.15.003c.847.017 1.534.68 1.65 1.518.034.246.072.492.115.735.146.835-.304 1.677-1.104 1.954l-.143.049c-.727.25-1.141 1.025-.904 1.757s1.024 1.109 1.76.885l.144-.043c.811-.246 1.669.173 2.04.934.11.226.223.448.34.669.398.748.23 1.687-.445 2.197l-.118.089c-.615.464-.772 1.327-.32 1.95.453.623 1.32.74 1.95.3l.124-.085c.695-.484 1.64-.35 2.228.26.175.181.353.36.535.536.609.589.74 1.534.254 2.228l-.086.123c-.441.63-.326 1.498.296 1.952.622.454 1.486.3 1.952-.315l.089-.117c.511-.675 1.451-.84 2.198-.44.225.12.453.237.683.35.761.372 1.178 1.23.931 2.041l-.043.142c-.224.737.151 1.526.884 1.764.732.24 1.509-.175 1.761-.903l.05-.14c.277-.8 1.12-1.249 1.954-1.102.253.045.507.085.763.12.839.117 1.501.803 1.518 1.65l.003.147c.014.77.62 1.404 1.391 1.404.77 0 1.377-.633 1.391-1.404l.003-.147c.017-.847.68-1.533 1.518-1.65.256-.035.51-.075.763-.12.834-.147 1.677.302 1.955 1.102l.049.14c.252.728 1.029 1.142 1.761.904.733-.24 1.108-1.028.884-1.765l-.043-.142c-.247-.81.17-1.669.931-2.041.23-.113.458-.23.683-.35.747-.4 1.686-.235 2.198.44l.09.117c.465.614 1.329.769 1.951.315.622-.454.737-1.321.296-1.952l-.086-.123c-.485-.694-.355-1.64.254-2.228.182-.176.36-.355.535-.537.588-.61 1.533-.743 2.228-.26l.123.087c.632.439 1.498.322 1.95-.3.453-.624.296-1.487-.319-1.951l-.118-.09c-.676-.51-.843-1.449-.445-2.196.117-.22.23-.443.34-.669.371-.761 1.229-1.18 2.04-.934l.143.043c.737.223 1.524-.153 1.761-.885.237-.732-.177-1.506-.904-1.757l-.143-.05c-.8-.276-1.25-1.118-1.104-1.953.042-.243.081-.489.115-.735.116-.839.803-1.502 1.65-1.518l.15-.003c.768-.015 1.4-.62 1.4-1.388 0-.77-.633-1.375-1.402-1.39l-.149-.002c-.846-.017-1.533-.68-1.649-1.518a20.934 20.934 0 00-.115-.735c-.146-.835.303-1.677 1.104-1.953l.142-.05c.727-.25 1.142-1.025.905-1.757-.237-.732-1.025-1.108-1.761-.885l-.144.043c-.81.246-1.668-.172-2.039-.934a20.66 20.66 0 00-.34-.669c-.398-.747-.231-1.687.445-2.197l.118-.089c.615-.463.771-1.327.319-1.95-.452-.622-1.319-.74-1.95-.3l-.123.086c-.696.483-1.64.35-2.228-.26-.175-.182-.354-.36-.535-.536-.609-.59-.74-1.535-.254-2.229l.085-.122c.442-.63.326-1.498-.295-1.952-.623-.454-1.487-.3-1.952.314l-.09.118c-.511.674-1.45.839-2.197.44-.225-.121-.453-.238-.683-.35-.761-.372-1.178-1.23-.931-2.041l.043-.142c.224-.737-.152-1.526-.884-1.765-.733-.238-1.509.176-1.762.903l-.048.14c-.278.801-1.12 1.25-1.955 1.102a21.013 21.013 0 00-.763-.12c-.839-.116-1.501-.803-1.518-1.65l-.003-.146C25.377.634 24.771 0 24 0c-.77 0-1.377.633-1.391 1.404l-.003.147c-.017.846-.68 1.533-1.518 1.65a20.9 20.9 0 00-.763.12c-.834.147-1.677-.302-1.954-1.102l-.05-.14zM24 41c9.389 0 17-7.611 17-17S33.389 7 24 7 7 14.611 7 24s7.611 17 17 17z" fill="url(#paint2_linear)"/><defs><linearGradient id="paint0_linear" x1="24" y1="6" x2="24" y2="42" gradientUnits="userSpaceOnUse"><stop offset=".012" stop-color="#969499" stop-opacity=".9"/><stop offset=".349" stop-color="#7D7B80" stop-opacity=".9"/><stop offset=".721" stop-color="#969499" stop-opacity=".9"/><stop offset="1" stop-color="#BEBFC5"/></linearGradient><linearGradient id="paint2_linear" x1="24" y1="0" x2="24" y2="48" gradientUnits="userSpaceOnUse"><stop stop-color="#D1D1D4"/><stop offset=".183" stop-color="#D2D3D6"/><stop offset=".36" stop-color="#ABAAB0"/><stop offset=".677" stop-color="#ABA9AF"/><stop offset="1" stop-color="#838087"/></linearGradient><radialGradient id="paint1_radial" cx="0" cy="0" r="1" gradientUnits="userSpaceOnUse" gradientTransform="matrix(0 25.5 -4.22448 0 24 24)"><stop stop-color="#fff" stop-opacity=".8"/><stop offset="1" stop-color="#fff" stop-opacity="0"/></radialGradient></defs></svg>