<svg xmlns="http://www.w3.org/2000/svg" width="9" height="15" viewBox="0 0 9 15">
  <path d="M0,0 L9,0 L9,15 L0,15 L0,0 Z M1,1 L1,8 L8,8 L8,1 L1,1 Z M1,9 L1,10 L2,10 L2,9 L1,9 Z M3,9 L3,10 L4,10 L4,9 L3,9 Z M5,9 L5,10 L6,10 L6,9 L5,9 Z M7,9 L7,10 L8,10 L8,9 L7,9 Z M1,11 L1,12 L2,12 L2,11 L1,11 Z M3,11 L3,12 L4,12 L4,11 L3,11 Z M5,11 L5,12 L6,12 L6,11 L5,11 Z M7,11 L7,12 L8,12 L8,11 L7,11 Z M1,13 L1,14 L2,14 L2,13 L1,13 Z M3,13 L3,14 L4,14 L4,13 L3,13 Z M5,13 L5,14 L6,14 L6,13 L5,13 Z M7,13 L7,14 L8,14 L8,13 L7,13 Z"/>
</svg>
