<svg xmlns="http://www.w3.org/2000/svg" width="12" height="15" viewBox="0 0 12 15">
  <path d="M12,357.239579 C12,358.344148 9.3137085,359.239579 6,359.239579 C2.6862915,359.239579 0,358.344148 0,357.239579 L0,354.239579 C0,355.344148 2.6862915,356.239579 6,356.239579 C9.3137085,356.239579 12,355.344148 12,354.239579 L12,357.239579 Z M12,353.239579 C12,354.344148 9.3137085,355.239579 6,355.239579 C2.6862915,355.239579 0,354.344148 0,353.239579 L0,350.239579 C0,351.344148 2.6862915,352.239579 6,352.239579 C9.3137085,352.239579 12,351.344148 12,350.239579 L12,353.239579 Z M12,349.239579 C12,350.344148 9.3137085,351.239579 6,351.239579 C2.6862915,351.239579 0,350.344148 0,349.239579 L0,346.239579 C0,347.344148 2.6862915,348.239579 6,348.239579 C9.3137085,348.239579 12,347.344148 12,346.239579 L12,349.239579 Z M6,347.460309 C3.23857625,347.460309 1,346.791863 1,346.239579 C1,345.687294 3.23857625,345 6,345 C8.76142375,345 11,345.687294 11,346.239579 C11,346.791863 8.76142375,347.460309 6,347.460309 Z" transform="translate(0 -345)"/>
</svg>
