<svg xmlns="http://www.w3.org/2000/svg" width="15" height="15" viewBox="0 0 15 15">
  <g>
    <path d="M2.55980111 7C2.25173071 6.91745066 1.95985589 6.79530964 1.68996415 6.63936445L1.76151566 5.23848434.360635553 5.31003585C.204690363 5.04014411.0825493433 4.74826929 0 4.44019889L1.04141186 3.5 0 2.55980111C.0825493433 2.25173071.204690363 1.95985589.360635553 1.68996415L1.76151566 1.76151566 1.68996415.360635553C1.95985589.204690363 2.25173071.0825493433 2.55980111 0L3.5 1.04141186 4.44019889 1.32399052e-13C4.74826929.0825493433 5.04014411.204690363 5.31003585.360635553L5.23848434 1.76151566 6.63936445 1.68996415C6.79530964 1.95985589 6.91745066 2.25173071 7 2.55980111L5.95858814 3.5 7 4.44019889C6.91745066 4.74826929 6.79530964 5.04014411 6.63936445 5.31003585L5.23848434 5.23848434 5.31003585 6.63936445C5.04014411 6.79530964 4.74826929 6.91745066 4.44019889 7L3.5 5.95858814 2.55980111 7zM3.49378314 4.91717628C4.27990146 4.91717628 4.91717628 4.27990146 4.91717628 3.49378314 4.91717628 2.70766482 4.27990146 2.07039001 3.49378314 2.07039001 2.70766482 2.07039001 2.07039001 2.70766482 2.07039001 3.49378314 2.07039001 4.27990146 2.70766482 4.91717628 3.49378314 4.91717628zM8.67442772 15.0480439C8.23221274 14.9295497 7.81324544 14.7542243 7.42583343 14.5303751L7.52854096 12.519503 5.51766884 12.6222105C5.29381968 12.2347985 5.1184942 11.8158312 5 11.3736162L6.49487888 10.024022 5 8.67442772C5.1184942 8.23221274 5.29381968 7.81324544 5.51766884 7.42583343L7.52854096 7.52854096 7.42583343 5.51766884C7.81324544 5.29381968 8.23221274 5.1184942 8.67442772 5L10.024022 6.49487888 11.3736162 5C11.8158312 5.1184942 12.2347985 5.29381968 12.6222105 5.51766884L12.519503 7.52854096 14.5303751 7.42583343C14.7542243 7.81324544 14.9295497 8.23221274 15.0480439 8.67442772L13.5531651 10.024022 15.0480439 11.3736162C14.9295497 11.8158312 14.7542243 12.2347985 14.5303751 12.6222105L12.519503 12.519503 12.6222105 14.5303751C12.2347985 14.7542243 11.8158312 14.9295497 11.3736162 15.0480439L10.024022 13.5531651 8.67442772 15.0480439zM10.024022 12.6244432C11.460195 12.6244432 12.6244432 11.460195 12.6244432 10.024022 12.6244432 8.58784898 11.460195 7.42360074 10.024022 7.42360074 8.58784898 7.42360074 7.42360074 8.58784898 7.42360074 10.024022 7.42360074 11.460195 8.58784898 12.6244432 10.024022 12.6244432zM10.0150981 11.3153087C9.29701159 11.3153087 8.71488747 10.7331846 8.71488747 10.0150981 8.71488747 9.29701159 9.29701159 8.71488747 10.0150981 8.71488747 10.7331846 8.71488747 11.3153087 9.29701159 11.3153087 10.0150981 11.3153087 10.7331846 10.7331846 11.3153087 10.0150981 11.3153087z"/>
  </g>
</svg>
