<svg xmlns="http://www.w3.org/2000/svg" width="14" height="15" viewBox="0 0 14 15">
  <path d="M10.9616028,9 C10.98674,9.11264783 11,9.2297754 11,9.35 L11,17.75 L10.8,17.75 C9.14314575,17.75 7.8,16.4068542 7.8,14.75 L7,13.75 L7.8,12.75 L7.8,11.75 L7,10.75 C7.47831034,10.2896695 7.74497701,9.95633622 7.8,9.75 C7.8220272,9.66739801 7.83523631,9.51102261 7.83962734,9.28087382 L7.83963968,9.28087405 C7.84149022,9.18388117 7.85216043,9.08909383 7.87087648,8.99727124 C6.27392126,8.92964594 5,7.6135931 5,6 L5,5 C5,3.34314575 6.34314575,2 8,2 L11,2 C12.6568542,2 14,3.34314575 14,5 L14,6 C14,7.65685425 12.6568542,9 11,9 L10.9616028,9 Z M9.5,6.75 C10.3284271,6.75 11,6.13439153 11,5.375 C11,4.61560847 10.3284271,4 9.5,4 C8.67157288,4 8,4.61560847 8,5.375 C8,6.13439153 8.67157288,6.75 9.5,6.75 Z" transform="rotate(45 10.414 5.254)"/>
</svg>
