<svg xmlns="http://www.w3.org/2000/svg" width="15" height="17" viewBox="0 0 15 17">
  <path d="M72.5182918,1.00181072 L75.2245744,1.78732705 C76.1760866,2.06350972 76.7965716,2.99201641 76.698104,3.9923473 L76.2123176,8.92744111 C75.980002,11.287531 74.7194767,13.4178848 72.776853,14.7335565 L70.2757137,16.4274915 C69.9321439,16.6601794 69.4845495,16.6601794 69.1409797,16.4274915 L66.6398404,14.7335565 C64.6972167,13.4178848 63.4366914,11.287531 63.2043758,8.92744111 L62.7185895,3.9923473 C62.6201218,2.99201641 63.2406069,2.06350972 64.192119,1.78732705 L66.8984017,1.00181072 C68.7349529,0.46873964 70.6817405,0.46873964 72.5182918,1.00181072 Z M69.6996415,2.68020509 L69.4877,14.1642948 L69.7077435,14.3137615 L71.642119,13.0043954 C72.9999486,12.0847845 73.9061068,10.6257082 74.1434685,8.99411911 L74.176799,8.72065318 L74.6625854,3.78555937 L71.9563027,3.00004303 C71.3417713,2.82167125 70.7118117,2.71790606 70.07933,2.68874746 L69.6996415,2.68020509 Z" transform="translate(-62.396 -.396)"/>
</svg>
