<svg xmlns="http://www.w3.org/2000/svg" width="13" height="15" viewBox="0 0 13 15">
  <path d="M2,5 L2,3.5 C2,1.56700338 3.56700338,0 5.5,0 L7.5,0 C9.43299662,0 11,1.56700338 11,3.5 L11,5 L12,5 C12.5522847,5 13,5.44771525 13,6 L13,14 C13,14.5522847 12.5522847,15 12,15 L1,15 C0.44771525,15 6.76353751e-17,14.5522847 0,14 L0,6 C-6.76353751e-17,5.44771525 0.44771525,5 1,5 L2,5 Z M4,5 L9,5 L9,3.5 C9,2.67157288 8.32842712,2 7.5,2 L5.5,2 C4.67157288,2 4,2.67157288 4,3.5 L4,5 Z M6.9635081,9.92701619 C7.56508738,9.73175405 8,9.16666667 8,8.5 C8,7.67157288 7.32842712,7 6.5,7 C5.67157288,7 5,7.67157288 5,8.5 C5,9.16666667 5.43491262,9.73175405 6.0364919,9.92701619 L5,12 L8,12 L6.9635081,9.92701619 Z"/>
</svg>
