<svg width="16" height="16" viewBox="0 0 16 16" fill="none" xmlns="http://www.w3.org/2000/svg">
<path fill-rule="evenodd" clip-rule="evenodd" d="M7.05805 2.21344C7.03427 2.12868 7.02151 2.03898 7.02151 1.94616C7.02151 1.42361 7.42589 1 7.92473 1C8.42357 1 8.82796 1.42361 8.82796 1.94616C8.82796 2.03898 8.8152 2.12868 8.79141 2.21344C10.3682 2.62011 11.5376 4.11123 11.5376 5.88847C11.5376 6.48118 11.857 7.58821 12.2375 8.39233C12.7002 9.37037 13.0327 10.0452 13.4443 10.5476C14.4172 10.7101 15 10.917 15 11.1423C15 11.6649 11.866 12.0885 8 12.0885C4.13401 12.0885 1 11.6649 1 11.1423C1 10.9202 1.56629 10.716 2.51439 10.5545C2.99533 10.0088 3.42286 9.18561 3.74086 8.28136C4.05885 7.3771 4.31183 6.51755 4.31183 5.88847C4.31183 4.11123 5.48127 2.62011 7.05805 2.21344ZM8.34148 2.12876C8.20474 2.1123 8.06568 2.10385 7.92473 2.10385C7.78379 2.10385 7.64472 2.1123 7.50799 2.12876C7.48553 2.07257 7.47312 2.01088 7.47312 1.94616C7.47312 1.68488 7.67531 1.47308 7.92473 1.47308C8.17415 1.47308 8.37634 1.68488 8.37634 1.94616C8.37634 2.01088 8.36394 2.07257 8.34148 2.12876Z" fill="black"/>
<path d="M8.00001 13.0891C7.30526 13.0891 6.63414 13.0755 6.00061 13.05C6.0268 14.1318 6.91194 15.0007 8.00001 15.0007C9.08809 15.0007 9.97323 14.1318 9.99942 13.05C9.36588 13.0755 8.69477 13.0891 8.00001 13.0891Z" fill="black"/>
</svg>
