<svg xmlns="http://www.w3.org/2000/svg" width="16" height="16" viewBox="0 0 16 16">
  <path d="M12,327 C7.581722,327 4,323.418278 4,319 C4,314.581722 7.581722,311 12,311 C16.418278,311 20,314.581722 20,319 C20,323.418278 16.418278,327 12,327 Z M9.5,313 C9.35044964,312.908109 9.18378298,312.908109 9,313 C8.72432554,313.137837 8.79290551,313.060642 8.5,313.5 C8.20709449,313.939358 8.25,314 8,314.5 C7.75,315 7.68298919,315.317011 7.5,315.5 C7.31701081,315.682989 7.27526767,315.362366 7,315.5 C6.72473233,315.637634 6.6339872,315.598038 6.5,316 C6.3660128,316.401962 6.60353495,316.79293 6.5,317 C6.39646505,317.20707 6,316.682989 6,317 C6,317.317011 6.3876213,317.550485 6.5,318 C6.6123787,318.449515 6.18303621,318.366072 6.5,319 C6.81696379,319.633928 7.39644046,320 7.5,320 C7.60355954,320 7,319.5 7,319 C7,318.5 7.29290551,318.103547 7.5,318 C7.70709449,317.896453 7.75,318.5 8,318.5 C8.25,318.5 8.27526767,318.112366 8.5,318 C8.72473233,317.887634 8.68298919,318.317011 9,318 C9.31701081,317.682989 9.09811402,317.267924 9.5,317 C9.90188598,316.732076 10.3693687,317.065316 10.5,317 C10.6306313,316.934684 10.3415181,316.816964 10.5,316.5 C10.6056546,316.288691 10.7723213,316.122024 11,316 L11,315.5 L10.5,315 C10.5,315.666667 10.3333333,316 10,316 C9.5,316 9,315.5 9,315 C9,314.5 9,314.5 9.5,314.5 C10,314.5 10.5,314 10,314 C9.66666667,314 9.5,313.666667 9.5,313 Z M11.5,313.5 C11.5,313.833333 11.6666667,314 12,314 C12.5,314 12,314.5 12,315 C12,315.5 12.5,315 12.5,314.5 C12.5,314.166667 12.6666667,314.166667 13,314.5 C13,314.166667 12.8333333,313.833333 12.5,313.5 C12.1666667,313.166667 11.8333333,313.166667 11.5,313.5 Z M14,312.5 C14,312.833333 14.1666667,313.166667 14.5,313.5 C15,314 14.5,314 15,314.5 C15.5,315 15.5,315 15.5,315.5 C15.5,315.833333 15.5,316.333333 15.5,317 C15.8333333,316 16.1666667,315.5 16.5,315.5 C17,315.5 18,316.5 18,316.5 C18,316.5 18,316 17.5,315 C17,314 17,314 16,313.5 C15,313 15.5,313.5 15,313 C14.6666667,312.666667 14.3333333,312.5 14,312.5 Z M16,317.5 C16,317.833333 16,318 16,318 C16,318 15.5,318.5 15.5,319 C15.5,319.5 15.5,320.5 16,321 C16.5,321.5 17,321 17.3611111,320.5 C17.7222222,320 18.5,321.5 18.5,321.5 C18.5,321.5 19,320.5 18.5,320 C18,319.5 18.5,319.5 18.5,319 C18.5,318.5 19,318 18.5,317.5 C18,317 17.5,317 17,317 C16.6666667,317 16.3333333,317.166667 16,317.5 Z M11,322.5 L10.5,322 C9.83333333,322 9.5,321.833333 9.5,321.5 C9.5,321 8.5,321 8.5,321.5 C8.5,322 8.5,322 8.5,322.5 C8.5,323 9.25,323 9.5,323.5 C9.75,324 9.5,324 9.5,324.5 C9.5,325 10,325 10.5,325 C11,325 11.5,325 12,324.5 C12.5,324 13.5,323.625 13,323.0625 C12.5,322.5 12.5,322 12,322.5 C11.6666667,322.833333 11.3333333,322.833333 11,322.5 Z" transform="translate(-4 -311)"/>
</svg>
