<svg xmlns="http://www.w3.org/2000/svg" width="14" height="16" viewBox="0 0 14 16">
  <path d="M37.4727112,189.39618 C39.5543999,189.39618 41.241942,191.06765 41.241942,193.129513 L41.241942,194.729513 L42.318865,194.729513 C42.9136332,194.729513 43.3957881,195.207076 43.3957881,195.79618 L43.3957881,204.329513 C43.3957881,204.918617 42.9136332,205.39618 42.318865,205.39618 L30.4727112,205.39618 C29.877943,205.39618 29.3957881,204.918617 29.3957881,204.329513 L29.3957881,195.79618 C29.3957881,195.207076 29.877943,194.729513 30.4727112,194.729513 L31.5496343,194.729513 L31.5496343,193.129513 C31.5496343,191.06765 33.2371764,189.39618 35.318865,189.39618 L37.4727112,189.39618 Z M38.7404542,197.066386 L35.4801971,200.359621 L34.0647229,198.909331 C33.92162,198.760502 33.6883,198.760502 33.5420862,198.906165 L32.6679142,199.789638 C32.5217004,199.9353 32.5217004,200.172793 32.6648033,200.321622 L35.206435,202.927711 C35.3495379,203.07654 35.5828578,203.07654 35.7290717,202.930877 L40.1248191,198.491344 C40.2679219,198.342515 40.2710329,198.105022 40.12793,197.95936 L39.2630908,197.069553 C39.1199879,196.920724 38.886668,196.920724 38.7404542,197.066386 Z M37.4727112,191.529513 L35.318865,191.529513 C34.4267128,191.529513 33.7034804,192.245857 33.7034804,193.129513 L33.7034804,194.729513 L39.0880958,194.729513 L39.0880958,193.129513 C39.0880958,192.245857 38.3648635,191.529513 37.4727112,191.529513 Z" transform="translate(-29.396 -189.396)"/>
</svg>
