<svg xmlns="http://www.w3.org/2000/svg" fill="none" viewBox="0 0 100 52"><path fill="#fff" d="M17.64 10.139c2.746-.188 5.497-.081 7.828 1.54 2.191 1.524 3.022 3.644 3.447 6.13-1.819.64-3.621 1.22-5.49 1.702-.327-.903-.638-1.904-1.324-2.617-.63-.652-1.962-1.352-2.898-1.307-.67.032-1.195.239-1.607.777-.616.803-.94 2.396-.583 3.345.886 2.36 5.591 3.47 7.7 4.709 2.166 1.273 4.063 3.212 4.608 5.691.554 2.514-.325 5.837-1.783 7.945-1.485 2.147-3.561 3.301-6.118 3.802-1.16.067-2.32.129-3.476-.014-2.337-.29-4.583-1.39-5.996-3.263-.84-1.114-1.787-3.21-1.572-4.623 1.104-1.205 3.847-1.492 5.407-1.858.494 1.399.916 2.764 2.302 3.562.741.426 1.59.57 2.422.33.952-.276 1.736-1.004 2.143-1.882.38-.816.409-1.747.084-2.585-1.014-2.537-5.156-3.338-7.436-4.465-2.25-1.095-3.921-3.067-4.603-5.43-.743-2.518-.409-5.45 1.002-7.692 1.42-2.26 3.369-3.239 5.943-3.797Zm39.534.529c2.093-.084 4.175-.042 6.269.006.265 8.328.118 16.743.047 25.076a53.898 53.898 0 0 1 8.171.03c.2 1.901.123 3.797-.119 5.69-4.456.569-9.815.263-14.315.043-.269-3.898-.098-7.894-.102-11.802-.035-6.348-.019-12.696.05-19.043Zm-18.607.007c2.499-.125 5.029-.055 7.532-.06a1345.358 1345.358 0 0 0 4.997 19.309c.933 3.583 2.26 7.468 2.503 11.15-.064.059-.122.127-.193.178-1.088.771-4.499.325-5.894.277a197.896 197.896 0 0 0-1.371-5.995l-7.639-.017-1.324 6.09c-2.143.022-4.267-.032-6.408-.14 2.14-10.34 5.427-20.49 7.797-30.792Zm36.716-.01c4.753-.158 9.535-.054 14.29-.016.113 1.963.087 3.894.021 5.858-2.748.179-5.529.152-8.282.204l-.012 6.706c2.61-.115 5.188-.182 7.802-.121.1 1.902.04 3.832.04 5.738l-7.815.047-.032 5.466.084.796c1.106.846 6.678.302 8.258.306.037 1.986.14 3.994-.108 5.969-4.772.038-9.544-.005-14.315-.127-.253-10.067-.39-20.788.07-30.825ZM42.168 19c-.92 3.672-1.562 7.405-2.488 11.075l2.599-.183c.761 0 1.969.164 2.64-.173-.331-1.688-1.979-9.681-2.75-10.72Z"/></svg>