<svg xmlns="http://www.w3.org/2000/svg" width="14" height="14" viewBox="0 0 14 14">
  <path fill="#FFF" d="M26.75,89.5 C23.0220779,89.5 20,86.4779221 20,82.75 C20,79.0220779 23.0220779,76 26.75,76 C30.4779221,76 33.5,79.0220779 33.5,82.75 C33.5,86.4779221 30.4779221,89.5 26.75,89.5 Z M26.75,88 C29.6494949,88 32,85.6494949 32,82.75 C32,79.8505051 29.6494949,77.5 26.75,77.5 C23.8505051,77.5 21.5,79.8505051 21.5,82.75 C21.5,85.6494949 23.8505051,88 26.75,88 Z M28.743998,84.1856721 C29.0556677,84.4584996 29.0871555,84.9323283 28.8143279,85.243998 C28.5415004,85.5556677 28.0676717,85.5871555 27.756002,85.3143279 L25.756002,83.5635799 C25.5933127,83.4211659 25.5,83.2154685 25.5,82.999252 L25.5,79.75 C25.5,79.3357864 25.8357864,79 26.25,79 C26.6642136,79 27,79.3357864 27,79.75 L27,82.6590216 L28.743998,84.1856721 Z" opacity=".8" transform="translate(-20 -76)"/>
</svg>
