<svg width="104" height="104" fill="none" xmlns="http://www.w3.org/2000/svg"><path d="M51.324.62a1 1 0 0 1 1.352 0l4.916 4.507a1 1 0 0 0 1.138.15l5.916-3.082a1 1 0 0 1 1.305.35l3.582 5.626a1 1 0 0 0 1.06.44l6.512-1.446a1 1 0 0 1 1.17.676l2.004 6.362a1 1 0 0 0 .911.698l6.664.29a1 1 0 0 1 .955.955l.29 6.664a1 1 0 0 0 .698.91l6.362 2.005a1 1 0 0 1 .676 1.17l-1.446 6.512a1 1 0 0 0 .44 1.06l5.626 3.582c.437.279.589.846.35 1.306l-3.082 5.915a1 1 0 0 0 .15 1.138l4.507 4.916a1 1 0 0 1 0 1.352l-4.507 4.916a1 1 0 0 0-.15 1.138l3.082 5.916c.239.46.087 1.026-.35 1.305l-5.626 3.582a1 1 0 0 0-.44 1.06l1.446 6.512a1 1 0 0 1-.676 1.17l-6.362 2.004a1 1 0 0 0-.698.911l-.29 6.664a1 1 0 0 1-.955.955l-6.664.29a1 1 0 0 0-.91.698l-2.005 6.362a1 1 0 0 1-1.17.676l-6.511-1.446a1 1 0 0 0-1.06.44l-3.583 5.626a1.001 1.001 0 0 1-1.305.35l-5.916-3.082a1 1 0 0 0-1.138.15l-4.916 4.507a1 1 0 0 1-1.352 0l-4.916-4.507a1 1 0 0 0-1.138-.15l-5.916 3.082a1.001 1.001 0 0 1-1.305-.35l-3.582-5.626a1 1 0 0 0-1.06-.44l-6.512 1.446a1 1 0 0 1-1.17-.676l-2.005-6.362a1 1 0 0 0-.91-.698l-6.664-.29a1 1 0 0 1-.955-.955l-.29-6.664a1 1 0 0 0-.698-.91L7.84 78.275a1 1 0 0 1-.676-1.17l1.446-6.511a1 1 0 0 0-.44-1.06L2.545 65.95a1 1 0 0 1-.35-1.305l3.082-5.916a1 1 0 0 0-.15-1.138L.62 52.676a1 1 0 0 1 0-1.352l4.507-4.916a1 1 0 0 0 .15-1.138l-3.082-5.916a1 1 0 0 1 .35-1.305l5.626-3.582a1 1 0 0 0 .44-1.06l-1.446-6.512a1 1 0 0 1 .676-1.17l6.362-2.005a1 1 0 0 0 .698-.91l.29-6.664a1 1 0 0 1 .955-.955l6.664-.29a1 1 0 0 0 .91-.698l2.005-6.362a1 1 0 0 1 1.17-.676l6.512 1.446a1 1 0 0 0 1.06-.44l3.582-5.626a1 1 0 0 1 1.306-.35l5.915 3.082a1 1 0 0 0 1.138-.15L51.324.62Z" fill="#020202"/></svg>