<?xml version="1.0" encoding="UTF-8"?>
<!-- Generated by Pixelmator Pro 3.3.2 -->
<svg width="96" height="96" viewBox="0 0 96 96" xmlns="http://www.w3.org/2000/svg" xmlns:xlink="http://www.w3.org/1999/xlink">
    <path id="Path" fill="#0070f0" fill-rule="evenodd" stroke="none" d="M 27.4424 47.709198 C 27.490101 30.240898 41.932999 16 60.0821 16 C 78.054703 16 92.928596 30.288002 92.722 47.795898 C 92.722 65.303802 78.054703 79.591797 60.0821 79.591797 C 42.139 79.591797 27.4904 65.551201 27.4424 47.882999 L 27.4424 71.542198 L 15.8739 71.542198 L 1 25.256996 L 27.4424 25.256996 Z M 47.893799 47.795898 C 47.893799 54.2356 53.4715 59.669102 60.0821 59.669102 C 66.8993 59.669102 72.2705 54.2356 72.2705 47.795898 C 72.2705 41.356201 66.692802 35.922798 60.0821 35.922798 C 53.4715 35.922798 47.893799 41.356201 47.893799 47.795898 Z"/>
</svg>
