<svg width="48" height="48" viewBox="0 0 48 48" fill="none" xmlns="http://www.w3.org/2000/svg">
<path d="M43.7566 14.0189C46.5855 18.89 48 21.3256 48 24C48 26.6744 46.5855 29.11 43.7566 33.9812L42.5732 36.0189C39.7443 40.89 38.3298 43.3256 36 44.6628C33.6702 46 30.8413 46 25.1834 46H22.8166C17.1587 46 14.3298 46 12 44.6628C9.67021 43.3256 8.25574 40.89 5.42681 36.0189L4.2434 33.9811C1.41447 29.11 -6.71907e-08 26.6744 0 24C6.71915e-08 21.3256 1.41447 18.89 4.2434 14.0189L5.42681 11.9811C8.25575 7.11001 9.67021 4.67444 12 3.33722C14.3298 2 17.1587 2 22.8166 2L25.1834 2C30.8413 2 33.6702 2 36 3.33722C38.3298 4.67444 39.7443 7.11001 42.5732 11.9812L43.7566 14.0189Z" fill="url(#paint0_linear_37_1730)"/>
<path d="M43.7566 14.0189C46.5855 18.89 48 21.3256 48 24C48 26.6744 46.5855 29.11 43.7566 33.9812L42.5732 36.0189C39.7443 40.89 38.3298 43.3256 36 44.6628C33.6702 46 30.8413 46 25.1834 46H22.8166C17.1587 46 14.3298 46 12 44.6628C9.67021 43.3256 8.25574 40.89 5.42681 36.0189L4.2434 33.9811C1.41447 29.11 -6.71907e-08 26.6744 0 24C6.71915e-08 21.3256 1.41447 18.89 4.2434 14.0189L5.42681 11.9811C8.25575 7.11001 9.67021 4.67444 12 3.33722C14.3298 2 17.1587 2 22.8166 2L25.1834 2C30.8413 2 33.6702 2 36 3.33722C38.3298 4.67444 39.7443 7.11001 42.5732 11.9812L43.7566 14.0189Z" fill="url(#paint1_radial_37_1730)" fill-opacity="0.4"/>
<path fill-rule="evenodd" clip-rule="evenodd" d="M10.474 27.6256C10.5375 27.863 10.4002 28.1094 10.1628 28.173L9.09801 28.4583C8.85616 28.5231 8.60619 28.3846 8.54154 28.1427C8.47693 27.901 8.62375 27.6549 8.86538 27.5901L9.93022 27.3048C10.1678 27.2411 10.4105 27.388 10.474 27.6256ZM20.3744 10.474C20.137 10.5375 19.8907 10.4002 19.827 10.1629L19.5417 9.09803C19.4769 8.85618 19.6155 8.60621 19.8573 8.54156C20.099 8.47695 20.3452 8.62377 20.4099 8.8654L20.6952 9.93023C20.7589 10.1678 20.6121 10.4105 20.3744 10.474ZM27.3047 38.0698C27.241 37.8322 27.3879 37.5895 27.6255 37.526C27.8629 37.4625 28.1093 37.5998 28.1729 37.8372L28.4582 38.9021C28.523 39.1439 28.3845 39.3939 28.1426 39.4586C27.9009 39.5232 27.6548 39.3764 27.59 39.1347L27.3047 38.0698ZM38.0698 20.6953C37.8322 20.759 37.5895 20.6122 37.526 20.3745C37.4625 20.1371 37.5998 19.8908 37.8372 19.8272L38.9021 19.5418C39.1439 19.477 39.3939 19.6155 39.4586 19.8574C39.5232 20.0991 39.3763 20.3453 39.1347 20.41L38.0698 20.6953ZM36.7341 30.833C36.5213 30.7101 36.2495 30.7883 36.1264 31.001C36.0032 31.214 36.0717 31.4884 36.2847 31.6114L37.2393 32.1625C37.4559 32.2875 37.7331 32.2183 37.8584 32.0018C37.9838 31.7851 37.9056 31.5093 37.6887 31.3841L36.7341 30.833ZM17.1669 36.7341C17.2898 36.5213 17.2116 36.2495 16.9989 36.1264C16.7859 36.0032 16.5115 36.0717 16.3885 36.2847L15.8374 37.2393C15.7123 37.4559 15.7816 37.7331 15.998 37.8584C16.2148 37.9838 16.4906 37.9056 16.6158 37.6888L17.1669 36.7341ZM31.0012 11.8737C31.2141 11.9969 31.4885 11.9284 31.6115 11.7154L32.1626 10.7608C32.2877 10.5442 32.2185 10.267 32.002 10.1417C31.7852 10.0163 31.5095 10.0945 31.3843 10.3114L30.8331 11.266C30.7103 11.4788 30.7885 11.7506 31.0012 11.8737ZM11.8737 16.9987C11.9969 16.7858 11.9284 16.5114 11.7154 16.3884L10.7607 15.8372C10.5442 15.7122 10.2669 15.7814 10.1417 15.9979C10.0163 16.2146 10.0945 16.4904 10.3113 16.6156L11.2659 17.1668C11.4787 17.2896 11.7506 17.2114 11.8737 16.9987ZM11.7154 31.6114C11.9284 31.4884 11.9969 31.214 11.8737 31.001C11.7506 30.7883 11.4788 30.7101 11.266 30.833L10.3113 31.3841C10.0945 31.5093 10.0163 31.7851 10.1417 32.0019C10.2669 32.2183 10.5442 32.2876 10.7607 32.1625L11.7154 31.6114ZM16.9989 11.8736C16.786 11.9968 16.5116 11.9284 16.3886 11.7153L15.8375 10.7608C15.7124 10.5442 15.7817 10.267 15.9981 10.1417C16.2149 10.0163 16.4907 10.0945 16.6159 10.3114L17.167 11.2659C17.2898 11.4787 17.2116 11.7505 16.9989 11.8736ZM36.2847 16.3884C36.0717 16.5114 36.0032 16.7858 36.1264 16.9987C36.2495 17.2114 36.5214 17.2896 36.7342 17.1668L37.6887 16.6157C37.9056 16.4904 37.9838 16.2147 37.8584 15.9979C37.7331 15.7815 37.4559 15.7122 37.2393 15.8373L36.2847 16.3884ZM31.6116 36.2847C31.4886 36.0716 31.2142 36.0031 31.0012 36.1264C30.7885 36.2494 30.7103 36.5213 30.8332 36.7341L31.3844 37.6888C31.5096 37.9056 31.7854 37.9838 32.0021 37.8584C32.2186 37.7331 32.2878 37.4559 32.1628 37.2393L31.6116 36.2847ZM20.6956 38.0698C20.7593 37.8322 20.6124 37.5896 20.3748 37.526C20.1374 37.4626 19.891 37.5998 19.8274 37.8372L19.5421 38.9021C19.4773 39.144 19.6158 39.3939 19.8577 39.4586C20.0994 39.5232 20.3455 39.3764 20.4103 39.1347L20.6956 38.0698ZM9.93015 20.6955C10.1677 20.7591 10.4104 20.6123 10.4739 20.3746C10.5374 20.1372 10.4001 19.8909 10.1628 19.8273L9.09785 19.5419C8.856 19.4771 8.60603 19.6156 8.54137 19.8575C8.47677 20.0992 8.62359 20.3454 8.86522 20.4101L9.93015 20.6955ZM27.3051 9.93027C27.2414 10.1678 27.3882 10.4105 27.6259 10.474C27.8633 10.5375 28.1096 10.4003 28.1733 10.1629L28.4586 9.09804C28.5234 8.8562 28.3849 8.60623 28.143 8.54157C27.9013 8.47696 27.6551 8.62378 27.5904 8.86541L27.3051 9.93027ZM37.5259 27.6257C37.4625 27.8631 37.5997 28.1095 37.8371 28.1731L38.9019 28.4584C39.1438 28.5232 39.3937 28.3847 39.4584 28.1428C39.523 27.9011 39.3762 27.655 39.1345 27.5902L38.0697 27.3049C37.8321 27.2412 37.5895 27.3881 37.5259 27.6257ZM35.381 36.0169C35.5579 36.1937 35.8439 36.1979 36.0208 36.0211C36.1976 35.8442 36.1934 35.5582 36.0166 35.3813L34.53 33.8947C34.3561 33.7209 34.0733 33.7259 33.8995 33.8997C33.7256 34.0736 33.7206 34.3564 33.8944 34.5303L35.381 36.0169ZM14.1007 33.8996C14.2746 34.0735 14.2796 34.3563 14.1057 34.5301L12.6191 36.0167C12.4423 36.1936 12.1562 36.1978 11.9794 36.0209C11.8025 35.8441 11.8067 35.558 11.9836 35.3812L13.4702 33.8946C13.644 33.7207 13.9268 33.7257 14.1007 33.8996ZM14.1005 14.1008C13.9266 14.2746 13.6438 14.2797 13.4699 14.1058L11.9833 12.6192C11.8065 12.4423 11.8023 12.1563 11.9791 11.9794C12.156 11.8026 12.442 11.8068 12.6189 11.9836L14.1055 13.4702C14.2793 13.6441 14.2743 13.9269 14.1005 14.1008ZM34.5302 14.1056L36.0168 12.6191C36.1936 12.4422 36.1978 12.1562 36.021 11.9793C35.8441 11.8025 35.5581 11.8067 35.3812 11.9835L33.8947 13.4701C33.7208 13.6439 33.7258 13.9267 33.8997 14.1006C34.0736 14.2745 34.3564 14.2795 34.5302 14.1056Z" fill="url(#paint2_linear_37_1730)"/>
<path fill-rule="evenodd" clip-rule="evenodd" d="M10.474 27.6256C10.5375 27.863 10.4002 28.1094 10.1628 28.173L9.09801 28.4583C8.85616 28.5231 8.60619 28.3846 8.54154 28.1427C8.47693 27.901 8.62375 27.6549 8.86538 27.5901L9.93022 27.3048C10.1678 27.2411 10.4105 27.388 10.474 27.6256ZM20.3744 10.474C20.137 10.5375 19.8907 10.4002 19.827 10.1629L19.5417 9.09803C19.4769 8.85618 19.6155 8.60621 19.8573 8.54156C20.099 8.47695 20.3452 8.62377 20.4099 8.8654L20.6952 9.93023C20.7589 10.1678 20.6121 10.4105 20.3744 10.474ZM27.3047 38.0698C27.241 37.8322 27.3879 37.5895 27.6255 37.526C27.8629 37.4625 28.1093 37.5998 28.1729 37.8372L28.4582 38.9021C28.523 39.1439 28.3845 39.3939 28.1426 39.4586C27.9009 39.5232 27.6548 39.3764 27.59 39.1347L27.3047 38.0698ZM38.0698 20.6953C37.8322 20.759 37.5895 20.6122 37.526 20.3745C37.4625 20.1371 37.5998 19.8908 37.8372 19.8272L38.9021 19.5418C39.1439 19.477 39.3939 19.6155 39.4586 19.8574C39.5232 20.0991 39.3763 20.3453 39.1347 20.41L38.0698 20.6953ZM36.7341 30.833C36.5213 30.7101 36.2495 30.7883 36.1264 31.001C36.0032 31.214 36.0717 31.4884 36.2847 31.6114L37.2393 32.1625C37.4559 32.2875 37.7331 32.2183 37.8584 32.0018C37.9838 31.7851 37.9056 31.5093 37.6887 31.3841L36.7341 30.833ZM17.1669 36.7341C17.2898 36.5213 17.2116 36.2495 16.9989 36.1264C16.7859 36.0032 16.5115 36.0717 16.3885 36.2847L15.8374 37.2393C15.7123 37.4559 15.7816 37.7331 15.998 37.8584C16.2148 37.9838 16.4906 37.9056 16.6158 37.6888L17.1669 36.7341ZM31.0012 11.8737C31.2141 11.9969 31.4885 11.9284 31.6115 11.7154L32.1626 10.7608C32.2877 10.5442 32.2185 10.267 32.002 10.1417C31.7852 10.0163 31.5095 10.0945 31.3843 10.3114L30.8331 11.266C30.7103 11.4788 30.7885 11.7506 31.0012 11.8737ZM11.8737 16.9987C11.9969 16.7858 11.9284 16.5114 11.7154 16.3884L10.7607 15.8372C10.5442 15.7122 10.2669 15.7814 10.1417 15.9979C10.0163 16.2146 10.0945 16.4904 10.3113 16.6156L11.2659 17.1668C11.4787 17.2896 11.7506 17.2114 11.8737 16.9987ZM11.7154 31.6114C11.9284 31.4884 11.9969 31.214 11.8737 31.001C11.7506 30.7883 11.4788 30.7101 11.266 30.833L10.3113 31.3841C10.0945 31.5093 10.0163 31.7851 10.1417 32.0019C10.2669 32.2183 10.5442 32.2876 10.7607 32.1625L11.7154 31.6114ZM16.9989 11.8736C16.786 11.9968 16.5116 11.9284 16.3886 11.7153L15.8375 10.7608C15.7124 10.5442 15.7817 10.267 15.9981 10.1417C16.2149 10.0163 16.4907 10.0945 16.6159 10.3114L17.167 11.2659C17.2898 11.4787 17.2116 11.7505 16.9989 11.8736ZM36.2847 16.3884C36.0717 16.5114 36.0032 16.7858 36.1264 16.9987C36.2495 17.2114 36.5214 17.2896 36.7342 17.1668L37.6887 16.6157C37.9056 16.4904 37.9838 16.2147 37.8584 15.9979C37.7331 15.7815 37.4559 15.7122 37.2393 15.8373L36.2847 16.3884ZM31.6116 36.2847C31.4886 36.0716 31.2142 36.0031 31.0012 36.1264C30.7885 36.2494 30.7103 36.5213 30.8332 36.7341L31.3844 37.6888C31.5096 37.9056 31.7854 37.9838 32.0021 37.8584C32.2186 37.7331 32.2878 37.4559 32.1628 37.2393L31.6116 36.2847ZM20.6956 38.0698C20.7593 37.8322 20.6124 37.5896 20.3748 37.526C20.1374 37.4626 19.891 37.5998 19.8274 37.8372L19.5421 38.9021C19.4773 39.144 19.6158 39.3939 19.8577 39.4586C20.0994 39.5232 20.3455 39.3764 20.4103 39.1347L20.6956 38.0698ZM9.93015 20.6955C10.1677 20.7591 10.4104 20.6123 10.4739 20.3746C10.5374 20.1372 10.4001 19.8909 10.1628 19.8273L9.09785 19.5419C8.856 19.4771 8.60603 19.6156 8.54137 19.8575C8.47677 20.0992 8.62359 20.3454 8.86522 20.4101L9.93015 20.6955ZM27.3051 9.93027C27.2414 10.1678 27.3882 10.4105 27.6259 10.474C27.8633 10.5375 28.1096 10.4003 28.1733 10.1629L28.4586 9.09804C28.5234 8.8562 28.3849 8.60623 28.143 8.54157C27.9013 8.47696 27.6551 8.62378 27.5904 8.86541L27.3051 9.93027ZM37.5259 27.6257C37.4625 27.8631 37.5997 28.1095 37.8371 28.1731L38.9019 28.4584C39.1438 28.5232 39.3937 28.3847 39.4584 28.1428C39.523 27.9011 39.3762 27.655 39.1345 27.5902L38.0697 27.3049C37.8321 27.2412 37.5895 27.3881 37.5259 27.6257ZM35.381 36.0169C35.5579 36.1937 35.8439 36.1979 36.0208 36.0211C36.1976 35.8442 36.1934 35.5582 36.0166 35.3813L34.53 33.8947C34.3561 33.7209 34.0733 33.7259 33.8995 33.8997C33.7256 34.0736 33.7206 34.3564 33.8944 34.5303L35.381 36.0169ZM14.1007 33.8996C14.2746 34.0735 14.2796 34.3563 14.1057 34.5301L12.6191 36.0167C12.4423 36.1936 12.1562 36.1978 11.9794 36.0209C11.8025 35.8441 11.8067 35.558 11.9836 35.3812L13.4702 33.8946C13.644 33.7207 13.9268 33.7257 14.1007 33.8996ZM14.1005 14.1008C13.9266 14.2746 13.6438 14.2797 13.4699 14.1058L11.9833 12.6192C11.8065 12.4423 11.8023 12.1563 11.9791 11.9794C12.156 11.8026 12.442 11.8068 12.6189 11.9836L14.1055 13.4702C14.2793 13.6441 14.2743 13.9269 14.1005 14.1008ZM34.5302 14.1056L36.0168 12.6191C36.1936 12.4422 36.1978 12.1562 36.021 11.9793C35.8441 11.8025 35.5581 11.8067 35.3812 11.9835L33.8947 13.4701C33.7208 13.6439 33.7258 13.9267 33.8997 14.1006C34.0736 14.2745 34.3564 14.2795 34.5302 14.1056Z" fill="url(#paint3_radial_37_1730)" fill-opacity="0.2"/>
<path fill-rule="evenodd" clip-rule="evenodd" d="M24 6C24.25 6 24.4494 6.20497 24.4494 6.45496V9.55759C24.4494 9.80351 24.2459 10 24 10C23.7541 10 23.5506 9.80351 23.5506 9.55759V6.45495C23.5506 6.20497 23.75 6 24 6ZM10 24C10 23.7541 9.80352 23.5506 9.55761 23.5506H6.45494C6.20496 23.5506 6 23.75 6 24C6 24.25 6.20497 24.4494 6.45497 24.4494H9.55758C9.8035 24.4494 10 24.2459 10 24ZM24 38C23.7541 38 23.5506 38.1965 23.5506 38.4424V41.545C23.5506 41.795 23.75 42 24 42C24.25 42 24.4494 41.795 24.4494 41.545V38.4424C24.4494 38.1965 24.2459 38 24 38ZM38 24C38 24.2459 38.1965 24.4494 38.4424 24.4494H41.545C41.795 24.4494 42 24.25 42 24C42 23.75 41.795 23.5506 41.5451 23.5506H38.4424C38.1965 23.5506 38 23.7541 38 24Z" fill="url(#paint4_linear_37_1730)"/>
<path fill-rule="evenodd" clip-rule="evenodd" d="M36.7975 11.2209L28.2976 27.5843L27.1631 26.4498C27.6874 25.7732 27.9995 24.9239 27.9995 24.0016C27.9995 21.7925 26.2087 20.0016 23.9995 20.0016C23.0773 20.0016 22.228 20.3137 21.5514 20.8381L20.4772 19.7638C20.4624 19.749 20.4468 19.7353 20.4307 19.7227L36.7975 11.2209Z" fill="url(#paint5_linear_37_1730)"/>
<path fill-rule="evenodd" clip-rule="evenodd" d="M20.8433 21.5441L19.7702 20.471C19.7523 20.4531 19.7361 20.4343 19.7215 20.4146L11.2009 36.8176L27.6038 28.2971C27.5844 28.2827 27.5659 28.2668 27.5483 28.2492L26.4571 27.1579C25.779 27.6867 24.9261 28.0016 23.9996 28.0016C21.7904 28.0016 19.9996 26.2108 19.9996 24.0016C19.9996 23.0752 20.3146 22.2222 20.8433 21.5441Z" fill="url(#paint6_linear_37_1730)"/>
<circle cx="24" cy="23.9999" r="3" fill="url(#paint7_linear_37_1730)"/>
<circle cx="23.9998" cy="24.0018" r="1.97389" fill="url(#paint8_linear_37_1730)"/>
<defs>
<linearGradient id="paint0_linear_37_1730" x1="23.9999" y1="-1.40342" x2="23.9999" y2="49.4034" gradientUnits="userSpaceOnUse">
<stop offset="0.071298" stop-color="#64676B"/>
<stop offset="0.932437" stop-color="#4C4C52"/>
</linearGradient>
<radialGradient id="paint1_radial_37_1730" cx="0" cy="0" r="1" gradientUnits="userSpaceOnUse" gradientTransform="translate(25.443 25.5) rotate(-135) scale(15.7732 29.5386)">
<stop/>
<stop offset="0.35356" stop-opacity="0.6"/>
<stop offset="0.929052" stop-opacity="0"/>
</radialGradient>
<linearGradient id="paint2_linear_37_1730" x1="24" y1="39.4738" x2="24" y2="8.52631" gradientUnits="userSpaceOnUse">
<stop offset="0.071298" stop-color="#9C9EA0"/>
<stop offset="0.932437" stop-color="#96979A"/>
</linearGradient>
<radialGradient id="paint3_radial_37_1730" cx="0" cy="0" r="1" gradientUnits="userSpaceOnUse" gradientTransform="translate(24 24.0001) rotate(-135) scale(10.9243 23.1933)">
<stop/>
<stop offset="0.378099" stop-opacity="0.7"/>
<stop offset="0.929052" stop-opacity="0"/>
</radialGradient>
<linearGradient id="paint4_linear_37_1730" x1="24" y1="6" x2="24" y2="42" gradientUnits="userSpaceOnUse">
<stop stop-color="#B0B2B4"/>
<stop offset="1" stop-color="#9B9C9E"/>
</linearGradient>
<linearGradient id="paint5_linear_37_1730" x1="36.5079" y1="11.9794" x2="24.8521" y2="23.6363" gradientUnits="userSpaceOnUse">
<stop stop-color="#FF8F57"/>
<stop offset="1" stop-color="#EE6622"/>
</linearGradient>
<linearGradient id="paint6_linear_37_1730" x1="23.6634" y1="24.3387" x2="11.005" y2="36.997" gradientUnits="userSpaceOnUse">
<stop stop-color="#0088EE"/>
<stop offset="1" stop-color="#33A8FF"/>
</linearGradient>
<linearGradient id="paint7_linear_37_1730" x1="24" y1="20.9999" x2="24" y2="26.9999" gradientUnits="userSpaceOnUse">
<stop stop-color="#C9CCD1"/>
<stop offset="1" stop-color="#88898F"/>
</linearGradient>
<linearGradient id="paint8_linear_37_1730" x1="23.8821" y1="25.9013" x2="23.9309" y2="21.9675" gradientUnits="userSpaceOnUse">
<stop offset="0.375467" stop-color="#C2C5CA"/>
<stop offset="1" stop-color="#E6E7F0"/>
</linearGradient>
</defs>
</svg>
