<svg width="48" height="48" viewBox="0 0 48 48" fill="none" xmlns="http://www.w3.org/2000/svg">
<path d="M1 21C1 11.5719 1 6.85786 3.92893 3.92893C6.85786 1 11.5719 1 21 1H27C36.4281 1 41.1421 1 44.0711 3.92893C47 6.85786 47 11.5719 47 21V27C47 36.4281 47 41.1421 44.0711 44.0711C41.1421 47 36.4281 47 27 47H21C11.5719 47 6.85786 47 3.92893 44.0711C1 41.1421 1 36.4281 1 27V21Z" fill="white" fill-opacity="0.15"/>
<path fill-rule="evenodd" clip-rule="evenodd" d="M27 3H21C16.2294 3 12.8527 3.00425 10.2938 3.34828C7.79241 3.68458 6.37407 4.31222 5.34315 5.34315C4.31222 6.37407 3.68458 7.79241 3.34828 10.2938C3.00425 12.8527 3 16.2294 3 21V27C3 31.7706 3.00425 35.1473 3.34828 37.7062C3.68458 40.2076 4.31222 41.6259 5.34315 42.6569C6.37407 43.6878 7.79241 44.3154 10.2938 44.6517C12.8527 44.9958 16.2294 45 21 45H27C31.7706 45 35.1473 44.9958 37.7062 44.6517C40.2076 44.3154 41.6259 43.6878 42.6569 42.6569C43.6878 41.6259 44.3154 40.2076 44.6517 37.7062C44.9958 35.1473 45 31.7706 45 27V21C45 16.2294 44.9958 12.8527 44.6517 10.2938C44.3154 7.79241 43.6878 6.37407 42.6569 5.34315C41.6259 4.31222 40.2076 3.68458 37.7062 3.34828C35.1473 3.00425 31.7706 3 27 3ZM3.92893 3.92893C1 6.85786 1 11.5719 1 21V27C1 36.4281 1 41.1421 3.92893 44.0711C6.85786 47 11.5719 47 21 47H27C36.4281 47 41.1421 47 44.0711 44.0711C47 41.1421 47 36.4281 47 27V21C47 11.5719 47 6.85786 44.0711 3.92893C41.1421 1 36.4281 1 27 1H21C11.5719 1 6.85786 1 3.92893 3.92893Z" fill="#7F7F7F" fill-opacity="0.1"/>
<path d="M12.4184 10.7445C13.134 10.0289 14.3021 10.0555 14.9844 10.8028L20.3439 16.6727C20.8535 17.2309 20.834 18.0912 20.2995 18.6257C19.765 19.1602 18.9047 19.1797 18.3465 18.67L12.4766 13.3106C11.7293 12.6282 11.7028 11.4601 12.4184 10.7445Z" fill="#0088EE"/>
<path d="M24.837 5.59961C25.849 5.59961 26.6562 6.44435 26.6103 7.45529L26.2494 15.3957C26.215 16.1507 25.5929 16.7453 24.837 16.7453C24.0812 16.7453 23.459 16.1507 23.4247 15.3957L23.0638 7.45533C23.0178 6.44435 23.825 5.59961 24.837 5.59961Z" fill="#22CC22"/>
<path d="M37.2563 10.7445C37.9719 11.4601 37.9454 12.6282 37.1979 13.3106L31.328 18.67C30.7698 19.1797 29.9095 19.1602 29.375 18.6257C28.8406 18.0912 28.821 17.2309 29.3307 16.6727L34.6902 10.8028C35.3726 10.0555 36.5404 10.0289 37.2563 10.7445Z" fill="#EE6622"/>
<path d="M42.4004 23.1628C42.4004 24.1748 41.5554 24.982 40.5447 24.9361L32.6042 24.5752C31.8492 24.5408 31.2546 23.9187 31.2546 23.1628C31.2546 22.407 31.8492 21.7848 32.6042 21.7505L40.5447 21.3896C41.5554 21.3436 42.4004 22.1508 42.4004 23.1628Z" fill="#FFCC00"/>
<path d="M29.375 27.7002C29.9095 27.1658 30.7698 27.1462 31.328 27.6559L37.1979 33.0154C37.9454 33.6978 37.9719 34.866 37.2563 35.5815C36.5404 36.2971 35.3726 36.2706 34.6902 35.5231L29.3307 29.6532C28.821 29.095 28.8406 28.2347 29.375 27.7002Z" fill="#55DDDD"/>
<path d="M26.1506 21.8489C26.6824 22.3806 26.694 23.2391 26.1768 23.785L11.3044 39.4837C10.5408 40.2896 9.2628 40.3069 8.47774 39.522C7.6927 38.7368 7.70995 37.4587 8.51594 36.6952L24.2146 21.8228C24.7605 21.3056 25.6189 21.3172 26.1506 21.8489Z" fill="black"/>
</svg>
