<svg width="48" height="48" viewBox="0 0 48 48" fill="none" xmlns="http://www.w3.org/2000/svg">
<circle cx="24" cy="24" r="23" fill="url(#paint0_linear)"/>
<circle cx="24" cy="24" r="23" fill="url(#paint1_radial)"/>
<path fill-rule="evenodd" clip-rule="evenodd" d="M24 43C34.4934 43 43 34.4934 43 24C43 13.5066 34.4934 5 24 5C13.5066 5 5 13.5066 5 24C5 34.4934 13.5066 43 24 43ZM24 38C31.732 38 38 31.732 38 24C38 16.268 31.732 10 24 10C16.268 10 10 16.268 10 24C10 31.732 16.268 38 24 38Z" fill="white"/>
<circle cx="23.9995" cy="24" r="14" fill="url(#paint2_radial)"/>
<circle cx="29" cy="19" r="4" fill="white"/>
<circle cx="18" cy="30" r="2" fill="white"/>
<defs>
<linearGradient id="paint0_linear" x1="19.1756" y1="1" x2="19.1756" y2="47" gradientUnits="userSpaceOnUse">
<stop stop-color="#5586E3"/>
<stop offset="1" stop-color="#72357C"/>
</linearGradient>
<radialGradient id="paint1_radial" cx="0" cy="0" r="1" gradientUnits="userSpaceOnUse" gradientTransform="translate(24 24) rotate(90) scale(23)">
<stop stop-color="white" stop-opacity="0.23"/>
<stop offset="1" stop-color="white" stop-opacity="0"/>
</radialGradient>
<radialGradient id="paint2_radial" cx="0" cy="0" r="1" gradientUnits="userSpaceOnUse" gradientTransform="translate(23.9995 24) rotate(45) scale(14.0509)">
<stop stop-color="#FFBA33"/>
<stop offset="0.504735" stop-color="#EB4A6B"/>
<stop offset="1" stop-color="#552F8F"/>
</radialGradient>
</defs>
</svg>
