<svg width="48" height="48" viewBox="0 0 48 48" fill="none" xmlns="http://www.w3.org/2000/svg">
<rect width="48" height="48" fill="#939393" fill-opacity="0.1"/>
<rect x="0.125" y="41.875" width="35.75" height="47.75" transform="rotate(-90 0.125 41.875)" stroke="#939393" stroke-width="0.25"/>
<rect x="2.125" y="43.875" width="39.75" height="43.75" transform="rotate(-90 2.125 43.875)" stroke="#939393" stroke-width="0.25"/>
<rect x="4.125" y="45.875" width="43.75" height="39.75" transform="rotate(-90 4.125 45.875)" stroke="#939393" stroke-width="0.25"/>
<rect x="6.125" y="0.125" width="35.75" height="47.75" stroke="#939393" stroke-width="0.25"/>
<path d="M22.9661 0.832891C23.3646 -0.110964 24.6354 -0.110964 25.0339 0.832891L31.0215 15.0159C31.2207 15.4879 31.6477 15.8153 32.1435 15.8689L46.8571 17.4576C47.8266 17.5623 48.2359 18.8375 47.495 19.534L36.482 29.8883C36.1138 30.2345 35.9523 30.7588 36.0554 31.2622L39.1613 46.4271C39.3716 47.4538 38.3262 48.2206 37.4896 47.7116L24.6956 39.9279C24.2657 39.6664 23.7343 39.6664 23.3044 39.9279L10.5104 47.7116C9.67377 48.2206 8.6284 47.4538 8.8387 46.4271L11.9446 31.2622C12.0477 30.7588 11.8862 30.2345 11.518 29.8883L0.504987 19.534C-0.235918 18.8375 0.173358 17.5623 1.14291 17.4576L15.8565 15.8689C16.3523 15.8153 16.7793 15.4879 16.9785 15.0159L22.9661 0.832891Z" stroke="#939393" stroke-width="0.25"/>
</svg>
