<?xml version="1.0" encoding="UTF-8"?>
<svg width="12px" height="10px" viewBox="0 0 12 10" version="1.1" xmlns="http://www.w3.org/2000/svg" xmlns:xlink="http://www.w3.org/1999/xlink">
    <!-- Generator: sketchtool 52.2 (67145) - http://www.bohemiancoding.com/sketch -->
    <title>45B7F3AB-92F3-400D-BAE2-41E2A868732E</title>
    <desc>Created with sketchtool.</desc>
    <g id="Page-1" stroke="none" stroke-width="1" fill="none" fill-rule="evenodd">
        <g id="1.2-Auth" transform="translate(-250.000000, -1202.000000)" fill="#555555" fill-rule="nonzero">
            <g id="Email-sign-in" transform="translate(100.000000, 629.000000)">
                <g id="Button" transform="translate(20.000000, 301.000000)">
                    <g id="Group-4" transform="translate(0.000000, 197.000000)">
                        <path d="M131.508456,80.2765866 L130.671875,79.9720963 L133.107475,77.6660487 L133.490953,80.9981567 L132.562482,80.6602207 C132.68955,81.3250647 133.010432,81.9601792 133.525126,82.4748737 C134.672799,83.6225462 136.419207,83.8065675 137.758886,83.0269378 L138.808609,83.5164319 C137.041773,84.9311966 134.455752,84.8197128 132.818019,83.1819805 C132.009718,82.3736793 131.573197,81.3343838 131.508456,80.2765866 Z M139.427085,79.2873587 C139.293428,78.641594 138.976025,78.0262771 138.474874,77.5251263 C137.327201,76.3774538 135.580793,76.1934325 134.241114,76.9730622 L133.191391,76.4835681 C134.958227,75.0688034 137.544248,75.1802872 139.181981,76.8180195 C139.977585,77.6136237 140.412997,78.6330224 140.488218,79.6735798 L141.338716,79.9831357 L138.903117,82.2891833 L138.519638,78.9570753 L139.427085,79.2873587 Z" id="Shape"></path>
                    </g>
                </g>
            </g>
        </g>
    </g>
</svg>