<svg width="20" height="20" viewBox="0 0 20 20" fill="none" xmlns="http://www.w3.org/2000/svg">
<rect width="20" height="20" fill="url(#paint0_linear)"/>
<path d="M11.3337 10.6667H15.3337V13.6667C15.3337 14.219 14.8859 14.6667 14.3337 14.6667H5.66699C5.1147 14.6667 4.66699 14.219 4.66699 13.6667V10.6667H8.66699V11.0833C8.66699 11.2214 8.77893 11.3333 8.91699 11.3333H11.0837C11.2217 11.3333 11.3337 11.2214 11.3337 11.0833V10.6667ZM15.3337 8.33334V10H4.66699V8.33334C4.66699 7.78105 5.1147 7.33334 5.66699 7.33334H7.33366V6.33334C7.33366 5.78105 7.78137 5.33334 8.33366 5.33334H11.667C12.2193 5.33334 12.667 5.78105 12.667 6.33334V7.33334H14.3337C14.8859 7.33334 15.3337 7.78105 15.3337 8.33334ZM11.3337 6.66667H8.66699V7.33334H11.3337V6.66667Z" fill="white"/>
<defs>
<linearGradient id="paint0_linear" x1="0" y1="0" x2="20" y2="20" gradientUnits="userSpaceOnUse">
<stop stop-opacity="0.15"/>
<stop offset="1" stop-opacity="0.3"/>
</linearGradient>
</defs>
</svg>
