<svg width="20" height="20" fill="none" xmlns="http://www.w3.org/2000/svg"><circle cx="10" cy="10" r="10" fill="url(#paint0_linear)"/><path d="M9.9995 4.4585c1.7116 0 3.0991 1.344 3.0991 3.0017 0 1.6578-1.3875 3.4636-3.099 3.4636-1.7116 0-3.0991-1.8057-3.0991-3.4636 0-1.6578 1.3875-3.0017 3.099-3.0017zm3.5501 6.7246l-1.3813-.3345c-1.4512 1.011-3.2102.7854-4.3375 0l-1.3813.3345c-.8278.2004-1.4085.9208-1.4085 1.7472 0 .4974 1.1443 2.6115 4.9108 2.6115 3.7665 0 5.0059-2.1519 5.0059-2.6492 0-.8265-.5803-1.5091-1.4081-1.7095z" fill="#fff"/><defs><linearGradient id="paint0_linear" x1="-4.6511" y1="5.3489" x2="10" y2="20" gradientUnits="userSpaceOnUse"><stop stop-color="#939393" stop-opacity=".3"/><stop offset="1" stop-color="#939393" stop-opacity=".6"/></linearGradient></defs></svg>