<svg width="20" height="20" viewBox="0 0 20 20" fill="none" xmlns="http://www.w3.org/2000/svg">
<rect width="20" height="20" fill="url(#paint0_linear)"/>
<path d="M10.0002 4.72222C11.6303 4.72222 12.9518 6.00214 12.9518 7.58102C12.9518 9.15989 11.6303 10.8796 10.0002 10.8796C8.37017 10.8796 7.04874 9.15989 7.04874 7.58102C7.04874 6.00214 8.37017 4.72222 10.0002 4.72222ZM13.3813 11.1266L12.0658 10.808C10.6837 11.7709 9.00839 11.556 7.93474 10.808L6.61924 11.1266C5.83089 11.3175 5.27783 12.0035 5.27783 12.7906C5.27783 13.2643 6.36762 15.2778 9.95475 15.2778C13.5419 15.2778 14.7223 13.2283 14.7223 12.7547C14.7223 11.9676 14.1696 11.3175 13.3813 11.1266Z" fill="white"/>
<defs>
<linearGradient id="paint0_linear" x1="0" y1="0" x2="20" y2="20" gradientUnits="userSpaceOnUse">
<stop stop-opacity="0.15"/>
<stop offset="1" stop-opacity="0.3"/>
</linearGradient>
</defs>
</svg>
