<svg width="97" height="96" viewBox="0 0 97 96" fill="none" xmlns="http://www.w3.org/2000/svg">
    <defs>
      <style>
        .webasyst-magic-wand-handle {
          fill: black;
        }
        @media (prefers-color-scheme: dark) {
            .webasyst-magic-wand-handle {
              fill: #ffffff;
            }
        }
      </style>
    </defs>
    <path d="M20.7348 14.5035C18.57 12.1327 14.8662 12.0487 12.5963 14.3185C10.3239 16.5908 10.4084 20.3016 12.7813 22.468L28.8528 37.141C30.6852 38.8139 33.5082 38.75 35.263 36.9953C37.0199 35.2385 37.0843 32.4089 35.4088 30.5739L20.7348 14.5035Z" fill="#0088EE"/>
<path d="M47.1515 0C43.9448 0 41.3794 2.67789 41.5255 5.89162L42.5137 27.6305C42.6266 30.1155 44.6731 32.0657 47.1515 32.0657C49.6299 32.0657 51.6763 30.1155 51.7893 27.6305L52.7775 5.89161C52.9236 2.67788 50.3582 0 47.1515 0Z" fill="#22CC22"/>
<path d="M81.6725 14.3185C79.4026 12.0487 75.6988 12.1327 73.534 14.5035L58.86 30.5739C57.1845 32.4089 57.2489 35.2385 59.0058 36.9952C60.7606 38.75 63.5836 38.8139 65.416 37.141L81.4875 22.468C83.8604 20.3016 83.9449 16.5908 81.6725 14.3185Z" fill="#EE6622"/>
<path d="M96.0089 48.8621C96.0089 45.6452 93.3248 43.0868 90.1215 43.2324L68.3812 44.2205C65.9052 44.3331 63.9492 46.3744 63.9492 48.8621C63.9492 51.3499 65.9052 53.3912 68.3812 53.5037L90.1215 54.4918C93.3248 54.6374 96.0089 52.079 96.0089 48.8621Z" fill="#FFCC00"/>
<path d="M65.416 60.5964C63.5836 58.9235 60.7606 58.9874 59.0058 60.7421C57.2489 62.4989 57.1845 65.3285 58.86 67.1635L73.534 83.234C75.6988 85.6048 79.4026 85.6887 81.6725 83.419C83.9449 81.1467 83.8604 77.4359 81.4875 75.2694L65.416 60.5964Z" fill="#55DDDD"/>
<path d="M51.2853 44.7066C49.5341 42.9555 46.7086 42.9175 44.911 44.6204L1.92878 85.3376C-0.595136 87.7285 -0.649357 91.7324 1.80924 94.1908C4.26542 96.6469 8.26241 96.593 10.6515 94.0713L51.3715 51.092C53.0769 49.292 53.0386 46.4598 51.2853 44.7066Z" class="webasyst-magic-wand-handle" />
</svg>
