<svg width="96" height="96" viewBox="0 0 96 96" fill="none" xmlns="http://www.w3.org/2000/svg">
    <defs>
      <style>
        .webasyst-magic-wand-handle {
          fill: black;
        }
        @media (prefers-color-scheme: dark) {
            .webasyst-magic-wand-handle {
              fill: #ffffff;
            }
        }
      </style>
    </defs>
    <path d="M12.5727 14.3139C14.5639 12.3227 17.8143 12.3965 19.713 14.4761L34.6263 30.8097C36.0445 32.3629 35.9901 34.7569 34.5029 36.2441C33.0157 37.7313 30.6217 37.7857 29.0685 36.3675L12.7349 21.4542C10.6553 19.5555 10.5815 16.3051 12.5727 14.3139Z" fill="#0088EE"/>
<path d="M47.1292 0C49.9452 0 52.1913 2.35059 52.0635 5.16367L51.0591 27.2586C50.9636 29.3597 49.2324 31.014 47.1292 31.014C45.0259 31.014 43.2947 29.3597 43.1992 27.2586L42.1949 5.16367C42.067 2.35059 44.3132 0 47.1292 0Z" fill="#22CC22"/>
<path d="M81.6865 14.3139C83.6777 16.3051 83.6038 19.5555 81.5243 21.4542L65.1906 36.3675C63.6374 37.7857 61.2435 37.7313 59.7563 36.2441C58.269 34.7569 58.2147 32.3629 59.6328 30.8097L74.5461 14.4761C76.4449 12.3965 79.6953 12.3227 81.6865 14.3139Z" fill="#EE6622"/>
<path d="M96.0003 48.8707C96.0003 51.6867 93.6497 53.9328 90.8367 53.805L68.7417 52.8007C66.6407 52.7052 64.9863 50.9739 64.9863 48.8707C64.9863 46.7675 66.6406 45.0362 68.7417 44.9407L90.8367 43.9364C93.6497 43.8085 96.0003 46.0547 96.0003 48.8707Z" fill="#FFCC00"/>
<path d="M59.7563 61.497C61.2435 60.0098 63.6374 59.9554 65.1906 61.3736L81.5243 76.2869C83.6038 78.1856 83.6777 81.4361 81.6865 83.4273C79.6953 85.4185 76.4449 85.3446 74.5461 83.2651L59.6328 66.9314C58.2147 65.3782 58.269 62.9843 59.7563 61.497Z" fill="#55DDDD"/>
<path d="M50.7844 45.2156C52.2639 46.6952 52.2962 49.0839 50.8572 50.6029L9.473 94.2862C7.34833 96.5289 3.79205 96.5769 1.60757 94.3924C-0.57692 92.208 -0.52887 88.6517 1.71384 86.527L45.3971 45.1429C46.9161 43.7038 49.3048 43.7361 50.7844 45.2156Z" class="webasyst-magic-wand-handle" />
</svg>
