<svg id="logo" xmlns="http://www.w3.org/2000/svg" width="872.752" height="175.219" viewBox="0 0 872.752 175.219">
  <defs>
    <style>
      .cls-1, .cls-2, .cls-3, .cls-4, .cls-5, .cls-6 {
        fill-rule: evenodd;
      }

      .cls-2 {
        fill: #006ec2;
      }

      .cls-3 {
        fill: #2aa90a;
      }

      .cls-4 {
        fill: #f35700;
      }

      .cls-5 {
        fill: #e9c500;
      }

      .cls-6 {
        fill: #3ecbff;
      }
    </style>
  </defs>
  <path id="web" class="cls-1" d="M290.673,199.577l-24.159,66.476-20.529-66.476H216.193l36.064,103.88h20.776l25.992-69.972s16.349,42.435,27.124,69.972h19.8l35.084-103.88H355.941c0.53-1.974-20.457,66.509-20.457,66.509s-25.936-68.192-25.248-66.509H290.673Zm178.342,76.244a49.2,49.2,0,0,1-11.27,5.39,48.673,48.673,0,0,1-16.562,2.646q-15.288,0-22.05-6.37t-7.742-19.7h68.6a87.177,87.177,0,0,0,1.666-10.192q0.486-4.9.49-9.016,0-11.953-3.822-20.09a34.31,34.31,0,0,0-10.094-12.936,39.326,39.326,0,0,0-14.308-6.86,65.337,65.337,0,0,0-16.268-2.058q-25.284,0-39.2,13.818t-13.916,40.67q0,25.284,12.348,39.788t38.808,14.5a81.19,81.19,0,0,0,24.6-3.626q11.466-3.625,18.13-8.722Zm-16.268-51.352q4.7,6.274,3.92,17.052h-44.3q0.978-10.189,6.86-16.758t18.032-6.566Q448.04,218.2,452.747,224.469ZM498,298.361a92.772,92.772,0,0,0,17.836,4.606,150.893,150.893,0,0,0,26.264,2.058,64.944,64.944,0,0,0,22.932-3.822,46.433,46.433,0,0,0,17.248-11.074,49.05,49.05,0,0,0,10.878-17.836,70.714,70.714,0,0,0,3.822-24.108q0-25.087-10.486-38.122t-30.478-13.034a41.938,41.938,0,0,0-16.17,3.038,32.371,32.371,0,0,0-12.054,8.33h-2.352v-43.12H498V298.361Zm27.44-62.132q2.742-8.035,8.134-12.152t14.21-4.116q10.386,0,15.68,7.35t5.292,21.462q0,33.323-25.48,33.32a86.19,86.19,0,0,1-9.506-.49,24.483,24.483,0,0,1-8.33-2.45V236.229Z" transform="translate(-216.188 -165.281)"/>
  <path id="a_-2deg" data-name="a -2deg" class="cls-2" d="M621.415,228.19a82.342,82.342,0,0,1,15.464-6.4,74.568,74.568,0,0,1,18.183-3.21q10.176-.534,14.082,2.794t4.293,10.767a50.927,50.927,0,0,1-.218,7.077q-2.177-.278-7.7-0.873a69.213,69.213,0,0,0-11.007-.306q-23.685,1.242-34.863,10.757t-10.266,26.937a28.965,28.965,0,0,0,3.072,11.811,28.319,28.319,0,0,0,7.348,9.134,30.342,30.342,0,0,0,10.893,5.612,41.13,41.13,0,0,0,13.716,1.44q12.332-.646,19.9-5.95a46.749,46.749,0,0,0,12.3-12.421l2.349-.123,5.3,15.031,22.313-1.169a75.306,75.306,0,0,1-3.84-13.342,105.091,105.091,0,0,1-1.737-14.433q-0.574-10.959-.3-20.788t-0.253-19.81a56.43,56.43,0,0,0-2.644-14.876,28.289,28.289,0,0,0-6.771-11.225A27.346,27.346,0,0,0,679,197.89a55.914,55.914,0,0,0-18.239-1.595,136.205,136.205,0,0,0-26.388,3.934,103.411,103.411,0,0,0-21.29,7.593Zm20.391,50.157q-4.2-3.312-4.566-10.359-0.3-5.675,4.592-9.76t15.458-4.637q1.955-.1,4.414-0.035t4.924,0.331q2.466,0.265,4.543.547a18.1,18.1,0,0,1,3.075.624l0.616,11.744a29.9,29.9,0,0,1-7.554,9.424q-5.256,4.594-14.454,5.075Q646,281.661,641.806,278.347Z" transform="translate(-216.188 -165.281)"/>
  <path id="s_-8deg" data-name="s -8deg" class="cls-3" d="M726.625,301.461q6.755,3.012,16.941,3.656a106.908,106.908,0,0,0,21.637-.963q21.153-2.973,30.479-13.388t7.032-26.719q-1.172-8.343-5.153-13.427a28.894,28.894,0,0,0-9.323-7.894,41.791,41.791,0,0,0-11.549-4.017q-6.21-1.206-11.86-2a106.038,106.038,0,0,1-13.132-2.608q-5.459-1.506-6.085-5.973-0.708-5.044,2.3-7.548t9.807-3.457a64.168,64.168,0,0,1,16.3-.212,124.5,124.5,0,0,1,13.466,2.165l2.737-21.365a83.052,83.052,0,0,0-17.069-2.45,112.377,112.377,0,0,0-22.122,1.03q-17.859,2.511-26.235,11.9t-6.223,24.725q1.254,8.929,5.275,14.3a28.475,28.475,0,0,0,9.475,8.268,43.863,43.863,0,0,0,11.674,4.2q6.219,1.306,11.873,2.092a101.667,101.667,0,0,1,13.035,2.621q5.359,1.526,6.015,6.181,0.819,5.823-2.666,8.49T762.979,282.7a50.833,50.833,0,0,1-8.941.465q-4.475-.161-8.812-0.741t-8.119-1.432a67.643,67.643,0,0,1-6.69-1.831Z" transform="translate(-216.188 -165.281)"/>
  <path id="y_3deg" data-name="y 3deg" class="cls-4" d="M838.947,197.627l-33.079-1.734L847.427,301.7a31.474,31.474,0,0,1-3.655,7.953,17.283,17.283,0,0,1-4.259,4.487,12.111,12.111,0,0,1-4.815,2,23.428,23.428,0,0,1-5.315.31,19.1,19.1,0,0,1-6.017-1.3L816.582,336a28.277,28.277,0,0,0,7.789,3.058,51.461,51.461,0,0,0,9.642,1.389,24.817,24.817,0,0,0,13.392-2.733A34.523,34.523,0,0,0,858,328.36a83.291,83.291,0,0,0,9.139-15.223q4.3-9,9.21-20.322l38.93-91.187-27.99-1.467-20.405,56.045-4.58,16.246-1.958-.1-3.444-16.668Z" transform="translate(-216.188 -165.281)"/>
  <path id="s2_6deg" data-name="s2 6deg" class="cls-5" d="M914.818,291.97q5.826,4.557,15.554,7.646a106.877,106.877,0,0,0,21.227,4.3q21.243,2.233,32.813-5.617T997.7,274.075q0.88-8.377-1.752-14.275a28.889,28.889,0,0,0-7.137-9.914,41.78,41.78,0,0,0-10.234-6.693q-5.733-2.672-11.024-4.8a106.052,106.052,0,0,1-12.112-5.708q-4.932-2.781-4.459-7.267,0.533-5.067,4.062-6.767t10.351-.981A64.118,64.118,0,0,1,981.26,221.4a124.311,124.311,0,0,1,12.543,5.358l7.827-20.068a83.131,83.131,0,0,0-15.972-6.507,112.452,112.452,0,0,0-21.714-4.352q-17.936-1.884-28.335,5.2t-12.02,22.485q-0.942,8.968,1.659,15.152a28.48,28.48,0,0,0,7.194,10.315,43.861,43.861,0,0,0,10.311,6.9q5.718,2.772,11.014,4.9a101.609,101.609,0,0,1,12.014,5.7q4.832,2.775,4.341,7.452-0.615,5.849-4.641,7.593t-10.849,1.027a50.709,50.709,0,0,1-8.787-1.712q-4.3-1.238-8.372-2.85t-7.531-3.354a67.789,67.789,0,0,1-6.048-3.395Z" transform="translate(-216.188 -165.281)"/>
  <path id="t_8deg" data-name="t 8deg" class="cls-6" d="M1015.69,218.461l15.53,2.182-7.15,50.853q-2.31,16.5,3.62,24.952t21.08,10.582a67.363,67.363,0,0,0,15.9.255,86.483,86.483,0,0,0,14.92-2.653l-2.77-21.171a34.618,34.618,0,0,1-6.91,1.305,36.3,36.3,0,0,1-7.67-.385c-4.78-.673-7.74-2.9-8.85-6.687s-1.11-9.755.04-17.907l4.96-35.325,27.37,3.847,3.19-22.709-27.36-3.846,2.97-21.157-28.18,3.363-1.97,13.975-15.52-2.183Z" transform="translate(-216.188 -165.281)"/>
</svg>
