<svg version="1.1" xmlns="http://www.w3.org/2000/svg">
    <symbol id="toggle-full" viewBox="0 0 16 16">
        <g><path fill="currentColor" d="M15 2C15 1.44772 14.5523 1 14 1H2C1.44772 1 1 1.44772 1 2V6C1 6.55228 1.44772 7 2 7H14C14.5523 7 15 6.55228 15 6V2ZM15 10C15 9.44772 14.5523 9 14 9H2C1.44772 9 1 9.44772 1 10V14C1 14.5523 1.44772 15 2 15H14C14.5523 15 15 14.5523 15 14V10Z" /></g>
    </symbol>

    <symbol id="toggle-thin" viewBox="0 0 16 16">
        <g><path fill="currentColor" d="M15 2C15 1.44772 14.5523 1 14 1H2C1.44772 1 1 1.44772 1 2V2C1 2.55228 1.44772 3 2 3H14C14.5523 3 15 2.55228 15 2V2ZM15 6C15 5.44772 14.5523 5 14 5H2C1.44772 5 1 5.44772 1 6V6C1 6.55228 1.44772 7 2 7H14C14.5523 7 15 6.55228 15 6V6ZM1 10C1 9.44772 1.44772 9 2 9H14C14.5523 9 15 9.44772 15 10V10C15 10.5523 14.5523 11 14 11H2C1.44772 11 1 10.5523 1 10V10ZM15 14C15 13.4477 14.5523 13 14 13H2C1.44772 13 1 13.4477 1 14V14C1 14.5523 1.44772 15 2 15H14C14.5523 15 15 14.5523 15 14V14Z" /></g>
    </symbol>

    <symbol id="arrow-right" viewBox="0 0 16 16">
        <g><path fill="currentColor" d="M0 9.55956V6.43804C0 6.08139 0.287233 5.78958 0.638295 5.78958H9.45615V2.64903C9.45615 2.07082 10.1423 1.78442 10.5466 2.18971L15.8125 7.53948C16.0625 7.79346 16.0625 8.20414 15.8125 8.45812L10.5466 13.8079C10.1423 14.2186 9.45615 13.9268 9.45615 13.3486V10.208H0.638295C0.287233 10.208 0 9.91621 0 9.55956Z" /></g>
    </symbol>

    <symbol id="all-files" viewBox="0 0 14 16">
        <g><path fill="currentColor" d="M4 14V15.25C4 15.6642 4.33578 16 4.75 16H13.25C13.6642 16 14 15.6642 14 15.25V3.75C14 3.33578 13.6642 3 13.25 3H11V12.25C11 13.215 10.215 14 9.25 14H4ZM4 3.25V0H9.25C9.66422 0 10 0.335781 10 0.75V12.25C10 12.6642 9.66422 13 9.25 13H0.75C0.335781 13 0 12.6642 0 12.25V4H3.25C3.6625 4 4 3.6625 4 3.25ZM0.219656 2.28034L2.28034 0.219656C2.42099 0.0790133 2.61175 1.03999e-06 2.81066 0L3 0V3H0V2.81066C1.03999e-06 2.61175 0.079013 2.42099 0.219656 2.28034V2.28034Z" /></g>
    </symbol>

    <symbol id="alarm" viewBox="0 0 17 16">
        <g><path fill="currentColor" d="M16.17 4.46992C16.1964 4.44548 16.2225 4.42037 16.2482 4.39461C17.2506 3.38928 17.2506 1.75932 16.2482 0.753996C15.2459 -0.251332 13.6207 -0.251332 12.6183 0.753996C12.5926 0.779759 12.5676 0.805932 12.5432 0.832496L16.17 4.46992ZM4.45558 0.835631C4.43117 0.809017 4.4061 0.782794 4.38036 0.756983C3.37829 -0.248042 1.75362 -0.248043 0.751551 0.756982C-0.250517 1.76201 -0.250517 3.39148 0.751552 4.3965C0.777286 4.42231 0.803433 4.44746 0.829968 4.47195L4.45558 0.835631ZM8.50138 1.04748C4.3835 1.04747 1.04711 4.3937 1.04712 8.52373C1.04713 10.184 1.58631 11.7177 2.49872 12.9582L1.37386 14.0863C1.21215 14.2485 1.21214 14.5115 1.37387 14.6737L2.36949 15.6723C2.53121 15.8345 2.79344 15.8345 2.95515 15.6723L4.08001 14.5441C5.31685 15.4592 6.84598 16 8.50139 16C10.1568 16 11.6859 15.4592 12.9228 14.5441L14.0417 15.6664C14.2035 15.8286 14.4657 15.8286 14.6274 15.6664L15.623 14.6678C15.7848 14.5056 15.7848 14.2426 15.623 14.0804L14.5041 12.9581C15.4164 11.7177 15.9556 10.184 15.9556 8.52374C15.9556 4.39371 12.6192 1.04748 8.50138 1.04748ZM10.2177 11.6016L7.56658 9.6693C7.47342 9.59995 7.41932 9.49141 7.4193 9.37688L7.41931 4.30326C7.41932 4.10429 7.5816 3.94153 7.77999 3.94152L9.22276 3.94151C9.42114 3.9415 9.58345 4.10429 9.58344 4.30326L9.58346 8.45438L11.4921 9.84715C11.6544 9.96471 11.6875 10.1908 11.5703 10.3536L10.7226 11.5233C10.6054 11.6831 10.38 11.7192 10.2177 11.6016Z" /></g>
    </symbol>

    <symbol id="coffee-beans" viewBox="0 0 20 15">
        <g><path fill="currentColor" d="M15.1237 5.60466C15.7163 2.69276 14.8425 0.819136 13.2983 0.207063C13.2836 0.257582 13.256 0.304769 13.2159 0.342961L13.2158 0.343113L13.2155 0.343355L13.213 0.345768L13.2066 0.352018L13.2016 0.35696C13.1911 0.367211 13.1753 0.382966 13.1549 0.403873C13.114 0.445703 13.0549 0.508013 12.9835 0.587982C12.8406 0.748277 12.6506 0.977659 12.4626 1.2536C12.0794 1.81591 11.7361 2.52514 11.7558 3.21788C11.7774 3.97414 11.8826 4.53976 11.9919 5.12798L11.9963 5.15162C12.0596 5.49189 12.1238 5.83985 12.1707 6.23083L12.205 6.21943L12.2391 6.20817L12.2598 6.20138C13.2835 5.86645 14.2425 5.66951 15.1237 5.60466ZM11.6057 6.43216C11.5608 6.01289 11.493 5.64303 11.4231 5.26733L11.4171 5.23487C11.308 4.64813 11.1952 4.04175 11.1722 3.23592C11.1468 2.34155 11.581 1.49655 11.9865 0.901407C12.1929 0.598617 12.4001 0.348465 12.5558 0.173902C12.6028 0.121196 12.6453 0.0752131 12.6818 0.0365797C10.9515 -0.245435 9.19602 1.09561 8.36585 4.32374C7.93223 6.00991 7.9643 7.38171 8.32672 8.40116C9.12323 7.62594 10.223 6.9574 11.6057 6.43216ZM7.61655 12.3524C7.70817 12.2666 7.84363 12.2269 7.97414 12.2595L9.32974 12.4244C10.1197 12.4452 11.0442 12.3339 11.7526 11.8674C12.5321 11.3539 13.0466 10.885 13.5725 10.4021L13.6012 10.3757C14.12 9.89915 14.6563 9.40663 15.4535 8.87419C16.3384 8.28325 17.4801 8.1656 18.3508 8.17868C18.7938 8.18534 19.1844 8.22622 19.4642 8.26536C19.5487 8.27717 19.6234 8.28887 19.6867 8.29948C18.8167 6.45696 16.2933 5.61823 12.4843 6.86444C8.61356 8.13088 7.11862 10.3388 7.61655 12.3524ZM19.9261 9.00036C19.8653 9.0182 19.7994 9.0216 19.7341 9.00722L19.7339 9.00716L19.7335 9.00707L19.7294 9.00619C19.7254 9.00535 19.7191 9.00402 19.7104 9.00227L19.6914 8.99844L19.6742 8.99508C19.6619 8.99271 19.6478 8.99004 19.632 8.98713C19.5626 8.97432 19.4602 8.95686 19.332 8.93892C19.075 8.90299 18.717 8.8656 18.3133 8.85954C17.4906 8.84718 16.5464 8.96626 15.8611 9.42397C15.1128 9.92366 14.6127 10.3831 14.0925 10.8608L14.0716 10.88C13.5419 11.3664 12.99 11.8705 12.156 12.4199C11.2508 13.0161 10.1327 13.1274 9.28345 13.1051C8.85273 13.0937 8.476 13.0475 8.20672 13.0043C8.0718 12.9826 7.9631 12.9615 7.88722 12.9456C7.87594 12.9432 7.86537 12.941 7.85554 12.9388C7.84121 12.9357 7.82845 12.9329 7.81735 12.9304C8.66823 14.8028 11.2011 15.6644 15.0396 14.4085C18.8593 13.1588 20.3654 10.9923 19.9261 9.00036ZM8.00462 8.73626C7.61614 7.80995 7.46577 6.67777 7.57608 5.37701C5.00946 2.8383 2.58526 2.68213 1.09731 4.08345C1.18131 4.13111 1.24488 4.21617 1.26415 4.32168L1.26421 4.32204L1.2649 4.32563L1.26629 4.3328L1.26825 4.34265C1.26984 4.35061 1.27192 4.36074 1.27451 4.37291C1.27699 4.38457 1.27992 4.39812 1.28331 4.41343C1.29723 4.47604 1.31907 4.56794 1.35009 4.68159C1.41225 4.90941 1.51051 5.22185 1.65437 5.55957C1.94664 6.24567 2.40545 6.98499 3.08543 7.37265C3.8338 7.79932 4.43963 8.01994 5.06212 8.24372L5.0961 8.25593L5.09628 8.25599C5.71039 8.47672 6.34512 8.70485 7.11669 9.13773C7.25392 9.21473 7.38327 9.30306 7.50512 9.40023C7.58526 9.2743 7.67259 9.14979 7.76714 9.02695C7.84228 8.92931 7.92171 8.83303 8.00541 8.73816L8.00462 8.73626ZM7.17786 10.0093C7.06038 9.90812 6.93556 9.81869 6.80315 9.74441C6.07897 9.33812 5.4869 9.1253 4.87118 8.90398L4.84641 8.89508C4.21949 8.6697 3.56859 8.43356 2.76799 7.97712C1.89897 7.48169 1.36409 6.57662 1.04993 5.83911C0.890571 5.46502 0.782418 5.12085 0.713982 4.87001C0.684133 4.76061 0.661691 4.66845 0.645768 4.59865C-0.512375 6.21203 -0.203031 8.7154 2.31287 11.3368C4.18934 13.2919 6.0028 13.9682 7.44585 13.6849C7.2785 13.4224 7.14262 13.1384 7.04008 12.8357C6.72514 11.9059 6.76991 10.9324 7.17786 10.0093Z" /></g>
    </symbol>

    <symbol id="clean" viewBox="0 0 18 18">
        <g><path fill="currentColor" d="M17.0253 0.167239C16.8023 -0.0557466 16.4407 -0.0557464 16.2178 0.167239L10.1615 6.22352L8.87035 4.93237C8.68111 4.74313 8.38583 4.71072 8.16005 4.8544L6.57258 5.86461L12.1354 11.4274L13.1456 9.83993C13.2893 9.61415 13.2568 9.31887 13.0676 9.12963L11.7765 7.83852L17.8328 1.78225C18.0557 1.55926 18.0557 1.19773 17.8328 0.974743L17.0253 0.167239ZM11.5073 12.4144L5.58563 6.49266L0.264475 9.87886C-0.0437065 10.075 -0.0910238 10.506 0.167275 10.7643L0.471406 11.0685L0.875157 10.6647C1.09814 10.4417 1.45967 10.4417 1.68266 10.6647C1.90564 10.8877 1.90564 11.2492 1.68266 11.4722L1.27891 11.876L2.35558 12.9526L2.75933 12.5489C2.98231 12.3259 3.34384 12.3259 3.56683 12.5489C3.78981 12.7719 3.78981 13.1334 3.56683 13.3564L3.16308 13.7601L4.23976 14.8368L4.64351 14.4331C4.86649 14.2101 5.22802 14.2101 5.45101 14.4331C5.67399 14.6561 5.67399 15.0176 5.45101 15.2406L5.04726 15.6443L6.12393 16.721L6.52769 16.3173C6.75067 16.0943 7.1122 16.0943 7.33519 16.3173C7.55817 16.5402 7.55817 16.9018 7.33519 17.1248L6.93144 17.5285L7.23565 17.8327C7.49395 18.091 7.925 18.0437 8.12112 17.7355L11.5073 12.4144Z" /></g>
    </symbol>

    <symbol id="monkey" viewBox="0 0 20 15">
        <g><path fill="currentColor" d="M9.84619 0C7.24644 0 4.98409 1.44458 3.81805 3.57483C3.53989 3.45406 3.23296 3.38711 2.91039 3.38711H2.28111C1.02129 3.38711 0 4.40839 0 5.66821C0 6.92803 1.02128 7.94932 2.2811 7.94932H2.91039C2.93325 7.94932 2.95602 7.94898 2.97872 7.94832V7.97871C2.97872 11.8565 6.12225 15 10 15C13.8777 15 17.0213 11.8565 17.0213 7.97872V7.94829C17.044 7.94896 17.0668 7.9493 17.0896 7.9493H17.7189C18.9787 7.9493 20 6.92801 20 5.66819C20 4.40837 18.9787 3.38708 17.7189 3.38708H17.0896C16.767 3.38708 16.4601 3.45404 16.1819 3.57482C15.0159 1.44457 12.7536 0 10.1538 0H9.84619ZM7.87235 3.08112C8.77474 3.08112 9.57922 3.42091 10.1016 3.95126C10.609 3.46856 11.3665 3.16217 12.2128 3.16217C13.7404 3.16217 14.9788 4.16045 14.9788 5.3919C14.9788 6.34664 14.2344 7.16124 13.188 7.4791C14.2328 8.10352 14.8937 9.02552 14.8937 10.054C14.8937 11.9348 12.6837 13.4594 9.9575 13.4594C7.23133 13.4594 5.02133 11.9348 5.02133 10.054C5.02133 9.03563 5.6693 8.12166 6.69632 7.49761C5.70843 7.13459 5.02128 6.3283 5.02128 5.39193C5.02128 4.1157 6.29775 3.08112 7.87235 3.08112ZM7.91488 6.16213C8.38491 6.16213 8.76594 5.85357 8.76594 5.47294C8.76594 5.09231 8.38491 4.78375 7.91488 4.78375C7.44485 4.78375 7.06381 5.09231 7.06381 5.47294C7.06381 5.85357 7.44485 6.16213 7.91488 6.16213ZM12.2553 6.16213C12.7253 6.16213 13.1063 5.85357 13.1063 5.47294C13.1063 5.09231 12.7253 4.78375 12.2553 4.78375C11.7852 4.78375 11.4042 5.09231 11.4042 5.47294C11.4042 5.85357 11.7852 6.16213 12.2553 6.16213ZM6.66587 9.89783C7.5808 10.2589 8.96607 10.7268 10 10.7268C11.034 10.7268 12.4192 10.2589 13.3342 9.89783C13.575 9.80278 13.8078 10.1059 13.6471 10.309C11.7852 12.6625 8.21481 12.6625 6.35288 10.309C6.1922 10.1059 6.42498 9.80278 6.66587 9.89783Z" /></g>
    </symbol>

    <symbol id="lens" viewBox="0 0 16 16">
        <g><path fill="currentColor" d="M8 16C3.58667 16 0 12.4133 0 8C0 3.58667 3.58667 0 8 0C12.4133 0 16 3.58667 16 8C16 12.4133 12.4133 16 8 16ZM8 2.13333C4.76667 2.13333 2.13333 4.76667 2.13333 8C2.13333 11.2333 4.76667 13.8667 8 13.8667C11.2333 13.8667 13.8667 11.2333 13.8667 8C13.8667 4.76667 11.2333 2.13333 8 2.13333ZM4.8 9.06667C4.21333 9.06667 3.73333 8.58667 3.73333 8C3.73333 5.64667 5.64667 3.73333 8 3.73333C8.58667 3.73333 9.06667 4.21333 9.06667 4.8C9.06667 5.38667 8.58667 5.86667 8 5.86667C6.82667 5.86667 5.86667 6.82667 5.86667 8C5.86667 8.58667 5.38667 9.06667 4.8 9.06667Z" /></g>
    </symbol>

    <symbol id="clapper" viewBox="0 0 16 14">
        <g><path fill="currentColor" d="M13.4382 2L11.1338 0H8.25744L10.5619 2L8.36985 4H11.2462L13.4382 2ZM13.0574 0H16V4H13.1699L15.3619 2L13.0574 0ZM6.33378 0L8.63823 2L6.44619 4H3.56985L5.76189 2L3.45744 0H6.33378ZM3.83823 2L1.53378 0H6.10352e-05L6.10144e-05 4H1.64619L3.83823 2ZM16 5.00006H0L5.53131e-05 14.0001H16.0001L16 5.00006ZM14 7.00006H2V8.00006H14V7.00006ZM14 9.02947L2 9.00006V10.0001H14V9.02947ZM2 11.0001H14V12.0001H2V11.0001ZM13.4382 2L11.1338 0H8.25744L10.5619 2L8.36985 4H11.2462L13.4382 2ZM13.0574 0H16V4H13.1699L15.3619 2L13.0574 0ZM6.33378 0L8.63823 2L6.44619 4H3.56985L5.76189 2L3.45744 0H6.33378ZM3.83823 2L1.53378 0H6.10352e-05L6.10144e-05 4H1.64619L3.83823 2ZM16 5.00006H0L5.53131e-05 14.0001H16.0001L16 5.00006ZM14 7.00006H2V8.00006H14V7.00006ZM14 9.02947L2 9.00006V10.0001H14V9.02947ZM2 11.0001H14V12.0001H2V11.0001Z" /></g>
    </symbol>
</svg>