<svg xmlns="http://www.w3.org/2000/svg" viewBox="0 0 280.002 261"><defs><style>.a{fill:#eee;}</style></defs><path class="a" d="M224.514,261H55.492A28.835,28.835,0,0,1,27.3,238.43L.694,118.922A28.813,28.813,0,0,1,22.62,84.533a28.971,28.971,0,0,1,6.264-.686H40.5a7.876,7.876,0,0,1,1.969-3.279L88.313,34.812a23.659,23.659,0,1,1,20.781,12.352,23.917,23.917,0,0,1-3.236-.22l-36.973,36.9H216.317L179.335,46.936a23.947,23.947,0,0,1-3.3.228,23.581,23.581,0,1,1,20.806-12.4l45.889,45.8a7.883,7.883,0,0,1,1.97,3.279h6.42a28.817,28.817,0,0,1,28.19,35.075L252.7,238.43A28.864,28.864,0,0,1,224.514,261ZM28.877,105a7.942,7.942,0,0,0-1.708.186,7.847,7.847,0,0,0-5.98,9.363L47.8,233.855A7.822,7.822,0,0,0,55.487,240H224.515a7.822,7.822,0,0,0,7.688-6.145l26.609-119.306a7.778,7.778,0,0,0,.188-1.7A7.87,7.87,0,0,0,251.124,105ZM140.5,222c-10.708,0-20.7-4.841-28.13-13.631a47.04,47.04,0,0,1-8.341-14.641,53.385,53.385,0,0,1,0-35.455,47.046,47.046,0,0,1,8.341-14.641C119.8,134.841,129.792,130,140.5,130s20.7,4.841,28.13,13.631a47.047,47.047,0,0,1,8.341,14.641,53.386,53.386,0,0,1,0,35.455,47.04,47.04,0,0,1-8.341,14.641C161.2,217.159,151.208,222,140.5,222Zm0-71c-4.71,0-9.4,2.611-12.882,7.165a31.12,31.12,0,0,0,0,35.67C131.095,198.388,135.79,201,140.5,201s9.405-2.611,12.882-7.164a31.118,31.118,0,0,0,0-35.67C149.905,153.612,145.21,151,140.5,151Z" transform="translate(0.002)"/></svg>