<svg xmlns="http://www.w3.org/2000/svg" width="266" height="185" fill="none" viewBox="0 0 266 185">
    <path fill="#DFF5D0" d="M242.821 135.843c0 11.046-8.954 20-20 20h-168c-11.046 0-20-8.954-20-20v-93c0-11.045 8.954-20 20-20h168c11.046 0 20 8.955 20 20v93z"/>
    <circle cx="228.128" cy="30.058" r="25" fill="#fff"/>
    <path fill="#95ECF1" d="M238.719 30.149l9.639 5.564c-.466 1.728-1.16 3.424-2.097 5.047-.938 1.623-2.059 3.073-3.323 4.34l-9.638-5.565c2.201-2.938 4.035-6.152 5.419-9.386zm-19.9 4.154c-1.49 4.389-2.331 9.656-1.293 14.115l.048.029c.016.01.033.018.049.027 4.388-1.332 8.527-4.699 11.577-8.177l-10.381-5.994zm20.898-6.707l9.195 5.309c.875-6.924-1.759-13.99-7.214-18.63.392 4.443-.499 9.132-1.981 13.32zm-3.36 1.189l-11.146-6.435c-2.166 2.847-4.035 6.083-5.42 9.386l11.146 6.435c2.166-2.847 4.035-6.083 5.42-9.386zm-19.926 4.14l-9.195-5.309c-.875 6.923 1.759 13.99 7.214 18.629-.392-4.444.499-9.133 1.981-13.32zm15.157 8.75c-2.887 3.38-6.503 6.495-10.545 8.376 6.744 2.405 14.182 1.153 19.74-3.067l-9.195-5.308zm5.742-15.457c1.489-4.39 2.33-9.656 1.292-14.116l-.048-.028c-.016-.01-.033-.018-.049-.027-4.388 1.332-8.527 4.699-11.577 8.177l10.382 5.994zM213.21 15.42c-1.264 1.267-2.385 2.716-3.323 4.34-.937 1.622-1.631 3.319-2.097 5.046l9.639 5.565c1.384-3.234 3.218-6.448 5.419-9.387l-9.638-5.564zm11.35 3.424c2.887-3.379 6.503-6.494 10.545-8.375-6.744-2.405-14.182-1.153-19.74 3.066l9.195 5.309z"/>
    <path fill="#fff" d="M215.44 11.686c-.279-1.752-1.326-3.342-2.939-4.273-1.609-.93-3.506-1.042-5.161-.411-.25-1.725-1.267-3.3-2.856-4.218-3.313-1.912-7.539-.17-8.541 3.523l-3.723 13.73c-.747 2.756.454 5.669 2.927 7.097 1.823 1.052 4.002 1.103 5.828.243.169 2.012 1.303 3.873 3.126 4.926 2.471 1.427 5.593 1.012 7.607-1.01l3.437-3.454-1.274 4.698c-.748 2.756.454 5.669 2.926 7.096 1.823 1.053 4.002 1.104 5.829.244.168 2.012 1.302 3.873 3.125 4.926 2.472 1.427 5.594 1.012 7.607-1.01l2.06-2.07-.763 2.814c-.747 2.756.455 5.669 2.927 7.096 1.823 1.053 4.002 1.104 5.828.244.169 2.012 1.303 3.873 3.126 4.926 2.471 1.427 5.594 1.012 7.607-1.01l10.037-10.085c2.7-2.713 2.097-7.247-1.217-9.16-1.591-.92-3.468-1.012-5.088-.362-.279-1.752-1.326-3.342-2.939-4.273-1.609-.93-3.506-1.042-5.161-.412-.249-1.724-1.267-3.3-2.856-4.217-.865-.5-1.793-.75-2.709-.78-.485-.779-1.166-1.457-2.032-1.957-1.591-.919-3.468-1.01-5.088-.361-.279-1.752-1.326-3.342-2.938-4.273-1.61-.93-3.507-1.042-5.162-.412-.249-1.724-1.266-3.3-2.855-4.217-1.05-.606-2.191-.845-3.293-.771-.487-.99-1.264-1.86-2.314-2.466-1.592-.919-3.468-1.01-5.088-.361z"/>
    <path fill="#95ECF1" d="M207.642 15.72l.096.055-2.711 10.505c-.258.997.182 2.044 1.074 2.559.9.52 2.038.369 2.772-.368l10.037-10.085c.847-.851.658-2.274-.382-2.875-.745-.43-1.689-.283-2.268.353l-7.867 8.644-.085-.05 3.132-11.285c.247-.89-.139-1.834-.939-2.296-.8-.462-1.811-.324-2.458.335l-8.207 8.355-.085-.049 3.561-11.128c.262-.82-.082-1.711-.828-2.142-1.04-.6-2.366-.053-2.68 1.106l-3.723 13.73c-.273 1.004.165 2.065 1.066 2.585.892.515 2.017.372 2.752-.349l7.743-7.6zM229.388 28.275l-2.711 10.505c-.257.997.182 2.044 1.074 2.559.901.52 2.039.369 2.772-.368l10.037-10.085c.848-.851.659-2.274-.382-2.875-.744-.43-1.688-.283-2.267.353l-7.867 8.644-.085-.05 3.132-11.285c.247-.89-.139-1.834-.939-2.296-.8-.462-1.811-.324-2.458.335l-8.207 8.355-.085-.049 3.56-11.128c.263-.82-.082-1.711-.827-2.142-1.04-.6-2.366-.053-2.681 1.106l-3.723 13.73c-.272 1.004.166 2.065 1.066 2.585.892.515 2.018.372 2.753-.349l7.742-7.6.096.055zM247.462 50.78l2.711-10.505-.096-.056-7.743 7.601c-.735.721-1.86.864-2.752.35-.901-.52-1.338-1.582-1.066-2.586l3.723-13.73c.314-1.159 1.641-1.706 2.68-1.105.746.43 1.09 1.322.828 2.141l-3.561 11.128.085.05 8.207-8.356c.648-.659 1.659-.797 2.459-.335.799.462 1.186 1.406.939 2.296l-3.133 11.285.085.05 7.868-8.644c.578-.636 1.522-.783 2.267-.353 1.04.6 1.229 2.024.382 2.875l-10.037 10.085c-.734.737-1.872.888-2.772.368-.892-.515-1.331-1.562-1.074-2.56z"/>
    <path fill="#fff" fill-rule="evenodd" d="M134.33 8.546c-2.957-2.18-6.749-3.221-10.662-2.531-7.079 1.248-11.811 7.629-11.545 14.586-3.258 2.978-4.922 7.55-4.099 12.216 1.257 7.128 7.945 12.126 15.149 10.855l22.738-4.009c6.658-1.174 10.872-7.623 9.714-14.188-.782-4.435-3.833-7.966-7.785-9.441-1.086-5.286-6.121-8.995-11.589-8.031-.67.118-1.312.302-1.921.543z" clip-rule="evenodd"/>
    <path fill="#99B5FF" d="M143.948 19.29c.135-.73.145-1.497.008-2.274-.596-3.38-3.735-5.651-7.011-5.074-1.219.215-2.285.795-3.112 1.611-2.247-2.753-5.807-4.245-9.47-3.599-5.46.963-9.081 6.31-8.087 11.943.03.174.065.346.104.516-3.241 1.867-5.123 5.708-4.417 9.71.894 5.07 5.602 8.477 10.516 7.61l22.737-4.009c4.368-.77 7.264-5.048 6.47-9.554-.696-3.948-3.994-6.762-7.738-6.88z"/>
    <path fill="#fff" fill-rule="evenodd" d="M150.075 133.24l60.994-10.689c5.437-.953 10.623 2.678 11.587 8.113l1.68 9.469c.965 5.441-2.667 10.628-8.11 11.582l-60.993 10.689c-5.437.953-10.623-2.678-11.587-8.113l-1.68-9.469c-.966-5.441 2.666-10.628 8.109-11.582z" clip-rule="evenodd"/>
    <path fill="#FFEFE0" d="M145.904 144.123c-.579-3.263 1.598-6.372 4.862-6.944l60.993-10.688c3.264-.572 6.38 1.609 6.958 4.872l1.68 9.469c.579 3.262-1.598 6.371-4.862 6.943l-60.993 10.689c-3.264.572-6.379-1.609-6.958-4.872l-1.68-9.469z"/>
    <path fill="#FFD7B1" d="M152.544 150.434c1.497 1.489 3.646 2.254 5.852 1.868 2.206-.387 3.962-1.836 4.856-3.745-.245-.823-.965-1.424-1.822-1.49l-1.032-.079c-.672.836-1.606 1.392-2.665 1.577-1.059.186-2.128-.019-3.047-.576l-.942.425c-.783.353-1.253 1.163-1.2 2.02zm.978-5.753c.342 1.926 2.148 3.219 4.034 2.888 1.887-.33 3.139-2.16 2.798-4.086-.342-1.925-2.148-3.219-4.035-2.888-1.886.331-3.139 2.16-2.797 4.086zM169.707 141.377c-.193-1.087.532-2.124 1.62-2.314l27.113-4.752c1.088-.19 2.126.537 2.319 1.624l.057.319c.193 1.087-.533 2.124-1.621 2.314l-27.112 4.752c-1.088.19-2.127-.537-2.32-1.624l-.056-.319zM170.84 147.762c-.193-1.087.532-2.123 1.62-2.314l20.688-3.626c1.088-.19 2.127.537 2.32 1.624l.056.319c.193 1.087-.533 2.124-1.621 2.314l-20.688 3.626c-1.088.19-2.126-.537-2.319-1.624l-.056-.319zM205.093 135.468l2.113-.371c-.106-.875.387-1.538 1.284-1.695.889-.156 1.574.26 1.704.993.13.733-.107 1.164-1.005 1.947-.964.827-1.267 1.611-.942 2.854l.093.43 2.067-.362-.074-.418c-.135-.756.085-1.193 1.015-1.981.984-.847 1.407-1.773 1.197-2.955-.323-1.82-2.019-2.814-4.25-2.423-2.395.419-3.511 2.012-3.202 3.981zm5.037 7.768c.874-.153 1.321-.76 1.174-1.587-.148-.835-.777-1.253-1.651-1.1-.873.153-1.328.761-1.18 1.596.147.827.784 1.244 1.657 1.091z"/>
    <path fill="#fff" d="M194.314 144.909l60.993 10.689c5.443.954 9.075 6.141 8.11 11.582l-1.68 9.469c-.964 5.435-6.15 9.066-11.587 8.114l-60.993-10.689c-5.444-.954-9.076-6.141-8.11-11.583l1.68-9.469c.964-5.434 6.15-9.066 11.587-8.113z"/>
    <path fill="#FFEFE0" d="M186.665 153.721c.579-3.263 3.694-5.444 6.958-4.872l60.994 10.689c3.264.572 5.44 3.681 4.861 6.943l-1.679 9.469c-.579 3.263-3.695 5.444-6.959 4.872l-60.993-10.689c-3.264-.572-5.441-3.68-4.862-6.943l1.68-9.469z"/>
    <path fill="#FFD7B1" d="M191.924 155.756c.193-1.087 1.231-1.814 2.319-1.624l36.75 6.441c1.088.19 1.813 1.227 1.62 2.314l-.056.319c-.193 1.087-1.231 1.814-2.319 1.624l-36.75-6.441c-1.088-.19-1.814-1.227-1.621-2.314l.057-.319zM190.628 162.001c.193-1.088 1.231-1.815 2.319-1.624l29.255 5.127c1.088.19 1.813 1.227 1.62 2.314l-.056.319c-.193 1.087-1.231 1.814-2.319 1.624l-29.255-5.127c-1.088-.191-1.813-1.227-1.62-2.315l.056-.318zM248.967 163.335c-3.253-.57-6.354 1.588-6.928 4.821-.573 3.233 1.598 6.315 4.851 6.885 3.253.57 6.354-1.588 6.928-4.821.573-3.232-1.599-6.315-4.851-6.885zm3.624 3.545l-1.771 1.232c-.183-.484-.49-.919-.885-1.256l1.771-1.233c.355.374.654.797.885 1.257zm-5.065 4.574c-1.259-.221-2.099-1.414-1.877-2.665.222-1.252 1.422-2.087 2.681-1.867 1.259.221 2.1 1.414 1.878 2.666-.222 1.251-1.423 2.087-2.682 1.866zm-1.92-6.9l1.24 1.76c-.487.182-.925.487-1.264.88l-1.241-1.76c.376-.353.802-.65 1.265-.88zm-2.34 6.943l1.771-1.233c.183.484.49.92.885 1.257l-1.771 1.232c-.356-.373-.654-.796-.885-1.256zm6.985 2.325l-1.24-1.76c.487-.182.925-.487 1.264-.88l1.24 1.761c-.375.353-.801.649-1.264.879z"/>
    <path fill="#fff" d="M52.22 3.007c1.173.314 2.206.981 2.971 1.891l15.89 27.343c1.625 2.813.663 6.402-2.15 8.026L28.878 63.392c-2.813 1.624-6.401.663-8.026-2.15L1.727 28.116c-1.624-2.813-.662-6.401 2.15-8.025L38.24.355c1.118-.407 2.347-.472 3.528-.155L52.22 3.007z"/>
    <path fill="#F8E5FF" d="M42.042 14.944L36.73 5.742 5.878 23.555c-.9.52-1.206 1.661-.687 2.56l19.126 33.126c.519.9 1.66 1.206 2.56.687l40.054-23.125c.9-.52 1.206-1.662.687-2.562L53.805 10.317l-9.201 5.313c-.893.516-2.046.207-2.562-.686zM52.317 7.74l.238.412-8.66 5-5-8.66.413-.238c.433-.25.943-.32 1.423-.19L51.183 6.87c.48.128.888.443 1.134.87z"/>
    <path fill="#ECBDFD" d="M37.51 29.54c.345-.198.407-.741.139-1.205l-.325-.563c-.268-.465-.77-.682-1.114-.483l-17.8 10.277c-.344.199-.407.741-.139 1.206l.325.563c.269.464.77.681 1.114.482l17.8-10.276zM39.24 22.537c.345-.199.407-.741.14-1.206l-.326-.563c-.268-.464-.77-.681-1.114-.482L15.81 33.062c-.344.2-.407.742-.139 1.206l.325.563c.269.465.77.682 1.114.483l22.13-12.777zM36.78 16.828l-.326-.563c-.268-.464-.77-.682-1.114-.483L13.21 28.56c-.344.199-.407.742-.139 1.206l.325.563c.269.464.77.682 1.114.483l22.13-12.777c.345-.199.407-.742.14-1.206zM38.383 46.357c.18-.103.072-.626-.237-1.162l-.375-.65c-.31-.535-.709-.89-.888-.786L25.41 50.384c-.179.103-.072.626.237 1.162l.375.65c.31.535.71.889.888.786l11.474-6.625zM57.396 27.825l.504-1.821c.157-.532-.345-1.027-.864-.873l-1.825.51-.465-1.84c-.137-.529-.811-.712-1.19-.323l-1.313 1.359-1.328-1.365c-.368-.39-1.055-.213-1.18.319l-.46 1.84-1.823-.522c-.517-.156-1.021.343-.866.863l.517 1.832-1.833.458c-.526.134-.705.81-.316 1.191l1.362 1.323-1.354 1.326c-.394.373-.216 1.055.323 1.185l1.83.474-.505 1.822c-.156.532.346 1.026.865.873l1.825-.51.465 1.84c.136.528.81.711 1.19.323l1.313-1.36 1.328 1.365c.386.409 1.056.207 1.18-.318l.464-1.833 1.82.515c.515.16 1.023-.337.865-.863l-.517-1.833 1.833-.457c.526-.134.705-.81.316-1.192l-1.362-1.323 1.354-1.325c.393-.374.215-1.055-.323-1.186l-1.83-.474z"/>
    <path fill="#000" fill-rule="evenodd" d="M66.536 75.993c.697 1.652 1.382 3.316 2.053 4.993.672 1.677 1.356 3.341 2.054 4.993l.775 3.304h.581l.581-3.341c.465-1.677.943-3.335 1.434-4.975.49-1.639.969-3.297 1.434-4.974h4.96L73.471 95.89h-3.914c-.697-1.727-1.447-3.535-2.247-5.425-.801-1.89-1.55-3.697-2.248-5.424l-.542-2.553h-.697c-.078.425-.168.857-.272 1.295-.103.438-.194.87-.271 1.295L59.058 95.89H54.95l-7.129-19.897h5.89l3.254 9.723.543 3.642h.58l.776-3.68 3.68-9.685h3.992zM100.207 93.9c-.878.651-2.073 1.208-3.584 1.67-1.511.464-3.132.695-4.863.695-3.487 0-6.044-.926-7.672-2.778-1.627-1.852-2.44-4.392-2.44-7.62 0-3.43.916-6.026 2.75-7.79 1.834-1.765 4.417-2.647 7.75-2.647 1.084 0 2.156.131 3.216.394 1.059.263 2.001.7 2.828 1.314.827.613 1.492 1.44 1.996 2.478.503 1.038.755 2.321.755 3.848 0 .525-.032 1.101-.097 1.727-.064.625-.174 1.276-.329 1.952H86.955c.13 1.702.64 2.96 1.53 3.773.892.813 2.345 1.22 4.36 1.22 1.214 0 2.305-.17 3.274-.507.969-.338 1.711-.682 2.228-1.032l1.86 3.303zM92.07 79.56c-1.601 0-2.79.419-3.565 1.257-.775.839-1.227 1.909-1.356 3.21h8.757c.103-1.377-.155-2.465-.775-3.266-.62-.801-1.64-1.201-3.061-1.201zm13.755-10.137h5.425v8.26h.465c.62-.676 1.414-1.208 2.383-1.596.968-.388 2.034-.582 3.196-.582 2.635 0 4.643.832 6.025 2.497 1.382 1.664 2.073 4.098 2.073 7.301 0 1.727-.251 3.267-.755 4.618-.504 1.351-1.221 2.49-2.151 3.416-.93.926-2.066 1.633-3.409 2.121-1.344.488-2.855.732-4.534.732-1.937 0-3.668-.131-5.192-.394s-2.699-.557-3.526-.882v-25.49zm5.425 21.812c.516.25 1.065.407 1.647.47.581.062 1.207.093 1.879.093 3.358 0 5.037-2.127 5.037-6.382 0-1.802-.349-3.172-1.046-4.11-.698-.94-1.731-1.409-3.1-1.409-1.162 0-2.099.263-2.809.789-.711.525-1.247 1.301-1.608 2.327v8.222z" clip-rule="evenodd"/>
    <path fill="#08E" fill-rule="evenodd" d="M130.484 76.611c1.133-.527 2.524-.962 4.173-1.305 1.65-.343 3.356-.514 5.118-.514 1.385 0 2.55.171 3.494.514.944.343 1.693.837 2.247 1.483.554.646.951 1.424 1.19 2.333.239.91.359 1.918.359 3.026 0 1.344-.051 2.676-.151 3.994-.101 1.318-.151 2.715-.151 4.192 0 1.002.062 1.977.188 2.926.126.95.328 1.859.605 2.729h-4.306l-.869-3.085h-.453c-.655.923-1.486 1.714-2.493 2.373-1.007.66-2.304.989-3.89.989-.957 0-1.832-.145-2.625-.435-.793-.29-1.473-.706-2.04-1.246-.566-.54-1.007-1.18-1.322-1.918-.314-.738-.472-1.542-.472-2.412 0-2.347.749-4.12 2.248-5.32 1.498-1.199 3.77-1.799 6.817-1.799.705 0 1.41.06 2.115.178.705.119 1.196.205 1.473.257.076-.553.113-1.028.113-1.423 0-1.002-.239-1.74-.717-2.215-.479-.475-1.372-.712-2.682-.712-1.208 0-2.386.152-3.531.455-1.146.303-2.159.679-3.041 1.127l-1.397-4.192zm6.912 15.225c1.183 0 2.127-.29 2.832-.87.705-.58 1.222-1.186 1.549-1.819v-2.373c-.126-.052-.321-.105-.585-.158-.265-.052-.554-.105-.869-.158-.315-.053-.63-.092-.944-.118-.315-.027-.598-.04-.85-.04-1.36 0-2.367.257-3.022.771-.654.514-.982 1.154-.982 1.918 0 .95.258 1.661.774 2.136.517.474 1.215.711 2.097.711z" clip-rule="evenodd"/>
    <path fill="#2C2" fill-rule="evenodd" d="M152.665 90.423c.378.18.816.361 1.315.542.498.18 1.038.348 1.617.503.58.155 1.173.284 1.78.387.606.103 1.22.155 1.84.155.944 0 1.678-.142 2.204-.426.526-.284.789-.813.789-1.586 0-.62-.351-1.077-1.052-1.374-.701-.296-1.563-.587-2.588-.87-.755-.207-1.544-.452-2.366-.736-.822-.283-1.577-.664-2.265-1.14-.687-.478-1.254-1.104-1.699-1.877-.444-.774-.667-1.755-.667-2.941 0-2.038.661-3.592 1.982-4.662 1.321-1.07 3.222-1.606 5.702-1.606 1.618 0 3.135.135 4.55.406 1.416.271 2.555.587 3.418.948l-1.173 4.102c-.701-.258-1.597-.523-2.689-.794-1.092-.27-2.205-.406-3.337-.406-.944 0-1.645.135-2.103.406-.459.271-.688.742-.688 1.413 0 .593.358 1.038 1.072 1.334.715.297 1.584.587 2.609.87.755.207 1.543.446 2.366.717.822.27 1.57.638 2.244 1.102.674.465 1.234 1.064 1.679 1.8.445.735.667 1.657.667 2.766 0 2.167-.735 3.843-2.204 5.03-1.47 1.186-3.674 1.78-6.613 1.78-1.591 0-3.073-.136-4.449-.407-1.375-.27-2.494-.664-3.356-1.18l1.415-4.256z" clip-rule="evenodd"/>
    <path fill="#E62" fill-rule="evenodd" d="M180.662 86.221l.872 3.3h.397l.753-3.3 3.529-11.429h5.669l-6.899 18.656c-.581 1.545-1.13 2.932-1.645 4.163-.515 1.23-1.077 2.278-1.685 3.142-.608.864-1.289 1.525-2.042 1.983-.753.458-1.645.688-2.676.688-.687 0-1.342-.059-1.963-.177s-1.156-.295-1.605-.53l1.149-4.242c.397.13.807.196 1.229.196.37 0 .727-.039 1.071-.118.344-.078.661-.229.951-.451.291-.223.562-.537.813-.943.251-.406.469-.949.654-1.63l-9.515-20.737h6.7l4.243 11.43z" clip-rule="evenodd"/>
    <path fill="#FC0" fill-rule="evenodd" d="M195.145 90.423c.377.18.815.361 1.314.542.499.18 1.038.348 1.618.503.58.155 1.173.284 1.779.387.607.103 1.22.155 1.841.155.943 0 1.678-.142 2.204-.426.526-.284.788-.813.788-1.586 0-.62-.35-1.077-1.051-1.374-.701-.296-1.564-.587-2.588-.87-.755-.207-1.544-.452-2.366-.736-.823-.283-1.578-.664-2.265-1.14-.688-.478-1.254-1.104-1.699-1.877-.445-.774-.667-1.755-.667-2.941 0-2.038.66-3.592 1.981-4.662 1.322-1.07 3.223-1.606 5.703-1.606 1.618 0 3.134.135 4.55.406s2.555.587 3.418.948l-1.173 4.102c-.701-.258-1.598-.523-2.69-.794-1.092-.27-2.204-.406-3.336-.406-.944 0-1.645.135-2.104.406-.458.271-.687.742-.687 1.413 0 .593.357 1.038 1.072 1.334.714.297 1.584.587 2.608.87.755.207 1.544.446 2.366.717.823.27 1.571.638 2.245 1.102.674.465 1.233 1.064 1.678 1.8.445.735.668 1.657.668 2.766 0 2.167-.735 3.843-2.205 5.03-1.469 1.186-3.673 1.78-6.612 1.78-1.591 0-3.074-.136-4.449-.407-1.375-.27-2.494-.664-3.357-1.18l1.416-4.256z" clip-rule="evenodd"/>
    <path fill="#5DD" fill-rule="evenodd" d="M214.045 75.414h3.079v-2.775l5.387-1.426v4.201h5.425v4.51h-5.425v7.014c0 1.619.16 2.782.481 3.488.32.707.955 1.06 1.904 1.06.59 0 1.09-.045 1.501-.135.41-.09.846-.237 1.308-.443l1.116 4.047c-.821.36-1.764.668-2.828.925-1.065.257-2.097.386-3.098.386-2 0-3.463-.495-4.386-1.484-.924-.99-1.385-2.576-1.385-4.76V79.923h-3.079v-4.509z" clip-rule="evenodd"/>
    <path fill="#fff" d="M6.723 114.363l35.896-9.618c4.836-1.296 9.81 1.576 11.105 6.412l11.367 42.422c1.296 4.836-1.575 9.81-6.412 11.106l-35.895 9.618c-4.837 1.296-9.81-1.576-11.106-6.412L.311 125.469c-1.296-4.836 1.576-9.81 6.412-11.106z"/>
    <path fill="#DDD" d="M43.654 108.609l-35.896 9.618c-2.702.724-4.308 3.504-3.583 6.207l11.367 42.422c.724 2.702 3.504 4.307 6.206 3.583l35.896-9.618c2.702-.724 4.307-3.504 3.583-6.207L49.86 112.192c-.724-2.702-3.504-4.307-6.206-3.583z"/>
    <path fill="#ABABAB" d="M34.673 159.973c.484 1.805 2.333 2.872 4.138 2.389 1.805-.484 2.873-2.333 2.39-4.138-.485-1.805-2.334-2.873-4.139-2.389-1.805.484-2.872 2.333-2.389 4.138zM52.948 148.052c.673-.18 1.077-.879.896-1.552l-8.525-31.817c-.18-.673-.879-1.076-1.552-.895L10.32 122.75c-.673.18-1.076.879-.896 1.552l8.525 31.816c.18.674.879 1.077 1.552.896l33.448-8.962z"/>
    <path fill="#fff" fill-rule="evenodd" d="M69.297 136.73l11.979 3.21c3.55.952 5.659 4.603 4.707 8.154l-5.96 22.246c-.952 3.551-4.603 5.659-8.154 4.708l-11.98-3.21c-3.55-.951-5.658-4.603-4.707-8.154l5.961-22.246c.952-3.551 4.603-5.659 8.154-4.708z" clip-rule="evenodd"/>
    <path fill="#DDD" d="M68.262 140.594l11.978 3.21c1.418.38 2.26 1.837 1.88 3.254l-5.961 22.247c-.38 1.417-1.838 2.259-3.255 1.879l-11.979-3.21c-1.417-.379-2.259-1.837-1.88-3.254l5.962-22.247c.38-1.417 1.837-2.259 3.255-1.879z"/>
    <path fill="#AAA" d="M74.91 163.697c-.095.353-.46.565-.814.47l-10.695-2.866c-.353-.094-.565-.46-.47-.813l4.47-16.685c.095-.353.462-.564.814-.47l10.696 2.866c.353.095.564.461.47.814l-4.471 16.684zM66.12 165.698c-.253.947.306 1.916 1.253 2.17.947.253 1.916-.306 2.17-1.253.253-.946-.306-1.916-1.253-2.17-.946-.253-1.916.307-2.17 1.253z"/>
</svg>
