<svg xmlns="http://www.w3.org/2000/svg" width="282" height="146" fill="none" viewBox="0 0 282 146">
    <path fill="#A1F279" d="M158 10c0-2.761 2.239-5 5-5h114c2.761 0 5 2.239 5 5v70c0 2.761-2.239 5-5 5H163c-2.761 0-5-2.239-5-5V10z"/>
    <path fill="#DFF5D0" d="M153 5c0-2.761 2.239-5 5-5h114c2.761 0 5 2.239 5 5v70c0 2.761-2.239 5-5 5H158c-2.761 0-5-2.239-5-5V5z"/>
    <path fill="#000" fill-opacity=".07" d="M163 32c0-2.21 1.791-4 4-4h77c2.209 0 4 1.79 4 4s-1.791 4-4 4h-77c-2.209 0-4-1.79-4-4zM163 46c0-2.21 1.791-4 4-4h77c2.209 0 4 1.79 4 4s-1.791 4-4 4h-77c-2.209 0-4-1.79-4-4z"/>
    <path fill="#73CC33" d="M163 61c0-2.761 2.239-5 5-5h14c2.761 0 5 2.239 5 5s-2.239 5-5 5h-14c-2.761 0-5-2.239-5-5z"/>
    <path fill="#000" fill-rule="evenodd" d="M167.273 11.932c.197.486.39.976.579 1.469.189.493.382.982.578 1.468l.219.972h.164l.163-.983c.131-.493.266-.98.404-1.463.139-.482.273-.97.404-1.463h1.398l-1.955 5.852h-1.102c-.197-.508-.408-1.04-.633-1.595-.226-.556-.437-1.088-.634-1.596l-.152-.75h-.197c-.022.125-.047.252-.076.38-.03.13-.055.256-.077.381l-1.19 3.18h-1.157L162 11.932h1.659l.918 2.86.152 1.071h.164l.219-1.082 1.037-2.849h1.124zm9.488 5.267c-.248.191-.584.355-1.01.491-.426.137-.883.205-1.37.205-.983 0-1.704-.273-2.162-.817-.459-.545-.688-1.292-.688-2.242 0-1.008.258-1.772.775-2.29.517-.52 1.245-.78 2.184-.78.305 0 .608.04.906.117.298.077.564.206.797.386.233.18.42.423.562.729.142.305.213.683.213 1.132 0 .154-.009.323-.027.507-.018.184-.049.376-.093.575h-3.821c.036.5.18.87.431 1.11.251.239.661.358 1.228.358.342 0 .65-.05.923-.149.273-.1.482-.2.628-.303l.524.971zm-2.293-4.218c-.451 0-.786.123-1.004.37-.219.247-.346.561-.383.944h2.468c.029-.405-.044-.725-.219-.96-.174-.236-.462-.354-.862-.354zM178.344 10h1.528v2.43h.131c.175-.2.399-.356.672-.47.273-.114.573-.171.9-.171.743 0 1.309.245 1.698.734.389.49.584 1.205.584 2.148 0 .508-.071.96-.213 1.358-.142.397-.344.732-.606 1.005-.262.272-.582.48-.96.623-.379.144-.805.216-1.278.216-.546 0-1.033-.039-1.463-.116-.429-.078-.76-.164-.993-.26V10zm1.528 6.415c.146.074.3.12.464.138.164.019.34.028.53.028.946 0 1.419-.626 1.419-1.877 0-.53-.098-.933-.295-1.21-.196-.275-.487-.413-.873-.413-.328 0-.592.077-.792.231-.2.155-.351.383-.453.685v2.418z" clip-rule="evenodd"/>
    <path fill="#08E" fill-rule="evenodd" d="M185.292 12.114c.319-.155.711-.283 1.176-.384.464-.1.945-.15 1.442-.15.39 0 .718.05.984.15.266.101.477.246.633.436.156.19.268.42.336.687.067.267.101.564.101.89 0 .395-.015.787-.043 1.174-.028.388-.042.799-.042 1.233 0 .295.017.582.053.86.035.28.092.548.17.803h-1.213l-.245-.907h-.128c-.184.272-.418.504-.702.698-.284.194-.649.29-1.096.29-.27 0-.516-.042-.74-.127-.223-.085-.415-.207-.575-.366-.159-.16-.283-.347-.372-.565-.089-.217-.133-.453-.133-.71 0-.69.211-1.21.633-1.564.422-.352 1.063-.529 1.921-.529.199 0 .397.018.596.053.199.034.337.06.415.075.021-.163.032-.302.032-.418 0-.295-.067-.512-.202-.652s-.387-.21-.756-.21c-.34 0-.672.045-.995.135-.323.089-.608.2-.857.331l-.393-1.233zm1.947 4.478c.334 0 .6-.085.798-.256.199-.17.345-.349.437-.535v-.698c-.036-.015-.091-.03-.165-.046-.075-.016-.156-.031-.245-.047-.089-.015-.177-.027-.266-.034-.089-.008-.169-.012-.239-.012-.384 0-.667.075-.852.227-.184.15-.277.339-.277.564 0 .279.073.488.219.628.145.14.342.21.59.21z" clip-rule="evenodd"/>
    <path fill="#2C2" fill-rule="evenodd" d="M191.542 16.177c.106.053.23.106.37.159.141.053.293.102.456.148.163.045.33.083.501.114.171.03.344.045.519.045.266 0 .473-.042.621-.125.148-.084.222-.239.222-.467 0-.182-.099-.316-.296-.404-.198-.087-.441-.172-.729-.256-.213-.06-.435-.132-.667-.216-.232-.083-.445-.195-.638-.336-.194-.14-.354-.324-.479-.552-.125-.227-.188-.515-.188-.864 0-.6.186-1.057.558-1.372.373-.315.908-.472 1.607-.472.456 0 .883.04 1.282.12.399.08.72.172.963.278l-.33 1.207c-.198-.076-.45-.154-.758-.234-.308-.08-.621-.12-.94-.12-.266 0-.464.04-.593.12-.129.08-.194.219-.194.416 0 .174.101.305.302.392.202.088.447.173.735.256.213.061.435.131.667.21.232.08.443.189.633.325.19.137.347.313.473.53.125.216.188.487.188.813 0 .637-.207 1.13-.622 1.48-.414.348-1.035.523-1.863.523-.448 0-.866-.04-1.253-.12-.388-.08-.703-.195-.946-.347l.399-1.252z" clip-rule="evenodd"/>
    <path fill="#E62" fill-rule="evenodd" d="M199.43 14.94l.246.97h.112l.212-.97.994-3.36h1.598l-1.944 5.486c-.164.454-.318.863-.464 1.225-.145.361-.303.67-.474.924-.172.254-.364.448-.576.583-.212.135-.463.202-.754.202-.193 0-.378-.017-.553-.052-.175-.035-.326-.087-.452-.156l.324-1.247c.111.038.227.057.346.057.104 0 .205-.011.302-.034.096-.023.186-.068.268-.133.082-.066.158-.158.229-.277.071-.12.132-.28.184-.48l-2.681-6.099h1.888l1.195 3.362z" clip-rule="evenodd"/>
    <path fill="#FC0" fill-rule="evenodd" d="M203.511 16.177c.106.053.23.106.37.159.141.053.293.102.456.148.164.045.331.083.502.114.171.03.343.045.518.045.266 0 .473-.042.621-.125.148-.084.223-.239.223-.467 0-.182-.099-.316-.297-.404-.197-.087-.44-.172-.729-.256-.213-.06-.435-.132-.667-.216-.231-.083-.444-.195-.638-.336-.194-.14-.353-.324-.479-.552-.125-.227-.188-.515-.188-.864 0-.6.187-1.057.559-1.372.372-.315.908-.472 1.607-.472.455 0 .883.04 1.282.12.398.08.719.172.963.278l-.331 1.207c-.197-.076-.45-.154-.758-.234-.307-.08-.621-.12-.94-.12-.266 0-.463.04-.592.12-.13.08-.194.219-.194.416 0 .174.1.305.302.392.201.088.446.173.735.256.213.061.435.131.666.21.232.08.443.189.633.325.19.137.348.313.473.53.125.216.188.487.188.813 0 .637-.207 1.13-.621 1.48-.414.348-1.035.523-1.863.523-.449 0-.866-.04-1.254-.12-.387-.08-.703-.195-.946-.347l.399-1.252z" clip-rule="evenodd"/>
    <path fill="#5DD" fill-rule="evenodd" d="M208.837 11.762h.867v-.816l1.518-.42v1.236h1.529v1.326h-1.529v2.064c0 .476.045.818.135 1.025.091.208.27.312.537.312.166 0 .307-.013.423-.04.116-.026.238-.07.369-.13l.314 1.19c-.231.106-.497.197-.797.272-.3.076-.591.114-.873.114-.563 0-.975-.146-1.236-.437-.26-.29-.39-.757-.39-1.4v-2.97h-.867v-1.326z" clip-rule="evenodd"/>
    <path fill="#CCDAFF" d="M0 10c0-2.761 2.239-5 5-5h114c2.761 0 5 2.239 5 5v70c0 2.761-2.239 5-5 5H5c-2.761 0-5-2.239-5-5V10z"/>
    <path fill="#E6ECFF" d="M5 5c0-2.761 2.239-5 5-5h114c2.761 0 5 2.239 5 5v70c0 2.761-2.239 5-5 5H10c-2.761 0-5-2.239-5-5V5z"/>
    <path fill="#000" fill-opacity=".07" d="M15 32c0-2.21 1.79-4 4-4h77c2.21 0 4 1.79 4 4s-1.79 4-4 4H19c-2.21 0-4-1.79-4-4zM15 46c0-2.21 1.79-4 4-4h77c2.21 0 4 1.79 4 4s-1.79 4-4 4H19c-2.21 0-4-1.79-4-4z"/>
    <path fill="#80A2FF" d="M15 61c0-2.761 2.239-5 5-5h14c2.761 0 5 2.239 5 5s-2.239 5-5 5H20c-2.761 0-5-2.239-5-5z"/>
    <path fill="#000" fill-opacity=".4" d="M16.382 21.958c1.343 0 2.002-.488 2.46-1.875l1.856-5.469h-1.504l-1.133 4.082h-.087l-1.133-4.082h-1.568l1.89 5.42-.049.196c-.117.41-.42.58-.952.58-.058 0-.273 0-.322-.01v1.143c.058.01.488.015.542.015zM23.852 20.117c1.656 0 2.652-1.05 2.652-2.812 0-1.748-1.01-2.808-2.652-2.808-1.64 0-2.65 1.065-2.65 2.808 0 1.762.995 2.812 2.65 2.812zm0-1.162c-.761 0-1.19-.6-1.19-1.65 0-1.035.434-1.646 1.19-1.646.753 0 1.192.61 1.192 1.646 0 1.045-.435 1.65-1.192 1.65zM32.54 14.614h-1.422v3.106c0 .718-.38 1.162-1.089 1.162-.654 0-.99-.381-.99-1.123v-3.145h-1.422v3.511c0 1.25.723 1.992 1.885 1.992.815 0 1.318-.356 1.572-.981h.088V20h1.377v-5.386zM33.965 20h1.42v-2.983c0-.757.533-1.216 1.31-1.216.229 0 .56.044.673.088v-1.294c-.122-.044-.361-.069-.556-.069-.684 0-1.24.41-1.382.948h-.088v-.86h-1.377V20zM40.122 20.083c.747 0 1.358-.347 1.646-.928h.087V20h1.377v-7.441h-1.42v2.915h-.084c-.278-.596-.878-.948-1.606-.948-1.352 0-2.192 1.06-2.192 2.774 0 1.719.835 2.783 2.192 2.783zm.483-4.365c.757 0 1.221.61 1.221 1.592 0 .986-.459 1.587-1.22 1.587-.762 0-1.216-.596-1.216-1.592 0-.987.459-1.587 1.215-1.587zM47.095 20.117c1.655 0 2.651-1.05 2.651-2.812 0-1.748-1.01-2.808-2.651-2.808-1.64 0-2.652 1.065-2.652 2.808 0 1.762.997 2.812 2.652 2.812zm0-1.162c-.762 0-1.192-.6-1.192-1.65 0-1.035.435-1.646 1.192-1.646.752 0 1.191.61 1.191 1.646 0 1.045-.434 1.65-1.191 1.65zM50.908 20h1.421v-3.242c0-.6.396-1.035.952-1.035.557 0 .889.327.889.898V20h1.367v-3.296c0-.571.371-.981.947-.981.601 0 .899.317.899.957V20h1.42v-3.696c0-1.109-.668-1.807-1.742-1.807-.752 0-1.373.396-1.621.996h-.088c-.215-.625-.733-.996-1.49-.996-.708 0-1.27.38-1.489.996h-.088v-.879h-1.377V20zM62.129 19.014c-.493 0-.84-.244-.84-.645 0-.386.298-.605.908-.65l1.09-.068v.396c0 .547-.499.967-1.158.967zm-.469 1.069c.698 0 1.284-.293 1.563-.786h.087V20h1.377v-3.677c0-1.152-.805-1.826-2.23-1.826-1.354 0-2.267.625-2.36 1.621h1.31c.116-.322.458-.498.97-.498.587 0 .91.254.91.703v.44l-1.305.078c-1.337.078-2.084.644-2.084 1.62 0 .987.727 1.622 1.762 1.622zM66.094 20h1.42v-5.386h-1.42V20zm.713-6.138c.507 0 .84-.297.84-.717 0-.425-.333-.718-.84-.718-.513 0-.84.293-.84.718 0 .42.327.717.84.717zM68.955 20h1.421v-3.105c0-.709.405-1.172 1.064-1.172.674 0 .992.39.992 1.132V20h1.42v-3.481c0-1.29-.644-2.022-1.84-2.022-.796 0-1.343.376-1.592.982h-.088v-.865h-1.377V20zM76.26 20.132c.527 0 .864-.357.864-.85s-.337-.845-.864-.845c-.523 0-.865.352-.865.845s.342.85.865.85zM78.71 20h1.422v-2.983c0-.757.532-1.216 1.308-1.216.23 0 .562.044.674.088v-1.294c-.122-.044-.361-.069-.556-.069-.684 0-1.24.41-1.382.948h-.088v-.86H78.71V20zM87.94 14.614h-1.421v3.106c0 .718-.381 1.162-1.09 1.162-.654 0-.99-.381-.99-1.123v-3.145h-1.421v3.511c0 1.25.722 1.992 1.884 1.992.816 0 1.319-.356 1.573-.981h.088V20h1.376v-5.386z"/>
    <path fill="#73CC33" d="M166.37 121.936c0 12.942-10.492 23.434-23.434 23.434s-23.434-10.492-23.434-23.434 10.492-23.434 23.434-23.434 23.434 10.492 23.434 23.434z"/>
    <path fill="#fff" fill-rule="evenodd" d="M155.441 113.172c.992.96 1.019 2.542.059 3.535l-14.697 15.2c-.471.488-1.12.763-1.798.763-.677 0-1.326-.275-1.797-.763l-6.836-7.07c-.96-.992-.933-2.575.059-3.535.993-.959 2.576-.933 3.535.06l5.039 5.211 12.901-13.342c.96-.992 2.542-1.019 3.535-.059z" clip-rule="evenodd"/>
    <path fill="#73CC33" d="M224.843 91.453c.553 0 1 .448 1 1v2.936c0 .682-.022 1.358-.065 2.029-.036.55-.511.969-1.062.933-.552-.035-.969-.511-.934-1.062.041-.628.061-1.261.061-1.9v-2.936c0-.552.448-1 1-1zM61.157 91.453c.552 0 1 .448 1 1v2.936c0 .639.02 1.272.061 1.9.036.55-.382 1.026-.934 1.062-.55.036-1.026-.382-1.062-.933-.043-.671-.065-1.347-.065-2.029v-2.936c0-.552.448-1 1-1zM224.466 100.263c.542.107.894.633.787 1.175-.265 1.339-.616 2.648-1.047 3.919-.178.523-.746.803-1.269.626-.523-.178-.803-.745-.625-1.268.403-1.189.732-2.413.979-3.665.107-.542.634-.894 1.175-.787zM61.534 100.263c.541-.107 1.068.245 1.175.787.248 1.252.576 2.476.98 3.665.177.523-.103 1.09-.626 1.268-.523.177-1.091-.103-1.269-.626-.431-1.271-.782-2.58-1.047-3.919-.107-.542.245-1.068.787-1.175zM222.198 107.764c.496.245.699.845.454 1.34-.602 1.217-1.281 2.389-2.031 3.51-.307.459-.928.582-1.387.275-.459-.308-.582-.929-.275-1.388.702-1.048 1.337-2.145 1.9-3.283.245-.495.844-.698 1.339-.454zM63.802 107.764c.495-.244 1.095-.041 1.34.454.562 1.138 1.197 2.235 1.899 3.283.307.459.184 1.08-.275 1.388-.459.307-1.08.184-1.387-.275-.75-1.121-1.43-2.293-2.031-3.51-.245-.495-.041-1.095.454-1.34zM218.059 114.418c.415.364.456.996.091 1.411-.892 1.017-1.85 1.975-2.867 2.867-.415.365-1.046.324-1.411-.092-.364-.415-.323-1.046.092-1.411.952-.835 1.848-1.731 2.683-2.683.365-.415.996-.456 1.412-.092zM67.942 114.418c.415-.364 1.047-.323 1.41.092.836.952 1.732 1.848 2.684 2.683.415.365.456.996.092 1.411-.365.416-.996.457-1.411.092-1.017-.892-1.975-1.85-2.867-2.867-.365-.415-.323-1.047.092-1.411zM212.343 119.78c.307.459.184 1.08-.275 1.387-1.12.75-2.293 1.429-3.51 2.031-.495.245-1.095.042-1.34-.454-.244-.495-.041-1.094.454-1.339 1.139-.563 2.235-1.198 3.283-1.9.459-.307 1.08-.184 1.388.275zM73.657 119.78c.308-.459.929-.582 1.388-.275 1.048.702 2.144 1.337 3.283 1.9.495.245.698.844.454 1.339-.245.496-.845.699-1.34.454-1.217-.602-2.39-1.281-3.51-2.031-.459-.307-.582-.928-.275-1.387zM205.437 123.483c.177.523-.103 1.091-.626 1.268-1.271.432-2.579.783-3.919 1.048-.542.107-1.068-.245-1.175-.787-.107-.542.245-1.068.787-1.175 1.253-.248 2.476-.576 3.665-.979.523-.178 1.09.102 1.268.625zM80.563 123.483c.178-.523.745-.803 1.269-.625 1.188.403 2.412.731 3.664.979.542.107.894.633.787 1.175-.107.542-.633.894-1.175.787-1.34-.265-2.648-.616-3.92-1.048-.522-.177-.802-.745-.625-1.268zM88.195 125.261c.036-.551.511-.969 1.062-.933.628.041 1.261.061 1.9.061h1.994c.552 0 1 .448 1 1s-.448 1-1 1h-1.994c-.682 0-1.358-.022-2.029-.065-.55-.036-.969-.511-.933-1.063zM197.805 125.261c.036.552-.382 1.027-.933 1.063-.671.043-1.347.065-2.029.065h-1.994c-.552 0-1-.448-1-1s.448-1 1-1h1.994c.639 0 1.272-.02 1.9-.061.551-.036 1.027.382 1.062.933zM96.139 125.389c0-.552.447-1 1-1h3.988c.552 0 1 .448 1 1s-.448 1-1 1h-3.988c-.553 0-1-.448-1-1zM104.115 125.389c0-.552.447-1 1-1h3.988c.552 0 1 .448 1 1s-.448 1-1 1h-3.988c-.553 0-1-.448-1-1zM112.09 125.389c0-.552.448-1 1-1h3.988c.553 0 1 .448 1 1s-.447 1-1 1h-3.988c-.552 0-1-.448-1-1zM120.066 125.389c0-.552.448-1 1-1H125v2h-3.934c-.552 0-1-.448-1-1zM159.946 125.389c0-.552.448-1 1-1h3.988c.552 0 1 .448 1 1s-.448 1-1 1h-3.988c-.552 0-1-.448-1-1zM167.922 125.389c0-.552.447-1 1-1h3.988c.552 0 1 .448 1 1s-.448 1-1 1h-3.988c-.553 0-1-.448-1-1zM175.898 125.389c0-.552.447-1 1-1h3.988c.552 0 1 .448 1 1s-.448 1-1 1h-3.988c-.553 0-1-.448-1-1zM183.873 125.389c0-.552.448-1 1-1h3.988c.553 0 1 .448 1 1s-.447 1-1 1h-3.988c-.552 0-1-.448-1-1z"/>
</svg>
