<svg xmlns="http://www.w3.org/2000/svg" width="288" height="186" fill="none" viewBox="0 0 288 186">
    <path fill="#ACF279" d="M0 5c0-2.761 2.239-5 5-5h121c2.761 0 5 2.239 5 5v70c0 2.761-2.239 5-5 5H5c-2.761 0-5-2.239-5-5V5z"/>
    <path fill="#DFF5D0" d="M5 10c0-2.761 2.239-5 5-5h121c2.761 0 5 2.239 5 5v70c0 2.761-2.239 5-5 5H10c-2.761 0-5-2.239-5-5V10z"/>
    <path fill="#000" fill-opacity=".07" d="M19 33c-2.21 0-4 1.79-4 4s1.79 4 4 4h77c2.21 0 4-1.79 4-4s-1.79-4-4-4H19zM19 47c-2.21 0-4 1.79-4 4s1.79 4 4 4h77c2.21 0 4-1.79 4-4s-1.79-4-4-4H19z"/>
    <path fill="#73CC33" d="M29 66c0-2.761 2.239-5 5-5h14c2.761 0 5 2.239 5 5s-2.239 5-5 5H34c-2.761 0-5-2.239-5-5z"/>
    <path fill="#73CC33" fill-rule="evenodd" d="M16.711 65.118v-1.765c0-1.3 1.234-2.353 2.756-2.353 1.521 0 2.755 1.053 2.755 2.353v1.765c.761 0 1.378.526 1.378 1.176v3.53c0 .65-.617 1.176-1.378 1.176h-5.51c-.762 0-1.379-.527-1.379-1.177v-3.529c0-.65.617-1.176 1.378-1.176zm4.134-1.765v1.765h-2.756v-1.765c0-.65.617-1.177 1.378-1.177.76 0 1.378.527 1.378 1.177z" clip-rule="evenodd"/>
    <path fill="#000" fill-rule="evenodd" d="M19.273 16.932c.197.486.39.976.579 1.469.19.493.382.983.578 1.468l.219.972h.164l.163-.983c.131-.493.266-.98.404-1.463.139-.482.273-.97.404-1.463h1.398l-1.954 5.852h-1.103c-.197-.508-.408-1.04-.633-1.595-.226-.556-.437-1.088-.634-1.596l-.152-.75h-.197c-.022.125-.047.252-.076.38-.03.13-.055.256-.077.381l-1.19 3.18H16.01L14 16.932h1.66l.917 2.86.152 1.071h.164l.218-1.082 1.038-2.849h1.124zm9.488 5.267c-.248.191-.584.355-1.01.491-.426.137-.883.205-1.37.205-.983 0-1.704-.273-2.162-.817-.459-.545-.688-1.292-.688-2.242 0-1.008.259-1.772.775-2.29.517-.52 1.245-.78 2.184-.78.306 0 .608.04.906.117.298.077.564.206.797.386.233.18.42.423.562.729.142.305.213.682.213 1.132 0 .154-.009.323-.027.508-.018.183-.05.375-.093.574h-3.821c.036.5.18.87.431 1.11.251.239.66.358 1.228.358.342 0 .65-.05.923-.149.273-.1.482-.2.628-.303l.524.971zm-2.293-4.218c-.451 0-.786.123-1.005.37-.218.247-.345.561-.382.944h2.468c.029-.405-.044-.725-.218-.96-.175-.236-.463-.354-.863-.354zM30.344 15h1.528v2.43h.131c.175-.2.399-.356.672-.47.273-.114.573-.171.9-.171.743 0 1.309.244 1.698.734.39.49.584 1.205.584 2.148 0 .508-.07.96-.213 1.358-.142.397-.344.732-.606 1.005-.262.272-.582.48-.96.623-.379.144-.805.216-1.278.216-.546 0-1.033-.039-1.463-.116-.43-.078-.76-.164-.993-.26V15zm1.528 6.415c.146.074.3.12.464.138.164.019.34.028.53.028.946 0 1.419-.626 1.419-1.877 0-.53-.098-.933-.295-1.21-.196-.275-.487-.413-.873-.413-.328 0-.592.077-.792.231-.2.155-.35.383-.453.685v2.418z" clip-rule="evenodd"/>
    <path fill="#08E" fill-rule="evenodd" d="M37.292 17.114c.319-.155.711-.283 1.176-.384.464-.1.945-.15 1.442-.15.39 0 .718.05.984.15.266.101.477.247.633.436.156.19.268.42.336.687.067.267.1.564.1.89 0 .395-.014.787-.042 1.174-.028.388-.042.799-.042 1.233 0 .295.017.582.053.86.035.28.092.548.17.803h-1.213l-.245-.907h-.128c-.184.272-.418.504-.702.698-.284.194-.65.29-1.096.29-.27 0-.516-.042-.74-.127-.223-.085-.415-.207-.575-.366-.16-.16-.283-.347-.372-.565-.089-.217-.133-.453-.133-.71 0-.69.211-1.21.633-1.564.422-.352 1.063-.529 1.921-.529.199 0 .397.018.596.053l.415.075c.021-.163.032-.302.032-.419 0-.294-.067-.511-.202-.65-.135-.14-.387-.21-.756-.21-.34 0-.672.044-.995.134-.323.089-.608.2-.857.331l-.393-1.233zm1.947 4.478c.334 0 .6-.085.798-.256.2-.17.345-.349.437-.535v-.698c-.036-.015-.09-.03-.165-.046-.075-.016-.156-.031-.245-.047-.089-.015-.177-.027-.266-.035-.089-.007-.169-.011-.24-.011-.383 0-.666.076-.85.227-.185.15-.278.339-.278.564 0 .279.073.488.219.628.145.14.342.21.59.21z" clip-rule="evenodd"/>
    <path fill="#2C2" fill-rule="evenodd" d="M43.542 21.177c.106.053.23.106.37.159.14.053.293.102.456.148.163.045.33.083.501.114.171.03.344.045.519.045.266 0 .473-.042.62-.125.149-.084.223-.239.223-.467 0-.182-.099-.316-.296-.404-.198-.087-.44-.172-.73-.256-.212-.06-.434-.132-.666-.216-.232-.083-.445-.195-.638-.336-.194-.14-.354-.324-.479-.551-.125-.228-.188-.516-.188-.865 0-.6.186-1.057.558-1.372.373-.314.908-.472 1.607-.472.456 0 .883.04 1.282.12.4.08.72.172.963.278l-.33 1.207c-.198-.076-.45-.154-.758-.234-.308-.08-.621-.12-.94-.12-.266 0-.464.04-.593.12-.129.08-.194.219-.194.416 0 .174.101.305.302.392.202.088.447.173.736.256.212.061.434.131.666.21.232.08.443.189.633.325.19.137.347.313.473.53.125.216.188.487.188.813 0 .637-.207 1.13-.621 1.48-.415.348-1.036.523-1.864.523-.448 0-.866-.04-1.253-.12-.388-.08-.703-.195-.946-.347l.399-1.252z" clip-rule="evenodd"/>
    <path fill="#E62" fill-rule="evenodd" d="M51.43 19.94l.246.97h.112l.212-.97.994-3.36h1.598l-1.944 5.486c-.164.454-.318.863-.464 1.225-.145.361-.303.67-.474.924-.172.254-.364.448-.576.583-.212.135-.463.202-.754.202-.194 0-.378-.017-.553-.052-.175-.035-.326-.087-.452-.156l.324-1.247c.111.038.227.057.346.057.104 0 .205-.011.302-.034.096-.023.186-.068.268-.133.082-.066.158-.158.229-.277.07-.12.132-.28.184-.48l-2.681-6.099h1.888l1.195 3.362z" clip-rule="evenodd"/>
    <path fill="#FC0" fill-rule="evenodd" d="M55.511 21.177c.106.053.23.106.37.159.141.053.293.102.456.148.164.045.33.083.502.114.17.03.343.045.518.045.266 0 .473-.042.621-.125.148-.084.222-.239.222-.467 0-.182-.098-.316-.296-.404-.197-.087-.44-.172-.73-.256-.212-.06-.434-.132-.666-.216-.232-.083-.444-.195-.638-.336-.194-.14-.353-.324-.479-.551-.125-.228-.188-.516-.188-.865 0-.6.186-1.057.559-1.372.372-.314.908-.472 1.607-.472.455 0 .883.04 1.282.12.398.08.72.172.963.278l-.33 1.207c-.198-.076-.451-.154-.759-.234-.307-.08-.62-.12-.94-.12-.266 0-.463.04-.592.12-.13.08-.194.219-.194.416 0 .174.1.305.302.392.201.088.446.173.735.256.213.061.435.131.666.21.232.08.443.189.633.325.19.137.348.313.473.53.125.216.188.487.188.813 0 .637-.207 1.13-.621 1.48-.414.348-1.035.523-1.863.523-.449 0-.866-.04-1.254-.12-.387-.08-.703-.195-.946-.347l.4-1.252z" clip-rule="evenodd"/>
    <path fill="#5DD" fill-rule="evenodd" d="M60.837 16.762h.867v-.816l1.518-.42v1.236h1.529v1.326h-1.53v2.063c0 .477.046.819.137 1.026.09.208.269.312.536.312.166 0 .307-.013.423-.04.116-.026.239-.07.369-.13L65 22.51c-.231.106-.497.197-.797.272-.3.076-.59.114-.873.114-.563 0-.975-.146-1.236-.437-.26-.29-.39-.757-.39-1.4v-2.97h-.867v-1.326z" clip-rule="evenodd"/>
    <path fill="#FFE2C7" d="M0 110c0-2.761 2.239-5 5-5h121c2.761 0 5 2.239 5 5v70c0 2.761-2.239 5-5 5H5c-2.761 0-5-2.239-5-5v-70z"/>
    <path fill="#FFEFE0" d="M5 105c0-2.761 2.239-5 5-5h121c2.761 0 5 2.239 5 5v70c0 2.761-2.239 5-5 5H10c-2.761 0-5-2.239-5-5v-70z"/>
    <path fill="#000" fill-opacity=".07" d="M15 132c0-2.209 1.79-4 4-4h77c2.21 0 4 1.791 4 4s-1.79 4-4 4H19c-2.21 0-4-1.791-4-4zM15 146c0-2.209 1.79-4 4-4h77c2.21 0 4 1.791 4 4s-1.79 4-4 4H19c-2.21 0-4-1.791-4-4z"/>
    <path fill="#000" fill-opacity=".4" d="M20.479 114.514c-.118-1.226-.972-2.017-2.398-2.017-1.684 0-2.632 1.011-2.632 2.798 0 1.807.952 2.822 2.632 2.822 1.401 0 2.28-.776 2.398-1.982H19.15c-.107.532-.488.815-1.069.815-.762 0-1.196-.581-1.196-1.655 0-1.06.43-1.631 1.196-1.631.605 0 .972.337 1.07.85h1.328zM21.64 118h1.421v-7.441h-1.42V118zM24.55 118h1.422v-5.386H24.55V118zm.714-6.138c.508 0 .84-.298.84-.717 0-.425-.332-.718-.84-.718-.513 0-.84.293-.84.718 0 .419.327.717.84.717zM29.741 113.586c.664 0 1.094.444 1.123 1.157H28.57c.05-.698.513-1.157 1.172-1.157zm1.153 2.881c-.152.356-.538.556-1.1.556-.741 0-1.21-.498-1.23-1.298v-.074h3.697v-.434c0-1.709-.938-2.72-2.525-2.72-1.601 0-2.588 1.084-2.588 2.837 0 1.748.967 2.783 2.608 2.783 1.318 0 2.246-.635 2.46-1.65h-1.322zM33.428 118h1.42v-3.105c0-.708.406-1.172 1.065-1.172.674 0 .991.39.991 1.132V118h1.421v-3.481c0-1.29-.644-2.022-1.84-2.022-.797 0-1.343.376-1.592.982h-.088v-.865h-1.377V118zM40.112 111.335v1.333h-.84v1.118h.84v2.759c0 1.05.518 1.475 1.826 1.475.274 0 .538-.03.713-.064v-1.084c-.136.015-.234.02-.42.02-.483 0-.698-.215-.698-.684v-2.422h1.118v-1.118h-1.118v-1.333h-1.42zM45.727 118.083c.748 0 1.358-.347 1.646-.928h.088V118h1.377v-7.441h-1.421v2.915h-.083c-.278-.596-.879-.948-1.607-.948-1.352 0-2.192 1.06-2.192 2.774 0 1.719.835 2.783 2.193 2.783zm.484-4.365c.757 0 1.22.61 1.22 1.592 0 .986-.458 1.586-1.22 1.586s-1.216-.595-1.216-1.591c0-.987.46-1.587 1.216-1.587zM52.7 118.117c1.655 0 2.652-1.05 2.652-2.812 0-1.748-1.011-2.808-2.652-2.808-1.64 0-2.651 1.065-2.651 2.808 0 1.762.996 2.812 2.651 2.812zm0-1.162c-.762 0-1.191-.601-1.191-1.65 0-1.035.434-1.646 1.191-1.646.752 0 1.192.611 1.192 1.646 0 1.045-.435 1.65-1.192 1.65zM56.514 118h1.42v-3.242c0-.601.396-1.035.953-1.035.556 0 .888.327.888.898V118h1.368v-3.296c0-.571.37-.981.947-.981.6 0 .898.317.898.957V118h1.421v-3.696c0-1.109-.669-1.807-1.743-1.807-.752 0-1.372.396-1.621.996h-.088c-.215-.625-.732-.996-1.49-.996-.707 0-1.269.381-1.489.996h-.087v-.879h-1.377V118zM67.734 117.014c-.493 0-.84-.244-.84-.645 0-.386.298-.605.909-.649l1.089-.069v.396c0 .547-.498.967-1.158.967zm-.468 1.069c.698 0 1.284-.293 1.562-.786h.088V118h1.377v-3.677c0-1.152-.806-1.826-2.232-1.826-1.352 0-2.265.625-2.358 1.621h1.309c.117-.322.459-.498.971-.498.586 0 .909.254.909.703v.44l-1.304.078c-1.338.078-2.085.644-2.085 1.621 0 .986.728 1.621 1.763 1.621zM71.7 118h1.42v-5.386H71.7V118zm.712-6.138c.508 0 .84-.298.84-.717 0-.425-.332-.718-.84-.718-.513 0-.84.293-.84.718 0 .419.327.717.84.717zM74.56 118h1.421v-3.105c0-.708.406-1.172 1.065-1.172.674 0 .991.39.991 1.132V118h1.421v-3.481c0-1.29-.644-2.022-1.84-2.022-.797 0-1.344.376-1.593.982h-.088v-.865h-1.376V118zM81.865 118.132c.528 0 .865-.357.865-.85s-.337-.844-.865-.844c-.522 0-.864.351-.864.844s.342.85.864.85zM84.326 118h1.421v-5.386h-1.42V118zm.713-6.138c.508 0 .84-.298.84-.717 0-.425-.332-.718-.84-.718-.513 0-.84.293-.84.718 0 .419.327.717.84.717zM89.575 118.117c1.656 0 2.652-1.05 2.652-2.812 0-1.748-1.011-2.808-2.652-2.808-1.64 0-2.651 1.065-2.651 2.808 0 1.762.996 2.812 2.651 2.812zm0-1.162c-.761 0-1.191-.601-1.191-1.65 0-1.035.434-1.646 1.191-1.646.752 0 1.192.611 1.192 1.646 0 1.045-.435 1.65-1.192 1.65z"/>
    <path fill="#73CC33" d="M29 161c0-2.761 2.239-5 5-5h13c2.761 0 5 2.239 5 5s-2.239 5-5 5H34c-2.761 0-5-2.239-5-5z"/>
    <path fill="#73CC33" fill-rule="evenodd" d="M16.333 160.118v-1.765c0-1.3 1.194-2.353 2.667-2.353 1.473 0 2.667 1.053 2.667 2.353v1.765c.736 0 1.333.526 1.333 1.176v3.53c0 .649-.597 1.176-1.333 1.176h-5.334c-.736 0-1.333-.527-1.333-1.176v-3.53c0-.65.597-1.176 1.333-1.176zm4-1.765v1.765h-2.666v-1.765c0-.65.597-1.177 1.333-1.177s1.333.527 1.333 1.177z" clip-rule="evenodd"/>
    <path fill="#DDD" d="M157 111c0-2.761 2.239-5 5-5h50c2.761 0 5 2.239 5 5v70c0 2.761-2.239 5-5 5h-50c-2.761 0-5-2.239-5-5v-70z"/>
    <path fill="#EEE" d="M152 105c0-2.761 2.239-5 5-5h50c2.761 0 5 2.239 5 5v70c0 2.761-2.239 5-5 5h-50c-2.761 0-5-2.239-5-5v-70z"/>
    <path fill="#000" fill-opacity=".07" d="M162 132c0-2.209 1.791-4 4-4h30c2.209 0 4 1.791 4 4s-1.791 4-4 4h-30c-2.209 0-4-1.791-4-4zM162 146c0-2.209 1.791-4 4-4h30c2.209 0 4 1.791 4 4s-1.791 4-4 4h-30c-2.209 0-4-1.791-4-4z"/>
    <path fill="#000" fill-opacity=".4" d="M167.381 118h1.597l-2.447-7.046h-1.733L162.352 118h1.479l.542-1.68h2.476l.532 1.68zm-1.807-5.581h.088l.874 2.764h-1.846l.884-2.764zM170.037 118h1.421v-3.105c0-.708.405-1.172 1.064-1.172.674 0 .992.39.992 1.132V118h1.421v-3.481c0-1.29-.645-2.022-1.841-2.022-.796 0-1.343.376-1.592.982h-.088v-.865h-1.377V118zM178.245 118.083c.747 0 1.358-.347 1.646-.928h.088V118h1.376v-7.441h-1.42v2.915h-.083c-.279-.596-.879-.948-1.607-.948-1.352 0-2.192 1.06-2.192 2.774 0 1.719.835 2.783 2.192 2.783zm.484-4.365c.756 0 1.22.61 1.22 1.592 0 .986-.459 1.586-1.22 1.586-.762 0-1.216-.595-1.216-1.591 0-.987.459-1.587 1.216-1.587zM182.83 118h1.421v-2.983c0-.757.532-1.216 1.309-1.216.229 0 .561.044.673.088v-1.294c-.122-.044-.361-.069-.556-.069-.684 0-1.24.411-1.382.948h-.088v-.86h-1.377V118zM189.446 118.117c1.656 0 2.652-1.05 2.652-2.812 0-1.748-1.011-2.808-2.652-2.808-1.64 0-2.651 1.065-2.651 2.808 0 1.762.996 2.812 2.651 2.812zm0-1.162c-.761 0-1.191-.601-1.191-1.65 0-1.035.434-1.646 1.191-1.646.752 0 1.192.611 1.192 1.646 0 1.045-.435 1.65-1.192 1.65zM193.27 118h1.42v-5.386h-1.42V118zm.712-6.138c.508 0 .84-.298.84-.717 0-.425-.332-.718-.84-.718-.512 0-.839.293-.839.718 0 .419.327.717.839.717zM198.06 118.083c.747 0 1.357-.347 1.645-.928h.088V118h1.377v-7.441h-1.421v2.915h-.083c-.278-.596-.879-.948-1.606-.948-1.353 0-2.193 1.06-2.193 2.774 0 1.719.835 2.783 2.193 2.783zm.483-4.365c.757 0 1.221.61 1.221 1.592 0 .986-.459 1.586-1.221 1.586s-1.216-.595-1.216-1.591c0-.987.459-1.587 1.216-1.587z"/>
    <path fill="#73CC33" d="M176 161c0-2.761 2.239-5 5-5h13c2.761 0 5 2.239 5 5s-2.239 5-5 5h-13c-2.761 0-5-2.239-5-5z"/>
    <path fill="#73CC33" fill-rule="evenodd" d="M163.333 160.118v-1.765c0-1.3 1.194-2.353 2.667-2.353 1.473 0 2.667 1.053 2.667 2.353v1.765c.736 0 1.333.526 1.333 1.176v3.53c0 .649-.597 1.176-1.333 1.176h-5.334c-.736 0-1.333-.527-1.333-1.176v-3.53c0-.65.597-1.176 1.333-1.176zm4-1.765v1.765h-2.666v-1.765c0-.65.597-1.177 1.333-1.177s1.333.527 1.333 1.177z" clip-rule="evenodd"/>
    <path fill="#DDD" d="M228 111c0-2.761 2.239-5 5-5h50c2.761 0 5 2.239 5 5v70c0 2.761-2.239 5-5 5h-50c-2.761 0-5-2.239-5-5v-70z"/>
    <path fill="#EEE" d="M223 105c0-2.761 2.239-5 5-5h50c2.761 0 5 2.239 5 5v70c0 2.761-2.239 5-5 5h-50c-2.761 0-5-2.239-5-5v-70z"/>
    <path fill="#000" fill-opacity=".07" d="M233 132c0-2.209 1.791-4 4-4h30c2.209 0 4 1.791 4 4s-1.791 4-4 4h-30c-2.209 0-4-1.791-4-4zM233 146c0-2.209 1.791-4 4-4h30c2.209 0 4 1.791 4 4s-1.791 4-4 4h-30c-2.209 0-4-1.791-4-4z"/>
    <path fill="#000" fill-opacity=".4" d="M233.723 118h1.421v-5.386h-1.421V118zm.713-6.138c.507 0 .839-.298.839-.717 0-.425-.332-.718-.839-.718-.513 0-.84.293-.84.718 0 .419.327.717.84.717zM239.807 110.773c-2.071 0-3.394 1.416-3.394 3.702 0 2.285 1.304 3.706 3.394 3.706 2.085 0 3.383-1.421 3.383-3.706 0-2.281-1.303-3.702-3.383-3.702zm0 1.294c1.147 0 1.88.933 1.88 2.408 0 1.469-.733 2.412-1.88 2.412-1.158 0-1.885-.943-1.885-2.412 0-1.475.742-2.408 1.885-2.408zM244.27 116.042c.053 1.313 1.142 2.139 2.822 2.139 1.767 0 2.856-.869 2.856-2.29 0-1.094-.61-1.704-2.026-2.002l-.85-.181c-.825-.176-1.162-.425-1.162-.859 0-.537.488-.879 1.226-.879.713 0 1.23.371 1.299.927h1.386c-.044-1.254-1.142-2.124-2.695-2.124-1.626 0-2.695.874-2.695 2.203 0 1.074.63 1.743 1.914 2.011l.918.196c.864.185 1.216.444 1.216.893 0 .532-.542.903-1.309.903-.83 0-1.406-.366-1.475-.937h-1.425z"/>
    <path fill="#73CC33" d="M247 161c0-2.761 2.239-5 5-5h13c2.761 0 5 2.239 5 5s-2.239 5-5 5h-13c-2.761 0-5-2.239-5-5z"/>
    <path fill="#73CC33" fill-rule="evenodd" d="M234.333 160.118v-1.765c0-1.3 1.194-2.353 2.667-2.353 1.473 0 2.667 1.053 2.667 2.353v1.765c.736 0 1.333.526 1.333 1.176v3.53c0 .649-.597 1.176-1.333 1.176h-5.334c-.736 0-1.333-.527-1.333-1.176v-3.53c0-.65.597-1.176 1.333-1.176zm4-1.765v1.765h-2.666v-1.765c0-.65.597-1.177 1.333-1.177s1.333.527 1.333 1.177z" clip-rule="evenodd"/>
    <path fill="#CCDAFF" d="M157 5c0-2.761 2.239-5 5-5h121c2.761 0 5 2.239 5 5v70c0 2.761-2.239 5-5 5H162c-2.761 0-5-2.239-5-5V5z"/>
    <path fill="#E6ECFF" d="M152 10c0-2.761 2.239-5 5-5h121c2.761 0 5 2.239 5 5v70c0 2.761-2.239 5-5 5H157c-2.761 0-5-2.239-5-5V10z"/>
    <path fill="#000" fill-opacity=".07" d="M162 37c0-2.21 1.791-4 4-4h77c2.209 0 4 1.79 4 4s-1.791 4-4 4h-77c-2.209 0-4-1.79-4-4zM162 51c0-2.21 1.791-4 4-4h77c2.209 0 4 1.79 4 4s-1.791 4-4 4h-77c-2.209 0-4-1.79-4-4z"/>
    <path fill="#80A2FF" d="M162 66c0-2.761 2.239-5 5-5h14c2.761 0 5 2.239 5 5s-2.239 5-5 5h-14c-2.761 0-5-2.239-5-5z"/>
    <path fill="#000" fill-opacity=".4" d="M163.382 24.958c1.343 0 2.002-.488 2.461-1.875l1.855-5.469h-1.504l-1.132 4.082h-.088l-1.133-4.082h-1.568l1.89 5.42-.049.196c-.117.41-.42.58-.952.58-.058 0-.273 0-.322-.01v1.143c.058.01.488.015.542.015zM170.853 23.117c1.655 0 2.651-1.05 2.651-2.812 0-1.748-1.011-2.808-2.651-2.808-1.641 0-2.652 1.064-2.652 2.808 0 1.762.996 2.812 2.652 2.812zm0-1.162c-.762 0-1.192-.6-1.192-1.65 0-1.035.435-1.646 1.192-1.646.751 0 1.191.61 1.191 1.646 0 1.045-.435 1.65-1.191 1.65zM179.539 17.614h-1.421v3.106c0 .718-.381 1.162-1.089 1.162-.654 0-.991-.381-.991-1.123v-3.145h-1.421v3.511c0 1.25.723 1.992 1.885 1.992.815 0 1.318-.356 1.572-.981h.088V23h1.377v-5.386zM180.965 23h1.421v-2.983c0-.757.532-1.216 1.308-1.216.23 0 .562.044.674.088v-1.294c-.122-.044-.361-.069-.556-.069-.684 0-1.241.41-1.382.948h-.088v-.86h-1.377V23zM187.122 23.083c.747 0 1.357-.347 1.646-.928h.087V23h1.377v-7.441h-1.42v2.915h-.083c-.279-.596-.879-.948-1.607-.948-1.352 0-2.192 1.06-2.192 2.774 0 1.719.835 2.783 2.192 2.783zm.483-4.365c.757 0 1.221.61 1.221 1.592 0 .986-.459 1.587-1.221 1.587-.761 0-1.215-.596-1.215-1.592 0-.987.459-1.587 1.215-1.587zM194.095 23.117c1.655 0 2.651-1.05 2.651-2.812 0-1.748-1.011-2.808-2.651-2.808-1.641 0-2.652 1.064-2.652 2.808 0 1.762.996 2.812 2.652 2.812zm0-1.162c-.762 0-1.192-.6-1.192-1.65 0-1.035.435-1.646 1.192-1.646.752 0 1.191.61 1.191 1.646 0 1.045-.434 1.65-1.191 1.65zM197.908 23h1.421v-3.242c0-.6.396-1.035.952-1.035.557 0 .889.327.889.898V23h1.367v-3.296c0-.571.371-.981.947-.981.601 0 .899.317.899.957V23h1.421v-3.696c0-1.109-.669-1.807-1.743-1.807-.752 0-1.373.396-1.622.996h-.087c-.215-.625-.733-.996-1.49-.996-.708 0-1.269.38-1.489.996h-.088v-.879h-1.377V23zM209.129 22.014c-.493 0-.84-.244-.84-.645 0-.386.298-.605.908-.65l1.089-.068v.396c0 .547-.498.967-1.157.967zm-.469 1.069c.698 0 1.284-.293 1.563-.786h.088V23h1.377v-3.677c0-1.152-.806-1.826-2.232-1.826-1.352 0-2.266.625-2.358 1.621h1.308c.117-.322.459-.498.972-.498.586 0 .908.254.908.703v.44l-1.304.078c-1.337.078-2.085.644-2.085 1.62 0 .987.728 1.622 1.763 1.622zM213.094 23h1.421v-5.386h-1.421V23zm.713-6.138c.507 0 .839-.297.839-.717 0-.425-.332-.718-.839-.718-.513 0-.84.293-.84.718 0 .42.327.717.84.717zM215.955 23h1.421v-3.105c0-.709.405-1.172 1.064-1.172.674 0 .992.39.992 1.133V23h1.421v-3.481c0-1.29-.645-2.022-1.841-2.022-.796 0-1.343.376-1.592.982h-.088v-.865h-1.377V23zM223.26 23.132c.527 0 .864-.357.864-.85s-.337-.845-.864-.845c-.523 0-.864.352-.864.845s.341.85.864.85zM225.711 23h1.421v-2.983c0-.757.532-1.216 1.308-1.216.23 0 .562.044.674.088v-1.294c-.122-.044-.361-.069-.556-.069-.684 0-1.241.41-1.382.948h-.088v-.86h-1.377V23zM234.939 17.614h-1.42v3.106c0 .718-.381 1.162-1.089 1.162-.655 0-.992-.381-.992-1.123v-3.145h-1.42v3.511c0 1.25.722 1.992 1.884 1.992.816 0 1.319-.356 1.573-.981h.087V23h1.377v-5.386z"/>
    <path fill="#73CC33" d="M223 66c0-2.761 2.239-5 5-5h14c2.761 0 5 2.239 5 5s-2.239 5-5 5h-14c-2.761 0-5-2.239-5-5z"/>
    <path fill="#73CC33" fill-rule="evenodd" d="M210.333 65.118v-1.765c0-1.3 1.194-2.353 2.667-2.353 1.473 0 2.667 1.053 2.667 2.353v1.765c.736 0 1.333.526 1.333 1.176v3.53c0 .65-.597 1.176-1.333 1.176h-5.334c-.736 0-1.333-.527-1.333-1.177v-3.529c0-.65.597-1.176 1.333-1.176zm4-1.765v1.765h-2.666v-1.765c0-.65.597-1.177 1.333-1.177s1.333.527 1.333 1.177z" clip-rule="evenodd"/>
    <path fill="#fff" fill-rule="evenodd" d="M146.333 59.824V53.47c0-1.168-.977-2.236-2.333-2.236-1.356 0-2.333 1.068-2.333 2.236v6.353h4.666zm-25 1.306v-7.66C121.333 40.995 131.549 31 144 31c12.451 0 22.667 9.994 22.667 22.47v7.66c4.897 2.245 8.333 7.157 8.333 12.929v24.706c0 7.928-6.484 14.235-14.333 14.235h-33.334C119.484 113 113 106.693 113 98.765V74.059c0-5.772 3.436-10.684 8.333-12.93z" clip-rule="evenodd"/>
    <path fill="#73CC33" fill-rule="evenodd" d="M127.333 65.823V53.471C127.333 44.374 134.795 37 144 37c9.205 0 16.667 7.374 16.667 16.47v12.353c4.602 0 8.333 3.688 8.333 8.236v24.706c0 4.548-3.731 8.235-8.333 8.235h-33.334c-4.602 0-8.333-3.687-8.333-8.235V74.059c0-4.548 3.731-8.236 8.333-8.236zm25-12.352v12.352h-16.666V53.471c0-4.549 3.731-8.236 8.333-8.236s8.333 3.687 8.333 8.236z" clip-rule="evenodd"/>
    <path fill="#DFF5D0" d="M125 86c0-3.314 2.686-6 6-6h26c3.314 0 6 2.686 6 6s-2.686 6-6 6h-26c-3.314 0-6-2.686-6-6z"/>
    <path fill="#260" d="M134.289 88.174l.773-1.348-2.096-.826 2.096-.818-.773-1.364-1.794 1.402.317-2.22h-1.554l.309 2.22-1.794-1.402-.773 1.364 2.103.818-2.103.826.773 1.348 1.786-1.356-.301 2.182h1.554l-.302-2.182 1.779 1.356zM142.268 88.174l.773-1.348-2.095-.826 2.095-.818-.773-1.364-1.794 1.402.317-2.22h-1.554l.309 2.22-1.793-1.402-.774 1.364 2.103.818-2.103.826.774 1.348 1.786-1.356-.302 2.182h1.554l-.301-2.182 1.778 1.356zM150.247 88.174l.774-1.348-2.096-.826 2.096-.818-.774-1.364-1.793 1.402.317-2.22h-1.555l.31 2.22-1.794-1.402-.773 1.364 2.103.818-2.103.826.773 1.348 1.786-1.356-.302 2.182h1.555l-.302-2.182 1.778 1.356zM158.227 88.174l.773-1.348-2.095-.826 2.095-.818-.773-1.364-1.794 1.402.317-2.22h-1.554l.309 2.22-1.794-1.402-.773 1.364 2.103.818-2.103.826.773 1.348 1.786-1.356-.301 2.182h1.554l-.302-2.182 1.779 1.356z"/>
</svg>
