<svg width="326" height="129" viewBox="0 0 326 129" fill="none" xmlns="http://www.w3.org/2000/svg">
<path fill-rule="evenodd" clip-rule="evenodd" d="M66.837 52.622H66.844C68.415 52.622 69.689 53.896 69.689 55.467V64C69.689 65.57 68.415 66.844 66.844 66.844H64C62.58 66.844 61.403 65.804 61.19 64.444C58.846 75.694 49.214 84.123 37.689 84.123C26.163 84.123 16.532 75.695 14.188 64.443C13.975 65.803 12.798 66.844 11.378 66.844H8.53296C6.96296 66.844 5.68896 65.571 5.68896 64V55.467C5.68896 53.896 6.96196 52.622 8.53296 52.622H8.54097C8.70697 44.392 11.758 36.539 17.073 30.706C22.541 24.705 29.956 21.333 37.689 21.333C45.421 21.333 52.837 24.705 58.305 30.706C63.62 36.539 66.671 44.393 66.837 52.622V52.622ZM64.275 52.622H64C62.915 52.622 61.972 53.23 61.492 54.122C60.847 47.281 58.848 39.527 54.756 35.879C50.55 32.131 43.663 31.289 37.689 31.289C31.152 31.289 23.802 32.578 19.468 36.978C15.982 40.516 14.391 47.741 13.858 54.075C13.371 53.208 12.443 52.622 11.378 52.622H11.103C11.27 45.14 14.05 38 18.884 32.694C23.872 27.22 30.636 24.145 37.689 24.145C44.742 24.145 51.506 27.22 56.493 32.695C61.328 38 64.11 45.138 64.275 52.621V52.622Z" fill="#FFD7B1"/>
<path d="M37.689 118.044C22.16 118.044 8.417 110.11 0 97.93C0.674 91.907 4.867 86.85 10.635 85.35L17.586 83.545C23.183 88.539 30.234 91.265 37.689 91.265C45.144 91.265 52.195 88.539 57.792 83.545L64.742 85.351C70.512 86.85 74.703 91.907 75.378 97.93C66.961 110.11 53.218 118.044 37.688 118.044H37.689Z" fill="#FFD7B1"/>
<path d="M300.534 33.986C299.966 36.03 299.444 37.911 299.378 39.822C298.167 37.966 297.451 35.313 296.725 32.622C295.317 27.406 293.87 22.044 288.711 22.044C287.003 22.044 285.01 24.199 283.244 26.109C282.386 27.037 281.582 27.907 280.889 28.444H281.6C283.171 28.444 284.444 29.718 284.444 31.289C284.444 32.859 283.171 34.133 281.6 34.133H275.911C274.34 34.133 273.067 32.86 273.067 31.289C273.067 29.718 274.34 28.444 275.911 28.444H276.622C260.978 5.69 292.978 -0.710002 298.667 11.379C303.789 22.264 302.009 28.676 300.534 33.987V33.986Z" fill="#FFD7B1"/>
<path d="M255.421 56.284C255.421 42.479 266.186 34.134 279.467 34.134C292.747 34.134 303.513 42.479 303.513 56.284C303.513 70.088 292.747 84.123 279.467 84.123C266.186 84.123 255.421 70.088 255.421 56.283V56.284Z" fill="#FFD7B1"/>
<path d="M241.778 97.93C250.194 110.11 263.938 118.044 279.467 118.044C294.995 118.044 308.739 110.11 317.156 97.93C316.481 91.907 312.289 86.85 306.52 85.35L299.569 83.545C293.973 88.539 286.921 91.265 279.467 91.265C272.012 91.265 264.961 88.539 259.364 83.545L252.413 85.351C246.644 86.851 242.452 91.907 241.778 97.93Z" fill="#FFD7B1"/>
<path d="M108.089 90.667C119.364 107.245 137.776 118.044 158.578 118.044C179.38 118.044 197.792 107.245 209.067 90.667C208.163 82.469 202.547 75.587 194.819 73.546L185.508 71.088C178.01 77.886 168.564 81.595 158.578 81.595C148.591 81.595 139.145 77.885 131.647 71.088L122.336 73.546C114.608 75.586 108.992 82.469 108.089 90.667V90.667ZM126.365 37.855C126.365 56.644 140.787 71.875 158.578 71.875C176.368 71.875 190.79 56.644 190.79 37.855C190.79 28.708 192.695 20.725 185.826 11.074C181.819 5.444 174.606 7.857 174.606 7.857C174.606 7.857 159.009 0 149.141 0C139.274 0 135.517 6.866 130.225 14.909C125.48 20.834 126.365 29.487 126.365 37.855Z" fill="#FFD7B1"/>
<path fill-rule="evenodd" clip-rule="evenodd" d="M66.2464 100.999L61.8683 96.2055C60.2681 94.4536 57.5306 94.3934 55.851 96.0722C54.1672 97.7553 54.2283 100.504 55.9843 102.106L60.78 106.482C62.3063 107.875 64.658 107.82 66.1217 106.357C67.5887 104.891 67.644 102.529 66.2464 100.999Z" fill="white"/>
<path fill-rule="evenodd" clip-rule="evenodd" d="M71.7836 101.913L72.0819 95.4247C72.1915 93.0424 70.2909 91.0655 67.9226 91.0671C65.5544 91.0687 63.6518 93.0482 63.759 95.4303L64.0507 101.918C64.1441 103.993 65.8521 105.616 67.9153 105.614C69.9785 105.613 71.6882 103.988 71.7836 101.913Z" fill="white"/>
<path fill-rule="evenodd" clip-rule="evenodd" d="M75.0473 106.474L79.8481 102.092C81.606 100.487 81.6705 97.7388 79.9886 96.0578C78.311 94.381 75.5734 94.4444 73.9712 96.1982L69.5873 100.997C68.1879 102.529 68.2404 104.891 69.7057 106.355C71.1676 107.817 73.5193 107.868 75.0473 106.474Z" fill="white"/>
<path fill-rule="evenodd" clip-rule="evenodd" d="M74.1363 112.006L80.6268 112.297C82.9923 112.403 84.9826 110.512 84.9839 108.128C84.9853 105.743 82.9974 103.855 80.6318 103.964L74.1409 104.262C72.0796 104.357 70.4448 106.058 70.4436 108.136C70.4424 110.214 72.0751 111.913 74.1363 112.006Z" fill="white"/>
<path fill-rule="evenodd" clip-rule="evenodd" d="M79.8412 114.17L75.0456 109.794C73.5192 108.401 71.1675 108.455 69.7038 109.918C68.2368 111.385 68.1815 113.747 69.5791 115.277L73.9572 120.07C75.5574 121.822 78.2949 121.882 79.9745 120.203C81.6583 118.52 81.5972 115.772 79.8412 114.17Z" fill="white"/>
<path fill-rule="evenodd" clip-rule="evenodd" d="M58.8083 123.352L70.9742 110.52C72.4127 109.002 72.3819 106.615 70.9052 105.138C69.432 103.666 67.055 103.635 65.5408 105.069L52.7 117.227C50.9276 118.905 50.8875 121.715 52.612 123.439C54.3324 125.159 57.1324 125.12 58.8083 123.352Z" fill="white"/>
<path d="M57.7672 97.9972C58.3525 97.4122 59.3073 97.4333 59.8647 98.0436L64.2429 102.837C64.6592 103.293 64.6428 103.996 64.2057 104.433C63.7685 104.87 63.0652 104.886 62.6092 104.47L57.8136 100.094C57.203 99.5366 57.1819 98.5822 57.7672 97.9972Z" fill="#0088EE"/>
<path d="M67.9212 93.788C68.7484 93.7875 69.4078 94.4773 69.3698 95.3033L69.0709 101.791C69.0425 102.408 68.5336 102.894 67.9157 102.895C67.2979 102.895 66.7896 102.409 66.7619 101.793L66.4707 95.305C66.4337 94.479 67.0939 93.7884 67.9212 93.788Z" fill="#22CC22"/>
<path d="M78.0703 97.985C78.6549 98.5693 78.6326 99.5238 78.0214 100.082L73.2206 104.464C72.764 104.88 72.0608 104.865 71.6241 104.428C71.1875 103.992 71.1719 103.289 71.5888 102.833L75.9727 98.0339C76.5308 97.4229 77.4857 97.4007 78.0703 97.985Z" fill="#EE6622"/>
<path d="M82.2691 108.129C82.2686 108.956 81.5776 109.616 80.7513 109.579L74.2607 109.288C73.6435 109.26 73.1578 108.752 73.1582 108.135C73.1586 107.517 73.6449 107.009 74.2621 106.98L80.753 106.681C81.5794 106.643 82.2695 107.302 82.2691 108.129Z" fill="#FFCC00"/>
<path d="M71.6197 111.843C72.0569 111.406 72.7602 111.39 73.2162 111.806L78.0118 116.182C78.6224 116.739 78.6435 117.694 78.0583 118.279C77.473 118.864 76.5181 118.843 75.9607 118.232L71.5825 113.439C71.1662 112.983 71.1826 112.28 71.6197 111.843Z" fill="#55DDDD"/>
<path d="M68.9869 107.064C69.4213 107.498 69.4304 108.2 69.0074 108.646L56.8425 121.48C56.2179 122.139 55.1732 122.153 54.5319 121.512C53.8905 120.871 53.9053 119.827 54.5645 119.203L67.4043 107.044C67.8508 106.621 68.5525 106.63 68.9869 107.064Z" fill="black"/>
<path fill-rule="evenodd" clip-rule="evenodd" d="M307.246 104.999L302.868 100.206C301.268 98.4536 298.531 98.3934 296.851 100.072C295.167 101.755 295.228 104.504 296.984 106.106L301.78 110.482C303.306 111.875 305.658 111.82 307.122 110.357C308.589 108.891 308.644 106.529 307.246 104.999Z" fill="white"/>
<path fill-rule="evenodd" clip-rule="evenodd" d="M312.784 105.913L313.082 99.4247C313.191 97.0424 311.291 95.0655 308.923 95.0671C306.554 95.0687 304.652 97.0482 304.759 99.4303L305.051 105.918C305.144 107.993 306.852 109.616 308.915 109.614C310.978 109.613 312.688 107.988 312.784 105.913Z" fill="white"/>
<path fill-rule="evenodd" clip-rule="evenodd" d="M316.047 110.474L320.848 106.092C322.606 104.487 322.67 101.739 320.989 100.058C319.311 98.381 316.573 98.4444 314.971 100.198L310.587 104.997C309.188 106.529 309.24 108.891 310.706 110.355C312.168 111.817 314.519 111.868 316.047 110.474Z" fill="white"/>
<path fill-rule="evenodd" clip-rule="evenodd" d="M315.136 116.006L321.627 116.297C323.992 116.403 325.983 114.512 325.984 112.128C325.985 109.743 323.997 107.855 321.632 107.964L315.141 108.262C313.08 108.357 311.445 110.058 311.444 112.136C311.442 114.214 313.075 115.913 315.136 116.006Z" fill="white"/>
<path fill-rule="evenodd" clip-rule="evenodd" d="M320.841 118.17L316.046 113.794C314.519 112.401 312.167 112.455 310.704 113.918C309.237 115.385 309.181 117.747 310.579 119.277L314.957 124.07C316.557 125.822 319.295 125.882 320.975 124.203C322.658 122.52 322.597 119.772 320.841 118.17Z" fill="white"/>
<path fill-rule="evenodd" clip-rule="evenodd" d="M299.808 127.352L311.974 114.52C313.413 113.002 313.382 110.615 311.905 109.138C310.432 107.666 308.055 107.635 306.541 109.069L293.7 121.227C291.928 122.905 291.888 125.715 293.612 127.439C295.332 129.159 298.132 129.12 299.808 127.352Z" fill="white"/>
<path d="M298.767 101.997C299.352 101.412 300.307 101.433 300.865 102.044L305.243 106.837C305.659 107.293 305.643 107.996 305.206 108.433C304.768 108.87 304.065 108.886 303.609 108.47L298.814 104.094C298.203 103.537 298.182 102.582 298.767 101.997Z" fill="#0088EE"/>
<path d="M308.921 97.788C309.748 97.7875 310.408 98.4773 310.37 99.3033L310.071 105.791C310.042 106.408 309.534 106.894 308.916 106.895C308.298 106.895 307.79 106.409 307.762 105.793L307.471 99.305C307.434 98.479 308.094 97.7884 308.921 97.788Z" fill="#22CC22"/>
<path d="M319.07 101.985C319.655 102.569 319.633 103.524 319.021 104.082L314.221 108.464C313.764 108.88 313.061 108.865 312.624 108.428C312.188 107.992 312.172 107.289 312.589 106.833L316.973 102.034C317.531 101.423 318.486 101.401 319.07 101.985Z" fill="#EE6622"/>
<path d="M323.269 112.129C323.269 112.956 322.578 113.616 321.751 113.579L315.261 113.288C314.644 113.26 314.158 112.752 314.158 112.135C314.159 111.517 314.645 111.009 315.262 110.98L321.753 110.681C322.579 110.643 323.27 111.302 323.269 112.129Z" fill="#FFCC00"/>
<path d="M312.62 115.843C313.057 115.406 313.76 115.39 314.216 115.806L319.012 120.182C319.622 120.739 319.644 121.694 319.058 122.279C318.473 122.864 317.518 122.843 316.961 122.232L312.583 117.439C312.166 116.983 312.183 116.28 312.62 115.843Z" fill="#55DDDD"/>
<path d="M309.987 111.064C310.421 111.498 310.43 112.2 310.007 112.646L297.842 125.48C297.218 126.139 296.173 126.153 295.532 125.512C294.891 124.871 294.905 123.827 295.564 123.203L308.404 111.044C308.851 110.621 309.553 110.63 309.987 111.064Z" fill="black"/>
<path fill-rule="evenodd" clip-rule="evenodd" d="M197.731 97.9398L192.065 91.7365C189.994 89.4694 186.451 89.3915 184.278 91.5641C182.099 93.7421 182.178 97.2988 184.45 99.3724L190.656 105.036C192.632 106.838 195.675 106.768 197.569 104.874C199.468 102.977 199.539 99.92 197.731 97.9398Z" fill="white"/>
<path fill-rule="evenodd" clip-rule="evenodd" d="M204.897 99.1223L205.283 90.7261C205.424 87.6431 202.965 85.0848 199.9 85.0869C196.835 85.089 194.373 87.6505 194.512 90.7334L194.889 99.129C195.01 101.815 197.221 103.915 199.89 103.913C202.56 103.911 204.773 101.808 204.897 99.1223Z" fill="white"/>
<path fill-rule="evenodd" clip-rule="evenodd" d="M209.12 105.025L215.333 99.354C217.608 97.2776 217.691 93.7209 215.515 91.5454C213.344 89.3754 209.801 89.4575 207.727 91.7271L202.054 97.9372C200.243 99.9196 200.311 102.976 202.207 104.871C204.099 106.763 207.143 106.829 209.12 105.025Z" fill="white"/>
<path fill-rule="evenodd" clip-rule="evenodd" d="M207.941 112.184L216.34 112.56C219.402 112.697 221.977 110.251 221.979 107.165C221.981 104.079 219.408 101.636 216.347 101.777L207.947 102.163C205.279 102.286 203.164 104.487 203.162 107.176C203.16 109.866 205.273 112.064 207.941 112.184Z" fill="white"/>
<path fill-rule="evenodd" clip-rule="evenodd" d="M215.324 114.984L209.118 109.321C207.142 107.519 204.099 107.589 202.205 109.482C200.306 111.38 200.235 114.437 202.043 116.417L207.709 122.62C209.78 124.887 213.323 124.965 215.496 122.793C217.675 120.615 217.596 117.058 215.324 114.984Z" fill="white"/>
<path fill-rule="evenodd" clip-rule="evenodd" d="M188.105 126.868L203.849 110.261C205.711 108.297 205.671 105.207 203.76 103.297C201.853 101.391 198.777 101.351 196.818 103.206L180.2 118.94C177.906 121.112 177.855 124.749 180.086 126.98C182.313 129.206 185.936 129.156 188.105 126.868Z" fill="white"/>
<path d="M186.757 94.0552C187.515 93.2981 188.75 93.3254 189.472 94.1152L195.138 100.318C195.676 100.908 195.655 101.818 195.089 102.384C194.524 102.949 193.614 102.97 193.024 102.432L186.817 96.7684C186.027 96.0474 186 94.8123 186.757 94.0552Z" fill="#0088EE"/>
<path d="M199.898 88.6079C200.969 88.6073 201.822 89.5 201.773 90.569L201.386 98.9651C201.349 99.7635 200.691 100.393 199.891 100.393C199.091 100.393 198.434 99.7652 198.398 98.9669L198.021 90.5712C197.973 89.5023 198.827 88.6086 199.898 88.6079Z" fill="#22CC22"/>
<path d="M213.032 94.0394C213.789 94.7956 213.76 96.0308 212.969 96.7528L206.756 102.423C206.165 102.963 205.255 102.943 204.69 102.378C204.125 101.813 204.105 100.903 204.644 100.313L210.318 94.1027C211.04 93.312 212.276 93.2832 213.032 94.0394Z" fill="#EE6622"/>
<path d="M218.466 107.167C218.465 108.237 217.571 109.091 216.502 109.044L208.102 108.667C207.304 108.631 206.675 107.974 206.676 107.174C206.676 106.375 207.305 105.717 208.104 105.68L216.504 105.294C217.574 105.244 218.467 106.097 218.466 107.167Z" fill="#FFCC00"/>
<path d="M204.684 111.974C205.25 111.408 206.16 111.387 206.75 111.925L212.956 117.589C213.747 118.31 213.774 119.545 213.016 120.302C212.259 121.059 211.023 121.032 210.302 120.242L204.636 114.039C204.097 113.449 204.119 112.539 204.684 111.974Z" fill="#55DDDD"/>
<path d="M201.277 105.789C201.839 106.351 201.851 107.258 201.304 107.836L185.561 124.445C184.753 125.297 183.401 125.316 182.571 124.487C181.741 123.657 181.76 122.306 182.613 121.498L199.229 105.762C199.807 105.215 200.715 105.227 201.277 105.789Z" fill="black"/>
</svg>
