<svg width="282" height="146" viewBox="0 0 282 146" fill="none" xmlns="http://www.w3.org/2000/svg">
<path d="M158 10C158 7.239 160.239 5 163 5H277C279.761 5 282 7.239 282 10V80C282 82.761 279.761 85 277 85H163C160.239 85 158 82.761 158 80V10Z" fill="#A1F279"/>
<path d="M153 5C153 2.239 155.239 0 158 0H272C274.761 0 277 2.239 277 5V75C277 77.761 274.761 80 272 80H158C155.239 80 153 77.761 153 75V5Z" fill="#DFF5D0"/>
<path d="M163 32C163 29.79 164.791 28 167 28H244C246.209 28 248 29.79 248 32C248 34.21 246.209 36 244 36H167C164.791 36 163 34.21 163 32ZM163 46C163 43.79 164.791 42 167 42H244C246.209 42 248 43.79 248 46C248 48.21 246.209 50 244 50H167C164.791 50 163 48.21 163 46Z" fill="black" fill-opacity="0.07"/>
<path d="M163 61C163 58.239 165.239 56 168 56H182C184.761 56 187 58.239 187 61C187 63.761 184.761 66 182 66H168C165.239 66 163 63.761 163 61Z" fill="#73CC33"/>
<path fill-rule="evenodd" clip-rule="evenodd" d="M167.273 11.932C167.47 12.418 167.663 12.908 167.852 13.401C168.041 13.894 168.234 14.383 168.43 14.869L168.649 15.841H168.813L168.976 14.858C169.107 14.365 169.242 13.878 169.38 13.395C169.519 12.913 169.653 12.425 169.784 11.932H171.182L169.227 17.784H168.125C167.928 17.276 167.717 16.744 167.492 16.189C167.266 15.633 167.055 15.101 166.858 14.593L166.706 13.843H166.509C166.487 13.968 166.462 14.095 166.433 14.223C166.403 14.353 166.378 14.479 166.356 14.604L165.166 17.784H164.009L162 11.932H163.659L164.577 14.792L164.729 15.863H164.893L165.112 14.781L166.149 11.932H167.273V11.932ZM176.761 17.199C176.513 17.39 176.177 17.554 175.751 17.69C175.325 17.827 174.868 17.895 174.381 17.895C173.398 17.895 172.677 17.622 172.219 17.078C171.76 16.533 171.531 15.786 171.531 14.836C171.531 13.828 171.789 13.064 172.306 12.546C172.823 12.026 173.551 11.766 174.49 11.766C174.795 11.766 175.098 11.806 175.396 11.883C175.694 11.96 175.96 12.089 176.193 12.269C176.426 12.449 176.613 12.692 176.755 12.998C176.897 13.303 176.968 13.681 176.968 14.13C176.968 14.284 176.959 14.453 176.941 14.637C176.923 14.821 176.892 15.013 176.848 15.212H173.027C173.063 15.712 173.207 16.082 173.458 16.322C173.709 16.561 174.119 16.68 174.686 16.68C175.028 16.68 175.336 16.63 175.609 16.531C175.882 16.431 176.091 16.331 176.237 16.228L176.761 17.199V17.199ZM174.468 12.981C174.017 12.981 173.682 13.104 173.464 13.351C173.245 13.598 173.118 13.912 173.081 14.295H175.549C175.578 13.89 175.505 13.57 175.33 13.335C175.156 13.099 174.868 12.981 174.468 12.981ZM178.344 10H179.872V12.43H180.003C180.178 12.23 180.402 12.074 180.675 11.96C180.948 11.846 181.248 11.789 181.575 11.789C182.318 11.789 182.884 12.034 183.273 12.523C183.662 13.013 183.857 13.728 183.857 14.671C183.857 15.179 183.786 15.631 183.644 16.029C183.502 16.426 183.3 16.761 183.038 17.034C182.776 17.306 182.456 17.514 182.078 17.657C181.699 17.801 181.273 17.873 180.8 17.873C180.254 17.873 179.767 17.834 179.337 17.757C178.908 17.679 178.577 17.593 178.344 17.497V10V10ZM179.872 16.415C180.018 16.489 180.172 16.535 180.336 16.553C180.5 16.572 180.676 16.581 180.866 16.581C181.812 16.581 182.285 15.955 182.285 14.704C182.285 14.174 182.187 13.771 181.99 13.494C181.794 13.219 181.503 13.081 181.117 13.081C180.789 13.081 180.525 13.158 180.325 13.312C180.125 13.467 179.974 13.695 179.872 13.997V16.415V16.415Z" fill="black"/>
<path fill-rule="evenodd" clip-rule="evenodd" d="M185.292 12.114C185.611 11.959 186.003 11.831 186.468 11.73C186.932 11.63 187.413 11.58 187.91 11.58C188.3 11.58 188.628 11.63 188.894 11.73C189.16 11.831 189.371 11.976 189.527 12.166C189.683 12.356 189.795 12.586 189.863 12.853C189.93 13.12 189.964 13.417 189.964 13.743C189.964 14.138 189.949 14.53 189.921 14.917C189.893 15.305 189.879 15.716 189.879 16.15C189.879 16.445 189.896 16.732 189.932 17.01C189.967 17.29 190.024 17.558 190.102 17.813H188.889L188.644 16.906H188.516C188.332 17.178 188.098 17.41 187.814 17.604C187.53 17.798 187.165 17.894 186.718 17.894C186.448 17.894 186.202 17.852 185.978 17.767C185.755 17.682 185.563 17.56 185.403 17.401C185.244 17.241 185.12 17.054 185.031 16.836C184.942 16.619 184.898 16.383 184.898 16.126C184.898 15.436 185.109 14.916 185.531 14.562C185.953 14.21 186.594 14.033 187.452 14.033C187.651 14.033 187.849 14.051 188.048 14.086C188.247 14.12 188.385 14.146 188.463 14.161C188.484 13.998 188.495 13.859 188.495 13.743C188.495 13.448 188.428 13.231 188.293 13.091C188.158 12.951 187.906 12.881 187.537 12.881C187.197 12.881 186.865 12.926 186.542 13.016C186.219 13.105 185.934 13.216 185.685 13.347L185.292 12.114V12.114ZM187.239 16.592C187.573 16.592 187.839 16.507 188.037 16.336C188.236 16.166 188.382 15.987 188.474 15.801V15.103C188.438 15.088 188.383 15.073 188.309 15.057C188.234 15.041 188.153 15.026 188.064 15.01C187.975 14.995 187.887 14.983 187.798 14.976C187.709 14.968 187.629 14.964 187.559 14.964C187.175 14.964 186.892 15.039 186.707 15.191C186.523 15.341 186.43 15.53 186.43 15.755C186.43 16.034 186.503 16.243 186.649 16.383C186.794 16.523 186.991 16.593 187.239 16.593V16.592Z" fill="#0088EE"/>
<path fill-rule="evenodd" clip-rule="evenodd" d="M191.542 16.177C191.648 16.23 191.772 16.283 191.912 16.336C192.053 16.389 192.205 16.438 192.368 16.484C192.531 16.529 192.698 16.567 192.869 16.598C193.04 16.628 193.213 16.643 193.388 16.643C193.654 16.643 193.861 16.601 194.009 16.518C194.157 16.434 194.231 16.279 194.231 16.051C194.231 15.869 194.132 15.735 193.935 15.647C193.737 15.56 193.494 15.475 193.206 15.391C192.993 15.331 192.771 15.259 192.539 15.175C192.307 15.092 192.094 14.98 191.901 14.839C191.707 14.699 191.547 14.515 191.422 14.287C191.297 14.06 191.234 13.772 191.234 13.423C191.234 12.823 191.42 12.366 191.792 12.051C192.165 11.736 192.7 11.579 193.399 11.579C193.855 11.579 194.282 11.619 194.681 11.699C195.08 11.779 195.401 11.871 195.644 11.977L195.314 13.184C195.116 13.108 194.864 13.03 194.556 12.95C194.248 12.87 193.935 12.83 193.616 12.83C193.35 12.83 193.152 12.87 193.023 12.95C192.894 13.03 192.829 13.169 192.829 13.366C192.829 13.54 192.93 13.671 193.131 13.758C193.333 13.846 193.578 13.931 193.866 14.014C194.079 14.075 194.301 14.145 194.533 14.224C194.765 14.304 194.976 14.413 195.166 14.549C195.356 14.686 195.513 14.862 195.639 15.079C195.764 15.295 195.827 15.566 195.827 15.892C195.827 16.529 195.62 17.022 195.205 17.372C194.791 17.72 194.17 17.895 193.342 17.895C192.894 17.895 192.476 17.855 192.089 17.775C191.701 17.695 191.386 17.58 191.143 17.428L191.542 16.176V16.177Z" fill="#22CC22"/>
<path fill-rule="evenodd" clip-rule="evenodd" d="M199.43 14.94L199.676 15.91H199.788L200 14.94L200.994 11.58H202.592L200.648 17.066C200.484 17.52 200.33 17.929 200.184 18.291C200.039 18.652 199.881 18.961 199.71 19.215C199.538 19.469 199.346 19.663 199.134 19.798C198.922 19.933 198.671 20 198.38 20C198.187 20 198.002 19.983 197.827 19.948C197.652 19.913 197.501 19.861 197.375 19.792L197.699 18.545C197.81 18.583 197.926 18.602 198.045 18.602C198.149 18.602 198.25 18.591 198.347 18.568C198.443 18.545 198.533 18.5 198.615 18.435C198.697 18.369 198.773 18.277 198.844 18.158C198.915 18.038 198.976 17.878 199.028 17.678L196.347 11.579H198.235L199.43 14.941V14.94Z" fill="#EE6622"/>
<path fill-rule="evenodd" clip-rule="evenodd" d="M203.511 16.177C203.617 16.23 203.741 16.283 203.881 16.336C204.022 16.389 204.174 16.438 204.337 16.484C204.501 16.529 204.668 16.567 204.839 16.598C205.01 16.628 205.182 16.643 205.357 16.643C205.623 16.643 205.83 16.601 205.978 16.518C206.126 16.434 206.201 16.279 206.201 16.051C206.201 15.869 206.102 15.735 205.904 15.647C205.707 15.56 205.464 15.475 205.175 15.391C204.962 15.331 204.74 15.259 204.508 15.175C204.277 15.092 204.064 14.98 203.87 14.839C203.676 14.699 203.517 14.515 203.391 14.287C203.266 14.06 203.203 13.772 203.203 13.423C203.203 12.823 203.39 12.366 203.762 12.051C204.134 11.736 204.67 11.579 205.369 11.579C205.824 11.579 206.252 11.619 206.651 11.699C207.049 11.779 207.37 11.871 207.614 11.977L207.283 13.184C207.086 13.108 206.833 13.03 206.525 12.95C206.218 12.87 205.904 12.83 205.585 12.83C205.319 12.83 205.122 12.87 204.993 12.95C204.863 13.03 204.799 13.169 204.799 13.366C204.799 13.54 204.899 13.671 205.101 13.758C205.302 13.846 205.547 13.931 205.836 14.014C206.049 14.075 206.271 14.145 206.502 14.224C206.734 14.304 206.945 14.413 207.135 14.549C207.325 14.686 207.483 14.862 207.608 15.079C207.733 15.295 207.796 15.566 207.796 15.892C207.796 16.529 207.589 17.022 207.175 17.372C206.761 17.72 206.14 17.895 205.312 17.895C204.863 17.895 204.446 17.855 204.058 17.775C203.671 17.695 203.355 17.58 203.112 17.428L203.511 16.176V16.177Z" fill="#FFCC00"/>
<path fill-rule="evenodd" clip-rule="evenodd" d="M208.837 11.762H209.704V10.946L211.222 10.526V11.762H212.751V13.088H211.222V15.152C211.222 15.628 211.267 15.97 211.357 16.177C211.448 16.385 211.627 16.489 211.894 16.489C212.06 16.489 212.201 16.476 212.317 16.449C212.433 16.423 212.555 16.379 212.686 16.319L213 17.509C212.769 17.615 212.503 17.706 212.203 17.781C211.903 17.857 211.612 17.895 211.33 17.895C210.767 17.895 210.355 17.749 210.094 17.458C209.834 17.168 209.704 16.701 209.704 16.058V13.088H208.837V11.762V11.762Z" fill="#55DDDD"/>
<path d="M0 10C0 7.239 2.239 5 5 5H119C121.761 5 124 7.239 124 10V80C124 82.761 121.761 85 119 85H5C2.239 85 0 82.761 0 80V10Z" fill="#CCDAFF"/>
<path d="M5 5C5 2.239 7.239 0 10 0H124C126.761 0 129 2.239 129 5V75C129 77.761 126.761 80 124 80H10C7.239 80 5 77.761 5 75V5Z" fill="#E6ECFF"/>
<path d="M15 32C15 29.79 16.79 28 19 28H96C98.21 28 100 29.79 100 32C100 34.21 98.21 36 96 36H19C16.79 36 15 34.21 15 32ZM15 46C15 43.79 16.79 42 19 42H96C98.21 42 100 43.79 100 46C100 48.21 98.21 50 96 50H19C16.79 50 15 48.21 15 46Z" fill="black" fill-opacity="0.07"/>
<path d="M15 61C15 58.239 17.239 56 20 56H34C36.761 56 39 58.239 39 61C39 63.761 36.761 66 34 66H20C17.239 66 15 63.761 15 61Z" fill="#80A2FF"/>
<path d="M16.3819 21.958C17.7249 21.958 18.3839 21.47 18.8419 20.083L20.6979 14.614H19.1939L18.061 18.696H17.974L16.8409 14.614H15.2729L17.1629 20.034L17.1139 20.23C16.9969 20.64 16.694 20.81 16.162 20.81C16.104 20.81 15.8889 20.81 15.8399 20.8V21.943C15.8979 21.953 16.3279 21.958 16.3819 21.958V21.958ZM23.8519 20.117C25.5079 20.117 26.5039 19.067 26.5039 17.305C26.5039 15.557 25.4939 14.497 23.8519 14.497C22.2119 14.497 21.2019 15.562 21.2019 17.305C21.2019 19.067 22.1969 20.117 23.8519 20.117ZM23.8519 18.955C23.0909 18.955 22.662 18.355 22.662 17.305C22.662 16.27 23.0959 15.659 23.8519 15.659C24.6049 15.659 25.044 16.269 25.044 17.305C25.044 18.35 24.6089 18.955 23.8519 18.955ZM32.54 14.614H31.1179V17.72C31.1179 18.438 30.7379 18.882 30.0289 18.882C29.3749 18.882 29.0389 18.501 29.0389 17.759V14.614H27.617V18.125C27.617 19.375 28.34 20.117 29.502 20.117C30.317 20.117 30.8199 19.761 31.0739 19.136H31.162V20H32.539V14.614H32.54ZM33.965 20H35.3849V17.017C35.3849 16.26 35.918 15.801 36.695 15.801C36.924 15.801 37.255 15.845 37.368 15.889V14.595C37.246 14.551 37.007 14.526 36.812 14.526C36.128 14.526 35.572 14.936 35.43 15.474H35.3419V14.614H33.965V20V20ZM40.122 20.083C40.869 20.083 41.48 19.736 41.768 19.155H41.8549V20H43.2319V12.559H41.812V15.474H41.728C41.45 14.878 40.85 14.526 40.122 14.526C38.77 14.526 37.93 15.586 37.93 17.3C37.93 19.019 38.765 20.083 40.122 20.083V20.083ZM40.6049 15.718C41.3619 15.718 41.826 16.328 41.826 17.31C41.826 18.296 41.3669 18.897 40.6059 18.897C39.8439 18.897 39.3899 18.301 39.3899 17.305C39.3899 16.318 39.8489 15.718 40.6049 15.718V15.718ZM47.095 20.117C48.75 20.117 49.7459 19.067 49.7459 17.305C49.7459 15.557 48.736 14.497 47.095 14.497C45.455 14.497 44.443 15.562 44.443 17.305C44.443 19.067 45.44 20.117 47.095 20.117ZM47.095 18.955C46.333 18.955 45.903 18.355 45.903 17.305C45.903 16.27 46.338 15.659 47.095 15.659C47.847 15.659 48.2859 16.269 48.2859 17.305C48.2859 18.35 47.852 18.955 47.095 18.955ZM50.908 20H52.3289V16.758C52.3289 16.158 52.7249 15.723 53.2809 15.723C53.8379 15.723 54.1699 16.05 54.1699 16.621V20H55.5369V16.704C55.5369 16.133 55.908 15.723 56.484 15.723C57.085 15.723 57.3829 16.04 57.3829 16.68V20H58.803V16.304C58.803 15.195 58.135 14.497 57.061 14.497C56.309 14.497 55.6879 14.893 55.4399 15.493H55.352C55.137 14.868 54.6189 14.497 53.8619 14.497C53.1539 14.497 52.592 14.877 52.373 15.493H52.285V14.614H50.908V20ZM62.129 19.014C61.636 19.014 61.289 18.77 61.289 18.369C61.289 17.983 61.5869 17.764 62.1969 17.719L63.2869 17.651V18.047C63.2869 18.594 62.788 19.014 62.129 19.014ZM61.66 20.083C62.358 20.083 62.9439 19.79 63.2229 19.297H63.31V20H64.6869V16.323C64.6869 15.171 63.882 14.497 62.457 14.497C61.103 14.497 60.19 15.122 60.097 16.118H61.407C61.523 15.796 61.8649 15.62 62.3769 15.62C62.9639 15.62 63.2869 15.874 63.2869 16.323V16.763L61.9819 16.841C60.6449 16.919 59.8979 17.485 59.8979 18.461C59.8979 19.448 60.625 20.083 61.66 20.083V20.083ZM66.094 20H67.514V14.614H66.094V20ZM66.8069 13.862C67.3139 13.862 67.647 13.565 67.647 13.145C67.647 12.72 67.3139 12.427 66.8069 12.427C66.2939 12.427 65.967 12.72 65.967 13.145C65.967 13.565 66.2939 13.862 66.8069 13.862ZM68.955 20H70.3759V16.895C70.3759 16.186 70.781 15.723 71.44 15.723C72.114 15.723 72.4319 16.113 72.4319 16.855V20H73.8519V16.519C73.8519 15.229 73.208 14.497 72.012 14.497C71.216 14.497 70.6689 14.873 70.4199 15.479H70.332V14.614H68.955V20V20ZM76.26 20.132C76.787 20.132 77.124 19.775 77.124 19.282C77.124 18.789 76.787 18.437 76.26 18.437C75.737 18.437 75.3949 18.789 75.3949 19.282C75.3949 19.775 75.737 20.132 76.26 20.132ZM78.7099 20H80.132V17.017C80.132 16.26 80.6639 15.801 81.4399 15.801C81.6699 15.801 82.0019 15.845 82.1139 15.889V14.595C81.9919 14.551 81.7529 14.526 81.5579 14.526C80.8739 14.526 80.3179 14.936 80.1759 15.474H80.0879V14.614H78.7099V20ZM87.9399 14.614H86.5189V17.72C86.5189 18.438 86.1379 18.882 85.4289 18.882C84.7749 18.882 84.4389 18.501 84.4389 17.759V14.614H83.0179V18.125C83.0179 19.375 83.7399 20.117 84.9019 20.117C85.7179 20.117 86.2209 19.761 86.4749 19.136H86.563V20H87.9389V14.614H87.9399Z" fill="black" fill-opacity="0.4"/>
<path d="M53.0014 92C53.5541 92 54.0027 92.436 54.0027 92.9732V95.8305C54.0027 96.4524 54.0228 97.0685 54.0638 97.6796C54.0999 98.2149 53.6813 98.6781 53.1285 98.7132C52.5778 98.7482 52.1011 98.3414 52.0651 97.8052C52.022 97.1522 52 96.4943 52 95.8305V92.9732C52 92.436 52.4486 92 53.0014 92ZM53.3789 100.574C53.9206 100.47 54.4483 100.812 54.5555 101.34C54.8038 102.558 55.1323 103.75 55.5368 104.907C55.7141 105.416 55.4337 105.967 54.91 106.141C54.3862 106.313 53.8175 106.04 53.6392 105.531C53.2076 104.295 52.8562 103.021 52.5908 101.717C52.4837 101.19 52.8361 100.678 53.3789 100.574ZM55.65 107.874C56.1456 107.637 56.7465 107.834 56.9918 108.316C57.5546 109.423 58.1904 110.491 58.8934 111.511C59.2008 111.958 59.0776 112.562 58.618 112.862C58.1584 113.16 57.5365 113.041 57.2291 112.594C56.4781 111.503 55.7972 110.362 55.1954 109.178C54.95 108.696 55.1543 108.112 55.65 107.874ZM59.7956 114.35C60.2112 113.995 60.844 114.035 61.2075 114.439C62.0447 115.366 62.9419 116.238 63.8952 117.05C64.3108 117.406 64.3518 118.02 63.9873 118.424C63.6218 118.828 62.99 118.868 62.5744 118.513C61.556 117.645 60.5967 116.713 59.7035 115.723C59.338 115.319 59.3801 114.704 59.7956 114.35ZM65.5184 119.568C65.8268 119.121 66.4487 119.002 66.9083 119.3C67.9577 119.984 69.0552 120.602 70.1958 121.15C70.6915 121.388 70.8947 121.971 70.6504 122.453C70.4051 122.935 69.8042 123.133 69.3086 122.894C68.0899 122.309 66.9153 121.648 65.7938 120.918C65.3342 120.619 65.211 120.015 65.5184 119.568ZM72.4338 123.172C72.6121 122.663 73.1798 122.39 73.7046 122.564C74.8942 122.956 76.1199 123.275 77.3736 123.516C77.9163 123.621 78.2688 124.132 78.1616 124.66C78.0545 125.187 77.5278 125.53 76.985 125.426C75.6432 125.168 74.3334 124.826 73.0597 124.406C72.537 124.234 72.2566 123.681 72.4338 123.172ZM80.0762 124.902C80.1123 124.366 80.5879 123.959 81.1397 123.994C81.7685 124.034 82.4024 124.054 83.0423 124.054H85.039C85.5918 124.054 86.0404 124.49 86.0404 125.027C86.0404 125.564 85.5918 126 85.039 126H83.0423C82.3593 126 81.6824 125.979 81.0105 125.937C80.4598 125.902 80.0402 125.439 80.0762 124.902ZM88.0311 125.027C88.0311 124.49 88.4787 124.054 89.0324 124.054H93.0259C93.5786 124.054 94.0272 124.49 94.0272 125.027C94.0272 125.564 93.5786 126 93.0259 126H89.0324C88.4787 126 88.0311 125.564 88.0311 125.027ZM96.018 125.027C96.018 124.49 96.4656 124.054 97.0193 124.054H101.013C101.566 124.054 102.014 124.49 102.014 125.027C102.014 125.564 101.566 126 101.013 126H97.0193C96.4656 126 96.018 125.564 96.018 125.027ZM104.004 125.027C104.004 124.49 104.452 124.054 105.005 124.054H108.999C109.552 124.054 110 124.49 110 125.027C110 125.564 109.552 126 108.999 126H105.005C104.452 126 104.004 125.564 104.004 125.027Z" fill="black"/>
<path d="M233.999 92C233.446 92 232.997 92.436 232.997 92.9732V95.8305C232.997 96.4524 232.977 97.0685 232.936 97.6796C232.9 98.2149 233.319 98.6781 233.871 98.7132C234.422 98.7482 234.899 98.3414 234.935 97.8052C234.978 97.1522 235 96.4943 235 95.8305V92.9732C235 92.436 234.551 92 233.999 92ZM233.621 100.574C233.079 100.47 232.552 100.812 232.445 101.34C232.196 102.558 231.868 103.75 231.463 104.907C231.286 105.416 231.566 105.967 232.09 106.141C232.614 106.313 233.183 106.04 233.361 105.531C233.792 104.295 234.144 103.021 234.409 101.717C234.516 101.19 234.164 100.678 233.621 100.574ZM231.35 107.874C230.854 107.637 230.254 107.834 230.008 108.316C229.445 109.423 228.81 110.491 228.107 111.511C227.799 111.958 227.922 112.562 228.382 112.862C228.842 113.16 229.463 113.041 229.771 112.594C230.522 111.503 231.203 110.362 231.805 109.178C232.05 108.696 231.846 108.112 231.35 107.874ZM227.204 114.35C226.789 113.995 226.156 114.035 225.792 114.439C224.955 115.366 224.058 116.238 223.105 117.05C222.689 117.406 222.648 118.02 223.013 118.424C223.378 118.828 224.01 118.868 224.426 118.513C225.444 117.645 226.403 116.713 227.297 115.723C227.662 115.319 227.62 114.704 227.204 114.35ZM221.482 119.568C221.173 119.121 220.551 119.002 220.092 119.3C219.042 119.984 217.945 120.602 216.804 121.15C216.309 121.388 216.105 121.971 216.35 122.453C216.595 122.935 217.196 123.133 217.691 122.894C218.91 122.309 220.085 121.648 221.206 120.918C221.666 120.619 221.789 120.015 221.482 119.568ZM214.566 123.172C214.388 122.663 213.82 122.39 213.295 122.564C212.106 122.956 210.88 123.275 209.626 123.516C209.084 123.621 208.731 124.132 208.838 124.66C208.946 125.187 209.472 125.53 210.015 125.426C211.357 125.168 212.667 124.826 213.94 124.406C214.463 124.234 214.743 123.681 214.566 123.172ZM206.924 124.902C206.888 124.366 206.412 123.959 205.86 123.994C205.231 124.034 204.598 124.054 203.958 124.054H201.961C201.408 124.054 200.96 124.49 200.96 125.027C200.96 125.564 201.408 126 201.961 126H203.958C204.641 126 205.318 125.979 205.989 125.937C206.54 125.902 206.96 125.439 206.924 124.902ZM198.969 125.027C198.969 124.49 198.521 124.054 197.968 124.054H193.974C193.421 124.054 192.973 124.49 192.973 125.027C192.973 125.564 193.421 126 193.974 126H197.968C198.521 126 198.969 125.564 198.969 125.027ZM190.982 125.027C190.982 124.49 190.534 124.054 189.981 124.054H185.987C185.434 124.054 184.986 124.49 184.986 125.027C184.986 125.564 185.434 126 185.987 126H189.981C190.534 126 190.982 125.564 190.982 125.027ZM182.996 125.027C182.996 124.49 182.548 124.054 181.995 124.054H178.001C177.448 124.054 177 124.49 177 125.027C177 125.564 177.448 126 178.001 126H181.995C182.548 126 182.996 125.564 182.996 125.027Z" fill="black"/>
<path fill-rule="evenodd" clip-rule="evenodd" d="M138.215 107.881L131.261 100.268C128.72 97.4851 124.372 97.3895 121.705 100.056C119.03 102.729 119.127 107.094 121.916 109.639L129.533 116.589C131.957 118.801 135.692 118.715 138.017 116.391C140.347 114.062 140.435 110.311 138.215 107.881Z" fill="white"/>
<path fill-rule="evenodd" clip-rule="evenodd" d="M147.009 109.332L147.483 99.0275C147.657 95.2438 144.639 92.1041 140.877 92.1066C137.116 92.1092 134.094 95.2529 134.264 99.0364L134.728 109.34C134.876 112.637 137.589 115.213 140.866 115.211C144.142 115.209 146.858 112.629 147.009 109.332Z" fill="white"/>
<path fill-rule="evenodd" clip-rule="evenodd" d="M152.193 116.576L159.818 109.616C162.609 107.068 162.712 102.703 160.041 100.033C157.376 97.3698 153.028 97.4705 150.484 100.256L143.521 107.877C141.298 110.31 141.382 114.062 143.709 116.388C146.031 118.709 149.766 118.791 152.193 116.576Z" fill="white"/>
<path fill-rule="evenodd" clip-rule="evenodd" d="M150.746 125.362L161.054 125.824C164.811 125.992 167.972 122.99 167.974 119.203C167.976 115.415 164.819 112.416 161.062 112.589L150.753 113.064C147.479 113.215 144.883 115.916 144.881 119.216C144.879 122.517 147.472 125.215 150.746 125.362Z" fill="white"/>
<path fill-rule="evenodd" clip-rule="evenodd" d="M159.806 128.799L152.19 121.849C149.765 119.636 146.03 119.723 143.706 122.047C141.376 124.375 141.288 128.127 143.508 130.557L150.461 138.17C153.003 140.953 157.35 141.048 160.018 138.382C162.692 135.709 162.595 131.344 159.806 128.799Z" fill="white"/>
<path fill-rule="evenodd" clip-rule="evenodd" d="M126.401 143.383L145.724 123.002C148.008 120.592 147.959 116.8 145.614 114.455C143.274 112.116 139.499 112.067 137.094 114.344L116.7 133.654C113.885 136.32 113.821 140.783 116.56 143.521C119.292 146.253 123.74 146.191 126.401 143.383Z" fill="white"/>
<path d="M124.748 103.113C125.677 102.184 127.194 102.218 128.079 103.187L135.033 110.8C135.694 111.524 135.668 112.64 134.974 113.334C134.279 114.028 133.162 114.054 132.438 113.393L124.821 106.443C123.852 105.558 123.818 104.042 124.748 103.113Z" fill="#0088EE"/>
<path d="M140.875 96.4279C142.188 96.4271 143.236 97.5227 143.175 98.8346L142.701 109.139C142.656 110.119 141.847 110.891 140.866 110.891C139.885 110.892 139.077 110.121 139.033 109.141L138.571 98.8374C138.512 97.5255 139.561 96.4287 140.875 96.4279Z" fill="#22CC22"/>
<path d="M156.994 103.094C157.922 104.022 157.887 105.538 156.916 106.424L149.291 113.383C148.566 114.045 147.449 114.02 146.756 113.327C146.062 112.634 146.038 111.518 146.7 110.793L153.662 103.171C154.549 102.201 156.065 102.166 156.994 103.094Z" fill="#EE6622"/>
<path d="M163.663 119.205C163.662 120.519 162.565 121.567 161.252 121.508L150.944 121.046C149.963 121.002 149.192 120.195 149.193 119.214C149.193 118.233 149.966 117.425 150.946 117.38L161.255 116.906C162.568 116.845 163.664 117.892 163.663 119.205Z" fill="#FFCC00"/>
<path d="M146.749 125.104C147.443 124.41 148.56 124.384 149.285 125.045L156.901 131.995C157.871 132.88 157.905 134.396 156.975 135.325C156.045 136.254 154.529 136.221 153.644 135.251L146.69 127.638C146.029 126.914 146.055 125.798 146.749 125.104Z" fill="#55DDDD"/>
<path d="M142.568 117.513C143.257 118.203 143.272 119.317 142.6 120.026L123.279 140.409C122.287 141.456 120.628 141.479 119.61 140.461C118.591 139.443 118.614 137.784 119.661 136.793L140.054 117.481C140.763 116.809 141.878 116.824 142.568 117.513Z" fill="black"/>
</svg>
