<svg width="226" height="174" viewBox="0 0 226 174" fill="none" xmlns="http://www.w3.org/2000/svg">
<path d="M5 9.58C5 6.819 7.239 4.58 10 4.58H216C218.761 4.58 221 6.819 221 9.58V168.58C221 171.342 218.761 173.58 216 173.58H10C7.239 173.58 5 171.342 5 168.58V9.58V9.58Z" fill="#CCDAFF"/>
<path d="M0 5C0 2.239 2.239 0 5 0H221C223.761 0 226 2.239 226 5V164C226 166.761 223.761 169 221 169H5C2.239 169 0 166.761 0 164V5Z" fill="#E6ECFF"/>
<g opacity="0.6">
<path d="M45.9287 146.066L47.1318 140.18H48.48L46.6753 148H45.3755L43.8877 142.291L42.3677 148H41.0625L39.2578 140.18H40.606L41.8198 146.056L43.313 140.18H44.4517L45.9287 146.066Z" fill="black"/>
<path d="M51.7349 148.107C50.9077 148.107 50.2363 147.848 49.7207 147.329C49.2087 146.806 48.9526 146.111 48.9526 145.245V145.083C48.9526 144.503 49.0636 143.986 49.2856 143.531C49.5112 143.073 49.8263 142.717 50.231 142.462C50.6356 142.208 51.0868 142.081 51.5845 142.081C52.3758 142.081 52.9863 142.333 53.416 142.838C53.8493 143.343 54.0659 144.058 54.0659 144.981V145.508H50.2686C50.3079 145.988 50.4673 146.367 50.7466 146.646C51.0295 146.926 51.384 147.065 51.8101 147.065C52.408 147.065 52.895 146.824 53.271 146.34L53.9746 147.012C53.7419 147.359 53.4303 147.629 53.04 147.823C52.6533 148.013 52.2183 148.107 51.7349 148.107ZM51.5791 143.128C51.221 143.128 50.931 143.254 50.709 143.504C50.4906 143.755 50.3509 144.104 50.29 144.552H52.7769V144.455C52.7482 144.018 52.6318 143.689 52.4277 143.467C52.2236 143.241 51.9408 143.128 51.5791 143.128Z" fill="black"/>
<path d="M60.1836 145.153C60.1836 146.056 59.9813 146.774 59.5767 147.307C59.1756 147.841 58.6224 148.107 57.917 148.107C57.2367 148.107 56.7067 147.862 56.3271 147.372L56.2627 148H55.0811V139.75H56.3862V142.747C56.7622 142.303 57.2689 142.081 57.9062 142.081C58.6152 142.081 59.172 142.344 59.5767 142.871C59.9813 143.397 60.1836 144.133 60.1836 145.078V145.153ZM58.8784 145.041C58.8784 144.41 58.7674 143.938 58.5454 143.623C58.3234 143.307 58.0011 143.15 57.5786 143.15C57.0129 143.15 56.6154 143.397 56.3862 143.891V146.287C56.619 146.792 57.02 147.044 57.5894 147.044C57.9976 147.044 58.3127 146.892 58.5347 146.587C58.7567 146.283 58.8713 145.823 58.8784 145.207V145.041Z" fill="black"/>
<path d="M64.7544 148C64.6971 147.889 64.647 147.708 64.604 147.458C64.1886 147.891 63.6802 148.107 63.0786 148.107C62.495 148.107 62.0187 147.941 61.6499 147.608C61.2811 147.275 61.0967 146.863 61.0967 146.373C61.0967 145.753 61.3258 145.279 61.7842 144.949C62.2461 144.616 62.9049 144.45 63.7607 144.45H64.561V144.068C64.561 143.768 64.4769 143.528 64.3086 143.349C64.1403 143.166 63.8843 143.075 63.5405 143.075C63.2433 143.075 62.9998 143.15 62.8101 143.3C62.6203 143.447 62.5254 143.635 62.5254 143.864H61.2202C61.2202 143.546 61.3258 143.248 61.5371 142.973C61.7484 142.693 62.0348 142.475 62.3965 142.317C62.7617 142.16 63.1681 142.081 63.6157 142.081C64.2961 142.081 64.8385 142.253 65.2432 142.597C65.6478 142.937 65.8555 143.417 65.8662 144.036V146.657C65.8662 147.18 65.9396 147.597 66.0864 147.909V148H64.7544ZM63.3203 147.06C63.5781 147.06 63.8198 146.997 64.0454 146.872C64.2746 146.747 64.4465 146.578 64.561 146.367V145.271H63.8574C63.374 145.271 63.0106 145.356 62.7671 145.524C62.5236 145.692 62.4019 145.93 62.4019 146.238C62.4019 146.489 62.4842 146.689 62.6489 146.84C62.8172 146.987 63.041 147.06 63.3203 147.06Z" fill="black"/>
<path d="M70.4907 146.421C70.4907 146.188 70.394 146.011 70.2007 145.889C70.0109 145.767 69.694 145.66 69.25 145.567C68.806 145.474 68.4354 145.356 68.1382 145.212C67.4865 144.897 67.1606 144.441 67.1606 143.843C67.1606 143.341 67.3719 142.923 67.7944 142.586C68.217 142.249 68.7541 142.081 69.4058 142.081C70.1004 142.081 70.6608 142.253 71.0869 142.597C71.5166 142.94 71.7314 143.386 71.7314 143.934H70.4263C70.4263 143.683 70.3332 143.476 70.147 143.311C69.9608 143.143 69.7137 143.059 69.4058 143.059C69.1193 143.059 68.8848 143.125 68.7021 143.257C68.5231 143.39 68.4336 143.567 68.4336 143.789C68.4336 143.99 68.5177 144.145 68.686 144.256C68.8543 144.367 69.1945 144.48 69.7065 144.595C70.2186 144.706 70.6196 144.84 70.9097 144.998C71.2033 145.152 71.4199 145.338 71.5596 145.556C71.7028 145.775 71.7744 146.04 71.7744 146.351C71.7744 146.874 71.5578 147.298 71.1245 147.624C70.6912 147.946 70.1237 148.107 69.4219 148.107C68.9456 148.107 68.5213 148.021 68.1489 147.85C67.7765 147.678 67.4865 147.441 67.2788 147.141C67.0711 146.84 66.9673 146.516 66.9673 146.168H68.2349C68.2528 146.476 68.3691 146.715 68.584 146.883C68.7988 147.048 69.0835 147.13 69.438 147.13C69.7817 147.13 70.0431 147.065 70.2222 146.937C70.4012 146.804 70.4907 146.632 70.4907 146.421Z" fill="black"/>
<path d="M74.9487 146.131L76.1304 142.188H77.5215L75.2119 148.881C74.8574 149.858 74.2559 150.347 73.4072 150.347C73.2174 150.347 73.008 150.315 72.7788 150.25V149.241L73.0259 149.257C73.3553 149.257 73.6024 149.196 73.7671 149.074C73.9354 148.956 74.0679 148.756 74.1646 148.473L74.3525 147.973L72.3115 142.188H73.7188L74.9487 146.131Z" fill="black"/>
<path d="M81.5337 146.421C81.5337 146.188 81.437 146.011 81.2437 145.889C81.0539 145.767 80.737 145.66 80.293 145.567C79.849 145.474 79.4784 145.356 79.1812 145.212C78.5295 144.897 78.2036 144.441 78.2036 143.843C78.2036 143.341 78.4149 142.923 78.8374 142.586C79.2599 142.249 79.797 142.081 80.4487 142.081C81.1434 142.081 81.7038 142.253 82.1299 142.597C82.5596 142.94 82.7744 143.386 82.7744 143.934H81.4692C81.4692 143.683 81.3761 143.476 81.1899 143.311C81.0037 143.143 80.7567 143.059 80.4487 143.059C80.1623 143.059 79.9277 143.125 79.7451 143.257C79.5661 143.39 79.4766 143.567 79.4766 143.789C79.4766 143.99 79.5607 144.145 79.729 144.256C79.8973 144.367 80.2375 144.48 80.7495 144.595C81.2616 144.706 81.6626 144.84 81.9526 144.998C82.2463 145.152 82.4629 145.338 82.6025 145.556C82.7458 145.775 82.8174 146.04 82.8174 146.351C82.8174 146.874 82.6007 147.298 82.1675 147.624C81.7342 147.946 81.1667 148.107 80.4648 148.107C79.9886 148.107 79.5643 148.021 79.1919 147.85C78.8195 147.678 78.5295 147.441 78.3218 147.141C78.1141 146.84 78.0103 146.516 78.0103 146.168H79.2778C79.2957 146.476 79.4121 146.715 79.627 146.883C79.8418 147.048 80.1265 147.13 80.481 147.13C80.8247 147.13 81.0861 147.065 81.2651 146.937C81.4442 146.804 81.5337 146.632 81.5337 146.421Z" fill="black"/>
<path d="M85.5942 140.776V142.188H86.6201V143.155H85.5942V146.399C85.5942 146.621 85.6372 146.783 85.7231 146.883C85.8127 146.979 85.9702 147.028 86.1958 147.028C86.3462 147.028 86.4984 147.01 86.6523 146.974V147.984C86.3551 148.066 86.0687 148.107 85.793 148.107C84.7904 148.107 84.2891 147.554 84.2891 146.448V143.155H83.333V142.188H84.2891V140.776H85.5942Z" fill="black"/>
<path d="M91.9214 148H90.5679V140.18H91.9214V148Z" fill="black"/>
<path d="M93.5918 148V140.18H95.9014C96.5924 140.18 97.2048 140.334 97.7383 140.642C98.2754 140.95 98.6908 141.386 98.9844 141.952C99.278 142.518 99.4248 143.166 99.4248 143.896V144.289C99.4248 145.03 99.2762 145.681 98.979 146.244C98.6854 146.806 98.2646 147.239 97.7168 147.543C97.1725 147.848 96.5477 148 95.8423 148H93.5918ZM94.9507 141.275V146.915H95.8369C96.5495 146.915 97.0955 146.693 97.4751 146.249C97.8582 145.801 98.0534 145.16 98.0605 144.326V143.891C98.0605 143.042 97.8761 142.394 97.5073 141.947C97.1385 141.499 96.6032 141.275 95.9014 141.275H94.9507Z" fill="black"/>
</g>
<path opacity="0.1" fill-rule="evenodd" clip-rule="evenodd" d="M22.7165 134C17.3756 134 13 138.453 13 144C13 149.547 17.3756 154 22.7165 154H98.2835C103.624 154 108 149.547 108 144C108 138.453 103.624 134 98.2835 134H22.7165ZM22.7165 133C16.7988 133 12 137.926 12 144C12 150.074 16.7988 155 22.7165 155H98.2835C104.201 155 109 150.074 109 144C109 137.926 104.201 133 98.2835 133H22.7165Z" fill="black"/>
<g opacity="0.6" clip-path="url(#clip0)">
<path d="M22.9927 139.115C22.6803 138.769 22.1457 138.757 21.8181 139.088C21.4901 139.419 21.5023 139.961 21.8448 140.277L24.1644 142.416C24.4289 142.66 24.8363 142.651 25.0896 142.395C25.3432 142.139 25.3525 141.726 25.1106 141.459L22.9927 139.115Z" fill="#0088EE"/>
<path d="M26.8053 137C26.3425 137 25.9722 137.391 25.9933 137.859L26.1359 141.029C26.1522 141.392 26.4476 141.676 26.8053 141.676C27.163 141.676 27.4584 141.392 27.4747 141.029L27.6173 137.859C27.6384 137.391 27.2681 137 26.8053 137Z" fill="#22CC22"/>
<path d="M31.7878 139.088C31.4602 138.757 30.9256 138.769 30.6131 139.115L28.4953 141.459C28.2534 141.726 28.2627 142.139 28.5163 142.395C28.7696 142.651 29.177 142.66 29.4415 142.416L31.7611 140.277C32.1036 139.961 32.1158 139.419 31.7878 139.088Z" fill="#EE6622"/>
<path d="M33.8569 144.126C33.8569 143.657 33.4695 143.283 33.0072 143.305L29.8694 143.449C29.512 143.465 29.2297 143.763 29.2297 144.126C29.2297 144.489 29.512 144.786 29.8694 144.803L33.0072 144.947C33.4695 144.968 33.8569 144.595 33.8569 144.126Z" fill="#FFCC00"/>
<path d="M29.4415 145.837C29.177 145.593 28.7696 145.602 28.5163 145.858C28.2627 146.114 28.2534 146.527 28.4953 146.795L30.6131 149.138C30.9256 149.484 31.4602 149.496 31.7878 149.165C32.1158 148.834 32.1036 148.293 31.7611 147.977L29.4415 145.837Z" fill="#55DDDD"/>
<path d="M27.402 143.52C27.1493 143.264 26.7414 143.259 26.482 143.507L20.2784 149.445C19.9141 149.794 19.9063 150.378 20.2611 150.736C20.6156 151.094 21.1925 151.086 21.5373 150.719L27.4144 144.451C27.6606 144.188 27.6551 143.775 27.402 143.52Z" fill="black"/>
</g>
<path d="M10 37C10 34.239 12.239 32 15 32H191C193.761 32 196 34.239 196 37V43C196 45.761 193.761 48 191 48H15C12.239 48 10 45.761 10 43V37ZM10 63C10 60.239 12.239 58 15 58H191C193.761 58 196 60.239 196 63V69C196 71.761 193.761 74 191 74H15C12.239 74 10 71.761 10 69V63Z" fill="black" fill-opacity="0.07"/>
<path d="M11.3819 21.958C12.7249 21.958 13.3839 21.47 13.8419 20.083L15.6979 14.614H14.1939L13.0609 18.696H12.9739L11.8409 14.614H10.2729L12.1629 20.034L12.1139 20.23C11.9969 20.64 11.6939 20.81 11.1619 20.81C11.1029 20.81 10.8889 20.81 10.8399 20.8V21.943C10.8979 21.953 11.3279 21.958 11.3819 21.958V21.958ZM18.8519 20.117C20.5079 20.117 21.5039 19.067 21.5039 17.305C21.5039 15.557 20.4939 14.497 18.8519 14.497C17.2119 14.497 16.2019 15.562 16.2019 17.305C16.2019 19.067 17.1969 20.117 18.8519 20.117ZM18.8519 18.955C18.0909 18.955 17.662 18.355 17.662 17.305C17.662 16.27 18.0959 15.659 18.8519 15.659C19.6049 15.659 20.044 16.269 20.044 17.305C20.044 18.35 19.6089 18.955 18.8519 18.955ZM27.54 14.614H26.1179V17.72C26.1179 18.438 25.7379 18.882 25.0289 18.882C24.3749 18.882 24.0389 18.501 24.0389 17.759V14.614H22.617V18.125C22.617 19.375 23.34 20.117 24.502 20.117C25.317 20.117 25.8199 19.761 26.0739 19.136H26.162V20H27.5389V14.614H27.54ZM28.965 20H30.3849V17.017C30.3849 16.26 30.918 15.801 31.695 15.801C31.924 15.801 32.255 15.845 32.368 15.889V14.595C32.246 14.551 32.007 14.526 31.811 14.526C31.128 14.526 30.571 14.936 30.43 15.474H30.3419V14.614H28.965V20V20ZM35.122 20.083C35.869 20.083 36.48 19.736 36.768 19.155H36.8549V20H38.2319V12.559H36.812V15.474H36.728C36.45 14.878 35.85 14.526 35.122 14.526C33.77 14.526 32.93 15.586 32.93 17.3C32.93 19.019 33.765 20.083 35.122 20.083V20.083ZM35.6049 15.718C36.3619 15.718 36.826 16.328 36.826 17.31C36.826 18.296 36.3669 18.897 35.6059 18.897C34.8439 18.897 34.3899 18.301 34.3899 17.305C34.3899 16.318 34.8489 15.718 35.6049 15.718V15.718ZM42.095 20.117C43.75 20.117 44.7459 19.067 44.7459 17.305C44.7459 15.557 43.736 14.497 42.095 14.497C40.455 14.497 39.443 15.562 39.443 17.305C39.443 19.067 40.44 20.117 42.095 20.117ZM42.095 18.955C41.333 18.955 40.903 18.355 40.903 17.305C40.903 16.27 41.338 15.659 42.095 15.659C42.847 15.659 43.2859 16.269 43.2859 17.305C43.2859 18.35 42.852 18.955 42.095 18.955ZM45.908 20H47.3289V16.758C47.3289 16.158 47.7249 15.723 48.2809 15.723C48.8379 15.723 49.1699 16.05 49.1699 16.621V20H50.5369V16.704C50.5369 16.133 50.908 15.723 51.484 15.723C52.085 15.723 52.3829 16.04 52.3829 16.68V20H53.803V16.304C53.803 15.195 53.135 14.497 52.061 14.497C51.309 14.497 50.6879 14.893 50.4399 15.493H50.352C50.137 14.868 49.6189 14.497 48.8619 14.497C48.1539 14.497 47.592 14.877 47.373 15.493H47.285V14.614H45.908V20ZM57.129 19.014C56.636 19.014 56.289 18.77 56.289 18.369C56.289 17.983 56.5869 17.764 57.1969 17.719L58.2869 17.651V18.047C58.2869 18.594 57.788 19.014 57.129 19.014ZM56.66 20.083C57.358 20.083 57.9439 19.79 58.2229 19.297H58.31V20H59.687V16.323C59.687 15.171 58.882 14.497 57.457 14.497C56.103 14.497 55.19 15.122 55.097 16.118H56.407C56.523 15.796 56.8649 15.62 57.3769 15.62C57.9639 15.62 58.2869 15.874 58.2869 16.323V16.763L56.9819 16.841C55.6449 16.919 54.8979 17.485 54.8979 18.461C54.8979 19.448 55.625 20.083 56.66 20.083V20.083ZM61.094 20H62.514V14.614H61.094V20ZM61.8069 13.862C62.3149 13.862 62.6469 13.565 62.6469 13.145C62.6469 12.72 62.3149 12.427 61.8069 12.427C61.2939 12.427 60.9669 12.72 60.9669 13.145C60.9669 13.565 61.2939 13.862 61.8069 13.862ZM63.955 20H65.3759V16.895C65.3759 16.186 65.781 15.723 66.44 15.723C67.114 15.723 67.4319 16.113 67.4319 16.855V20H68.8519V16.519C68.8519 15.229 68.208 14.497 67.012 14.497C66.216 14.497 65.6689 14.873 65.4199 15.479H65.332V14.614H63.955V20V20ZM71.26 20.132C71.787 20.132 72.124 19.775 72.124 19.282C72.124 18.789 71.787 18.437 71.26 18.437C70.737 18.437 70.3949 18.789 70.3949 19.282C70.3949 19.775 70.737 20.132 71.26 20.132ZM73.7099 20H75.132V17.017C75.132 16.26 75.6639 15.801 76.4399 15.801C76.6699 15.801 77.0019 15.845 77.1139 15.889V14.595C76.9919 14.551 76.7529 14.526 76.5579 14.526C75.8739 14.526 75.3179 14.936 75.1759 15.474H75.0879V14.614H73.7099V20ZM82.9399 14.614H81.5189V17.72C81.5189 18.438 81.1379 18.882 80.4289 18.882C79.7749 18.882 79.4389 18.501 79.4389 17.759V14.614H78.0179V18.125C78.0179 19.375 78.7399 20.117 79.9019 20.117C80.7179 20.117 81.2209 19.761 81.4749 19.136H81.563V20H82.9389V14.614H82.9399Z" fill="black" fill-opacity="0.4"/>
<path d="M12 119H196V121H12V119Z" fill="#CCDAFF"/>
<path d="M10 96C10 89.925 14.925 85 21 85H59.877C65.952 85 70.877 89.925 70.877 96C70.877 102.075 65.953 107 59.877 107H21C14.925 107 10 102.075 10 96Z" fill="#7FA2FF"/>
<path d="M84.7799 128.075C84.0299 128.508 83.1859 128.758 82.3199 128.804C81.4539 128.849 80.5889 128.689 79.7959 128.337L67.3679 122.811C64.5929 121.576 63.3429 118.326 64.5779 115.55C65.2149 114.115 66.3919 113.088 67.7639 112.601L62.4689 103.429C60.9489 100.798 61.8509 97.434 64.4819 95.915C67.1119 94.397 70.4759 95.298 71.9949 97.929L74.2449 101.826C75.4349 101.138 76.7759 100.947 78.0279 101.187C78.4329 100.701 78.9279 100.276 79.5079 99.942C80.8669 99.157 82.4209 99.019 83.8159 99.43C84.1639 99.07 84.5659 98.753 85.0209 98.49C87.6509 96.972 91.0159 97.873 92.5339 100.504L95.5339 105.7C95.7459 106.067 95.9149 106.457 96.0369 106.864L98.5549 115.225C99.2909 117.669 98.2489 120.298 96.0389 121.574L84.7809 128.075H84.7799Z" fill="white"/>
<path d="M89.936 102.004L92.936 107.2C93.032 107.367 93.109 107.545 93.165 107.729L95.683 116.09C96.017 117.201 95.543 118.396 94.539 118.976L83.281 125.476C82.939 125.674 82.556 125.787 82.162 125.808C81.768 125.829 81.375 125.756 81.015 125.596L68.587 120.069C67.325 119.508 66.757 118.031 67.318 116.769C67.879 115.508 69.357 114.94 70.618 115.501L73.691 116.867L65.067 101.929C64.377 100.733 64.786 99.204 65.982 98.514C67.177 97.824 68.706 98.233 69.397 99.429L75.647 110.254L76.08 110.004L74.83 107.839C74.14 106.643 74.55 105.114 75.745 104.424C76.941 103.733 78.469 104.143 79.16 105.339L80.41 107.504L80.843 107.254L80.093 105.955C79.403 104.759 79.813 103.23 81.008 102.54C82.204 101.849 83.733 102.259 84.423 103.455L85.173 104.754L85.606 104.504C84.916 103.308 85.326 101.779 86.521 101.089C87.717 100.399 89.246 100.808 89.936 102.004V102.004Z" fill="#7FA2FF"/>
<defs>
<clipPath id="clip0">
<rect width="14" height="14" fill="white" transform="translate(20 137)"/>
</clipPath>
</defs>
</svg>
