<svg width="288" height="186" viewBox="0 0 288 186" fill="none" xmlns="http://www.w3.org/2000/svg">
<path d="M0 5C0 2.239 2.239 0 5 0H126C128.761 0 131 2.239 131 5V75C131 77.761 128.761 80 126 80H5C2.239 80 0 77.761 0 75V5Z" fill="#ACF279"/>
<path d="M5 10C5 7.239 7.239 5 10 5H131C133.761 5 136 7.239 136 10V80C136 82.761 133.761 85 131 85H10C7.239 85 5 82.761 5 80V10Z" fill="#DFF5D0"/>
<path d="M19 31C16.79 31 15 32.79 15 35C15 37.21 16.79 39 19 39H119C121.21 39 123 37.21 123 35C123 32.79 121.21 31 119 31H19ZM19 45C16.79 45 15 46.79 15 49C15 51.21 16.79 53 19 53H119C121.21 53 123 51.21 123 49C123 46.79 121.21 45 119 45H19Z" fill="black" fill-opacity="0.07"/>
<path d="M15 69C15 64.5824 18.4518 61 22.7083 61H45.2917C49.5482 61 53 64.5824 53 69C53 73.4176 49.5482 77 45.2917 77H22.7083C18.4518 77 15 73.4176 15 69Z" fill="#73CC33"/>
<path fill-rule="evenodd" clip-rule="evenodd" d="M19.273 16.932C19.47 17.418 19.663 17.908 19.852 18.401C20.042 18.894 20.234 19.384 20.43 19.869L20.649 20.841H20.813L20.976 19.858C21.107 19.365 21.242 18.878 21.38 18.395C21.519 17.913 21.653 17.425 21.784 16.932H23.182L21.228 22.784H20.125C19.928 22.276 19.717 21.744 19.492 21.189C19.266 20.633 19.055 20.101 18.858 19.593L18.706 18.843H18.509C18.487 18.968 18.462 19.095 18.433 19.223C18.403 19.353 18.378 19.479 18.356 19.604L17.166 22.784H16.01L14 16.932H15.66L16.577 19.792L16.729 20.863H16.893L17.111 19.781L18.149 16.932H19.273V16.932ZM28.761 22.199C28.513 22.39 28.177 22.554 27.751 22.69C27.325 22.827 26.868 22.895 26.381 22.895C25.398 22.895 24.677 22.622 24.219 22.078C23.76 21.533 23.531 20.786 23.531 19.836C23.531 18.828 23.79 18.064 24.306 17.546C24.823 17.026 25.551 16.766 26.49 16.766C26.796 16.766 27.098 16.806 27.396 16.883C27.694 16.96 27.96 17.089 28.193 17.269C28.426 17.449 28.613 17.692 28.755 17.998C28.897 18.303 28.968 18.68 28.968 19.13C28.968 19.284 28.959 19.453 28.941 19.638C28.923 19.821 28.891 20.013 28.848 20.212H25.027C25.063 20.712 25.207 21.082 25.458 21.322C25.709 21.561 26.118 21.68 26.686 21.68C27.028 21.68 27.336 21.63 27.609 21.531C27.882 21.431 28.091 21.331 28.237 21.228L28.761 22.199V22.199ZM26.468 17.981C26.017 17.981 25.682 18.104 25.463 18.351C25.245 18.598 25.118 18.912 25.081 19.295H27.549C27.578 18.89 27.505 18.57 27.331 18.335C27.156 18.099 26.868 17.981 26.468 17.981ZM30.344 15H31.872V17.43H32.003C32.178 17.23 32.402 17.074 32.675 16.96C32.948 16.846 33.248 16.789 33.575 16.789C34.318 16.789 34.884 17.033 35.273 17.523C35.663 18.013 35.857 18.728 35.857 19.671C35.857 20.179 35.787 20.631 35.644 21.029C35.502 21.426 35.3 21.761 35.038 22.034C34.776 22.306 34.456 22.514 34.078 22.657C33.699 22.801 33.273 22.873 32.8 22.873C32.254 22.873 31.767 22.834 31.337 22.757C30.907 22.679 30.577 22.593 30.344 22.497V15V15ZM31.872 21.415C32.018 21.489 32.172 21.535 32.336 21.553C32.5 21.572 32.676 21.581 32.866 21.581C33.812 21.581 34.285 20.955 34.285 19.704C34.285 19.174 34.187 18.771 33.99 18.494C33.794 18.219 33.503 18.081 33.117 18.081C32.789 18.081 32.525 18.158 32.325 18.312C32.125 18.467 31.975 18.695 31.872 18.997V21.415V21.415Z" fill="black"/>
<path fill-rule="evenodd" clip-rule="evenodd" d="M37.292 17.114C37.611 16.959 38.0029 16.831 38.4679 16.73C38.9319 16.63 39.413 16.58 39.91 16.58C40.3 16.58 40.628 16.63 40.894 16.73C41.16 16.831 41.371 16.977 41.527 17.166C41.683 17.356 41.7949 17.586 41.8629 17.853C41.9299 18.12 41.963 18.417 41.963 18.743C41.963 19.138 41.949 19.53 41.921 19.917C41.893 20.305 41.879 20.716 41.879 21.15C41.879 21.445 41.8959 21.732 41.9319 22.01C41.9669 22.29 42.024 22.558 42.102 22.813H40.889L40.644 21.906H40.5159C40.3319 22.178 40.0979 22.41 39.8139 22.604C39.5299 22.798 39.1639 22.894 38.7179 22.894C38.4479 22.894 38.202 22.852 37.978 22.767C37.755 22.682 37.563 22.56 37.403 22.401C37.243 22.241 37.1199 22.054 37.0309 21.836C36.9419 21.619 36.8979 21.383 36.8979 21.126C36.8979 20.436 37.1089 19.916 37.5309 19.562C37.9529 19.21 38.594 19.033 39.452 19.033C39.651 19.033 39.849 19.051 40.048 19.086L40.463 19.161C40.484 18.998 40.4949 18.859 40.4949 18.742C40.4949 18.448 40.4279 18.231 40.2929 18.092C40.1579 17.952 39.9059 17.882 39.5369 17.882C39.1969 17.882 38.865 17.926 38.542 18.016C38.219 18.105 37.934 18.216 37.685 18.347L37.292 17.114V17.114ZM39.2389 21.592C39.5729 21.592 39.8389 21.507 40.0369 21.336C40.2369 21.166 40.3819 20.987 40.4739 20.801V20.103C40.4379 20.088 40.3839 20.073 40.3089 20.057C40.2339 20.041 40.1529 20.026 40.0639 20.01C39.9749 19.995 39.887 19.983 39.798 19.975C39.709 19.968 39.6289 19.964 39.5579 19.964C39.1749 19.964 38.892 20.04 38.708 20.191C38.523 20.341 38.43 20.53 38.43 20.755C38.43 21.034 38.5029 21.243 38.6489 21.383C38.7939 21.523 38.9909 21.593 39.2389 21.593V21.592Z" fill="#0088EE"/>
<path fill-rule="evenodd" clip-rule="evenodd" d="M43.5419 21.177C43.6479 21.23 43.7719 21.283 43.9119 21.336C44.0519 21.389 44.2049 21.438 44.3679 21.484C44.5309 21.529 44.6979 21.567 44.8689 21.598C45.0399 21.628 45.2129 21.643 45.3879 21.643C45.6539 21.643 45.8609 21.601 46.0079 21.518C46.1569 21.434 46.2309 21.279 46.2309 21.051C46.2309 20.869 46.1319 20.735 45.9349 20.647C45.7369 20.56 45.4949 20.475 45.2049 20.391C44.9929 20.331 44.7709 20.259 44.5389 20.175C44.3069 20.092 44.0939 19.98 43.9009 19.839C43.7069 19.699 43.5469 19.515 43.4219 19.288C43.2969 19.06 43.2339 18.772 43.2339 18.423C43.2339 17.823 43.4199 17.366 43.7919 17.051C44.1649 16.737 44.6999 16.579 45.3989 16.579C45.8549 16.579 46.2819 16.619 46.6809 16.699C47.0809 16.779 47.4009 16.871 47.6439 16.977L47.3139 18.184C47.1159 18.108 46.8639 18.03 46.5559 17.95C46.2479 17.87 45.9349 17.83 45.6159 17.83C45.3499 17.83 45.1519 17.87 45.0229 17.95C44.8939 18.03 44.8289 18.169 44.8289 18.366C44.8289 18.54 44.9299 18.671 45.1309 18.758C45.3329 18.846 45.5779 18.931 45.8669 19.014C46.0789 19.075 46.3009 19.145 46.5329 19.224C46.7649 19.304 46.9759 19.413 47.1659 19.549C47.3559 19.686 47.5129 19.862 47.6389 20.079C47.7639 20.295 47.8269 20.566 47.8269 20.892C47.8269 21.529 47.6199 22.022 47.2059 22.372C46.7909 22.72 46.1699 22.895 45.3419 22.895C44.8939 22.895 44.4759 22.855 44.0889 22.775C43.7009 22.695 43.3859 22.58 43.1429 22.428L43.5419 21.176V21.177Z" fill="#22CC22"/>
<path fill-rule="evenodd" clip-rule="evenodd" d="M51.43 19.94L51.676 20.91H51.788L52 19.94L52.994 16.58H54.592L52.648 22.066C52.484 22.52 52.33 22.929 52.184 23.291C52.039 23.652 51.881 23.961 51.71 24.215C51.538 24.469 51.346 24.663 51.134 24.798C50.922 24.933 50.671 25 50.38 25C50.186 25 50.002 24.983 49.827 24.948C49.652 24.913 49.501 24.861 49.375 24.792L49.699 23.545C49.81 23.583 49.926 23.602 50.045 23.602C50.149 23.602 50.25 23.591 50.347 23.568C50.443 23.545 50.533 23.5 50.615 23.435C50.697 23.369 50.773 23.277 50.844 23.158C50.914 23.038 50.976 22.878 51.028 22.678L48.347 16.579H50.235L51.43 19.941V19.94Z" fill="#EE6622"/>
<path fill-rule="evenodd" clip-rule="evenodd" d="M55.5111 21.177C55.6171 21.23 55.7411 21.283 55.8811 21.336C56.0221 21.389 56.1741 21.438 56.3371 21.484C56.5011 21.529 56.6671 21.567 56.8391 21.598C57.0091 21.628 57.1821 21.643 57.3571 21.643C57.6231 21.643 57.8301 21.601 57.9781 21.518C58.1261 21.434 58.2001 21.279 58.2001 21.051C58.2001 20.869 58.1021 20.735 57.9041 20.647C57.7071 20.56 57.4641 20.475 57.1741 20.391C56.9621 20.331 56.7401 20.259 56.5081 20.175C56.2761 20.092 56.0641 19.98 55.8701 19.839C55.6761 19.699 55.5171 19.515 55.3911 19.288C55.2661 19.06 55.2031 18.772 55.2031 18.423C55.2031 17.823 55.3891 17.366 55.7621 17.051C56.1341 16.737 56.6701 16.579 57.3691 16.579C57.8241 16.579 58.2521 16.619 58.6511 16.699C59.0491 16.779 59.3711 16.871 59.6141 16.977L59.2841 18.184C59.0861 18.108 58.8331 18.03 58.5251 17.95C58.2181 17.87 57.9051 17.83 57.5851 17.83C57.3191 17.83 57.1221 17.87 56.9931 17.95C56.8631 18.03 56.7991 18.169 56.7991 18.366C56.7991 18.54 56.8991 18.671 57.1011 18.758C57.3021 18.846 57.5471 18.931 57.8361 19.014C58.0491 19.075 58.2711 19.145 58.5021 19.224C58.7341 19.304 58.9451 19.413 59.1351 19.549C59.3251 19.686 59.4831 19.862 59.6081 20.079C59.7331 20.295 59.7961 20.566 59.7961 20.892C59.7961 21.529 59.5891 22.022 59.1751 22.372C58.7611 22.72 58.1401 22.895 57.3121 22.895C56.8631 22.895 56.4461 22.855 56.0581 22.775C55.6711 22.695 55.3551 22.58 55.1121 22.428L55.5121 21.176L55.5111 21.177Z" fill="#FFCC00"/>
<path fill-rule="evenodd" clip-rule="evenodd" d="M60.837 16.762H61.704V15.946L63.222 15.526V16.762H64.751V18.088H63.221V20.151C63.221 20.628 63.267 20.97 63.358 21.177C63.448 21.385 63.627 21.489 63.894 21.489C64.06 21.489 64.201 21.476 64.317 21.449C64.433 21.423 64.556 21.379 64.686 21.319L65 22.51C64.769 22.616 64.503 22.707 64.203 22.782C63.903 22.858 63.613 22.896 63.33 22.896C62.767 22.896 62.355 22.75 62.094 22.459C61.834 22.169 61.704 21.702 61.704 21.059V18.089H60.837V16.763V16.762Z" fill="#55DDDD"/>
<path d="M0 110C0 107.239 2.239 105 5 105H126C128.761 105 131 107.239 131 110V180C131 182.761 128.761 185 126 185H5C2.239 185 0 182.761 0 180V110Z" fill="#FFE2C7"/>
<path d="M5 105C5 102.239 7.239 100 10 100H131C133.761 100 136 102.239 136 105V175C136 177.761 133.761 180 131 180H10C7.239 180 5 177.761 5 175V105Z" fill="#FFEFE0"/>
<path d="M81.3203 163.564L81.9902 160.023H83.0122L81.9082 165H80.876L80.0659 161.671L79.2559 165H78.2236L77.1196 160.023H78.1416L78.8149 163.558L79.6353 160.023H80.5034L81.3203 163.564Z" fill="black"/>
<path d="M85.0972 165.068C84.5549 165.068 84.1128 164.902 83.771 164.569C83.4315 164.237 83.2617 163.793 83.2617 163.24V163.144C83.2617 162.773 83.3335 162.441 83.4771 162.149C83.6206 161.855 83.8234 161.63 84.0854 161.473C84.3498 161.313 84.6506 161.233 84.9878 161.233C85.4937 161.233 85.8913 161.393 86.1807 161.712C86.4723 162.031 86.6182 162.483 86.6182 163.069V163.472H84.2632C84.2951 163.714 84.3908 163.907 84.5503 164.053C84.7121 164.199 84.916 164.272 85.1621 164.272C85.5426 164.272 85.84 164.134 86.0542 163.858L86.5396 164.402C86.3914 164.611 86.1909 164.776 85.938 164.894C85.6851 165.01 85.4048 165.068 85.0972 165.068ZM84.9844 162.033C84.7884 162.033 84.6289 162.099 84.5059 162.231C84.3851 162.364 84.3076 162.553 84.2734 162.799H85.6475V162.72C85.6429 162.501 85.5837 162.333 85.4697 162.214C85.3558 162.094 85.194 162.033 84.9844 162.033Z" fill="black"/>
<path d="M90.5146 163.185C90.5146 163.778 90.3882 164.24 90.1353 164.573C89.8823 164.903 89.5291 165.068 89.0757 165.068C88.6746 165.068 88.3545 164.915 88.1152 164.607L88.0708 165H87.1821V159.75H88.1699V161.633C88.3978 161.367 88.6974 161.233 89.0688 161.233C89.52 161.233 89.8732 161.4 90.1284 161.732C90.3859 162.063 90.5146 162.529 90.5146 163.13V163.185ZM89.5269 163.113C89.5269 162.74 89.4676 162.467 89.3491 162.296C89.2306 162.123 89.054 162.037 88.8193 162.037C88.5049 162.037 88.2884 162.165 88.1699 162.423V163.882C88.2907 164.142 88.5094 164.272 88.8262 164.272C89.1452 164.272 89.3548 164.115 89.4551 163.8C89.5029 163.65 89.5269 163.421 89.5269 163.113Z" fill="black"/>
<path d="M93.2695 165C93.224 164.911 93.1909 164.801 93.1704 164.668C92.9312 164.935 92.6201 165.068 92.2373 165.068C91.875 165.068 91.5742 164.964 91.335 164.754C91.098 164.544 90.9795 164.28 90.9795 163.961C90.9795 163.569 91.1242 163.268 91.4136 163.059C91.7052 162.849 92.1257 162.743 92.6748 162.741H93.1294V162.529C93.1294 162.358 93.085 162.221 92.9961 162.119C92.9095 162.016 92.7716 161.965 92.5825 161.965C92.4162 161.965 92.2852 162.005 92.1895 162.084C92.096 162.164 92.0493 162.274 92.0493 162.413H91.0615C91.0615 162.198 91.1276 162 91.2598 161.818C91.3919 161.636 91.5788 161.493 91.8203 161.391C92.0618 161.286 92.333 161.233 92.6338 161.233C93.0895 161.233 93.4507 161.348 93.7173 161.579C93.9862 161.806 94.1206 162.128 94.1206 162.542V164.146C94.1229 164.496 94.1719 164.762 94.2676 164.942V165H93.2695ZM92.4526 164.313C92.5985 164.313 92.7329 164.281 92.856 164.217C92.979 164.151 93.0701 164.063 93.1294 163.954V163.318H92.7603C92.2658 163.318 92.0026 163.489 91.9707 163.831L91.9673 163.889C91.9673 164.012 92.0106 164.114 92.0972 164.193C92.1838 164.273 92.3022 164.313 92.4526 164.313Z" fill="black"/>
<path d="M96.8823 163.978C96.8823 163.857 96.8219 163.763 96.7012 163.694C96.5827 163.624 96.3913 163.561 96.127 163.506C95.2474 163.322 94.8076 162.948 94.8076 162.385C94.8076 162.057 94.9432 161.784 95.2144 161.565C95.4878 161.344 95.8444 161.233 96.2842 161.233C96.7536 161.233 97.1284 161.344 97.4087 161.565C97.6912 161.786 97.8325 162.073 97.8325 162.426H96.8447C96.8447 162.285 96.7992 162.169 96.708 162.078C96.6169 161.984 96.4744 161.938 96.2808 161.938C96.1144 161.938 95.9857 161.975 95.8945 162.05C95.8034 162.125 95.7578 162.221 95.7578 162.337C95.7578 162.447 95.8091 162.536 95.9116 162.604C96.0164 162.67 96.1919 162.728 96.438 162.778C96.6841 162.826 96.8914 162.881 97.0601 162.942C97.5819 163.134 97.8428 163.465 97.8428 163.937C97.8428 164.274 97.6981 164.548 97.4087 164.757C97.1193 164.965 96.7456 165.068 96.2876 165.068C95.9777 165.068 95.702 165.014 95.4604 164.904C95.2212 164.793 95.0332 164.641 94.8965 164.45C94.7598 164.256 94.6914 164.048 94.6914 163.824H95.6279C95.637 164 95.702 164.134 95.8228 164.228C95.9435 164.321 96.1053 164.368 96.3081 164.368C96.4972 164.368 96.6396 164.332 96.7354 164.262C96.8333 164.189 96.8823 164.094 96.8823 163.978Z" fill="black"/>
<path d="M99.8628 163.602L100.546 161.302H101.606L100.119 165.574L100.037 165.769C99.8161 166.252 99.4515 166.494 98.9434 166.494C98.7998 166.494 98.654 166.472 98.5059 166.429V165.68L98.6562 165.684C98.8431 165.684 98.9821 165.655 99.0732 165.598C99.1667 165.541 99.2396 165.447 99.292 165.314L99.4082 165.01L98.1128 161.302H99.1758L99.8628 163.602Z" fill="black"/>
<path d="M103.999 163.978C103.999 163.857 103.938 163.763 103.817 163.694C103.699 163.624 103.507 163.561 103.243 163.506C102.364 163.322 101.924 162.948 101.924 162.385C101.924 162.057 102.059 161.784 102.331 161.565C102.604 161.344 102.961 161.233 103.4 161.233C103.87 161.233 104.245 161.344 104.525 161.565C104.807 161.786 104.949 162.073 104.949 162.426H103.961C103.961 162.285 103.915 162.169 103.824 162.078C103.733 161.984 103.591 161.938 103.397 161.938C103.231 161.938 103.102 161.975 103.011 162.05C102.92 162.125 102.874 162.221 102.874 162.337C102.874 162.447 102.925 162.536 103.028 162.604C103.133 162.67 103.308 162.728 103.554 162.778C103.8 162.826 104.008 162.881 104.176 162.942C104.698 163.134 104.959 163.465 104.959 163.937C104.959 164.274 104.814 164.548 104.525 164.757C104.236 164.965 103.862 165.068 103.404 165.068C103.094 165.068 102.818 165.014 102.577 164.904C102.337 164.793 102.149 164.641 102.013 164.45C101.876 164.256 101.808 164.048 101.808 163.824H102.744C102.753 164 102.818 164.134 102.939 164.228C103.06 164.321 103.222 164.368 103.424 164.368C103.613 164.368 103.756 164.332 103.852 164.262C103.95 164.189 103.999 164.094 103.999 163.978Z" fill="black"/>
<path d="M106.781 160.393V161.302H107.413V162.026H106.781V163.872C106.781 164.009 106.807 164.107 106.859 164.166C106.912 164.225 107.012 164.255 107.16 164.255C107.27 164.255 107.366 164.247 107.451 164.231V164.979C107.257 165.039 107.058 165.068 106.853 165.068C106.16 165.068 105.807 164.719 105.793 164.019V162.026H105.253V161.302H105.793V160.393H106.781Z" fill="black"/>
<path d="M110.862 165H109.836V160.023H110.862V165Z" fill="black"/>
<path d="M111.815 165V160.023H113.347C113.784 160.023 114.175 160.123 114.519 160.321C114.865 160.517 115.135 160.797 115.329 161.162C115.523 161.524 115.62 161.936 115.62 162.399V162.628C115.62 163.09 115.524 163.502 115.333 163.862C115.143 164.222 114.876 164.501 114.529 164.699C114.183 164.897 113.792 164.998 113.357 165H111.815ZM112.841 160.854V164.176H113.336C113.737 164.176 114.044 164.045 114.256 163.783C114.468 163.521 114.576 163.146 114.581 162.659V162.396C114.581 161.89 114.476 161.507 114.266 161.247C114.056 160.985 113.75 160.854 113.347 160.854H112.841Z" fill="black"/>
<path opacity="0.2" fill-rule="evenodd" clip-rule="evenodd" d="M66.7083 156C63.0388 156 60 159.099 60 163C60 166.901 63.0388 170 66.7083 170H116.292C119.961 170 123 166.901 123 163C123 159.099 119.961 156 116.292 156H66.7083ZM66.7083 155C62.4518 155 59 158.582 59 163C59 167.418 62.4518 171 66.7083 171H116.292C120.548 171 124 167.418 124 163C124 158.582 120.548 155 116.292 155H66.7083Z" fill="black"/>
<g clip-path="url(#clip0)">
<path d="M67.1376 159.511C66.9145 159.264 66.5326 159.255 66.2986 159.492C66.0644 159.728 66.0731 160.115 66.3177 160.34L67.9745 161.869C68.1635 162.043 68.4545 162.036 68.6354 161.854C68.8165 161.671 68.8232 161.376 68.6504 161.185L67.1376 159.511Z" fill="#0088EE"/>
<path d="M69.861 158C69.5304 158 69.2659 158.279 69.281 158.614L69.3829 160.878C69.3945 161.137 69.6055 161.34 69.861 161.34C70.1165 161.34 70.3275 161.137 70.3391 160.878L70.441 158.614C70.4561 158.279 70.1916 158 69.861 158Z" fill="#22CC22"/>
<path d="M73.4199 159.492C73.1858 159.255 72.804 159.264 72.5808 159.511L71.0681 161.185C70.8953 161.376 70.902 161.671 71.0831 161.854C71.264 162.036 71.555 162.043 71.7439 161.869L73.4008 160.34C73.6454 160.115 73.6541 159.728 73.4199 159.492Z" fill="#EE6622"/>
<path d="M74.8978 163.09C74.8978 162.755 74.6211 162.488 74.2908 162.503L72.0496 162.606C71.7943 162.618 71.5927 162.831 71.5927 163.09C71.5927 163.349 71.7943 163.562 72.0496 163.573L74.2908 163.676C74.6211 163.691 74.8978 163.425 74.8978 163.09Z" fill="#FFCC00"/>
<path d="M71.7439 164.312C71.555 164.138 71.264 164.145 71.0831 164.327C70.902 164.51 70.8953 164.805 71.0681 164.996L72.5808 166.67C72.804 166.917 73.1858 166.926 73.4199 166.689C73.6541 166.453 73.6454 166.066 73.4008 165.841L71.7439 164.312Z" fill="#55DDDD"/>
<path d="M70.2871 162.657C70.1066 162.475 69.8153 162.471 69.63 162.648L65.1988 166.889C64.9386 167.138 64.9331 167.555 65.1865 167.812C65.4397 168.067 65.8518 168.062 66.0981 167.799L70.296 163.322C70.4718 163.135 70.4679 162.84 70.2871 162.657Z" fill="black"/>
</g>
<path d="M15 130C15 127.791 16.79 126 19 126H120C122.21 126 124 127.791 124 130C124 132.209 122.21 134 120 134H19C16.79 134 15 132.209 15 130ZM15 144C15 141.791 16.79 140 19 140H120C122.21 140 124 141.791 124 144C124 146.209 122.21 148 120 148H19C16.79 148 15 146.209 15 144Z" fill="black" fill-opacity="0.07"/>
<path d="M20.479 114.514C20.361 113.288 19.507 112.497 18.081 112.497C16.397 112.497 15.449 113.508 15.449 115.295C15.449 117.102 16.401 118.117 18.081 118.117C19.482 118.117 20.361 117.341 20.479 116.135H19.15C19.043 116.667 18.662 116.95 18.081 116.95C17.319 116.95 16.885 116.369 16.885 115.295C16.885 114.235 17.315 113.664 18.081 113.664C18.686 113.664 19.053 114.001 19.151 114.514H20.479ZM21.64 118H23.061V110.559H21.641V118H21.64ZM24.55 118H25.972V112.614H24.55V118ZM25.264 111.862C25.772 111.862 26.104 111.564 26.104 111.145C26.104 110.72 25.772 110.427 25.264 110.427C24.751 110.427 24.424 110.72 24.424 111.145C24.424 111.564 24.751 111.862 25.264 111.862ZM29.741 113.586C30.405 113.586 30.835 114.03 30.864 114.743H28.57C28.62 114.045 29.083 113.586 29.742 113.586H29.741ZM30.894 116.467C30.742 116.823 30.356 117.023 29.794 117.023C29.053 117.023 28.584 116.525 28.564 115.725V115.651H32.261V115.217C32.261 113.508 31.323 112.497 29.736 112.497C28.135 112.497 27.148 113.581 27.148 115.334C27.148 117.082 28.115 118.117 29.756 118.117C31.074 118.117 32.002 117.482 32.216 116.467H30.894V116.467ZM33.428 118H34.848V114.895C34.848 114.187 35.254 113.723 35.913 113.723C36.587 113.723 36.904 114.113 36.904 114.855V118H38.325V114.519C38.325 113.229 37.681 112.497 36.485 112.497C35.688 112.497 35.142 112.873 34.893 113.479H34.805V112.614H33.428V118V118ZM40.112 111.335V112.668H39.272V113.786H40.112V116.545C40.112 117.595 40.63 118.02 41.938 118.02C42.212 118.02 42.476 117.99 42.651 117.956V116.872C42.515 116.887 42.417 116.892 42.231 116.892C41.748 116.892 41.533 116.677 41.533 116.208V113.786H42.651V112.668H41.533V111.335H40.113H40.112ZM45.727 118.083C46.475 118.083 47.085 117.736 47.373 117.155H47.461V118H48.838V110.559H47.417V113.474H47.334C47.056 112.878 46.455 112.526 45.727 112.526C44.375 112.526 43.535 113.586 43.535 115.3C43.535 117.019 44.37 118.083 45.728 118.083H45.727ZM46.211 113.718C46.968 113.718 47.431 114.328 47.431 115.31C47.431 116.296 46.973 116.896 46.211 116.896C45.449 116.896 44.995 116.301 44.995 115.305C44.995 114.318 45.455 113.718 46.211 113.718ZM52.7 118.117C54.355 118.117 55.352 117.067 55.352 115.305C55.352 113.557 54.341 112.497 52.7 112.497C51.06 112.497 50.049 113.562 50.049 115.305C50.049 117.067 51.045 118.117 52.7 118.117ZM52.7 116.955C51.938 116.955 51.509 116.354 51.509 115.305C51.509 114.27 51.943 113.659 52.7 113.659C53.452 113.659 53.892 114.27 53.892 115.305C53.892 116.35 53.457 116.955 52.7 116.955ZM56.514 118H57.934V114.758C57.934 114.157 58.33 113.723 58.887 113.723C59.443 113.723 59.775 114.05 59.775 114.621V118H61.143V114.704C61.143 114.133 61.513 113.723 62.09 113.723C62.69 113.723 62.988 114.04 62.988 114.68V118H64.409V114.304C64.409 113.195 63.74 112.497 62.666 112.497C61.914 112.497 61.294 112.893 61.045 113.493H60.957C60.742 112.868 60.225 112.497 59.467 112.497C58.76 112.497 58.198 112.878 57.978 113.493H57.891V112.614H56.514V118V118ZM67.734 117.014C67.241 117.014 66.894 116.77 66.894 116.369C66.894 115.983 67.192 115.764 67.803 115.72L68.892 115.651V116.047C68.892 116.594 68.394 117.014 67.734 117.014ZM67.266 118.083C67.964 118.083 68.55 117.79 68.828 117.297H68.916V118H70.293V114.323C70.293 113.171 69.487 112.497 68.061 112.497C66.709 112.497 65.796 113.122 65.703 114.118H67.012C67.129 113.796 67.471 113.62 67.983 113.62C68.569 113.62 68.892 113.874 68.892 114.323V114.763L67.588 114.841C66.25 114.919 65.503 115.485 65.503 116.462C65.503 117.448 66.231 118.083 67.266 118.083V118.083ZM71.7 118H73.12V112.614H71.7V118ZM72.412 111.862C72.92 111.862 73.252 111.564 73.252 111.145C73.252 110.72 72.92 110.427 72.412 110.427C71.899 110.427 71.572 110.72 71.572 111.145C71.572 111.564 71.899 111.862 72.412 111.862ZM74.56 118H75.981V114.895C75.981 114.187 76.387 113.723 77.046 113.723C77.72 113.723 78.037 114.113 78.037 114.855V118H79.458V114.519C79.458 113.229 78.814 112.497 77.618 112.497C76.821 112.497 76.274 112.873 76.025 113.479H75.937V112.614H74.561V118H74.56ZM81.865 118.132C82.393 118.132 82.73 117.775 82.73 117.282C82.73 116.789 82.393 116.438 81.865 116.438C81.343 116.438 81.001 116.789 81.001 117.282C81.001 117.775 81.343 118.132 81.865 118.132ZM84.326 118H85.747V112.614H84.327V118H84.326ZM85.039 111.862C85.547 111.862 85.879 111.564 85.879 111.145C85.879 110.72 85.547 110.427 85.039 110.427C84.526 110.427 84.199 110.72 84.199 111.145C84.199 111.564 84.526 111.862 85.039 111.862ZM89.575 118.117C91.231 118.117 92.227 117.067 92.227 115.305C92.227 113.557 91.216 112.497 89.575 112.497C87.935 112.497 86.924 113.562 86.924 115.305C86.924 117.067 87.92 118.117 89.575 118.117ZM89.575 116.955C88.814 116.955 88.384 116.354 88.384 115.305C88.384 114.27 88.818 113.659 89.575 113.659C90.327 113.659 90.767 114.27 90.767 115.305C90.767 116.35 90.332 116.955 89.575 116.955Z" fill="black" fill-opacity="0.4"/>
<path d="M15 163.5C15 159.359 18.4072 156 22.6087 156H45.3913C49.5928 156 53 159.359 53 163.5C53 167.641 49.5928 171 45.3913 171H22.6087C18.4072 171 15 167.641 15 163.5Z" fill="#FFB066"/>
<path d="M157 111C157 108.239 159.239 106 162 106H212C214.761 106 217 108.239 217 111V181C217 183.761 214.761 186 212 186H162C159.239 186 157 183.761 157 181V111Z" fill="#DDDDDD"/>
<path d="M152 105C152 102.239 154.239 100 157 100H207C209.761 100 212 102.239 212 105V175C212 177.761 209.761 180 207 180H157C154.239 180 152 177.761 152 175V105Z" fill="#EEEEEE"/>
<path d="M162 130C162 127.791 163.791 126 166 126H196C198.209 126 200 127.791 200 130C200 132.209 198.209 134 196 134H166C163.791 134 162 132.209 162 130ZM162 144C162 141.791 163.791 140 166 140H196C198.209 140 200 141.791 200 144C200 146.209 198.209 148 196 148H166C163.791 148 162 146.209 162 144Z" fill="black" fill-opacity="0.07"/>
<path d="M167.381 118H168.978L166.531 110.954H164.798L162.352 118H163.831L164.373 116.32H166.849L167.381 118V118ZM165.574 112.419H165.662L166.536 115.183H164.69L165.574 112.419V112.419ZM170.037 118H171.458V114.895C171.458 114.187 171.863 113.723 172.522 113.723C173.196 113.723 173.514 114.113 173.514 114.855V118H174.935V114.519C174.935 113.229 174.29 112.497 173.094 112.497C172.298 112.497 171.751 112.873 171.502 113.479H171.414V112.614H170.037V118V118ZM178.245 118.083C178.992 118.083 179.603 117.736 179.891 117.155H179.979V118H181.355V110.559H179.935V113.474H179.852C179.573 112.878 178.973 112.526 178.245 112.526C176.893 112.526 176.053 113.586 176.053 115.3C176.053 117.019 176.888 118.083 178.245 118.083V118.083ZM178.729 113.718C179.485 113.718 179.949 114.328 179.949 115.31C179.949 116.296 179.49 116.896 178.729 116.896C177.967 116.896 177.513 116.301 177.513 115.305C177.513 114.318 177.972 113.718 178.729 113.718ZM182.83 118H184.251V115.017C184.251 114.26 184.783 113.801 185.56 113.801C185.789 113.801 186.121 113.845 186.233 113.889V112.595C186.111 112.551 185.872 112.526 185.677 112.526C184.993 112.526 184.437 112.937 184.295 113.474H184.207V112.614H182.83V118V118ZM189.446 118.117C191.102 118.117 192.098 117.067 192.098 115.305C192.098 113.557 191.087 112.497 189.446 112.497C187.806 112.497 186.795 113.562 186.795 115.305C186.795 117.067 187.791 118.117 189.446 118.117ZM189.446 116.955C188.685 116.955 188.255 116.354 188.255 115.305C188.255 114.27 188.689 113.659 189.446 113.659C190.198 113.659 190.638 114.27 190.638 115.305C190.638 116.35 190.203 116.955 189.446 116.955ZM193.27 118H194.69V112.614H193.27V118ZM193.982 111.862C194.49 111.862 194.822 111.564 194.822 111.145C194.822 110.72 194.49 110.427 193.982 110.427C193.47 110.427 193.143 110.72 193.143 111.145C193.143 111.564 193.47 111.862 193.982 111.862ZM198.06 118.083C198.807 118.083 199.417 117.736 199.705 117.155H199.793V118H201.17V110.559H199.749V113.474H199.666C199.388 112.878 198.787 112.526 198.06 112.526C196.707 112.526 195.867 113.586 195.867 115.3C195.867 117.019 196.702 118.083 198.06 118.083V118.083ZM198.543 113.718C199.3 113.718 199.764 114.328 199.764 115.31C199.764 116.296 199.305 116.896 198.543 116.896C197.781 116.896 197.327 116.301 197.327 115.305C197.327 114.318 197.786 113.718 198.543 113.718Z" fill="black" fill-opacity="0.4"/>
<path d="M162 162C162 158.687 164.726 156 168.087 156L175.913 156C179.274 156 182 158.687 182 162C182 165.313 179.274 168 175.913 168L168.087 168C164.726 168 162 165.313 162 162Z" fill="#AAAAAA"/>
<path d="M228 111C228 108.239 230.239 106 233 106H283C285.761 106 288 108.239 288 111V181C288 183.761 285.761 186 283 186H233C230.239 186 228 183.761 228 181V111Z" fill="#DDDDDD"/>
<path d="M223 105C223 102.239 225.239 100 228 100H278C280.761 100 283 102.239 283 105V175C283 177.761 280.761 180 278 180H228C225.239 180 223 177.761 223 175V105Z" fill="#EEEEEE"/>
<path d="M233 130C233 127.791 234.791 126 237 126H267C269.209 126 271 127.791 271 130C271 132.209 269.209 134 267 134H237C234.791 134 233 132.209 233 130ZM233 144C233 141.791 234.791 140 237 140H267C269.209 140 271 141.791 271 144C271 146.209 269.209 148 267 148H237C234.791 148 233 146.209 233 144Z" fill="black" fill-opacity="0.07"/>
<path d="M233.723 118H235.144V112.614H233.723V118ZM234.436 111.862C234.943 111.862 235.275 111.564 235.275 111.145C235.275 110.72 234.943 110.427 234.436 110.427C233.923 110.427 233.596 110.72 233.596 111.145C233.596 111.564 233.923 111.862 234.436 111.862ZM239.807 110.773C237.736 110.773 236.413 112.189 236.413 114.475C236.413 116.76 237.717 118.181 239.807 118.181C241.892 118.181 243.19 116.76 243.19 114.475C243.19 112.194 241.887 110.773 239.807 110.773ZM239.807 112.067C240.954 112.067 241.687 113 241.687 114.475C241.687 115.944 240.954 116.887 239.807 116.887C238.649 116.887 237.922 115.944 237.922 114.475C237.922 113 238.664 112.067 239.807 112.067ZM244.27 116.042C244.323 117.355 245.412 118.181 247.092 118.181C248.859 118.181 249.948 117.312 249.948 115.891C249.948 114.797 249.338 114.187 247.922 113.889L247.072 113.708C246.247 113.532 245.91 113.283 245.91 112.849C245.91 112.312 246.398 111.97 247.136 111.97C247.849 111.97 248.366 112.341 248.435 112.897H249.821C249.777 111.643 248.679 110.773 247.126 110.773C245.5 110.773 244.431 111.647 244.431 112.976C244.431 114.05 245.061 114.719 246.345 114.987L247.263 115.183C248.127 115.368 248.479 115.627 248.479 116.076C248.479 116.608 247.937 116.979 247.17 116.979C246.34 116.979 245.764 116.613 245.695 116.042H244.27V116.042Z" fill="black" fill-opacity="0.4"/>
<path d="M157 5C157 2.239 159.239 0 162 0H283C285.761 0 288 2.239 288 5V75C288 77.761 285.761 80 283 80H162C159.239 80 157 77.761 157 75V5Z" fill="#CCDAFF"/>
<path d="M152 10C152 7.239 154.239 5 157 5H278C280.761 5 283 7.239 283 10V80C283 82.761 280.761 85 278 85H157C154.239 85 152 82.761 152 80V10Z" fill="#E6ECFF"/>
<path d="M228.32 69.5645L228.99 66.0234H230.012L228.908 71H227.876L227.066 67.6709L226.256 71H225.224L224.12 66.0234H225.142L225.815 69.5576L226.635 66.0234H227.503L228.32 69.5645Z" fill="black"/>
<path d="M232.097 71.0684C231.555 71.0684 231.113 70.902 230.771 70.5693C230.431 70.2367 230.262 69.7935 230.262 69.2397V69.144C230.262 68.7726 230.333 68.4411 230.477 68.1494C230.621 67.8555 230.823 67.6299 231.085 67.4727C231.35 67.3132 231.651 67.2334 231.988 67.2334C232.494 67.2334 232.891 67.3929 233.181 67.7119C233.472 68.0309 233.618 68.4832 233.618 69.0688V69.4722H231.263C231.295 69.7137 231.391 69.9074 231.55 70.0532C231.712 70.1991 231.916 70.272 232.162 70.272C232.543 70.272 232.84 70.1341 233.054 69.8584L233.54 70.4019C233.391 70.6115 233.191 70.7756 232.938 70.894C232.685 71.0103 232.405 71.0684 232.097 71.0684ZM231.984 68.0332C231.788 68.0332 231.629 68.0993 231.506 68.2314C231.385 68.3636 231.308 68.5527 231.273 68.7988H232.647V68.7202C232.643 68.5015 232.584 68.3328 232.47 68.2144C232.356 68.0936 232.194 68.0332 231.984 68.0332Z" fill="black"/>
<path d="M237.515 69.1851C237.515 69.7775 237.388 70.2401 237.135 70.5728C236.882 70.9032 236.529 71.0684 236.076 71.0684C235.675 71.0684 235.354 70.9146 235.115 70.6069L235.071 71H234.182V65.75H235.17V67.6333C235.398 67.3667 235.697 67.2334 236.069 67.2334C236.52 67.2334 236.873 67.3997 237.128 67.7324C237.386 68.0628 237.515 68.5288 237.515 69.1304V69.1851ZM236.527 69.1133C236.527 68.7396 236.468 68.4673 236.349 68.2964C236.231 68.1232 236.054 68.0366 235.819 68.0366C235.505 68.0366 235.288 68.1654 235.17 68.4229V69.8823C235.291 70.1421 235.509 70.272 235.826 70.272C236.145 70.272 236.355 70.1147 236.455 69.8003C236.503 69.6499 236.527 69.4209 236.527 69.1133Z" fill="black"/>
<path d="M240.27 71C240.224 70.9111 240.191 70.8006 240.17 70.6685C239.931 70.9351 239.62 71.0684 239.237 71.0684C238.875 71.0684 238.574 70.9635 238.335 70.7539C238.098 70.5443 237.979 70.2799 237.979 69.9609C237.979 69.569 238.124 69.2682 238.414 69.0586C238.705 68.849 239.126 68.743 239.675 68.7407H240.129V68.5288C240.129 68.3579 240.085 68.2212 239.996 68.1187C239.91 68.0161 239.772 67.9648 239.583 67.9648C239.416 67.9648 239.285 68.0047 239.189 68.0845C239.096 68.1642 239.049 68.2736 239.049 68.4126H238.062C238.062 68.1984 238.128 68.0002 238.26 67.8179C238.392 67.6356 238.579 67.4932 238.82 67.3906C239.062 67.2858 239.333 67.2334 239.634 67.2334C240.09 67.2334 240.451 67.3485 240.717 67.5786C240.986 67.8065 241.121 68.1278 241.121 68.5425V70.1455C241.123 70.4964 241.172 70.7619 241.268 70.9419V71H240.27ZM239.453 70.313C239.598 70.313 239.733 70.2811 239.856 70.2173C239.979 70.1512 240.07 70.0635 240.129 69.9541V69.3184H239.76C239.266 69.3184 239.003 69.4893 238.971 69.8311L238.967 69.8892C238.967 70.0122 239.011 70.1136 239.097 70.1934C239.184 70.2731 239.302 70.313 239.453 70.313Z" fill="black"/>
<path d="M243.882 69.978C243.882 69.8573 243.822 69.7627 243.701 69.6943C243.583 69.6237 243.391 69.561 243.127 69.5063C242.247 69.3218 241.808 68.9481 241.808 68.3853C241.808 68.0571 241.943 67.7837 242.214 67.5649C242.488 67.3439 242.844 67.2334 243.284 67.2334C243.754 67.2334 244.128 67.3439 244.409 67.5649C244.691 67.786 244.833 68.0731 244.833 68.4263H243.845C243.845 68.285 243.799 68.1688 243.708 68.0776C243.617 67.9842 243.474 67.9375 243.281 67.9375C243.114 67.9375 242.986 67.9751 242.895 68.0503C242.803 68.1255 242.758 68.2212 242.758 68.3374C242.758 68.4468 242.809 68.5356 242.912 68.604C243.016 68.6701 243.192 68.7282 243.438 68.7783C243.684 68.8262 243.891 68.8809 244.06 68.9424C244.582 69.1338 244.843 69.4653 244.843 69.937C244.843 70.2743 244.698 70.5477 244.409 70.7573C244.119 70.9647 243.746 71.0684 243.288 71.0684C242.978 71.0684 242.702 71.0137 242.46 70.9043C242.221 70.7926 242.033 70.6411 241.896 70.4497C241.76 70.256 241.691 70.0475 241.691 69.8242H242.628C242.637 69.9997 242.702 70.1341 242.823 70.2275C242.944 70.321 243.105 70.3677 243.308 70.3677C243.497 70.3677 243.64 70.3324 243.735 70.2617C243.833 70.1888 243.882 70.0942 243.882 69.978Z" fill="black"/>
<path d="M246.863 69.6021L247.546 67.3018H248.606L247.119 71.5742L247.037 71.769C246.816 72.2521 246.451 72.4937 245.943 72.4937C245.8 72.4937 245.654 72.472 245.506 72.4287V71.6802L245.656 71.6836C245.843 71.6836 245.982 71.6551 246.073 71.5981C246.167 71.5412 246.24 71.4466 246.292 71.3145L246.408 71.0103L245.113 67.3018H246.176L246.863 69.6021Z" fill="black"/>
<path d="M250.999 69.978C250.999 69.8573 250.938 69.7627 250.817 69.6943C250.699 69.6237 250.507 69.561 250.243 69.5063C249.364 69.3218 248.924 68.9481 248.924 68.3853C248.924 68.0571 249.059 67.7837 249.331 67.5649C249.604 67.3439 249.961 67.2334 250.4 67.2334C250.87 67.2334 251.245 67.3439 251.525 67.5649C251.807 67.786 251.949 68.0731 251.949 68.4263H250.961C250.961 68.285 250.915 68.1688 250.824 68.0776C250.733 67.9842 250.591 67.9375 250.397 67.9375C250.231 67.9375 250.102 67.9751 250.011 68.0503C249.92 68.1255 249.874 68.2212 249.874 68.3374C249.874 68.4468 249.925 68.5356 250.028 68.604C250.133 68.6701 250.308 68.7282 250.554 68.7783C250.8 68.8262 251.008 68.8809 251.176 68.9424C251.698 69.1338 251.959 69.4653 251.959 69.937C251.959 70.2743 251.814 70.5477 251.525 70.7573C251.236 70.9647 250.862 71.0684 250.404 71.0684C250.094 71.0684 249.818 71.0137 249.577 70.9043C249.337 70.7926 249.149 70.6411 249.013 70.4497C248.876 70.256 248.808 70.0475 248.808 69.8242H249.744C249.753 69.9997 249.818 70.1341 249.939 70.2275C250.06 70.321 250.222 70.3677 250.424 70.3677C250.613 70.3677 250.756 70.3324 250.852 70.2617C250.95 70.1888 250.999 70.0942 250.999 69.978Z" fill="black"/>
<path d="M253.781 66.3926V67.3018H254.413V68.0264H253.781V69.8721C253.781 70.0088 253.807 70.1068 253.859 70.166C253.912 70.2253 254.012 70.2549 254.16 70.2549C254.27 70.2549 254.366 70.2469 254.451 70.231V70.9795C254.257 71.0387 254.058 71.0684 253.853 71.0684C253.16 71.0684 252.807 70.7186 252.793 70.019V68.0264H252.253V67.3018H252.793V66.3926H253.781Z" fill="black"/>
<path d="M257.862 71H256.836V66.0234H257.862V71Z" fill="black"/>
<path d="M258.815 71V66.0234H260.347C260.784 66.0234 261.175 66.1226 261.519 66.3208C261.865 66.5168 262.135 66.797 262.329 67.1616C262.523 67.5239 262.62 67.9364 262.62 68.3989V68.6279C262.62 69.0905 262.524 69.5018 262.333 69.8618C262.143 70.2218 261.876 70.501 261.529 70.6992C261.183 70.8975 260.792 70.9977 260.357 71H258.815ZM259.841 66.854V70.1763H260.336C260.737 70.1763 261.044 70.0452 261.256 69.7832C261.468 69.5212 261.576 69.1463 261.581 68.6587V68.3955C261.581 67.8896 261.476 67.5068 261.266 67.2471C261.056 66.985 260.75 66.854 260.347 66.854H259.841Z" fill="black"/>
<path opacity="0.2" fill-rule="evenodd" clip-rule="evenodd" d="M213.708 62C210.039 62 207 65.0994 207 69C207 72.9006 210.039 76 213.708 76H263.292C266.961 76 270 72.9006 270 69C270 65.0994 266.961 62 263.292 62H213.708ZM213.708 61C209.452 61 206 64.5824 206 69C206 73.4176 209.452 77 213.708 77H263.292C267.548 77 271 73.4176 271 69C271 64.5824 267.548 61 263.292 61H213.708Z" fill="black"/>
<g clip-path="url(#clip1)">
<path d="M214.138 65.5108C213.914 65.2638 213.533 65.2551 213.299 65.4915C213.064 65.7282 213.073 66.1148 213.318 66.3404L214.975 67.8689C215.163 68.0431 215.454 68.0365 215.635 67.8537C215.817 67.6707 215.823 67.3759 215.65 67.1848L214.138 65.5108Z" fill="#0088EE"/>
<path d="M216.861 64C216.53 64 216.266 64.2789 216.281 64.6137L216.383 66.8782C216.395 67.137 216.606 67.3402 216.861 67.3402C217.117 67.3402 217.327 67.137 217.339 66.8782L217.441 64.6137C217.456 64.2789 217.192 64 216.861 64Z" fill="#22CC22"/>
<path d="M220.42 65.4915C220.186 65.2551 219.804 65.2638 219.581 65.5108L218.068 67.1848C217.895 67.3759 217.902 67.6707 218.083 67.8537C218.264 68.0365 218.555 68.0431 218.744 67.8689L220.401 66.3404C220.645 66.1148 220.654 65.7282 220.42 65.4915Z" fill="#EE6622"/>
<path d="M221.898 69.0898C221.898 68.7547 221.621 68.4882 221.291 68.5034L219.05 68.6063C218.794 68.618 218.593 68.8307 218.593 69.0898C218.593 69.3489 218.794 69.5616 219.05 69.5733L221.291 69.6762C221.621 69.6914 221.898 69.4249 221.898 69.0898Z" fill="#FFCC00"/>
<path d="M218.744 70.3121C218.555 70.1379 218.264 70.1445 218.083 70.3273C217.902 70.5103 217.895 70.8051 218.068 70.9962L219.581 72.6702C219.804 72.9172 220.186 72.9259 220.42 72.6895C220.654 72.4528 220.645 72.0662 220.401 71.8406L218.744 70.3121Z" fill="#55DDDD"/>
<path d="M217.287 68.6569C217.107 68.4745 216.815 68.4706 216.63 68.648L212.199 72.8893C211.939 73.1384 211.933 73.5555 212.187 73.8115C212.44 74.0674 212.852 74.0618 213.098 73.7991L217.296 69.3221C217.472 69.1346 217.468 68.8396 217.287 68.6569Z" fill="black"/>
</g>
<path d="M162 35C162 32.79 163.791 31 166 31H266.5C268.709 31 270.5 32.79 270.5 35C270.5 37.21 268.709 39 266.5 39H166C163.791 39 162 37.21 162 35ZM162 49C162 46.79 163.791 45 166 45H266.5C268.709 45 270.5 46.79 270.5 49C270.5 51.21 268.709 53 266.5 53H166C163.791 53 162 51.21 162 49Z" fill="black" fill-opacity="0.07"/>
<path d="M163.382 24.958C164.725 24.958 165.384 24.47 165.843 23.083L167.698 17.614H166.194L165.062 21.696H164.974L163.841 17.614H162.273L164.163 23.034L164.114 23.23C163.997 23.64 163.694 23.81 163.162 23.81C163.104 23.81 162.889 23.81 162.84 23.8V24.943C162.898 24.953 163.328 24.958 163.382 24.958V24.958ZM170.853 23.117C172.508 23.117 173.504 22.067 173.504 20.305C173.504 18.557 172.493 17.497 170.853 17.497C169.212 17.497 168.201 18.561 168.201 20.305C168.201 22.067 169.197 23.117 170.853 23.117ZM170.853 21.955C170.091 21.955 169.661 21.355 169.661 20.305C169.661 19.27 170.096 18.659 170.853 18.659C171.604 18.659 172.044 19.269 172.044 20.305C172.044 21.35 171.609 21.955 170.853 21.955ZM179.539 17.614H178.118V20.72C178.118 21.438 177.737 21.882 177.029 21.882C176.375 21.882 176.038 21.501 176.038 20.759V17.614H174.617V21.125C174.617 22.375 175.34 23.117 176.502 23.117C177.317 23.117 177.82 22.761 178.074 22.136H178.162V23H179.539V17.614ZM180.965 23H182.386V20.017C182.386 19.26 182.918 18.801 183.694 18.801C183.924 18.801 184.256 18.845 184.368 18.889V17.595C184.246 17.551 184.007 17.526 183.812 17.526C183.128 17.526 182.571 17.936 182.43 18.474H182.342V17.614H180.965V23V23ZM187.122 23.083C187.869 23.083 188.479 22.736 188.768 22.155H188.855V23H190.232V15.559H188.812V18.474H188.729C188.45 17.878 187.85 17.526 187.122 17.526C185.77 17.526 184.93 18.586 184.93 20.3C184.93 22.019 185.765 23.083 187.122 23.083V23.083ZM187.605 18.718C188.362 18.718 188.826 19.328 188.826 20.31C188.826 21.296 188.367 21.897 187.605 21.897C186.844 21.897 186.39 21.301 186.39 20.305C186.39 19.318 186.849 18.718 187.605 18.718ZM194.095 23.117C195.75 23.117 196.746 22.067 196.746 20.305C196.746 18.557 195.735 17.497 194.095 17.497C192.454 17.497 191.443 18.561 191.443 20.305C191.443 22.067 192.439 23.117 194.095 23.117ZM194.095 21.955C193.333 21.955 192.903 21.355 192.903 20.305C192.903 19.27 193.338 18.659 194.095 18.659C194.847 18.659 195.286 19.269 195.286 20.305C195.286 21.35 194.852 21.955 194.095 21.955ZM197.908 23H199.329V19.758C199.329 19.158 199.725 18.723 200.281 18.723C200.838 18.723 201.17 19.05 201.17 19.621V23H202.537V19.704C202.537 19.133 202.908 18.723 203.484 18.723C204.085 18.723 204.383 19.04 204.383 19.68V23H205.804V19.304C205.804 18.195 205.135 17.497 204.061 17.497C203.309 17.497 202.688 17.893 202.439 18.493H202.352C202.137 17.868 201.619 17.497 200.862 17.497C200.154 17.497 199.593 17.877 199.373 18.493H199.285V17.614H197.908V23V23ZM209.129 22.014C208.636 22.014 208.289 21.77 208.289 21.369C208.289 20.983 208.587 20.764 209.197 20.719L210.286 20.651V21.047C210.286 21.594 209.788 22.014 209.129 22.014V22.014ZM208.66 23.083C209.358 23.083 209.944 22.79 210.223 22.297H210.311V23H211.688V19.323C211.688 18.171 210.882 17.497 209.456 17.497C208.104 17.497 207.19 18.122 207.098 19.118H208.406C208.523 18.796 208.865 18.62 209.378 18.62C209.964 18.62 210.286 18.874 210.286 19.323V19.763L208.982 19.841C207.645 19.919 206.897 20.485 206.897 21.461C206.897 22.448 207.625 23.083 208.66 23.083V23.083ZM213.094 23H214.515V17.614H213.094V23ZM213.807 16.862C214.314 16.862 214.646 16.565 214.646 16.145C214.646 15.72 214.314 15.427 213.807 15.427C213.294 15.427 212.967 15.72 212.967 16.145C212.967 16.565 213.294 16.862 213.807 16.862ZM215.955 23H217.376V19.895C217.376 19.186 217.781 18.723 218.44 18.723C219.114 18.723 219.432 19.113 219.432 19.856V23H220.853V19.519C220.853 18.229 220.208 17.497 219.012 17.497C218.216 17.497 217.669 17.873 217.42 18.479H217.332V17.614H215.955V23V23ZM223.26 23.132C223.787 23.132 224.124 22.775 224.124 22.282C224.124 21.789 223.787 21.437 223.26 21.437C222.737 21.437 222.396 21.789 222.396 22.282C222.396 22.775 222.737 23.132 223.26 23.132ZM225.711 23H227.132V20.017C227.132 19.26 227.664 18.801 228.44 18.801C228.67 18.801 229.002 18.845 229.114 18.889V17.595C228.992 17.551 228.753 17.526 228.558 17.526C227.874 17.526 227.317 17.936 227.176 18.474H227.088V17.614H225.711V23V23ZM234.939 17.614H233.519V20.72C233.519 21.438 233.138 21.882 232.43 21.882C231.775 21.882 231.438 21.501 231.438 20.759V17.614H230.018V21.125C230.018 22.375 230.74 23.117 231.902 23.117C232.718 23.117 233.221 22.761 233.475 22.136H233.562V23H234.939V17.614V17.614Z" fill="black" fill-opacity="0.4"/>
<path d="M82.3203 69.5645L82.9902 66.0234H84.0122L82.9082 71H81.876L81.0659 67.6709L80.2559 71H79.2236L78.1196 66.0234H79.1416L79.8149 69.5576L80.6353 66.0234H81.5034L82.3203 69.5645Z" fill="black"/>
<path d="M86.0972 71.0684C85.5549 71.0684 85.1128 70.902 84.771 70.5693C84.4315 70.2367 84.2617 69.7935 84.2617 69.2397V69.144C84.2617 68.7726 84.3335 68.4411 84.4771 68.1494C84.6206 67.8555 84.8234 67.6299 85.0854 67.4727C85.3498 67.3132 85.6506 67.2334 85.9878 67.2334C86.4937 67.2334 86.8913 67.3929 87.1807 67.7119C87.4723 68.0309 87.6182 68.4832 87.6182 69.0688V69.4722H85.2632C85.2951 69.7137 85.3908 69.9074 85.5503 70.0532C85.7121 70.1991 85.916 70.272 86.1621 70.272C86.5426 70.272 86.84 70.1341 87.0542 69.8584L87.5396 70.4019C87.3914 70.6115 87.1909 70.7756 86.938 70.894C86.6851 71.0103 86.4048 71.0684 86.0972 71.0684ZM85.9844 68.0332C85.7884 68.0332 85.6289 68.0993 85.5059 68.2314C85.3851 68.3636 85.3076 68.5527 85.2734 68.7988H86.6475V68.7202C86.6429 68.5015 86.5837 68.3328 86.4697 68.2144C86.3558 68.0936 86.194 68.0332 85.9844 68.0332Z" fill="black"/>
<path d="M91.5146 69.1851C91.5146 69.7775 91.3882 70.2401 91.1353 70.5728C90.8823 70.9032 90.5291 71.0684 90.0757 71.0684C89.6746 71.0684 89.3545 70.9146 89.1152 70.6069L89.0708 71H88.1821V65.75H89.1699V67.6333C89.3978 67.3667 89.6974 67.2334 90.0688 67.2334C90.52 67.2334 90.8732 67.3997 91.1284 67.7324C91.3859 68.0628 91.5146 68.5288 91.5146 69.1304V69.1851ZM90.5269 69.1133C90.5269 68.7396 90.4676 68.4673 90.3491 68.2964C90.2306 68.1232 90.054 68.0366 89.8193 68.0366C89.5049 68.0366 89.2884 68.1654 89.1699 68.4229V69.8823C89.2907 70.1421 89.5094 70.272 89.8262 70.272C90.1452 70.272 90.3548 70.1147 90.4551 69.8003C90.5029 69.6499 90.5269 69.4209 90.5269 69.1133Z" fill="black"/>
<path d="M94.2695 71C94.224 70.9111 94.1909 70.8006 94.1704 70.6685C93.9312 70.9351 93.6201 71.0684 93.2373 71.0684C92.875 71.0684 92.5742 70.9635 92.335 70.7539C92.098 70.5443 91.9795 70.2799 91.9795 69.9609C91.9795 69.569 92.1242 69.2682 92.4136 69.0586C92.7052 68.849 93.1257 68.743 93.6748 68.7407H94.1294V68.5288C94.1294 68.3579 94.085 68.2212 93.9961 68.1187C93.9095 68.0161 93.7716 67.9648 93.5825 67.9648C93.4162 67.9648 93.2852 68.0047 93.1895 68.0845C93.096 68.1642 93.0493 68.2736 93.0493 68.4126H92.0615C92.0615 68.1984 92.1276 68.0002 92.2598 67.8179C92.3919 67.6356 92.5788 67.4932 92.8203 67.3906C93.0618 67.2858 93.333 67.2334 93.6338 67.2334C94.0895 67.2334 94.4507 67.3485 94.7173 67.5786C94.9862 67.8065 95.1206 68.1278 95.1206 68.5425V70.1455C95.1229 70.4964 95.1719 70.7619 95.2676 70.9419V71H94.2695ZM93.4526 70.313C93.5985 70.313 93.7329 70.2811 93.856 70.2173C93.979 70.1512 94.0701 70.0635 94.1294 69.9541V69.3184H93.7603C93.2658 69.3184 93.0026 69.4893 92.9707 69.8311L92.9673 69.8892C92.9673 70.0122 93.0106 70.1136 93.0972 70.1934C93.1838 70.2731 93.3022 70.313 93.4526 70.313Z" fill="black"/>
<path d="M97.8823 69.978C97.8823 69.8573 97.8219 69.7627 97.7012 69.6943C97.5827 69.6237 97.3913 69.561 97.127 69.5063C96.2474 69.3218 95.8076 68.9481 95.8076 68.3853C95.8076 68.0571 95.9432 67.7837 96.2144 67.5649C96.4878 67.3439 96.8444 67.2334 97.2842 67.2334C97.7536 67.2334 98.1284 67.3439 98.4087 67.5649C98.6912 67.786 98.8325 68.0731 98.8325 68.4263H97.8447C97.8447 68.285 97.7992 68.1688 97.708 68.0776C97.6169 67.9842 97.4744 67.9375 97.2808 67.9375C97.1144 67.9375 96.9857 67.9751 96.8945 68.0503C96.8034 68.1255 96.7578 68.2212 96.7578 68.3374C96.7578 68.4468 96.8091 68.5356 96.9116 68.604C97.0164 68.6701 97.1919 68.7282 97.438 68.7783C97.6841 68.8262 97.8914 68.8809 98.0601 68.9424C98.5819 69.1338 98.8428 69.4653 98.8428 69.937C98.8428 70.2743 98.6981 70.5477 98.4087 70.7573C98.1193 70.9647 97.7456 71.0684 97.2876 71.0684C96.9777 71.0684 96.702 71.0137 96.4604 70.9043C96.2212 70.7926 96.0332 70.6411 95.8965 70.4497C95.7598 70.256 95.6914 70.0475 95.6914 69.8242H96.6279C96.637 69.9997 96.702 70.1341 96.8228 70.2275C96.9435 70.321 97.1053 70.3677 97.3081 70.3677C97.4972 70.3677 97.6396 70.3324 97.7354 70.2617C97.8333 70.1888 97.8823 70.0942 97.8823 69.978Z" fill="black"/>
<path d="M100.863 69.6021L101.546 67.3018H102.606L101.119 71.5742L101.037 71.769C100.816 72.2521 100.451 72.4937 99.9434 72.4937C99.7998 72.4937 99.654 72.472 99.5059 72.4287V71.6802L99.6562 71.6836C99.8431 71.6836 99.9821 71.6551 100.073 71.5981C100.167 71.5412 100.24 71.4466 100.292 71.3145L100.408 71.0103L99.1128 67.3018H100.176L100.863 69.6021Z" fill="black"/>
<path d="M104.999 69.978C104.999 69.8573 104.938 69.7627 104.817 69.6943C104.699 69.6237 104.507 69.561 104.243 69.5063C103.364 69.3218 102.924 68.9481 102.924 68.3853C102.924 68.0571 103.059 67.7837 103.331 67.5649C103.604 67.3439 103.961 67.2334 104.4 67.2334C104.87 67.2334 105.245 67.3439 105.525 67.5649C105.807 67.786 105.949 68.0731 105.949 68.4263H104.961C104.961 68.285 104.915 68.1688 104.824 68.0776C104.733 67.9842 104.591 67.9375 104.397 67.9375C104.231 67.9375 104.102 67.9751 104.011 68.0503C103.92 68.1255 103.874 68.2212 103.874 68.3374C103.874 68.4468 103.925 68.5356 104.028 68.604C104.133 68.6701 104.308 68.7282 104.554 68.7783C104.8 68.8262 105.008 68.8809 105.176 68.9424C105.698 69.1338 105.959 69.4653 105.959 69.937C105.959 70.2743 105.814 70.5477 105.525 70.7573C105.236 70.9647 104.862 71.0684 104.404 71.0684C104.094 71.0684 103.818 71.0137 103.577 70.9043C103.337 70.7926 103.149 70.6411 103.013 70.4497C102.876 70.256 102.808 70.0475 102.808 69.8242H103.744C103.753 69.9997 103.818 70.1341 103.939 70.2275C104.06 70.321 104.222 70.3677 104.424 70.3677C104.613 70.3677 104.756 70.3324 104.852 70.2617C104.95 70.1888 104.999 70.0942 104.999 69.978Z" fill="black"/>
<path d="M107.781 66.3926V67.3018H108.413V68.0264H107.781V69.8721C107.781 70.0088 107.807 70.1068 107.859 70.166C107.912 70.2253 108.012 70.2549 108.16 70.2549C108.27 70.2549 108.366 70.2469 108.451 70.231V70.9795C108.257 71.0387 108.058 71.0684 107.853 71.0684C107.16 71.0684 106.807 70.7186 106.793 70.019V68.0264H106.253V67.3018H106.793V66.3926H107.781Z" fill="black"/>
<path d="M111.862 71H110.836V66.0234H111.862V71Z" fill="black"/>
<path d="M112.815 71V66.0234H114.347C114.784 66.0234 115.175 66.1226 115.519 66.3208C115.865 66.5168 116.135 66.797 116.329 67.1616C116.523 67.5239 116.62 67.9364 116.62 68.3989V68.6279C116.62 69.0905 116.524 69.5018 116.333 69.8618C116.143 70.2218 115.876 70.501 115.529 70.6992C115.183 70.8975 114.792 70.9977 114.357 71H112.815ZM113.841 66.854V70.1763H114.336C114.737 70.1763 115.044 70.0452 115.256 69.7832C115.468 69.5212 115.576 69.1463 115.581 68.6587V68.3955C115.581 67.8896 115.476 67.5068 115.266 67.2471C115.056 66.985 114.75 66.854 114.347 66.854H113.841Z" fill="black"/>
<path opacity="0.2" fill-rule="evenodd" clip-rule="evenodd" d="M66.7083 62C63.0388 62 60 65.0994 60 69C60 72.9006 63.0388 76 66.7083 76H115.292C118.961 76 122 72.9006 122 69C122 65.0994 118.961 62 115.292 62H66.7083ZM66.7083 61C62.4518 61 59 64.5824 59 69C59 73.4176 62.4518 77 66.7083 77H115.292C119.548 77 123 73.4176 123 69C123 64.5824 119.548 61 115.292 61H66.7083Z" fill="black"/>
<g clip-path="url(#clip2)">
<path d="M67.1376 65.5108C66.9145 65.2638 66.5326 65.2551 66.2986 65.4915C66.0644 65.7282 66.0731 66.1148 66.3177 66.3404L67.9745 67.8689C68.1635 68.0431 68.4545 68.0365 68.6354 67.8537C68.8165 67.6707 68.8232 67.3759 68.6504 67.1848L67.1376 65.5108Z" fill="#0088EE"/>
<path d="M69.861 64C69.5304 64 69.2659 64.2789 69.281 64.6137L69.3829 66.8782C69.3945 67.137 69.6055 67.3402 69.861 67.3402C70.1165 67.3402 70.3275 67.137 70.3391 66.8782L70.441 64.6137C70.4561 64.2789 70.1916 64 69.861 64Z" fill="#22CC22"/>
<path d="M73.4199 65.4915C73.1858 65.2551 72.804 65.2638 72.5808 65.5108L71.0681 67.1848C70.8953 67.3759 70.902 67.6707 71.0831 67.8537C71.264 68.0365 71.555 68.0431 71.7439 67.8689L73.4008 66.3404C73.6454 66.1148 73.6541 65.7282 73.4199 65.4915Z" fill="#EE6622"/>
<path d="M74.8978 69.0898C74.8978 68.7547 74.6211 68.4882 74.2908 68.5034L72.0496 68.6063C71.7943 68.618 71.5927 68.8307 71.5927 69.0898C71.5927 69.3489 71.7943 69.5616 72.0496 69.5733L74.2908 69.6762C74.6211 69.6914 74.8978 69.4249 74.8978 69.0898Z" fill="#FFCC00"/>
<path d="M71.7439 70.3121C71.555 70.1379 71.264 70.1445 71.0831 70.3273C70.902 70.5103 70.8953 70.8051 71.0681 70.9962L72.5808 72.6702C72.804 72.9172 73.1858 72.9259 73.4199 72.6895C73.6541 72.4528 73.6454 72.0662 73.4008 71.8406L71.7439 70.3121Z" fill="#55DDDD"/>
<path d="M70.2871 68.6569C70.1066 68.4745 69.8153 68.4706 69.63 68.648L65.1988 72.8893C64.9386 73.1384 64.9331 73.5555 65.1865 73.8115C65.4397 74.0674 65.8518 74.0618 66.0981 73.7991L70.296 69.3221C70.4718 69.1346 70.4679 68.8396 70.2871 68.6569Z" fill="black"/>
</g>
<g clip-path="url(#clip3)">
<path d="M190.565 157.813C190.297 157.517 189.839 157.506 189.558 157.79C189.277 158.074 189.288 158.538 189.581 158.808L191.569 160.643C191.796 160.852 192.145 160.844 192.362 160.624C192.58 160.405 192.588 160.051 192.38 159.822L190.565 157.813Z" fill="#0088EE"/>
<path d="M193.833 156C193.437 156 193.119 156.335 193.137 156.736L193.259 159.454C193.273 159.764 193.527 160.008 193.833 160.008C194.14 160.008 194.393 159.764 194.407 159.454L194.529 156.736C194.547 156.335 194.23 156 193.833 156Z" fill="#22CC22"/>
<path d="M198.104 157.79C197.823 157.506 197.365 157.517 197.097 157.813L195.282 159.822C195.074 160.051 195.082 160.405 195.3 160.624C195.517 160.844 195.866 160.852 196.093 160.643L198.081 158.808C198.375 158.538 198.385 158.074 198.104 157.79Z" fill="#EE6622"/>
<path d="M199.877 162.108C199.877 161.706 199.545 161.386 199.149 161.404L196.46 161.528C196.153 161.542 195.911 161.797 195.911 162.108C195.911 162.419 196.153 162.674 196.46 162.688L199.149 162.811C199.545 162.83 199.877 162.51 199.877 162.108Z" fill="#FFCC00"/>
<path d="M196.093 163.575C195.866 163.365 195.517 163.373 195.3 163.593C195.082 163.812 195.074 164.166 195.282 164.395L197.097 166.404C197.365 166.701 197.823 166.711 198.104 166.427C198.385 166.143 198.375 165.68 198.081 165.409L196.093 163.575Z" fill="#55DDDD"/>
<path d="M194.345 161.588C194.128 161.369 193.778 161.365 193.556 161.578L188.239 166.667C187.926 166.966 187.92 167.467 188.224 167.774C188.528 168.081 189.022 168.074 189.318 167.759L194.355 162.387C194.566 162.162 194.561 161.807 194.345 161.588Z" fill="black"/>
</g>
<path d="M233 162C233 158.687 235.726 156 239.087 156L246.913 156C250.274 156 253 158.687 253 162C253 165.313 250.274 168 246.913 168L239.087 168C235.726 168 233 165.313 233 162Z" fill="#AAAAAA"/>
<g clip-path="url(#clip4)">
<path d="M261.565 157.813C261.297 157.517 260.839 157.506 260.558 157.79C260.277 158.074 260.288 158.538 260.581 158.808L262.569 160.643C262.796 160.852 263.145 160.844 263.362 160.624C263.58 160.405 263.588 160.051 263.38 159.822L261.565 157.813Z" fill="#0088EE"/>
<path d="M264.833 156C264.437 156 264.119 156.335 264.137 156.736L264.259 159.454C264.273 159.764 264.527 160.008 264.833 160.008C265.14 160.008 265.393 159.764 265.407 159.454L265.529 156.736C265.547 156.335 265.23 156 264.833 156Z" fill="#22CC22"/>
<path d="M269.104 157.79C268.823 157.506 268.365 157.517 268.097 157.813L266.282 159.822C266.074 160.051 266.082 160.405 266.3 160.624C266.517 160.844 266.866 160.852 267.093 160.643L269.081 158.808C269.375 158.538 269.385 158.074 269.104 157.79Z" fill="#EE6622"/>
<path d="M270.877 162.108C270.877 161.706 270.545 161.386 270.149 161.404L267.46 161.528C267.153 161.542 266.911 161.797 266.911 162.108C266.911 162.419 267.153 162.674 267.46 162.688L270.149 162.811C270.545 162.83 270.877 162.51 270.877 162.108Z" fill="#FFCC00"/>
<path d="M267.093 163.575C266.866 163.365 266.517 163.373 266.3 163.593C266.082 163.812 266.074 164.166 266.282 164.395L268.097 166.404C268.365 166.701 268.823 166.711 269.104 166.427C269.385 166.143 269.375 165.68 269.081 165.409L267.093 163.575Z" fill="#55DDDD"/>
<path d="M265.345 161.588C265.128 161.369 264.778 161.365 264.556 161.578L259.239 166.667C258.926 166.966 258.92 167.467 259.224 167.774C259.528 168.081 260.022 168.074 260.318 167.759L265.355 162.387C265.566 162.162 265.561 161.807 265.345 161.588Z" fill="black"/>
</g>
<path d="M162 69C162 64.5824 165.452 61 169.708 61H192.292C196.548 61 200 64.5824 200 69C200 73.4176 196.548 77 192.292 77H169.708C165.452 77 162 73.4176 162 69Z" fill="#80A2FF"/>
<defs>
<clipPath id="clip0">
<rect width="10" height="10" fill="white" transform="translate(65 158)"/>
</clipPath>
<clipPath id="clip1">
<rect width="10" height="10" fill="white" transform="translate(212 64)"/>
</clipPath>
<clipPath id="clip2">
<rect width="10" height="10" fill="white" transform="translate(65 64)"/>
</clipPath>
<clipPath id="clip3">
<rect width="12" height="12" fill="white" transform="translate(188 156)"/>
</clipPath>
<clipPath id="clip4">
<rect width="12" height="12" fill="white" transform="translate(259 156)"/>
</clipPath>
</defs>
</svg>
