<svg xmlns="http://www.w3.org/2000/svg" width="226" height="174" fill="none" viewBox="0 0 226 174">
    <path fill="#CCDAFF" d="M5 9.58c0-2.761 2.239-5 5-5h206c2.761 0 5 2.239 5 5v159c0 2.762-2.239 5-5 5H10c-2.761 0-5-2.238-5-5v-159z"/>
    <path fill="#E6ECFF" d="M0 5c0-2.761 2.239-5 5-5h216c2.761 0 5 2.239 5 5v159c0 2.761-2.239 5-5 5H5c-2.761 0-5-2.239-5-5V5z"/>
    <path fill="#000" fill-opacity=".07" d="M10 37c0-2.761 2.239-5 5-5h176c2.761 0 5 2.239 5 5v6c0 2.761-2.239 5-5 5H15c-2.761 0-5-2.239-5-5v-6zM10 63c0-2.761 2.239-5 5-5h176c2.761 0 5 2.239 5 5v6c0 2.761-2.239 5-5 5H15c-2.761 0-5-2.239-5-5v-6z"/>
    <path fill="#000" fill-opacity=".4" d="M11.382 21.958c1.343 0 2.002-.488 2.46-1.875l1.856-5.469h-1.504l-1.133 4.082h-.087l-1.133-4.082h-1.568l1.89 5.42-.049.196c-.117.41-.42.58-.952.58-.059 0-.273 0-.322-.01v1.143c.058.01.488.015.542.015zM18.852 20.117c1.656 0 2.652-1.05 2.652-2.812 0-1.748-1.01-2.808-2.652-2.808-1.64 0-2.65 1.065-2.65 2.808 0 1.762.995 2.812 2.65 2.812zm0-1.162c-.761 0-1.19-.6-1.19-1.65 0-1.035.434-1.646 1.19-1.646.753 0 1.192.61 1.192 1.646 0 1.045-.435 1.65-1.192 1.65zM27.54 14.614h-1.422v3.106c0 .718-.38 1.162-1.089 1.162-.654 0-.99-.381-.99-1.123v-3.145h-1.422v3.511c0 1.25.723 1.992 1.885 1.992.815 0 1.318-.356 1.572-.981h.088V20h1.377v-5.386zM28.965 20h1.42v-2.983c0-.757.533-1.216 1.31-1.216.229 0 .56.044.673.088v-1.294c-.122-.044-.361-.069-.557-.069-.683 0-1.24.41-1.381.948h-.088v-.86h-1.377V20zM35.122 20.083c.747 0 1.358-.347 1.646-.928h.087V20h1.377v-7.441h-1.42v2.915h-.084c-.278-.596-.878-.948-1.606-.948-1.352 0-2.192 1.06-2.192 2.774 0 1.719.835 2.783 2.192 2.783zm.483-4.365c.757 0 1.221.61 1.221 1.592 0 .986-.459 1.587-1.22 1.587-.762 0-1.216-.596-1.216-1.592 0-.987.459-1.587 1.215-1.587zM42.095 20.117c1.655 0 2.651-1.05 2.651-2.812 0-1.748-1.01-2.808-2.651-2.808-1.64 0-2.652 1.065-2.652 2.808 0 1.762.997 2.812 2.652 2.812zm0-1.162c-.762 0-1.192-.6-1.192-1.65 0-1.035.435-1.646 1.192-1.646.752 0 1.191.61 1.191 1.646 0 1.045-.434 1.65-1.191 1.65zM45.908 20h1.421v-3.242c0-.6.396-1.035.952-1.035.557 0 .889.327.889.898V20h1.367v-3.296c0-.571.371-.981.947-.981.601 0 .899.317.899.957V20h1.42v-3.696c0-1.109-.668-1.807-1.742-1.807-.752 0-1.373.396-1.621.996h-.088c-.215-.625-.733-.996-1.49-.996-.708 0-1.27.38-1.489.996h-.088v-.879h-1.377V20zM57.129 19.014c-.493 0-.84-.244-.84-.645 0-.386.298-.605.908-.65l1.09-.068v.396c0 .547-.499.967-1.158.967zm-.469 1.069c.698 0 1.284-.293 1.563-.786h.087V20h1.377v-3.677c0-1.152-.805-1.826-2.23-1.826-1.354 0-2.267.625-2.36 1.621h1.31c.116-.322.458-.498.97-.498.587 0 .91.254.91.703v.44l-1.305.078c-1.337.078-2.084.644-2.084 1.62 0 .987.727 1.622 1.762 1.622zM61.094 20h1.42v-5.386h-1.42V20zm.713-6.138c.508 0 .84-.297.84-.717 0-.425-.332-.718-.84-.718-.513 0-.84.293-.84.718 0 .42.327.717.84.717zM63.955 20h1.421v-3.105c0-.709.405-1.172 1.064-1.172.674 0 .992.39.992 1.132V20h1.42v-3.481c0-1.29-.644-2.022-1.84-2.022-.796 0-1.343.376-1.592.982h-.088v-.865h-1.377V20zM71.26 20.132c.527 0 .864-.357.864-.85s-.337-.845-.864-.845c-.523 0-.865.352-.865.845s.342.85.865.85zM73.71 20h1.422v-2.983c0-.757.532-1.216 1.308-1.216.23 0 .562.044.674.088v-1.294c-.122-.044-.361-.069-.556-.069-.684 0-1.24.41-1.382.948h-.088v-.86H73.71V20zM82.94 14.614h-1.421v3.106c0 .718-.381 1.162-1.09 1.162-.654 0-.99-.381-.99-1.123v-3.145h-1.421v3.511c0 1.25.722 1.992 1.884 1.992.816 0 1.319-.356 1.573-.981h.088V20h1.376v-5.386z"/>
    <g opacity=".5">
        <path fill="#73CC33" d="M12 144c0-6.075 4.925-11 11-11h61c6.075 0 11 4.925 11 11s-4.925 11-11 11H23c-6.075 0-11-4.925-11-11z"/>
        <path fill="#fff" d="M27.005 142.757h.078l1.333 4.663h1.382l1.87-7.046h-1.523l-1.09 4.966h-.078l-1.308-4.966h-1.245l-1.284 4.966h-.079l-1.098-4.966H22.43l1.865 7.046h1.391l1.319-4.663zM34.554 143.006c.664 0 1.093.444 1.123 1.157h-2.295c.049-.698.513-1.157 1.172-1.157zm1.152 2.881c-.151.356-.537.556-1.099.556-.742 0-1.21-.498-1.23-1.298v-.074h3.696v-.434c0-1.709-.937-2.72-2.524-2.72-1.602 0-2.588 1.084-2.588 2.837 0 1.748.967 2.783 2.607 2.783 1.319 0 2.247-.635 2.461-1.65h-1.323zM41.414 147.503c1.353 0 2.183-1.05 2.183-2.778 0-1.739-.82-2.779-2.183-2.779-.737 0-1.343.357-1.616.948h-.088v-2.915h-1.42v7.441h1.376v-.845h.088c.288.586.898.928 1.66.928zm-.493-4.365c.752 0 1.216.605 1.216 1.587 0 .986-.46 1.591-1.216 1.591-.752 0-1.22-.61-1.226-1.587.005-.981.479-1.591 1.226-1.591zM46.697 146.434c-.493 0-.84-.245-.84-.645 0-.386.298-.605.909-.649l1.089-.069v.396c0 .547-.499.967-1.158.967zm-.469 1.069c.699 0 1.285-.293 1.563-.786h.088v.703h1.377v-3.677c0-1.152-.806-1.826-2.232-1.826-1.352 0-2.265.625-2.358 1.621h1.309c.117-.322.459-.498.971-.498.586 0 .909.254.909.703v.44l-1.304.078c-1.338.078-2.085.644-2.085 1.621 0 .986.727 1.621 1.762 1.621zM50.53 143.616c0 .83.508 1.328 1.553 1.558l.977.22c.473.102.678.263.678.527 0 .347-.38.576-.932.576-.567 0-.913-.21-1.02-.576h-1.388c.098 1.035.957 1.616 2.378 1.616 1.411 0 2.373-.703 2.373-1.777 0-.806-.468-1.245-1.513-1.475l-1.011-.22c-.498-.112-.727-.273-.727-.537 0-.341.375-.571.883-.571.528 0 .855.215.928.562h1.313c-.078-1.031-.883-1.602-2.25-1.602-1.343 0-2.242.679-2.242 1.699zM56.839 149.378c1.343 0 2.002-.488 2.46-1.875l1.856-5.469h-1.504l-1.132 4.082h-.088l-1.133-4.082H55.73l1.89 5.42-.049.195c-.117.411-.42.581-.952.581-.059 0-.273 0-.322-.009v1.142c.059.01.488.015.542.015zM61.878 143.616c0 .83.508 1.328 1.553 1.558l.976.22c.474.102.679.263.679.527 0 .347-.38.576-.933.576-.566 0-.913-.21-1.02-.576h-1.387c.098 1.035.957 1.616 2.378 1.616 1.411 0 2.373-.703 2.373-1.777 0-.806-.469-1.245-1.514-1.475l-1.01-.22c-.498-.112-.728-.273-.728-.537 0-.341.376-.571.884-.571.527 0 .854.215.928.562h1.313c-.078-1.031-.884-1.602-2.25-1.602-1.344 0-2.242.679-2.242 1.699zM68.04 140.755v1.333h-.84v1.118h.84v2.759c0 1.05.518 1.474 1.826 1.474.274 0 .537-.029.713-.063v-1.084c-.137.015-.234.02-.42.02-.483 0-.698-.215-.698-.684v-2.422h1.118v-1.118h-1.118v-1.333H68.04zM75.96 147.42v-7.046h-1.475v7.046h1.475zM77.669 140.369v7.051h2.773c2.11 0 3.306-1.284 3.306-3.574 0-2.207-1.21-3.477-3.306-3.477H77.67zm1.475 1.26h1.064c1.28 0 2.036.815 2.036 2.241 0 1.489-.732 2.29-2.036 2.29h-1.064v-4.531z"/>
        <path fill="#73CC33" fill-rule="evenodd" d="M107.667 142.235v-3.529c0-2.599 2.387-4.706 5.333-4.706s5.333 2.107 5.333 4.706v3.529c1.473 0 2.667 1.054 2.667 2.353v7.059c0 1.3-1.194 2.353-2.667 2.353h-10.666c-1.473 0-2.667-1.053-2.667-2.353v-7.059c0-1.299 1.194-2.353 2.667-2.353zm8-3.529v3.529h-5.334v-3.529c0-1.3 1.194-2.353 2.667-2.353 1.473 0 2.667 1.053 2.667 2.353z" clip-rule="evenodd"/>
    </g>
    <path fill="#CCDAFF" d="M12 119h184v2H12v-2z"/>
    <path fill="#7FA2FF" d="M12 96c0-6.075 4.925-11 11-11h38.877c6.075 0 11 4.925 11 11s-4.924 11-11 11H23c-6.075 0-11-4.925-11-11z"/>
    <path fill="#fff" d="M84.78 128.075c-.75.433-1.594.683-2.46.729-.866.045-1.731-.115-2.524-.467l-12.428-5.526c-2.775-1.235-4.025-4.485-2.79-7.261.637-1.435 1.814-2.462 3.186-2.949l-5.295-9.172c-1.52-2.631-.618-5.995 2.013-7.514 2.63-1.518 5.994-.617 7.513 2.014l2.25 3.897c1.19-.688 2.531-.879 3.783-.639.405-.486.9-.911 1.48-1.245 1.359-.785 2.913-.923 4.308-.512.348-.36.75-.677 1.205-.94 2.63-1.518 5.995-.617 7.513 2.014l3 5.196c.212.367.381.757.503 1.164l2.518 8.361c.736 2.444-.306 5.073-2.516 6.349l-11.258 6.501z"/>
    <path fill="#7FA2FF" d="M89.936 102.004l3 5.196c.096.167.173.345.229.529l2.518 8.361c.334 1.111-.14 2.306-1.144 2.886l-11.258 6.5c-.342.198-.725.311-1.119.332-.394.021-.787-.052-1.147-.212l-12.428-5.527c-1.262-.561-1.83-2.038-1.269-3.3.561-1.261 2.039-1.829 3.3-1.268l3.073 1.366-8.624-14.938c-.69-1.196-.281-2.725.915-3.415 1.195-.69 2.724-.281 3.415.915l6.25 10.825.433-.25-1.25-2.165c-.69-1.196-.28-2.725.915-3.415 1.196-.691 2.724-.281 3.415.915l1.25 2.165.433-.25-.75-1.299c-.69-1.196-.28-2.725.915-3.415 1.196-.691 2.725-.281 3.415.915l.75 1.299.433-.25c-.69-1.196-.28-2.725.915-3.415 1.196-.69 2.725-.281 3.415.915z"/>
</svg>
