<svg width="266" height="185" viewBox="0 0 266 185" fill="none" xmlns="http://www.w3.org/2000/svg">
<g clip-path="url(#clip0)">
<path d="M242.821 135.843C242.821 146.889 233.867 155.843 222.821 155.843H54.821C43.775 155.843 34.821 146.889 34.821 135.843V42.843C34.821 31.798 43.775 22.843 54.821 22.843H222.821C233.867 22.843 242.821 31.798 242.821 42.843V135.843Z" fill="#DFF5D0"/>
<path d="M228.128 55.058C241.935 55.058 253.128 43.8651 253.128 30.058C253.128 16.2509 241.935 5.058 228.128 5.058C214.321 5.058 203.128 16.2509 203.128 30.058C203.128 43.8651 214.321 55.058 228.128 55.058Z" fill="white"/>
<path d="M238.719 30.149L248.358 35.713C247.892 37.441 247.198 39.137 246.261 40.76C245.323 42.383 244.202 43.833 242.938 45.1L233.3 39.535C235.501 36.597 237.335 33.383 238.719 30.149V30.149ZM218.819 34.303C217.329 38.692 216.488 43.959 217.526 48.418L217.574 48.447C217.59 48.457 217.607 48.465 217.623 48.474C222.011 47.142 226.15 43.775 229.2 40.297L218.819 34.303V34.303ZM239.717 27.596L248.912 32.905C249.787 25.981 247.153 18.915 241.698 14.275C242.09 18.718 241.199 23.407 239.717 27.595V27.596ZM236.357 28.785L225.211 22.35C223.045 25.197 221.176 28.433 219.791 31.736L230.937 38.171C233.103 35.324 234.972 32.088 236.357 28.785V28.785ZM216.431 32.925L207.236 27.616C206.361 34.539 208.995 41.606 214.45 46.245C214.058 41.801 214.949 37.112 216.431 32.925ZM231.588 41.675C228.701 45.055 225.085 48.17 221.043 50.051C227.787 52.456 235.225 51.204 240.783 46.984L231.588 41.676V41.675ZM237.33 26.218C238.819 21.828 239.66 16.562 238.622 12.102L238.574 12.074C238.558 12.064 238.541 12.056 238.525 12.047C234.137 13.379 229.998 16.746 226.948 20.224L237.33 26.218ZM213.21 15.42C211.946 16.687 210.825 18.136 209.887 19.76C208.95 21.382 208.256 23.079 207.79 24.806L217.429 30.371C218.813 27.137 220.647 23.923 222.848 20.984L213.21 15.42V15.42ZM224.56 18.844C227.447 15.465 231.063 12.35 235.105 10.469C228.361 8.06399 220.923 9.31599 215.365 13.535L224.56 18.844V18.844Z" fill="#95ECF1"/>
<path d="M215.44 11.686C215.161 9.934 214.114 8.344 212.501 7.413C210.892 6.483 208.995 6.371 207.34 7.002C207.09 5.277 206.073 3.702 204.484 2.784C201.171 0.871998 196.945 2.614 195.943 6.307L192.22 20.037C191.473 22.793 192.674 25.706 195.147 27.134C196.97 28.186 199.149 28.237 200.975 27.377C201.144 29.389 202.278 31.25 204.101 32.303C206.572 33.73 209.694 33.315 211.708 31.293L215.145 27.839L213.871 32.537C213.123 35.293 214.325 38.206 216.797 39.633C218.62 40.686 220.799 40.737 222.626 39.877C222.794 41.889 223.928 43.75 225.751 44.803C228.223 46.23 231.345 45.815 233.358 43.793L235.418 41.723L234.655 44.537C233.908 47.293 235.11 50.206 237.582 51.633C239.405 52.686 241.584 52.737 243.41 51.877C243.579 53.889 244.713 55.75 246.536 56.803C249.007 58.23 252.13 57.815 254.143 55.793L264.18 45.708C266.88 42.995 266.277 38.461 262.963 36.548C261.372 35.628 259.495 35.536 257.875 36.186C257.596 34.434 256.549 32.844 254.936 31.913C253.327 30.983 251.43 30.871 249.775 31.501C249.526 29.777 248.508 28.201 246.919 27.284C246.054 26.784 245.126 26.534 244.21 26.504C243.725 25.725 243.044 25.047 242.178 24.547C240.587 23.628 238.71 23.537 237.09 24.186C236.811 22.434 235.764 20.844 234.152 19.913C232.542 18.983 230.645 18.871 228.99 19.501C228.741 17.777 227.724 16.201 226.135 15.284C225.085 14.678 223.944 14.439 222.842 14.513C222.355 13.523 221.578 12.653 220.528 12.047C218.936 11.128 217.06 11.037 215.44 11.686V11.686Z" fill="white"/>
<path d="M207.642 15.72L207.738 15.775L205.027 26.28C204.769 27.277 205.209 28.324 206.101 28.839C207.001 29.359 208.139 29.208 208.873 28.471L218.91 18.386C219.757 17.535 219.568 16.112 218.528 15.511C217.783 15.081 216.839 15.228 216.26 15.864L208.393 24.508L208.308 24.458L211.44 13.173C211.687 12.283 211.301 11.339 210.501 10.877C209.701 10.415 208.69 10.553 208.043 11.212L199.836 19.567L199.751 19.518L203.312 8.39C203.574 7.57 203.23 6.679 202.484 6.248C201.444 5.648 200.118 6.195 199.804 7.354L196.081 21.084C195.808 22.088 196.246 23.149 197.147 23.669C198.039 24.184 199.164 24.041 199.899 23.32L207.642 15.72V15.72ZM229.388 28.275L226.677 38.78C226.42 39.777 226.859 40.824 227.751 41.339C228.652 41.859 229.79 41.708 230.523 40.971L240.56 30.886C241.408 30.035 241.219 28.612 240.178 28.011C239.434 27.581 238.49 27.728 237.911 28.364L230.044 37.008L229.959 36.958L233.091 25.673C233.338 24.783 232.952 23.839 232.152 23.377C231.352 22.915 230.341 23.053 229.694 23.712L221.487 32.067L221.402 32.018L224.962 20.89C225.225 20.07 224.88 19.179 224.135 18.748C223.095 18.148 221.769 18.695 221.454 19.854L217.731 33.584C217.459 34.588 217.897 35.649 218.797 36.169C219.689 36.684 220.815 36.541 221.55 35.82L229.292 28.22L229.388 28.275V28.275ZM247.462 50.78L250.173 40.275L250.077 40.219L242.334 47.82C241.599 48.541 240.474 48.684 239.582 48.17C238.681 47.65 238.244 46.588 238.516 45.584L242.239 31.854C242.553 30.695 243.88 30.148 244.919 30.749C245.665 31.179 246.009 32.071 245.747 32.89L242.186 44.018L242.271 44.068L250.478 35.712C251.126 35.053 252.137 34.915 252.937 35.377C253.736 35.839 254.123 36.783 253.876 37.673L250.743 48.958L250.828 49.008L258.696 40.364C259.274 39.728 260.218 39.581 260.963 40.011C262.003 40.611 262.192 42.035 261.345 42.886L251.308 52.971C250.574 53.708 249.436 53.859 248.536 53.339C247.644 52.824 247.205 51.777 247.462 50.779V50.78Z" fill="#95ECF1"/>
<path fill-rule="evenodd" clip-rule="evenodd" d="M134.33 8.546C131.373 6.366 127.581 5.325 123.668 6.015C116.589 7.263 111.857 13.644 112.123 20.601C108.865 23.579 107.201 28.151 108.024 32.817C109.281 39.945 115.969 44.943 123.173 43.672L145.911 39.663C152.569 38.489 156.783 32.04 155.625 25.475C154.843 21.04 151.792 17.509 147.84 16.034C146.754 10.748 141.719 7.039 136.251 8.003C135.581 8.121 134.939 8.305 134.33 8.546V8.546Z" fill="white"/>
<path d="M143.948 19.29C144.083 18.56 144.093 17.793 143.956 17.016C143.36 13.636 140.221 11.365 136.945 11.942C135.726 12.157 134.66 12.737 133.833 13.553C131.586 10.8 128.026 9.30799 124.363 9.95399C118.903 10.917 115.282 16.264 116.276 21.897C116.306 22.071 116.341 22.243 116.38 22.413C113.139 24.28 111.257 28.121 111.963 32.123C112.857 37.193 117.565 40.6 122.479 39.733L145.216 35.724C149.584 34.954 152.48 30.676 151.686 26.17C150.99 22.222 147.692 19.408 143.948 19.29V19.29Z" fill="#99B5FF"/>
<path fill-rule="evenodd" clip-rule="evenodd" d="M150.075 133.24L211.069 122.551C216.506 121.598 221.692 125.229 222.656 130.664L224.336 140.133C225.301 145.574 221.669 150.761 216.226 151.715L155.233 162.404C149.796 163.357 144.61 159.726 143.646 154.291L141.966 144.822C141 139.381 144.632 134.194 150.075 133.24V133.24Z" fill="white"/>
<path d="M145.904 144.123C145.325 140.86 147.502 137.751 150.766 137.179L211.759 126.491C215.023 125.919 218.139 128.1 218.717 131.363L220.397 140.832C220.976 144.094 218.799 147.203 215.535 147.775L154.542 158.464C151.278 159.036 148.163 156.855 147.584 153.592L145.904 144.123Z" fill="#FFEFE0"/>
<path d="M152.544 150.434C154.041 151.923 156.19 152.688 158.396 152.302C160.602 151.915 162.358 150.466 163.252 148.557C163.007 147.734 162.287 147.133 161.43 147.067L160.398 146.988C159.726 147.824 158.792 148.38 157.733 148.565C156.674 148.751 155.605 148.546 154.686 147.989L153.744 148.414C152.961 148.767 152.491 149.577 152.544 150.434ZM153.522 144.681C153.864 146.607 155.67 147.9 157.556 147.569C159.443 147.239 160.695 145.409 160.354 143.483C160.012 141.558 158.206 140.264 156.319 140.595C154.433 140.926 153.18 142.755 153.522 144.681ZM169.707 141.377C169.514 140.29 170.239 139.253 171.327 139.063L198.44 134.311C199.528 134.121 200.566 134.848 200.759 135.935L200.816 136.254C201.009 137.341 200.283 138.378 199.195 138.568L172.083 143.32C170.995 143.51 169.956 142.783 169.763 141.696L169.707 141.377V141.377ZM170.84 147.762C170.647 146.675 171.372 145.639 172.46 145.448L193.148 141.822C194.236 141.632 195.275 142.359 195.468 143.446L195.524 143.765C195.717 144.852 194.991 145.889 193.903 146.079L173.215 149.705C172.127 149.895 171.089 149.168 170.896 148.081L170.84 147.762ZM205.093 135.468L207.206 135.097C207.1 134.222 207.593 133.559 208.49 133.402C209.379 133.246 210.064 133.662 210.194 134.395C210.324 135.128 210.087 135.559 209.189 136.342C208.225 137.169 207.922 137.953 208.247 139.196L208.34 139.626L210.407 139.264L210.333 138.846C210.198 138.09 210.418 137.653 211.348 136.865C212.332 136.018 212.755 135.092 212.545 133.91C212.222 132.09 210.526 131.096 208.295 131.487C205.9 131.906 204.784 133.499 205.093 135.468V135.468ZM210.13 143.236C211.004 143.083 211.451 142.476 211.304 141.649C211.156 140.814 210.527 140.396 209.653 140.549C208.78 140.702 208.325 141.31 208.473 142.145C208.62 142.972 209.257 143.389 210.13 143.236V143.236Z" fill="#FFD7B1"/>
<path d="M194.314 144.909L255.307 155.598C260.75 156.552 264.382 161.739 263.417 167.18L261.737 176.649C260.773 182.084 255.587 185.715 250.15 184.763L189.157 174.074C183.713 173.12 180.081 167.933 181.047 162.491L182.727 153.022C183.691 147.588 188.877 143.956 194.314 144.909V144.909Z" fill="white"/>
<path d="M186.665 153.721C187.244 150.458 190.359 148.277 193.623 148.849L254.617 159.538C257.881 160.11 260.057 163.219 259.478 166.481L257.799 175.95C257.22 179.213 254.104 181.394 250.84 180.822L189.847 170.133C186.583 169.561 184.406 166.453 184.985 163.19L186.665 153.721V153.721Z" fill="#FFEFE0"/>
<path d="M191.924 155.756C192.117 154.669 193.155 153.942 194.243 154.132L230.993 160.573C232.081 160.763 232.806 161.8 232.613 162.887L232.557 163.206C232.364 164.293 231.326 165.02 230.238 164.83L193.488 158.389C192.4 158.199 191.674 157.162 191.867 156.075L191.924 155.756V155.756ZM190.628 162.001C190.821 160.913 191.859 160.186 192.947 160.377L222.202 165.504C223.29 165.694 224.015 166.731 223.822 167.818L223.766 168.137C223.573 169.224 222.535 169.951 221.447 169.761L192.192 164.634C191.104 164.443 190.379 163.407 190.572 162.319L190.628 162.001V162.001ZM248.967 163.335C245.714 162.765 242.613 164.923 242.039 168.156C241.466 171.389 243.637 174.471 246.89 175.041C250.143 175.611 253.244 173.453 253.818 170.22C254.391 166.988 252.219 163.905 248.967 163.335ZM252.591 166.88L250.82 168.112C250.637 167.628 250.33 167.193 249.935 166.856L251.706 165.623C252.061 165.997 252.36 166.42 252.591 166.88ZM247.526 171.454C246.267 171.233 245.427 170.04 245.649 168.789C245.871 167.537 247.071 166.702 248.33 166.922C249.589 167.143 250.43 168.336 250.208 169.588C249.986 170.839 248.785 171.675 247.526 171.454V171.454ZM245.606 164.554L246.846 166.314C246.359 166.496 245.921 166.801 245.582 167.194L244.341 165.434C244.717 165.081 245.143 164.784 245.606 164.554V164.554ZM243.266 171.497L245.037 170.264C245.22 170.748 245.527 171.184 245.922 171.521L244.151 172.753C243.795 172.38 243.497 171.957 243.266 171.497ZM250.251 173.822L249.011 172.062C249.498 171.88 249.936 171.575 250.275 171.182L251.515 172.943C251.14 173.296 250.714 173.592 250.251 173.822Z" fill="#FFD7B1"/>
<path d="M52.22 3.00701C53.393 3.32101 54.426 3.98801 55.191 4.89801L71.081 32.241C72.706 35.054 71.744 38.643 68.931 40.267L28.878 63.392C26.065 65.016 22.477 64.055 20.852 61.242L1.72699 28.116C0.102988 25.303 1.06499 21.715 3.87699 20.091L38.24 0.355006C39.358 -0.0519943 40.587 -0.116994 41.768 0.200006L52.22 3.00701Z" fill="white"/>
<path d="M42.0421 14.944L36.7301 5.742L5.87806 23.555C4.97806 24.075 4.67206 25.216 5.19106 26.115L24.3171 59.241C24.8361 60.141 25.9771 60.447 26.8771 59.928L66.9311 36.803C67.8311 36.283 68.1371 35.141 67.6181 34.241L53.8051 10.317L44.6041 15.63C43.7111 16.146 42.5581 15.837 42.0421 14.944V14.944ZM52.3171 7.74L52.5551 8.152L43.8951 13.152L38.8951 4.492L39.3081 4.254C39.7411 4.004 40.2511 3.934 40.7311 4.064L51.1831 6.87C51.6631 6.998 52.0711 7.313 52.3171 7.74Z" fill="#F8E5FF"/>
<path d="M37.51 29.54C37.855 29.342 37.917 28.799 37.649 28.335L37.324 27.772C37.056 27.307 36.554 27.09 36.21 27.289L18.41 37.566C18.066 37.765 18.003 38.307 18.271 38.772L18.596 39.335C18.865 39.799 19.366 40.016 19.71 39.817L37.51 29.541V29.54ZM39.24 22.537C39.585 22.338 39.647 21.796 39.38 21.331L39.054 20.768C38.786 20.304 38.284 20.087 37.94 20.286L15.81 33.062C15.466 33.262 15.403 33.804 15.671 34.268L15.996 34.831C16.265 35.296 16.766 35.513 17.11 35.314L39.24 22.537V22.537ZM36.78 16.828L36.454 16.265C36.186 15.801 35.684 15.583 35.34 15.782L13.21 28.56C12.866 28.759 12.803 29.302 13.071 29.766L13.396 30.329C13.665 30.793 14.166 31.011 14.51 30.812L36.64 18.035C36.985 17.836 37.047 17.293 36.78 16.829V16.828ZM38.383 46.357C38.563 46.254 38.455 45.731 38.146 45.195L37.771 44.545C37.461 44.01 37.062 43.655 36.883 43.759L25.41 50.384C25.231 50.487 25.338 51.01 25.647 51.546L26.022 52.196C26.332 52.731 26.732 53.085 26.91 52.982L38.384 46.357H38.383ZM57.396 27.825L57.9 26.004C58.057 25.472 57.555 24.977 57.036 25.131L55.211 25.641L54.746 23.801C54.609 23.272 53.935 23.089 53.556 23.478L52.243 24.837L50.915 23.472C50.547 23.082 49.86 23.259 49.735 23.791L49.275 25.631L47.452 25.109C46.935 24.953 46.431 25.452 46.586 25.972L47.103 27.804L45.27 28.262C44.744 28.396 44.565 29.072 44.954 29.453L46.316 30.776L44.962 32.102C44.568 32.475 44.746 33.157 45.285 33.287L47.115 33.761L46.61 35.583C46.454 36.115 46.956 36.609 47.475 36.456L49.3 35.946L49.765 37.786C49.901 38.314 50.575 38.497 50.955 38.109L52.268 36.749L53.596 38.114C53.982 38.523 54.652 38.321 54.776 37.796L55.24 35.963L57.06 36.478C57.575 36.638 58.083 36.141 57.925 35.615L57.408 33.782L59.241 33.325C59.767 33.191 59.946 32.515 59.557 32.133L58.195 30.81L59.549 29.485C59.942 29.111 59.764 28.43 59.226 28.299L57.396 27.825V27.825Z" fill="#ECBDFD"/>
<path fill-rule="evenodd" clip-rule="evenodd" d="M66.536 75.993C67.233 77.645 67.918 79.309 68.589 80.986C69.261 82.663 69.945 84.327 70.643 85.979L71.418 89.283H71.999L72.58 85.942C73.045 84.265 73.523 82.607 74.014 80.967C74.504 79.328 74.983 77.67 75.448 75.993H80.408L73.471 95.89H69.557C68.86 94.163 68.11 92.355 67.31 90.465C66.509 88.575 65.76 86.768 65.062 85.041L64.52 82.488H63.823C63.745 82.913 63.655 83.345 63.551 83.783C63.448 84.221 63.357 84.653 63.28 85.078L59.058 95.89H54.95L47.821 75.993H53.711L56.965 85.716L57.508 89.358H58.088L58.864 85.678L62.544 75.993H66.536V75.993ZM100.207 93.9C99.329 94.551 98.134 95.108 96.623 95.57C95.112 96.034 93.491 96.265 91.76 96.265C88.273 96.265 85.716 95.339 84.088 93.487C82.461 91.635 81.648 89.095 81.648 85.867C81.648 82.437 82.564 79.841 84.398 78.077C86.232 76.312 88.815 75.43 92.148 75.43C93.232 75.43 94.304 75.561 95.364 75.824C96.423 76.087 97.365 76.524 98.192 77.138C99.019 77.751 99.684 78.578 100.188 79.616C100.691 80.654 100.943 81.937 100.943 83.464C100.943 83.989 100.911 84.565 100.846 85.191C100.782 85.816 100.672 86.467 100.517 87.143H86.955C87.085 88.845 87.595 90.103 88.485 90.916C89.377 91.729 90.83 92.136 92.845 92.136C94.059 92.136 95.15 91.966 96.119 91.629C97.088 91.291 97.83 90.947 98.347 90.597L100.207 93.9V93.9ZM92.07 79.56C90.469 79.56 89.28 79.979 88.505 80.817C87.73 81.656 87.278 82.726 87.149 84.027H95.906C96.009 82.65 95.751 81.562 95.131 80.761C94.511 79.96 93.491 79.56 92.07 79.56ZM105.825 69.423H111.25V77.683H111.715C112.335 77.007 113.129 76.475 114.098 76.087C115.066 75.699 116.132 75.505 117.294 75.505C119.929 75.505 121.937 76.337 123.319 78.002C124.701 79.666 125.392 82.1 125.392 85.303C125.392 87.03 125.141 88.57 124.637 89.921C124.133 91.272 123.416 92.411 122.486 93.337C121.556 94.263 120.42 94.97 119.077 95.458C117.733 95.946 116.222 96.19 114.543 96.19C112.606 96.19 110.875 96.059 109.351 95.796C107.827 95.533 106.652 95.239 105.825 94.914V69.424V69.423ZM111.25 91.235C111.766 91.485 112.315 91.642 112.897 91.705C113.478 91.767 114.104 91.798 114.776 91.798C118.134 91.798 119.813 89.671 119.813 85.416C119.813 83.614 119.464 82.244 118.767 81.306C118.069 80.366 117.036 79.897 115.667 79.897C114.505 79.897 113.568 80.16 112.858 80.686C112.147 81.211 111.611 81.987 111.25 83.013V91.235V91.235Z" fill="black"/>
<path fill-rule="evenodd" clip-rule="evenodd" d="M130.484 76.611C131.617 76.084 133.008 75.649 134.657 75.306C136.307 74.963 138.013 74.792 139.775 74.792C141.16 74.792 142.325 74.963 143.269 75.306C144.213 75.649 144.962 76.143 145.516 76.789C146.07 77.435 146.467 78.213 146.706 79.122C146.945 80.032 147.065 81.04 147.065 82.148C147.065 83.492 147.014 84.824 146.914 86.142C146.813 87.46 146.763 88.857 146.763 90.334C146.763 91.336 146.825 92.311 146.951 93.26C147.077 94.21 147.279 95.119 147.556 95.989H143.25L142.381 92.904H141.928C141.273 93.827 140.442 94.618 139.435 95.277C138.428 95.937 137.131 96.266 135.545 96.266C134.588 96.266 133.713 96.121 132.92 95.831C132.127 95.541 131.447 95.125 130.88 94.585C130.314 94.045 129.873 93.405 129.558 92.667C129.244 91.929 129.086 91.125 129.086 90.255C129.086 87.908 129.835 86.135 131.334 84.935C132.832 83.736 135.104 83.136 138.151 83.136C138.856 83.136 139.561 83.196 140.266 83.314C140.971 83.433 141.462 83.519 141.739 83.571C141.815 83.018 141.852 82.543 141.852 82.148C141.852 81.146 141.613 80.408 141.135 79.933C140.656 79.458 139.763 79.221 138.453 79.221C137.245 79.221 136.067 79.373 134.922 79.676C133.776 79.979 132.763 80.355 131.881 80.803L130.484 76.611V76.611ZM137.396 91.836C138.579 91.836 139.523 91.546 140.228 90.966C140.933 90.386 141.45 89.78 141.777 89.147V86.774C141.651 86.722 141.456 86.669 141.192 86.616C140.927 86.564 140.638 86.511 140.323 86.458C140.008 86.405 139.693 86.366 139.379 86.34C139.064 86.313 138.781 86.3 138.529 86.3C137.169 86.3 136.162 86.557 135.507 87.071C134.853 87.585 134.525 88.225 134.525 88.989C134.525 89.939 134.783 90.65 135.299 91.125C135.816 91.599 136.514 91.836 137.396 91.836V91.836Z" fill="#0088EE"/>
<path fill-rule="evenodd" clip-rule="evenodd" d="M152.665 90.423C153.043 90.603 153.481 90.784 153.98 90.965C154.478 91.145 155.018 91.313 155.597 91.468C156.177 91.623 156.77 91.752 157.377 91.855C157.983 91.958 158.597 92.01 159.217 92.01C160.161 92.01 160.895 91.868 161.421 91.584C161.947 91.3 162.21 90.771 162.21 89.998C162.21 89.378 161.859 88.921 161.158 88.624C160.457 88.328 159.595 88.037 158.57 87.754C157.815 87.547 157.026 87.302 156.204 87.018C155.382 86.735 154.627 86.354 153.939 85.878C153.252 85.4 152.685 84.774 152.24 84.001C151.796 83.227 151.573 82.246 151.573 81.06C151.573 79.022 152.234 77.468 153.555 76.398C154.876 75.328 156.777 74.792 159.257 74.792C160.875 74.792 162.392 74.927 163.807 75.198C165.223 75.469 166.362 75.785 167.225 76.146L166.052 80.248C165.351 79.99 164.455 79.725 163.363 79.454C162.271 79.184 161.158 79.048 160.026 79.048C159.082 79.048 158.381 79.183 157.923 79.454C157.464 79.725 157.235 80.196 157.235 80.867C157.235 81.46 157.593 81.905 158.307 82.201C159.022 82.498 159.891 82.788 160.916 83.071C161.671 83.278 162.459 83.517 163.282 83.788C164.104 84.058 164.852 84.426 165.526 84.89C166.2 85.355 166.76 85.954 167.205 86.69C167.65 87.425 167.872 88.347 167.872 89.456C167.872 91.623 167.137 93.299 165.668 94.486C164.198 95.672 161.994 96.266 159.055 96.266C157.464 96.266 155.982 96.13 154.606 95.859C153.231 95.589 152.112 95.195 151.25 94.679L152.665 90.423V90.423Z" fill="#22CC22"/>
<path fill-rule="evenodd" clip-rule="evenodd" d="M180.662 86.221L181.534 89.521H181.931L182.684 86.221L186.213 74.792H191.882L184.983 93.448C184.402 94.993 183.853 96.38 183.338 97.611C182.823 98.841 182.261 99.889 181.653 100.753C181.045 101.617 180.364 102.278 179.611 102.736C178.858 103.194 177.966 103.424 176.935 103.424C176.248 103.424 175.593 103.365 174.972 103.247C174.351 103.129 173.816 102.952 173.367 102.717L174.516 98.475C174.913 98.605 175.323 98.671 175.745 98.671C176.115 98.671 176.472 98.632 176.816 98.553C177.16 98.475 177.477 98.324 177.767 98.102C178.058 97.879 178.329 97.565 178.58 97.159C178.831 96.753 179.049 96.21 179.234 95.529L169.719 74.792H176.419L180.662 86.222V86.221Z" fill="#EE6622"/>
<path fill-rule="evenodd" clip-rule="evenodd" d="M195.145 90.423C195.522 90.603 195.96 90.784 196.459 90.965C196.958 91.145 197.497 91.313 198.077 91.468C198.657 91.623 199.25 91.752 199.856 91.855C200.463 91.958 201.076 92.01 201.697 92.01C202.64 92.01 203.375 91.868 203.901 91.584C204.427 91.3 204.689 90.771 204.689 89.998C204.689 89.378 204.339 88.921 203.638 88.624C202.937 88.328 202.074 88.037 201.05 87.754C200.295 87.547 199.506 87.302 198.684 87.018C197.861 86.735 197.106 86.354 196.419 85.878C195.731 85.4 195.165 84.774 194.72 84.001C194.275 83.227 194.053 82.246 194.053 81.06C194.053 79.022 194.713 77.468 196.034 76.398C197.356 75.328 199.257 74.792 201.737 74.792C203.355 74.792 204.871 74.927 206.287 75.198C207.703 75.469 208.842 75.785 209.705 76.146L208.532 80.248C207.831 79.99 206.934 79.725 205.842 79.454C204.75 79.184 203.638 79.048 202.506 79.048C201.562 79.048 200.861 79.183 200.402 79.454C199.944 79.725 199.715 80.196 199.715 80.867C199.715 81.46 200.072 81.905 200.787 82.201C201.501 82.498 202.371 82.788 203.395 83.071C204.15 83.278 204.939 83.517 205.761 83.788C206.584 84.058 207.332 84.426 208.006 84.89C208.68 85.355 209.239 85.954 209.684 86.69C210.129 87.425 210.352 88.347 210.352 89.456C210.352 91.623 209.617 93.299 208.147 94.486C206.678 95.672 204.474 96.266 201.535 96.266C199.944 96.266 198.461 96.13 197.086 95.859C195.711 95.589 194.592 95.195 193.729 94.679L195.145 90.423V90.423Z" fill="#FFCC00"/>
<path fill-rule="evenodd" clip-rule="evenodd" d="M214.045 75.414H217.124V72.639L222.511 71.213V75.414H227.936V79.924H222.511V86.938C222.511 88.557 222.671 89.72 222.992 90.426C223.312 91.133 223.947 91.486 224.896 91.486C225.486 91.486 225.986 91.441 226.397 91.351C226.807 91.261 227.243 91.114 227.705 90.908L228.821 94.955C228 95.315 227.057 95.623 225.993 95.88C224.928 96.137 223.896 96.266 222.895 96.266C220.895 96.266 219.432 95.771 218.509 94.782C217.585 93.792 217.124 92.206 217.124 90.022V79.923H214.045V75.414Z" fill="#55DDDD"/>
<path d="M6.72295 114.363L42.6189 104.745C47.4549 103.449 52.4289 106.321 53.7239 111.157L65.091 153.579C66.387 158.415 63.516 163.389 58.679 164.685L22.784 174.303C17.947 175.599 12.974 172.727 11.678 167.891L0.310952 125.469C-0.985048 120.633 1.88695 115.659 6.72295 114.363Z" fill="white"/>
<path d="M43.6541 108.609L7.75805 118.227C5.05605 118.951 3.45005 121.731 4.17505 124.434L15.5421 166.856C16.2661 169.558 19.0461 171.163 21.7481 170.439L57.6441 160.821C60.3461 160.097 61.9511 157.317 61.2271 154.614L49.8601 112.192C49.1361 109.49 46.3561 107.885 43.6541 108.609V108.609Z" fill="#DDDDDD"/>
<path d="M34.673 159.973C35.157 161.778 37.006 162.845 38.811 162.362C40.616 161.878 41.684 160.029 41.201 158.224C40.716 156.419 38.867 155.351 37.062 155.835C35.257 156.319 34.19 158.168 34.673 159.973V159.973ZM52.948 148.052C53.621 147.872 54.025 147.173 53.844 146.5L45.319 114.683C45.139 114.01 44.44 113.607 43.767 113.788L10.32 122.75C9.64701 122.93 9.24401 123.629 9.42401 124.302L17.949 156.118C18.129 156.792 18.828 157.195 19.501 157.014L52.949 148.052H52.948Z" fill="#ABABAB"/>
<path fill-rule="evenodd" clip-rule="evenodd" d="M69.297 136.73L81.276 139.94C84.826 140.892 86.935 144.543 85.983 148.094L80.023 170.34C79.071 173.891 75.42 175.999 71.869 175.048L59.889 171.838C56.339 170.887 54.231 167.235 55.182 163.684L61.143 141.438C62.095 137.887 65.746 135.779 69.297 136.73Z" fill="white"/>
<path d="M68.262 140.594L80.24 143.804C81.658 144.184 82.5 145.641 82.12 147.058L76.159 169.305C75.779 170.722 74.321 171.564 72.904 171.184L60.925 167.974C59.508 167.595 58.666 166.137 59.045 164.72L65.007 142.473C65.387 141.056 66.844 140.214 68.262 140.594V140.594Z" fill="#DDDDDD"/>
<path d="M74.91 163.697C74.815 164.05 74.45 164.262 74.096 164.167L63.401 161.301C63.048 161.207 62.836 160.841 62.931 160.488L67.401 143.803C67.496 143.45 67.863 143.239 68.215 143.333L78.911 146.199C79.264 146.294 79.475 146.66 79.381 147.013L74.91 163.697ZM66.12 165.698C65.867 166.645 66.426 167.614 67.373 167.868C68.32 168.121 69.289 167.562 69.543 166.615C69.796 165.669 69.237 164.699 68.29 164.445C67.344 164.192 66.374 164.752 66.12 165.698Z" fill="#AAAAAA"/>
</g>
<defs>
<clipPath id="clip0">
<rect width="266" height="185" fill="white"/>
</clipPath>
</defs>
</svg>
