<svg xmlns="http://www.w3.org/2000/svg" width="326" height="129" fill="none" viewBox="0 0 326 129">
    <path fill="#FFD7B1" fill-rule="evenodd" d="M66.837 52.622h.007c1.571 0 2.845 1.274 2.845 2.845V64c0 1.57-1.274 2.844-2.845 2.844H64c-1.42 0-2.597-1.04-2.81-2.4-2.344 11.25-11.976 19.679-23.501 19.679-11.526 0-21.157-8.428-23.501-19.68-.213 1.36-1.39 2.401-2.81 2.401H8.533c-1.57 0-2.844-1.273-2.844-2.844v-8.533c0-1.571 1.273-2.845 2.844-2.845h.008c.166-8.23 3.217-16.083 8.532-21.916 5.468-6.001 12.883-9.373 20.616-9.373 7.732 0 15.148 3.372 20.616 9.373 5.315 5.833 8.366 13.687 8.532 21.916zm-2.562 0H64c-1.085 0-2.028.608-2.508 1.5-.645-6.841-2.644-14.595-6.736-18.243-4.206-3.748-11.093-4.59-17.067-4.59-6.537 0-13.887 1.289-18.221 5.689-3.486 3.538-5.077 10.763-5.61 17.097-.487-.867-1.415-1.453-2.48-1.453h-.275C11.27 45.14 14.05 38 18.884 32.694c4.988-5.474 11.752-8.549 18.805-8.549 7.053 0 13.817 3.075 18.804 8.55C61.328 38 64.11 45.138 64.275 52.621z" clip-rule="evenodd"/>
    <path fill="#FFD7B1" d="M37.689 118.044C22.16 118.044 8.417 110.11 0 97.93c.674-6.023 4.867-11.08 10.635-12.58l6.951-1.805c5.597 4.994 12.648 7.72 20.103 7.72 7.455 0 14.506-2.726 20.103-7.72l6.95 1.806c5.77 1.499 9.961 6.556 10.636 12.579-8.417 12.18-22.16 20.114-37.69 20.114z"/>
    <path fill="#fff" fill-rule="evenodd" d="M81.516 100.258c2.05.844 3.55 2.837 3.55 5.271v13.653c0 3.247-2.67 5.707-5.75 5.707H60.061c-3.08 0-5.75-2.46-5.75-5.707v-13.653c0-2.434 1.502-4.427 3.551-5.271.514-5.112 4.913-8.97 10.077-8.97h3.5c5.164 0 9.563 3.858 10.077 8.97z" clip-rule="evenodd"/>
    <path fill="#29CC29" d="M71.44 95.289c3.383 0 6.126 2.674 6.126 5.973v2.56h1.75c.967 0 1.75.764 1.75 1.707v13.653c0 .943-.783 1.707-1.75 1.707H60.061c-.966 0-1.75-.764-1.75-1.707v-13.653c0-.943.784-1.707 1.75-1.707h1.751v-2.56c0-3.299 2.743-5.973 6.127-5.973h3.5zm2.06 12.272l-5.3 5.269-2.3-2.32c-.233-.238-.612-.238-.85-.005l-1.42 1.413c-.238.233-.238.613-.005.852l4.13 4.169c.233.238.613.238.85.005l7.145-7.103c.233-.238.238-.618.005-.851l-1.406-1.424c-.232-.238-.611-.238-.85-.005zm-2.06-8.859h-3.501c-1.45 0-2.626 1.146-2.626 2.56v2.56h8.752v-2.56c0-1.414-1.176-2.56-2.626-2.56z"/>
    <path fill="#FFD7B1" d="M300.534 33.986c-.568 2.044-1.09 3.925-1.156 5.836-1.211-1.856-1.927-4.509-2.653-7.2-1.408-5.216-2.855-10.578-8.014-10.578-1.708 0-3.701 2.155-5.467 4.065-.858.928-1.662 1.798-2.355 2.335h.711c1.571 0 2.844 1.274 2.844 2.845 0 1.57-1.273 2.844-2.844 2.844h-5.689c-1.571 0-2.844-1.273-2.844-2.844s1.273-2.845 2.844-2.845h.711C260.978 5.69 292.978-.71 298.667 11.379c5.122 10.885 3.342 17.297 1.867 22.608z"/>
    <path fill="#FFD7B1" d="M255.421 56.284c0-13.805 10.765-22.15 24.046-22.15 13.28 0 24.046 8.345 24.046 22.15 0 13.804-10.766 27.839-24.046 27.839-13.281 0-24.046-14.035-24.046-27.84z"/>
    <path fill="#FFD7B1" d="M241.778 97.93c8.416 12.18 22.16 20.114 37.689 20.114 15.528 0 29.272-7.934 37.689-20.114-.675-6.023-4.867-11.08-10.636-12.58l-6.951-1.805c-5.596 4.994-12.648 7.72-20.102 7.72-7.455 0-14.506-2.726-20.103-7.72l-6.951 1.806c-5.769 1.5-9.961 6.556-10.635 12.579z"/>
    <path fill="#fff" fill-rule="evenodd" d="M321.516 100.258c2.049.844 3.551 2.837 3.551 5.271v13.653c0 3.247-2.671 5.707-5.751 5.707h-19.254c-3.08 0-5.751-2.46-5.751-5.707v-13.653c0-2.434 1.502-4.427 3.551-5.271.514-5.112 4.913-8.97 10.076-8.97h3.501c5.164 0 9.563 3.858 10.077 8.97z" clip-rule="evenodd"/>
    <path fill="#29CC29" d="M311.439 95.289c3.384 0 6.127 2.674 6.127 5.973v2.56h1.75c.967 0 1.751.764 1.751 1.707v13.653c0 .943-.784 1.707-1.751 1.707h-19.254c-.967 0-1.751-.764-1.751-1.707v-13.653c0-.943.784-1.707 1.751-1.707h1.75v-2.56c0-3.299 2.743-5.973 6.126-5.973h3.501zm2.061 12.272l-5.299 5.269-2.301-2.32c-.233-.238-.612-.238-.85-.005l-1.42 1.413c-.238.233-.238.613-.005.852l4.131 4.169c.232.238.612.238.849.005l7.145-7.103c.233-.238.238-.618.005-.851l-1.406-1.424c-.232-.238-.611-.238-.849-.005zm-2.061-8.859h-3.501c-1.45 0-2.625 1.146-2.625 2.56v2.56h8.752v-2.56c0-1.414-1.176-2.56-2.626-2.56z"/>
    <path fill="#FFD7B1" d="M108.089 90.667c11.275 16.578 29.687 27.377 50.489 27.377 20.802 0 39.214-10.799 50.489-27.377-.904-8.198-6.52-15.08-14.248-17.121l-9.311-2.458c-7.498 6.798-16.944 10.507-26.93 10.507-9.987 0-19.433-3.71-26.931-10.507l-9.311 2.458c-7.728 2.04-13.344 8.923-14.247 17.121zm18.276-52.812c0 18.789 14.422 34.02 32.213 34.02 17.79 0 32.212-15.231 32.212-34.02 0-9.147 1.905-17.13-4.964-26.781-4.007-5.63-11.22-3.217-11.22-3.217S159.009 0 149.141 0c-9.867 0-13.624 6.866-18.916 14.909-4.745 5.925-3.86 14.578-3.86 22.946z"/>
    <path fill="#fff" fill-rule="evenodd" d="M216.146 98.211c2.532 1.056 4.387 3.546 4.387 6.589v17.067c0 4.058-3.299 7.133-7.105 7.133h-23.79c-3.805 0-7.105-3.075-7.105-7.133V104.8c0-3.043 1.855-5.533 4.388-6.589.635-6.39 6.07-11.211 12.45-11.211h4.325c6.38 0 11.815 4.821 12.45 11.211z" clip-rule="evenodd"/>
    <path fill="#29CC29" d="M203.841 91c4.461 0 8.077 3.552 8.077 7.933v3.4h2.308c1.274 0 2.307 1.015 2.307 2.267v18.133c0 1.252-1.033 2.267-2.307 2.267h-25.385c-1.274 0-2.308-1.015-2.308-2.267V104.6c0-1.252 1.034-2.267 2.308-2.267h2.308v-3.4c0-4.381 3.616-7.933 8.077-7.933h4.615zm2.717 16.299l-6.987 6.998-3.033-3.082c-.306-.316-.806-.316-1.12-.006l-1.873 1.877c-.313.31-.313.814-.007 1.131l5.447 5.537c.306.317.806.317 1.12.007l9.419-9.434c.307-.316.313-.821.007-1.13l-1.853-1.891c-.307-.316-.807-.316-1.12-.007zm-2.717-11.766h-4.615c-1.912 0-3.462 1.523-3.462 3.4v3.4h11.539v-3.4c0-1.877-1.55-3.4-3.462-3.4z"/>
</svg>
