<svg width="96" height="97" viewBox="0 0 96 97" fill="none" xmlns="http://www.w3.org/2000/svg">
<path d="M48 0.5C21.4905 0.5 0 21.9903 0 48.5C0 75.0097 21.4905 96.5 48 96.5C74.5095 96.5 96 75.0095 96 48.5C96 21.9905 74.5097 0.5 48 0.5ZM73.1822 23.3178C85.8495 35.9852 86.7306 55.3464 77.1842 68.925L27.5748 19.316C41.1627 9.76323 60.5218 10.6576 73.1822 23.3178ZM22.8178 73.6822C10.1505 61.0148 9.26942 41.6536 18.8158 28.075L68.4252 77.684C54.8375 87.2368 35.4782 86.3426 22.8178 73.6822V73.6822Z" fill="#CCCCCC"/>
</svg>
