<svg width="32" height="32" viewBox="0 0 32 32" fill="none" xmlns="http://www.w3.org/2000/svg">
<g clip-path="url(#clip0_1_2)">
<path d="M16 32C24.8366 32 32 24.8366 32 16C32 7.16344 24.8366 0 16 0C7.16344 0 0 7.16344 0 16C0 24.8366 7.16344 32 16 32Z" fill="#B3B3B3"/>
<path d="M17.0101 6.50478C17.7066 5.68407 18.8837 5.07394 19.8664 5.03075C19.9959 6.17002 19.5316 7.31469 18.8621 8.1354C18.1872 8.96151 17.0857 9.59324 15.9896 9.50685C15.833 8.39997 16.3837 7.2391 17.0101 6.50478ZM22.5445 22.0551C21.7346 23.2375 20.903 24.4146 19.5802 24.4416C18.2789 24.4632 17.8686 23.6695 16.3837 23.6695C14.8989 23.6695 14.4346 24.4092 13.2089 24.4632C11.9346 24.5118 10.9627 23.1835 10.1528 22.0065C8.49522 19.5929 7.22636 15.187 8.93257 12.212C9.77488 10.7379 11.2867 9.80382 12.9389 9.77682C14.1916 9.76062 15.3687 10.6191 16.1354 10.6191C16.9021 10.6191 18.3329 9.57704 19.8394 9.72823C20.4711 9.74983 22.2421 9.982 23.376 11.6504C23.2896 11.7098 21.2594 12.8869 21.2864 15.3544C21.308 18.2917 23.8511 19.269 23.8835 19.2852C23.8619 19.3608 23.484 20.689 22.5445 22.0551Z" fill="white"/>
</g>
<defs>
<clipPath id="clip0_1_2">
<rect width="32" height="32" fill="white"/>
</clipPath>
</defs>
</svg>
