<?xml version="1.0" encoding="UTF-8"?>
<!-- Generated by Pixelmator Pro 3.2.3 -->
<svg width="24" height="24" viewBox="0 0 24 24" xmlns="http://www.w3.org/2000/svg" xmlns:xlink="http://www.w3.org/1999/xlink">
    <path id="Path" fill="#b3b3b3" stroke="none" d="M 21.588276 18.703285 C 21.229059 19.541779 20.803865 20.313606 20.311226 21.023214 C 19.639709 21.990593 19.08989 22.660202 18.666161 23.032043 C 18.00931 23.642395 17.30554 23.954977 16.551918 23.972754 C 16.010895 23.972754 15.358441 23.817204 14.598955 23.501657 C 13.836978 23.187592 13.136726 23.032043 12.496441 23.032043 C 11.824927 23.032043 11.104735 23.187592 10.3344 23.501657 C 9.562892 23.817204 8.941375 23.981644 8.466183 23.99794 C 7.743498 24.029049 7.023161 23.707577 6.304142 23.032043 C 5.845225 22.627611 5.271213 21.934299 4.58357 20.952105 C 3.845784 19.903248 3.239222 18.686989 2.764031 17.300365 C 2.255117 15.802632 2 14.352305 2 12.9482 C 2 11.339806 2.343968 9.952588 3.03293 8.790104 C 3.574393 7.856356 4.294731 7.119785 5.19629 6.57906 C 6.097849 6.038336 7.071985 5.762789 8.121042 5.745159 C 8.695055 5.745159 9.447796 5.924562 10.383224 6.277143 C 11.316013 6.630909 11.914951 6.810312 12.177545 6.810312 C 12.373868 6.810312 13.039225 6.60054 14.167163 6.182331 C 15.233815 5.794491 16.134054 5.633904 16.871546 5.697161 C 18.869963 5.860119 20.371338 6.656096 21.369812 8.090125 C 19.582529 9.184314 18.698418 10.71686 18.716011 12.682876 C 18.73214 14.214236 19.281961 15.488567 20.362541 16.500389 C 20.852247 16.970003 21.399136 17.332956 22.007603 17.590727 C 21.875648 17.977381 21.736361 18.34774 21.588276 18.703285 Z M 17.004971 0.480135 C 17.004971 1.680408 16.570978 2.8011 15.705927 3.838402 C 14.662002 5.07155 13.39932 5.784122 12.030047 5.67168 C 12.012599 5.527685 12.002482 5.376133 12.002482 5.216881 C 12.002482 4.064617 12.498934 2.83147 13.380553 1.823204 C 13.820703 1.312702 14.380493 0.888226 15.059339 0.549612 C 15.736717 0.216053 16.377441 0.031586 16.980043 -4e-06 C 16.997641 0.160456 17.004971 0.320925 17.004971 0.480118 Z"/>
</svg>
