<svg width="30" height="30" viewBox="0.509 -0.127 47.3 47.554" fill="none" xmlns="http://www.w3.org/2000/svg"><ellipse style="fill: rgb(24, 104, 219);" cx="24.327" cy="23.626" rx="23.642" ry="23.642" /><path d="M 38.315 23.608 L 35.888 38.436 C 35.73 39.333 35.096 39.861 34.199 39.861 L 13.619 39.861 C 12.722 39.861 12.089 39.333 11.93 38.436 L 7.656 11.999 C 7.498 11.101 7.973 10.521 8.817 10.521 L 39.001 10.521 C 39.846 10.521 40.321 11.101 40.162 11.999 L 39.001 18.964 C 38.843 19.967 38.263 20.389 37.313 20.389 L 19.16 20.389 C 18.896 20.389 18.738 20.547 18.79 20.864 L 20.215 29.624 C 20.268 29.835 20.426 29.993 20.637 29.993 L 27.181 29.993 C 27.392 29.993 27.55 29.835 27.603 29.624 L 28.606 23.291 C 28.711 22.5 29.239 22.183 29.978 22.183 L 37.102 22.183 C 38.157 22.183 38.474 22.711 38.315 23.608 Z" style="fill: rgb(248, 249, 250);" /></svg>