<svg width="24" height="24" viewBox="-0.064 2.164 47.937 43.545" fill="none" xmlns="http://www.w3.org/2000/svg"><path d="M 44.962 21.581 L 41.422 43.211 C 41.191 44.519 40.267 45.29 38.958 45.29 L 8.938 45.29 C 7.629 45.29 6.705 44.519 6.474 43.211 L 0.239 4.644 C 0.008 3.335 0.7 2.49 1.932 2.49 L 45.965 2.49 C 47.196 2.49 47.888 3.335 47.657 4.644 L 45.965 14.806 C 45.733 16.269 44.887 16.884 43.501 16.884 L 17.02 16.884 C 16.634 16.884 16.405 17.114 16.482 17.577 L 18.56 30.356 C 18.637 30.663 18.868 30.895 19.175 30.895 L 28.721 30.895 C 29.028 30.895 29.259 30.663 29.336 30.356 L 30.799 21.118 C 30.953 19.964 31.723 19.501 32.8 19.501 L 43.193 19.501 C 44.733 19.501 45.194 20.272 44.962 21.581 Z" fill="#1868DB" style="" /></svg>