<svg width="32" height="32" viewBox="0 0 32 32" fill="none" xmlns="http://www.w3.org/2000/svg">
<g clip-path="url(#clip0_1_6)">
<path fill-rule="evenodd" clip-rule="evenodd" d="M32 16.0978C32 7.20722 24.8366 0 16 0C7.16344 0 0 7.20722 0 16.0978C0 24.1326 5.85097 30.7924 13.5 32V20.751H9.4375V16.0978H13.5V12.5512C13.5 8.51673 15.8887 6.2882 19.5434 6.2882C21.294 6.2882 23.125 6.60261 23.125 6.60261V10.5642H21.1074C19.1198 10.5642 18.5 11.805 18.5 13.0781V16.0978H22.9375L22.2281 20.751H18.5V32C26.149 30.7924 32 24.1326 32 16.0978Z" fill="#1677F7"/>
</g>
<defs>
<clipPath id="clip0_1_6">
<rect width="32" height="32" fill="white"/>
</clipPath>
</defs>
</svg>
