<?xml version="1.0" encoding="UTF-8"?>
<!-- Generated by Pixelmator Pro 3.2.3 -->
<svg width="24" height="24" viewBox="0 0 24 24" xmlns="http://www.w3.org/2000/svg" xmlns:xlink="http://www.w3.org/1999/xlink">
    <linearGradient id="linearGradient1" x1="12.0006" y1="23.165352" x2="12.0006" y2="-0.004421" gradientUnits="userSpaceOnUse">
        <stop offset="1e-05" stop-color="#0062e0" stop-opacity="1"/>
        <stop offset="1" stop-color="#19afff" stop-opacity="1"/>
    </linearGradient>
    <path id="Path" fill="url(#linearGradient1)" stroke="none" d="M 10.02 23.879999 C 4.32 22.859999 0 17.939999 0 12 C 0 5.4 5.4 0 12 0 C 18.6 0 24 5.4 24 12 C 24 17.939999 19.68 22.859999 13.98 23.879999 L 13.320001 23.34 L 10.679999 23.34 L 10.02 23.879999 Z"/>
    <path id="path1" fill="#ffffff" stroke="none" d="M 16.68 15.360001 L 17.220001 12 L 14.04 12 L 14.04 9.66 C 14.04 8.7 14.4 7.98 15.84 7.98 L 17.4 7.98 L 17.4 4.92 C 16.559999 4.799999 15.6 4.68 14.76 4.68 C 12 4.68 10.08 6.360001 10.08 9.360001 L 10.08 12 L 7.08 12 L 7.08 15.360001 L 10.08 15.360001 L 10.08 23.82 C 10.74 23.940001 11.4 24 12.06 24 C 12.72 24 13.379999 23.940001 14.04 23.82 L 14.04 15.360001 L 16.68 15.360001 Z"/>
</svg>
