<svg xmlns="http://www.w3.org/2000/svg" xmlns:xlink="http://www.w3.org/1999/xlink" width="32" height="32" viewBox="0 0 32 32">
  <defs>
    <path id="google-circle-a" d="M24,15.93125 C24,20.353125 20.8229508,23.5 16.1311475,23.5 C11.6327869,23.5 8,20.0375 8,15.75 C8,11.4625 11.6327869,8 16.1311475,8 C18.3213115,8 20.1639344,8.765625 21.5836066,10.028125 L19.3704918,12.05625 C16.4754098,9.39375 11.0918033,11.39375 11.0918033,15.75 C11.0918033,18.453125 13.357377,20.64375 16.1311475,20.64375 C19.3508197,20.64375 20.557377,18.44375 20.747541,17.303125 L16.1311475,17.303125 L16.1311475,14.6375 L23.8721311,14.6375 C23.947541,15.034375 24,15.415625 24,15.93125 Z"/>
  </defs>
  <g fill="none" fill-rule="evenodd">
    <circle cx="16" cy="16" r="16" fill="#E4E4E4"/>
    <circle cx="16" cy="16" r="16" fill="#E7482F"/>
    <use fill="#FFF" fill-rule="nonzero" xlink:href="#google-circle-a"/>
  </g>
</svg>
