<svg xmlns="http://www.w3.org/2000/svg" xmlns:xlink="http://www.w3.org/1999/xlink" width="16" height="16" viewBox="0 0 16 16">
  <defs>
    <path id="google-a" d="M16,7.93125 C16,12.353125 12.8229508,15.5 8.13114754,15.5 C3.63278689,15.5 0,12.0375 0,7.75 C0,3.4625 3.63278689,0 8.13114754,0 C10.3213115,0 12.1639344,0.765625 13.5836066,2.028125 L11.3704918,4.05625 C8.47540984,1.39375 3.09180328,3.39375 3.09180328,7.75 C3.09180328,10.453125 5.35737705,12.64375 8.13114754,12.64375 C11.3508197,12.64375 12.557377,10.44375 12.747541,9.303125 L8.13114754,9.303125 L8.13114754,6.6375 L15.8721311,6.6375 C15.947541,7.034375 16,7.415625 16,7.93125 Z"/>
  </defs>
  <g fill="none" fill-rule="evenodd">
    <use fill="#EA4235" fill-rule="nonzero" xlink:href="#google-a"/>
  </g>
</svg>
