<svg width="32" height="32" viewBox="0 0 32 32" fill="none" xmlns="http://www.w3.org/2000/svg">
<g clip-path="url(#clip0_5_114)">
<path d="M31.5 16C31.5 24.5604 24.5604 31.5 16 31.5C7.43959 31.5 0.5 24.5604 0.5 16C0.5 7.43959 7.43959 0.5 16 0.5C24.5604 0.5 31.5 7.43959 31.5 16Z" fill="white" stroke="#E4E4E4"/>
<path d="M26.56 16.25C26.56 15.47 26.49 14.72 26.36 14H16V18.26H21.92C21.66 19.63 20.88 20.79 19.71 21.57V24.34H23.28C25.36 22.42 26.56 19.6 26.56 16.25Z" fill="#4285F4"/>
<path d="M16.0001 27C18.9701 27 21.4601 26.02 23.2801 24.34L19.7101 21.57C18.7301 22.23 17.4801 22.63 16.0001 22.63C13.1401 22.63 10.7101 20.7 9.84005 18.1H6.18005V20.94C7.99005 24.53 11.7001 27 16.0001 27Z" fill="#34A853"/>
<path d="M9.84 18.0899C9.62 17.4299 9.49 16.7299 9.49 15.9999C9.49 15.2699 9.62 14.5699 9.84 13.9099V11.0699H6.18C5.43 12.5499 5 14.2199 5 15.9999C5 17.7799 5.43 19.4499 6.18 20.9299L9.03 18.7099L9.84 18.0899Z" fill="#FBBC05"/>
<path d="M16.0001 9.38C17.6201 9.38 19.0601 9.94 20.2101 11.02L23.3601 7.87C21.4501 6.09 18.9701 5 16.0001 5C11.7001 5 7.99005 7.47 6.18005 11.07L9.84005 13.91C10.7101 11.31 13.1401 9.38 16.0001 9.38Z" fill="#EA4335"/>
</g>
<defs>
<clipPath id="clip0_5_114">
<rect width="32" height="32" fill="white"/>
</clipPath>
</defs>
</svg>
