<svg xmlns="http://www.w3.org/2000/svg" width="14" height="14" viewBox="0 0 14 14">
  <path fill="#F89C0E" d="M12.2626121,2.27208433 C9.96832378,-0.225096681 6.16403371,-0.7209591 3.27831612,1.06891065 C-0.494545335,3.40824957 -0.570259707,7.92461808 0.852599063,10.4917857 C2.95688718,14.2919085 7.4640352,14.3648732 9.08260848,13.6456493 C10.1540383,13.170634 9.67832345,11.7172955 8.64546512,12.1506167 C6.60831993,13.0083247 3.17974458,12.1491276 1.98117178,9.26627585 C0.881170525,6.62316537 2.01402896,3.81030018 3.78117384,2.53862899 C5.44403289,1.3429007 8.5726079,0.992967758 10.9026106,3.11936876 C13.4054706,5.40212277 12.3440408,9.33775152 11.4568969,10.2892713 C11.2297538,10.5319907 10.8197533,10.3369217 10.8554676,9.95869635 L10.8526105,4.19746002 C10.8526105,4.0351507 10.7454675,3.52290844 10.2268955,3.52290844 L10.1426097,3.52290844 C9.80975217,3.52290844 9.57118047,3.80285479 9.57118047,4.17214572 L9.57118047,4.17065665 C8.83260819,3.39931511 7.82689276,2.90643084 6.75689153,2.90643084 C4.6426034,2.90643084 2.78260127,4.86754437 2.78260127,7.09371349 C2.78260127,9.29754646 4.6426034,11.2363238 6.75689153,11.2363238 C7.82689276,11.2363238 8.80832245,10.79109 9.54689472,10.0271939 L9.55832331,10.4381789 C9.5483233,11.6964484 11.1226108,12.5362875 12.182612,11.6726232 C14.5211861,9.77256181 14.6611863,4.88243513 12.2626121,2.27208433 Z M6.7426058,9.87679715 C5.33403276,9.87679715 4.25974582,8.82253111 4.25974582,7.15327654 C4.25974582,5.66271113 5.14831826,4.34934581 6.74832009,4.34934581 L6.8011773,4.34934581 C8.18832174,4.34934581 9.33689448,5.32022358 9.41689458,6.93289324 L9.41975172,7.25900096 C9.3468945,8.6780907 8.31403617,9.87679715 6.7426058,9.87679715 Z"/>
</svg>
