<svg xmlns="http://www.w3.org/2000/svg" width="32" height="32" viewBox="0 0 32 32">
  <g fill="none" fill-rule="evenodd">
    <circle cx="16" cy="16" r="16" fill="#E4E4E4"/>
    <circle cx="16" cy="16" r="16" fill="#F89B0E"/>
    <path fill="#FFF" fill-rule="nonzero" d="M21.2626121,11.2720843 C18.9683238,8.77490332 15.1640337,8.2790409 12.2783161,10.0689107 C8.50545467,12.4082496 8.42974029,16.9246181 9.85259906,19.4917857 C11.9568872,23.2919085 16.4640352,23.3648732 18.0826085,22.6456493 C19.1540383,22.170634 18.6783234,20.7172955 17.6454651,21.1506167 C15.6083199,22.0083247 12.1797446,21.1491276 10.9811718,18.2662759 C9.88117052,15.6231654 11.014029,12.8103002 12.7811738,11.538629 C14.4440329,10.3429007 17.5726079,9.99296776 19.9026106,12.1193688 C22.4054706,14.4021228 21.3440408,18.3377515 20.4568969,19.2892713 C20.2297538,19.5319907 19.8197533,19.3369217 19.8554676,18.9586963 L19.8526105,13.19746 C19.8526105,13.0351507 19.7454675,12.5229084 19.2268955,12.5229084 L19.1426097,12.5229084 C18.8097522,12.5229084 18.5711805,12.8028548 18.5711805,13.1721457 L18.5711805,13.1706566 C17.8326082,12.3993151 16.8268928,11.9064308 15.7568915,11.9064308 C13.6426034,11.9064308 11.7826013,13.8675444 11.7826013,16.0937135 C11.7826013,18.2975465 13.6426034,20.2363238 15.7568915,20.2363238 C16.8268928,20.2363238 17.8083225,19.79109 18.5468947,19.0271939 L18.5583233,19.4381789 C18.5483233,20.6964484 20.1226108,21.5362875 21.182612,20.6726232 C23.5211861,18.7725618 23.6611863,13.8824351 21.2626121,11.2720843 Z M15.7426058,18.8767971 C14.3340328,18.8767971 13.2597458,17.8225311 13.2597458,16.1532765 C13.2597458,14.6627111 14.1483183,13.3493458 15.7483201,13.3493458 L15.8011773,13.3493458 C17.1883217,13.3493458 18.3368945,14.3202236 18.4168946,15.9328932 L18.4197517,16.259001 C18.3468945,17.6780907 17.3140362,18.8767971 15.7426058,18.8767971 Z"/>
  </g>
</svg>
