<?xml version="1.0" encoding="UTF-8"?>
<!-- Generated by Pixelmator Pro 3.2.3 -->
<svg width="24" height="24" viewBox="0 0 24 24" xmlns="http://www.w3.org/2000/svg" xmlns:xlink="http://www.w3.org/1999/xlink">
    <path id="Path" fill="#ff9e00" stroke="none" d="M 15.6 12 C 15.6 14 14 15.6 12 15.6 C 10 15.6 8.4 14 8.4 12 C 8.4 10 10 8.4 12 8.4 C 14 8.4 15.6 10 15.6 12 M 12 0 C 5.4 0 0 5.4 0 12 C 0 18.6 5.4 24 12 24 C 14.44 24 16.76 23.280001 18.76 21.92 L 18.799999 21.880001 L 17.200001 20 L 17.16 20 C 15.639999 21 13.839999 21.52 12 21.52 C 6.72 21.560001 2.48 17.280001 2.48 12 C 2.48 6.719999 6.72 2.48 12 2.48 C 17.280001 2.48 21.52 6.719999 21.52 12 C 21.52 12.68 21.439999 13.360001 21.280001 14.039999 C 20.960001 15.280001 20.119999 15.639999 19.48 15.6 C 18.84 15.56 18.039999 15.08 18.039999 13.92 L 18.039999 13.039999 L 18.039999 12 C 18.039999 8.639999 15.32 5.92 11.96 5.92 C 8.6 5.92 5.92 8.639999 5.92 12 C 5.92 15.360001 8.64 18.08 12 18.08 C 13.639999 18.08 15.160001 17.439999 16.32 16.280001 C 17 17.32 18.08 17.960001 19.32 18.08 C 19.439999 18.08 19.52 18.08 19.639999 18.08 C 20.52 18.08 21.360001 17.799999 22.08 17.24 C 22.799999 16.68 23.32 15.92 23.639999 14.960001 C 23.68 14.8 23.76 14.44 23.76 14.44 L 23.76 14.44 C 23.92 13.68 24 12.92 24 12 C 24 5.4 18.6 0 12 0"/>
</svg>
