<svg width="32" height="32" viewBox="0 0 32 32" fill="none" xmlns="http://www.w3.org/2000/svg">
<g clip-path="url(#clip0_1_28)">
<path d="M16 32C24.8366 32 32 24.8366 32 16C32 7.16344 24.8366 0 16 0C7.16344 0 0 7.16344 0 16C0 24.8366 7.16344 32 16 32Z" fill="#F89B0E"/>
<path d="M18.9973 16C18.9973 17.6652 17.6652 18.9973 16 18.9973C14.3348 18.9973 13.0027 17.6652 13.0027 16C13.0027 14.3348 14.3348 13.0027 16 13.0027C17.6652 13.0027 18.9973 14.3348 18.9973 16ZM16 6.0089C10.5049 6.0089 6.00891 10.5049 6.00891 16C6.00891 21.4951 10.5049 25.9911 16 25.9911C18.0315 25.9911 19.9632 25.3916 21.6283 24.2593L21.6616 24.226L20.3295 22.6607H20.2962C19.0306 23.4933 17.532 23.9263 16 23.9263C11.6039 23.9596 8.07374 20.3961 8.07374 16C8.07374 11.6039 11.6039 8.07372 16 8.07372C20.3961 8.07372 23.9263 11.6039 23.9263 16C23.9263 16.5662 23.8597 17.1323 23.7265 17.6985C23.46 18.7309 22.7607 19.0306 22.2278 18.9973C21.6949 18.964 21.0289 18.5644 21.0289 17.5986V16.8659V16C21.0289 13.2025 18.7642 10.9378 15.9667 10.9378C13.1692 10.9378 10.9379 13.2025 10.9379 16C10.9379 18.7975 13.2025 21.0622 16 21.0622C17.3655 21.0622 18.631 20.5293 19.5968 19.5635C20.163 20.4294 21.0622 20.9622 22.0946 21.0622C22.1945 21.0622 22.2611 21.0622 22.361 21.0622C23.0937 21.0622 23.7931 20.829 24.3925 20.3628C24.992 19.8965 25.425 19.2638 25.6914 18.4645C25.7247 18.3313 25.7913 18.0315 25.7913 18.0315C25.9245 17.3988 25.9911 16.766 25.9911 16C25.9911 10.5049 21.4951 6.0089 16 6.0089Z" fill="white"/>
</g>
<defs>
<clipPath id="clip0_1_28">
<rect width="32" height="32" fill="white"/>
</clipPath>
</defs>
</svg>
