<svg width="30" height="30" version="1.1" xmlns="http://www.w3.org/2000/svg" viewBox="44.651 48.435 508.738 503.318"><ellipse style="fill: rgb(255, 119, 0);" cx="298.246" cy="299.707" rx="248.949" ry="248.949" /><path d="m369.56 262.56a97.829 97.829 0 0 1-139.13 0 99.114 99.114 0 0 1 69.563-168.86 99.114 99.114 0 0 1 69.563 169.04zm-69.747-114.9a44.877 44.877 0 0 0 0 89.753 44.877 44.877 0 0 0 0-89.753zm103.52 144.27 28.816 39.646c1.4684 2.019 1.1013 4.7722-0.73418 6.2405a202.08 202.08 0 0 1-81.861 40.196l55.614 107.92a4.5886 4.5886 0 0 1-4.038 6.7911h-59.652c-1.8354 0-3.4874-1.1013-4.2215-2.7532l-37.26-89.019-37.443 89.019a4.5886 4.5886 0 0 1-4.2215 2.7532h-59.652c-3.4873 0-5.5063-3.6709-4.038-6.7911l55.797-107.92c-29.367-6.9747-57.633-20.19-81.861-40.196a4.5886 4.5886 0 0 1-0.91773-6.2405l29-39.462a4.7722 4.7722 0 0 1 6.7911-0.91773 149.41 149.41 0 0 0 96.544 38.544c35.791 0 69.196-15.051 96.544-38.544 1.8354-1.8354 5.1392-1.4684 6.7911 0.73418z" fill="#fff" /></svg>