<svg xmlns="http://www.w3.org/2000/svg" width="14" height="14" viewBox="0 0 14 14" version="1.1"><path d="M14 12C14 13.1 13.1 14 12 14L2 14C0.9 14 0 13.1 0 12L0 2.1C0 0.9 0.9 0 2 0L12 0C13.1 0 14 0.9 14 2.1ZM14 12" style=" stroke:none;fill:rgb(98.039216%,67.058824%,38.431373%)"/><path d="M13.9 11.9C13.9 13 13 13.9 11.9 13.9L2.1 13.9C1 13.9 0.1 13 0.1 11.9L0.1 2.1C0.1 1 1 0.1 2.1 0.1L11.9 0.1C13 0.1 13.9 1 13.9 2.1ZM13.9 11.9" style=" stroke:none;fill:rgb(96.862745%,57.647059%,11.764706%)"/><path d="M7 2.1C5.6 2.1 4.5 3.2 4.5 4.6 4.5 6 5.6 7.2 7 7.2 8.4 7.2 9.5 6 9.5 4.6 9.5 3.2 8.4 2.1 7 2.1ZM7 5.7C6.4 5.7 6 5.2 6 4.6 6 4 6.4 3.6 7 3.6 7.6 3.6 8 4 8 4.6 8 5.2 7.6 5.7 7 5.7ZM7 5.7 7.9 9.2C8.9 9 9.5 8.5 9.5 8.4 9.8 8.2 9.9 7.8 9.6 7.5 9.4 7.2 9 7.1 8.7 7.4 8.7 7.4 8 7.9 7 7.9 5.9 7.9 5.3 7.4 5.2 7.4 4.9 7.1 4.5 7.2 4.3 7.5 4 7.8 4.1 8.2 4.4 8.4 4.4 8.5 5 9 6.1 9.2L4.6 10.7C4.4 11 4.4 11.4 4.7 11.7 4.8 11.8 5 11.9 5.1 11.9 5.3 11.9 5.5 11.8 5.6 11.6L7 10.2 8.4 11.6C8.7 11.9 9.1 11.9 9.4 11.6 9.7 11.4 9.7 10.9 9.4 10.7ZM7.9 9.2" style=" stroke:none;fill:rgb(100%,100%,100%)"/></svg>