<svg xmlns="http://www.w3.org/2000/svg" xmlns:xlink="http://www.w3.org/1999/xlink" width="32" height="32" viewBox="0 0 32 32">
  <defs>
    <path id="twitter-circle-a" d="M22.3553125,12.741125 C22.3654687,12.88325 22.3654687,13.0254062 22.3654687,13.1675312 C22.3654687,17.5025312 19.066,22.4974687 13.0355312,22.4974687 C11.1776563,22.4974687 9.45178125,21.959375 8,21.0254062 C8.26396875,21.0558437 8.51775,21.066 8.791875,21.066 C10.3248437,21.066 11.7360312,20.54825 12.8629375,19.665 C11.4213125,19.6345312 10.2131875,18.690375 9.7969375,17.390875 C10,17.4213125 10.2030313,17.441625 10.41625,17.441625 C10.7106562,17.441625 11.0050938,17.401 11.2791875,17.3299687 C9.77665625,17.025375 8.64971875,15.7055937 8.64971875,14.1116875 L8.64971875,14.0710937 C9.08625,14.31475 9.59390625,14.4670312 10.1319375,14.4873125 C9.2486875,13.8984687 8.67003125,12.8934062 8.67003125,11.7563437 C8.67003125,11.1472187 8.8324375,10.5888437 9.11671875,10.1015312 C10.7309375,12.091375 13.1573438,13.3908437 15.878125,13.533 C15.827375,13.2893437 15.7969062,13.0355625 15.7969062,12.78175 C15.7969062,10.974625 17.2588437,9.5025625 19.0760938,9.5025625 C20.02025,9.5025625 20.8730313,9.8985 21.4720313,10.5380937 C22.213125,10.3959687 22.9237813,10.1218437 23.55325,9.74621875 C23.3095625,10.5076562 22.7918125,11.14725 22.111625,11.5533125 C22.7715313,11.4822812 23.411125,11.2995 23.9999375,11.0457187 C23.5533125,11.6954375 22.9949062,12.2740937 22.3553125,12.741125 Z"/>
  </defs>
  <g fill="none" fill-rule="evenodd">
    <circle cx="16" cy="16" r="16" fill="#E4E4E4"/>
    <circle cx="16" cy="16" r="16" fill="#1DA1F2"/>
    <use fill="#FFF" fill-rule="nonzero" xlink:href="#twitter-circle-a"/>
  </g>
</svg>
