<?xml version="1.0" encoding="UTF-8"?>
<!-- Generated by Pixelmator Pro 3.2.3 -->
<svg width="24" height="24" viewBox="0 0 24 24" xmlns="http://www.w3.org/2000/svg" xmlns:xlink="http://www.w3.org/1999/xlink">
    <path id="Path" fill="#1d9bf0" stroke="none" d="M 21.479033 7.028433 C 21.493549 7.241175 21.493549 7.453922 21.493549 7.668629 C 21.493549 14.210785 16.577419 21.755882 7.588065 21.755882 L 7.588065 21.751961 C 4.932581 21.755882 2.332258 20.985294 0.096774 19.532352 C 0.482903 19.579411 0.870968 19.602942 1.26 19.603922 C 3.460645 19.605883 5.598387 18.857843 7.329677 17.480392 C 5.238387 17.440197 3.404516 16.058823 2.763871 14.042157 C 3.496452 14.185294 4.25129 14.155882 4.970323 13.956862 C 2.690322 13.490196 1.05 11.460784 1.05 9.103921 L 1.05 9.041177 C 1.729355 9.424511 2.49 9.637255 3.268064 9.660785 C 1.120645 8.206862 0.45871 5.312746 1.755484 3.050001 C 4.236774 6.143137 7.897742 8.02353 11.827742 8.222549 C 11.433871 6.502941 11.971935 4.700981 13.241613 3.492157 C 15.21 1.617647 18.305807 1.713726 20.15613 3.706863 C 21.250645 3.488235 22.299677 3.081373 23.259678 2.504902 C 22.894838 3.65098 22.13129 4.62451 21.11129 5.243137 C 22.08 5.127451 23.026451 4.864706 23.917742 4.463726 C 23.261612 5.459805 22.435162 6.327452 21.479033 7.028433 Z"/>
</svg>
