<svg width="32" height="32" viewBox="0 0 32 32" fill="none" xmlns="http://www.w3.org/2000/svg">
<g clip-path="url(#clip0_1_36)">
<path d="M16 32C24.8366 32 32 24.8366 32 16C32 7.16344 24.8366 0 16 0C7.16344 0 0 7.16344 0 16C0 24.8366 7.16344 32 16 32Z" fill="#1DA1F2"/>
<path d="M23.6752 11.966C23.687 12.1382 23.687 12.3104 23.687 12.4842C23.687 17.7805 19.7071 23.8887 12.4297 23.8887V23.8855C10.2799 23.8887 8.17478 23.2649 6.36502 22.0886C6.67761 22.1267 6.99178 22.1458 7.30672 22.1466C9.08827 22.1481 10.8189 21.5426 12.2205 20.4274C10.5275 20.3949 9.04283 19.2766 8.52419 17.644C9.11726 17.7599 9.72834 17.736 10.3104 17.5749C8.46465 17.1971 7.13671 15.5542 7.13671 13.6462V13.5954C7.68669 13.9057 8.30248 14.078 8.93237 14.097C7.1939 12.92 6.65803 10.577 7.70784 8.74519C9.71659 11.2493 12.6804 12.7715 15.8619 12.9327C15.5431 11.5405 15.9787 10.0818 17.0065 9.10314C18.6001 7.58561 21.1063 7.66339 22.6042 9.27695C23.4903 9.09996 24.3396 8.77058 25.1167 8.3039C24.8214 9.23171 24.2033 10.0198 23.3775 10.5207C24.1617 10.427 24.9279 10.2143 25.6495 9.88968C25.1183 10.6961 24.4493 11.3985 23.6752 11.966Z" fill="white"/>
</g>
<defs>
<clipPath id="clip0_1_36">
<rect width="32" height="32" fill="white"/>
</clipPath>
</defs>
</svg>
