<?xml version="1.0" encoding="UTF-8"?>
<!-- Generated by Pixelmator Pro 3.3.2 -->
<svg width="32" height="32" viewBox="0 0 32 32" xmlns="http://www.w3.org/2000/svg" xmlns:xlink="http://www.w3.org/1999/xlink">
    <path id="Path" fill="#000000" fill-rule="evenodd" stroke="none" d="M 16 0 C 24.836563 0 32 7.163437 32 16 C 32 24.836563 24.836563 32 16 32 C 7.163437 32 0 24.836563 0 16 C 0 7.163437 7.163437 0 16 0 Z"/>
    <path id="path1" fill="#ffffff" stroke="none" d="M 19.915001 9.846813 L 22.002562 9.846813 L 17.44175 15.05975 L 22.807375 22.153187 L 18.606001 22.153187 L 15.315562 17.850937 L 11.550438 22.153187 L 9.4615 22.153187 L 14.33975 16.577438 L 9.192625 9.846813 L 13.500375 9.846813 L 16.474751 13.779125 L 19.915001 9.846813 Z M 19.182249 20.903563 L 20.339125 20.903563 L 12.871875 11.030811 L 11.630625 11.030811 L 19.182249 20.903563 Z"/>
</svg>
