<svg xmlns="http://www.w3.org/2000/svg" xmlns:xlink="http://www.w3.org/1999/xlink" width="14" height="12" viewBox="0 0 14 12">
  <defs>
    <path id="twitter-a" d="M12.2960937,3.28427083 C12.3045573,3.40270833 12.3045573,3.52117188 12.3045573,3.63960938 C12.3045573,7.25210938 9.555,11.4145573 4.52960937,11.4145573 C2.98138021,11.4145573 1.54315104,10.9661458 0.333333333,10.1878385 C0.553307292,10.2132031 0.764791667,10.2216667 0.993229167,10.2216667 C2.27070312,10.2216667 3.44669271,9.79020833 4.38578125,9.05416667 C3.18442708,9.02877604 2.17765625,8.24197917 1.83078125,7.1590625 C2,7.18442708 2.16919271,7.20135417 2.346875,7.20135417 C2.59221354,7.20135417 2.83757812,7.1675 3.06598958,7.10830729 C1.81388021,6.85447917 0.874765625,5.75466146 0.874765625,4.42640625 L0.874765625,4.39257813 C1.23854167,4.595625 1.66158854,4.72252604 2.10994792,4.73942708 C1.37390625,4.24872396 0.891692708,3.41117188 0.891692708,2.46361979 C0.891692708,1.95601563 1.02703125,1.49070313 1.26393229,1.08460938 C2.60911458,2.7428125 4.63111979,3.82570313 6.8984375,3.94416667 C6.85614583,3.74111979 6.83075521,3.52963542 6.83075521,3.318125 C6.83075521,1.8121875 8.04903646,0.58546875 9.56341146,0.58546875 C10.3502083,0.58546875 11.0608594,0.915416667 11.560026,1.44841146 C12.1776042,1.32997396 12.7698177,1.10153646 13.294375,0.788515625 C13.0913021,1.42304688 12.6598437,1.95604167 12.0930208,2.29442708 C12.6429427,2.23523438 13.1759375,2.08291667 13.6666146,1.87143229 C13.2944271,2.41286458 12.8290885,2.89507813 12.2960937,3.28427083 Z"/>
  </defs>
  <g fill="none" fill-rule="evenodd">
    <use fill="#00ACEE" fill-rule="nonzero" xlink:href="#twitter-a"/>
  </g>
</svg>
