<?xml version="1.0" encoding="UTF-8"?>
<!-- Generated by Pixelmator Pro 3.2.3 -->
<svg width="24" height="24" viewBox="0 0 24 24" xmlns="http://www.w3.org/2000/svg" xmlns:xlink="http://www.w3.org/1999/xlink">
    <path id="Path" fill="#0077ff" stroke="none" d="M 0 11.52 C 0 6.089399 0 3.37413 1.687065 1.687065 C 3.37413 0 6.0894 0 11.52 0 L 12.48 0 C 17.910601 0 20.625851 0 22.31295 1.687065 C 24 3.37413 24 6.089399 24 11.52 L 24 12.48 C 24 17.910601 24 20.625851 22.31295 22.31295 C 20.625851 24 17.910601 24 12.48 24 L 11.52 24 C 6.0894 24 3.37413 24 1.687065 22.31295 C 0 20.625851 0 17.910601 0 12.48 L 0 11.52 Z"/>
    <path id="path1" fill="#ffffff" stroke="none" d="M 12.77 17.290051 C 7.3 17.290051 4.18005 13.54005 4.05005 7.300049 L 6.79005 7.300049 C 6.88005 11.88005 8.9 13.82005 10.5 14.22005 L 10.5 7.300049 L 13.0801 7.300049 L 13.0801 11.25005 C 14.6601 11.08005 16.319901 9.28005 16.8799 7.300049 L 19.459949 7.300049 C 19.029949 9.74005 17.22995 11.54005 15.94995 12.28005 C 17.22995 12.88005 19.28005 14.45005 20.060049 17.290051 L 17.21995 17.290051 C 16.609949 15.39005 15.0901 13.92005 13.0801 13.72005 L 13.0801 17.290051 L 12.77 17.290051 Z"/>
</svg>
