<svg xmlns="http://www.w3.org/2000/svg" xmlns:xlink="http://www.w3.org/1999/xlink" width="16" height="10" viewBox="0 0 16 10">
  <defs>
    <path id="vk-a" d="M15.1388889,0.948242188 C15.2416667,0.58203125 15.1388889,0.3125 14.6444444,0.3125 L13.0083333,0.3125 C12.5916667,0.3125 12.4,0.543945313 12.2972222,0.801757813 C12.2972222,0.801757813 11.4638889,2.94335938 10.2861111,4.33203125 C9.90555556,4.73339844 9.73055556,4.86230469 9.52222222,4.86230469 C9.41944444,4.86230469 9.26111111,4.73339844 9.26111111,4.3671875 L9.26111111,0.948242188 C9.26111111,0.508789063 9.14444444,0.3125 8.8,0.3125 L6.22777778,0.3125 C5.96666667,0.3125 5.81111111,0.517578125 5.81111111,0.708007812 C5.81111111,1.12402344 6.4,1.22070312 6.46111111,2.39257812 L6.46111111,4.93554688 C6.46111111,5.4921875 6.36666667,5.59472656 6.15833333,5.59472656 C5.60277778,5.59472656 4.25277778,3.44433594 3.45277778,0.983398438 C3.29166667,0.505859375 3.13333333,0.3125 2.71388889,0.3125 L1.07777778,0.3125 C0.611111111,0.3125 0.516666667,0.543945313 0.516666667,0.801757813 C0.516666667,1.25878906 1.07222222,3.52929688 3.10277778,6.52929688 C4.45555556,8.57714844 6.36111111,9.6875 8.09444444,9.6875 C9.13611111,9.6875 9.26388889,9.44140625 9.26388889,9.01660156 C9.26388889,7.05957031 9.16944444,6.875 9.69166667,6.875 C9.93333333,6.875 10.35,7.00390625 11.3222222,7.99121094 C12.4333333,9.16308594 12.6166667,9.6875 13.2388889,9.6875 L14.875,9.6875 C15.3416667,9.6875 15.5777778,9.44140625 15.4416667,8.95507812 C15.1305556,7.93261719 13.0277778,5.82910156 12.9333333,5.68847656 C12.6916667,5.36035156 12.7611111,5.21386719 12.9333333,4.92089844 C12.9361111,4.91796875 14.9333333,1.953125 15.1388889,0.948242188 Z"/>
  </defs>
  <g fill="none" fill-rule="evenodd">
    <use fill="#4A76A8" fill-rule="nonzero" xlink:href="#vk-a"/>
  </g>
</svg>
