<svg xmlns="http://www.w3.org/2000/svg" xmlns:xlink="http://www.w3.org/1999/xlink" width="32" height="32" viewBox="0 0 32 32">
  <defs>
    <path id="vkontakte-circle-a" d="M22.6222222,12.6357422 C22.725,12.2695312 22.6222222,12 22.1277778,12 L20.4916667,12 C20.075,12 19.8833333,12.2314453 19.7805556,12.4892578 C19.7805556,12.4892578 18.9472222,14.6308594 17.7694444,16.0195312 C17.3888889,16.4208984 17.2138889,16.5498047 17.0055556,16.5498047 C16.9027778,16.5498047 16.7444444,16.4208984 16.7444444,16.0546875 L16.7444444,12.6357422 C16.7444444,12.1962891 16.6277778,12 16.2833333,12 L13.7111111,12 C13.45,12 13.2944444,12.2050781 13.2944444,12.3955078 C13.2944444,12.8115234 13.8833333,12.9082031 13.9444444,14.0800781 L13.9444444,16.6230469 C13.9444444,17.1796875 13.85,17.2822266 13.6416667,17.2822266 C13.0861111,17.2822266 11.7361111,15.1318359 10.9361111,12.6708984 C10.775,12.1933594 10.6166667,12 10.1972222,12 L8.56111111,12 C8.09444444,12 8,12.2314453 8,12.4892578 C8,12.9462891 8.55555556,15.2167969 10.5861111,18.2167969 C11.9388889,20.2646484 13.8444444,21.375 15.5777778,21.375 C16.6194444,21.375 16.7472222,21.1289062 16.7472222,20.7041016 C16.7472222,18.7470703 16.6527778,18.5625 17.175,18.5625 C17.4166667,18.5625 17.8333333,18.6914062 18.8055556,19.6787109 C19.9166667,20.8505859 20.1,21.375 20.7222222,21.375 L22.3583333,21.375 C22.825,21.375 23.0611111,21.1289062 22.925,20.6425781 C22.6138889,19.6201172 20.5111111,17.5166016 20.4166667,17.3759766 C20.175,17.0478516 20.2444444,16.9013672 20.4166667,16.6083984 C20.4194444,16.6054688 22.4166667,13.640625 22.6222222,12.6357422 Z"/>
  </defs>
  <g fill="none" fill-rule="evenodd">
    <circle cx="16" cy="16" r="16" fill="#4A76A8"/>
    <use fill="#888" fill-rule="nonzero" xlink:href="#vkontakte-circle-a"/>
    <path fill="#FFF" fill-rule="nonzero" d="M22.6222222,12.6357422 C22.725,12.2695312 22.6222222,12 22.1277778,12 L20.4916667,12 C20.075,12 19.8833333,12.2314453 19.7805556,12.4892578 C19.7805556,12.4892578 18.9472222,14.6308594 17.7694444,16.0195312 C17.3888889,16.4208984 17.2138889,16.5498047 17.0055556,16.5498047 C16.9027778,16.5498047 16.7444444,16.4208984 16.7444444,16.0546875 L16.7444444,12.6357422 C16.7444444,12.1962891 16.6277778,12 16.2833333,12 L13.7111111,12 C13.45,12 13.2944444,12.2050781 13.2944444,12.3955078 C13.2944444,12.8115234 13.8833333,12.9082031 13.9444444,14.0800781 L13.9444444,16.6230469 C13.9444444,17.1796875 13.85,17.2822266 13.6416667,17.2822266 C13.0861111,17.2822266 11.7361111,15.1318359 10.9361111,12.6708984 C10.775,12.1933594 10.6166667,12 10.1972222,12 L8.56111111,12 C8.09444444,12 8,12.2314453 8,12.4892578 C8,12.9462891 8.55555556,15.2167969 10.5861111,18.2167969 C11.9388889,20.2646484 13.8444444,21.375 15.5777778,21.375 C16.6194444,21.375 16.7472222,21.1289062 16.7472222,20.7041016 C16.7472222,18.7470703 16.6527778,18.5625 17.175,18.5625 C17.4166667,18.5625 17.8333333,18.6914062 18.8055556,19.6787109 C19.9166667,20.8505859 20.1,21.375 20.7222222,21.375 L22.3583333,21.375 C22.825,21.375 23.0611111,21.1289062 22.925,20.6425781 C22.6138889,19.6201172 20.5111111,17.5166016 20.4166667,17.3759766 C20.175,17.0478516 20.2444444,16.9013672 20.4166667,16.6083984 C20.4194444,16.6054688 22.4166667,13.640625 22.6222222,12.6357422 Z"/>
  </g>
</svg>
