<svg width="32" height="32" viewBox="0 0 32 32" fill="none" xmlns="http://www.w3.org/2000/svg">
<g clip-path="url(#clip0_1_44)">
<path d="M16 32C24.8366 32 32 24.8366 32 16C32 7.16344 24.8366 0 16 0C7.16344 0 0 7.16344 0 16C0 24.8366 7.16344 32 16 32Z" fill="#0077FF"/>
<path d="M16.9371 23.3311C9.76742 23.3311 5.67802 18.4159 5.50763 10.237H9.09902C9.21698 16.2401 11.8646 18.7829 13.9617 19.3072V10.237H17.3436V15.4144C19.4145 15.1915 21.59 12.8322 22.324 10.237H25.7058C25.1422 13.4352 22.7829 15.7945 21.1051 16.7644C22.7829 17.5508 25.47 19.6087 26.4923 23.3311H22.7698C21.9702 20.8408 19.9781 18.914 17.3436 18.6518V23.3311H16.9371Z" fill="white"/>
</g>
<defs>
<clipPath id="clip0_1_44">
<rect width="32" height="32" fill="white"/>
</clipPath>
</defs>
</svg>
