<?xml version="1.0" encoding="UTF-8"?>
<!-- Generated by Pixelmator Pro 3.2.3 -->
<svg width="24" height="24" viewBox="0 0 24 24" xmlns="http://www.w3.org/2000/svg" xmlns:xlink="http://www.w3.org/1999/xlink">
    <path id="Path" fill="#0088ee" stroke="none" d="M 3.143175 3.578476 C 3.640975 3.080675 4.453575 3.099125 4.92825 3.619024 L 8.656575 7.702425 C 9.011125 8.090725 8.997525 8.689225 8.625725 9.061025 C 8.253925 9.432825 7.655425 9.446425 7.267125 9.091875 L 3.183725 5.36355 C 2.663825 4.888874 2.645375 4.076275 3.143175 3.578476 Z"/>
    <path id="path1" fill="#22cc22" stroke="none" d="M 11.7823 0 C 12.4863 0 13.047825 0.587648 13.015875 1.290918 L 12.764775 6.81465 C 12.7409 7.339924 12.3081 7.7535 11.7823 7.7535 C 11.256475 7.7535 10.823675 7.339924 10.7998 6.81465 L 10.548725 1.290918 C 10.51675 0.587648 11.0783 0 11.7823 0 Z"/>
    <path id="path2" fill="#ee6622" stroke="none" d="M 20.421625 3.578476 C 20.919424 4.076275 20.900949 4.888874 20.381075 5.36355 L 16.297649 9.091875 C 15.90935 9.446425 15.310875 9.432825 14.939075 9.061025 C 14.56725 8.689225 14.553675 8.090725 14.9082 7.702425 L 18.636524 3.619024 C 19.111225 3.099125 19.923824 3.080675 20.421625 3.578476 Z"/>
    <path id="path3" fill="#ffcc00" stroke="none" d="M 24.000074 12.217675 C 24.000074 12.921675 23.412424 13.4832 22.709175 13.45125 L 17.185425 13.200175 C 16.660175 13.1763 16.246574 12.743475 16.246574 12.217675 C 16.246574 11.691875 16.660151 11.25905 17.185425 11.235175 L 22.709175 10.9841 C 23.412424 10.952125 24.000074 11.513675 24.000074 12.217675 Z"/>
    <path id="path4" fill="#55dddd" stroke="none" d="M 14.939075 15.37425 C 15.310875 15.00245 15.90935 14.98885 16.297649 15.3434 L 20.381075 19.071726 C 20.900949 19.5464 20.919424 20.359024 20.421625 20.856825 C 19.923824 21.354626 19.111225 21.336149 18.636524 20.816275 L 14.9082 16.732849 C 14.553675 16.344549 14.56725 15.746075 14.939075 15.37425 Z"/>
    <path id="path5" fill="#000000" stroke="none" d="M 12.6961 11.3039 C 13.065975 11.6738 13.07405 12.270975 12.7143 12.650725 L 2.36825 23.57155 C 1.837083 24.132225 0.948012 24.144224 0.401893 23.598101 C -0.14423 23.052 -0.132217 22.162926 0.42846 21.63175 L 11.349275 11.285725 C 11.729025 10.92595 12.3262 10.934025 12.6961 11.3039 Z"/>
</svg>
