<svg width="32" height="32" viewBox="0 0 32 32" fill="none" xmlns="http://www.w3.org/2000/svg">
<g clip-path="url(#clip0_5_130)">
<path d="M31.5 16C31.5 24.5605 24.5605 31.5 16 31.5C7.43958 31.5 0.5 24.5605 0.5 16C0.5 7.43958 7.43958 0.5 16 0.5C24.5605 0.5 31.5 7.43958 31.5 16Z" fill="white" stroke="#E4E4E4"/>
<path d="M11.1038 8.87046C10.6753 8.40123 9.94227 8.38462 9.49302 8.83385C9.04326 9.28357 9.05999 10.018 9.52963 10.4468L12.7104 13.3508C13.0731 13.6819 13.6318 13.6692 13.9791 13.322C14.3268 12.9743 14.3396 12.4142 14.008 12.0511L11.1038 8.87046Z" fill="#0088EE"/>
<path d="M16.3321 6C15.6974 6 15.1897 6.53 15.2186 7.16605L15.4142 11.4685C15.4365 11.9604 15.8415 12.3463 16.3321 12.3463C16.8226 12.3463 17.2276 11.9604 17.25 11.4685L17.4455 7.16605C17.4745 6.53 16.9667 6 16.3321 6Z" fill="#22CC22"/>
<path d="M23.1643 8.83385C22.7151 8.38462 21.9821 8.40123 21.5536 8.87046L18.6494 12.0511C18.3178 12.4142 18.3305 12.9743 18.6782 13.322C19.0255 13.6692 19.5843 13.6819 19.9469 13.3508L23.1277 10.4468C23.5974 10.018 23.6141 9.28357 23.1643 8.83385Z" fill="#EE6622"/>
<path d="M26.0018 15.6707C26.0018 15.034 25.4705 14.5277 24.8366 14.5565L20.5338 14.752C20.0437 14.7743 19.6566 15.1783 19.6566 15.6707C19.6566 16.163 20.0437 16.5671 20.5338 16.5893L24.8366 16.7849C25.4705 16.8137 26.0018 16.3074 26.0018 15.6707Z" fill="#FFCC00"/>
<path d="M19.9469 17.993C19.5843 17.6619 19.0255 17.6746 18.6782 18.0219C18.3305 18.3696 18.3178 18.9296 18.6494 19.2928L21.5536 22.4734C21.9821 22.9426 22.7151 22.9592 23.1643 22.51C23.6141 22.0603 23.5974 21.3258 23.1277 20.8971L19.9469 17.993Z" fill="#55DDDD"/>
<path d="M17.1502 14.8482C16.8036 14.5017 16.2444 14.4941 15.8886 14.8312L7.38174 22.8898C6.88221 23.363 6.87148 24.1554 7.35808 24.642C7.8442 25.1281 8.63527 25.1174 9.10811 24.6183L17.1673 16.112C17.5048 15.7557 17.4972 15.1952 17.1502 14.8482Z" fill="black"/>
</g>
<defs>
<clipPath id="clip0_5_130">
<rect width="32" height="32" fill="white"/>
</clipPath>
</defs>
</svg>
