<svg width="32" height="32" viewBox="0 0 32 32" fill="none" xmlns="http://www.w3.org/2000/svg">
<path d="M0 16C0 7.1632 7.1616 0 16 0C24.8352 0 32 7.1632 32 16C32 24.8368 24.8352 32 16 32C7.1616 32 0 24.8368 0 16Z" fill="#FC3F1D"/>
<path d="M17.8579 8.70393H16.454C13.8802 8.70393 12.5265 10.1485 12.5265 12.2783C12.5265 14.6859 13.4624 15.814 15.3844 17.2602L16.9721 18.4455L12.4095 26H9L13.0947 19.2419C10.7397 17.3713 9.41783 15.5547 9.41783 12.482C9.41783 8.62985 11.8412 6 16.4373 6H21V25.9815H17.8579V8.70393Z" fill="white"/>
</svg>
