<svg id="icn-bar" class="" width="1em" height="1em" viewBox="0 0 16 16" fill="currentColor" xmlns="http://www.w3.org/2000/svg">
                    <path d="M15.2914 1.56903L0.70099 1.56903C0.313844 1.56903 -3.61259e-08 1.88288 0 2.27002C3.61259e-08 2.65717 0.313844 2.97101 0.70099 2.97101L15.2914 2.97101C15.6786 2.97101 16 2.65717 16 2.27002C16 1.88287 15.6786 1.56903 15.2914 1.56903Z"></path>
                    <path d="M15.2914 7.29901L0.70099 7.29902C0.313844 7.29902 -3.61259e-08 7.61286 0 8.00001C3.61259e-08 8.38715 0.313844 8.70099 0.70099 8.70099L15.2914 8.70099C15.6786 8.70099 16 8.38715 16 8C16 7.61285 15.6786 7.29901 15.2914 7.29901Z"></path>
                    <path d="M15.2914 13.0286L0.70099 13.0286C0.313844 13.0286 -3.61259e-08 13.3424 0 13.7296C3.61259e-08 14.1167 0.313844 14.4305 0.70099 14.4305L15.2914 14.4305C15.6786 14.4305 16 14.1167 16 13.7296C16 13.3424 15.6786 13.0286 15.2914 13.0286Z"></path>
                  </svg>