<svg width="500" height="300" viewBox="0 0 500 300" fill="none" xmlns="http://www.w3.org/2000/svg">
<rect width="500" height="300" fill="#777777" fill-opacity="0.3"/>
<path d="M242 147V153C242 153.994 241.194 154.8 240.2 154.8H232.6C231.606 154.8 230.8 153.994 230.8 153V147C230.8 146.006 231.606 145.2 232.6 145.2H240.2C241.194 145.2 242 146.006 242 147ZM230.8 159V165C230.8 165.994 231.606 166.8 232.6 166.8H240.2C241.194 166.8 242 165.994 242 165V159C242 158.006 241.194 157.2 240.2 157.2H232.6C231.606 157.2 230.8 158.006 230.8 159ZM240.2 133.2H232.6C231.606 133.2 230.8 134.006 230.8 135V141C230.8 141.994 231.606 142.8 232.6 142.8H240.2C241.194 142.8 242 141.994 242 141V135C242 134.006 241.194 133.2 240.2 133.2ZM246.2 166.8H267.4C268.394 166.8 269.2 165.994 269.2 165V159C269.2 158.006 268.394 157.2 267.4 157.2H246.2C245.206 157.2 244.4 158.006 244.4 159V165C244.4 165.994 245.206 166.8 246.2 166.8ZM244.4 135V141C244.4 141.994 245.206 142.8 246.2 142.8H267.4C268.394 142.8 269.2 141.994 269.2 141V135C269.2 134.006 268.394 133.2 267.4 133.2H246.2C245.206 133.2 244.4 134.006 244.4 135ZM246.2 154.8H267.4C268.394 154.8 269.2 153.994 269.2 153V147C269.2 146.006 268.394 145.2 267.4 145.2H246.2C245.206 145.2 244.4 146.006 244.4 147V153C244.4 153.994 245.206 154.8 246.2 154.8Z" fill="#777777" fill-opacity="0.3"/>
</svg>
