<svg width="96" height="72" viewBox="0 0 1920 1440" fill="none" xmlns="http://www.w3.org/2000/svg">
<path fill-rule="evenodd" clip-rule="evenodd" d="M24 0C10.7452 0 0 10.7451 0 24V1416C0 1429.25 10.7451 1440 24 1440H1896C1909.25 1440 1920 1429.25 1920 1416V24C1920 10.7452 1909.25 0 1896 0H24ZM1728 307.2C1728 388.054 1662.45 453.6 1581.6 453.6C1500.75 453.6 1435.2 388.054 1435.2 307.2C1435.2 226.346 1500.75 160.8 1581.6 160.8C1662.45 160.8 1728 226.346 1728 307.2ZM1728 792.409V1228.8C1728 1242.05 1717.25 1252.8 1704 1252.8H200.399C187.144 1252.8 176.399 1242.05 176.399 1228.8V792.409C176.399 785.48 179.393 778.89 184.611 774.333L695.398 328.19C704.441 320.291 717.93 320.291 726.974 328.19L1230.18 767.715C1239.23 775.614 1252.72 775.614 1261.76 767.715L1471.2 584.784C1480.24 576.885 1493.73 576.885 1502.77 584.784L1719.79 774.333C1725.01 778.89 1728 785.48 1728 792.409Z" fill="#A6A6A6"/>
</svg>
