<svg width="500" height="280" viewBox="0 0 500 280" fill="none" xmlns="http://www.w3.org/2000/svg">
<g clip-path="url(#clip0_1_17)">
<path d="M500 0H0V280H500V0Z" fill="#777777" fill-opacity="0.3"/>
<path d="M231 127.857C231 125.178 233.186 123 235.875 123H265.125C267.814 123 270 125.178 270 127.857V152.143C270 154.822 267.814 157 265.125 157H235.875C233.186 157 231 154.822 231 152.143V127.857ZM255.664 135.94C255.322 135.439 254.758 135.143 254.156 135.143C253.554 135.143 252.983 135.439 252.648 135.94L246.021 145.624L244.003 143.112C243.652 142.679 243.127 142.429 242.578 142.429C242.03 142.429 241.496 142.679 241.154 143.112L236.279 149.183C235.837 149.729 235.753 150.481 236.058 151.111C236.363 151.741 237.002 152.143 237.703 152.143H245.016H247.453H263.297C263.975 152.143 264.599 151.771 264.912 151.171C265.224 150.572 265.186 149.851 264.805 149.297L255.664 135.94ZM239.531 135.143C240.501 135.143 241.431 134.759 242.117 134.076C242.802 133.393 243.188 132.466 243.188 131.5C243.188 130.534 242.802 129.607 242.117 128.924C241.431 128.241 240.501 127.857 239.531 127.857C238.562 127.857 237.632 128.241 236.946 128.924C236.26 129.607 235.875 130.534 235.875 131.5C235.875 132.466 236.26 133.393 236.946 134.076C237.632 134.759 238.562 135.143 239.531 135.143Z" fill="#777777" fill-opacity="0.3"/>
</g>
<defs>
<clipPath id="clip0_1_17">
<rect width="500" height="280" fill="white"/>
</clipPath>
</defs>
</svg>
