<svg width="500" height="460" viewBox="0 0 500 460" fill="none" xmlns="http://www.w3.org/2000/svg">
<rect width="500" height="460" fill="#777777" fill-opacity="0.3"/>
<path d="M248.52 248.425C237.622 232.627 235.6 231.006 235.6 225.2C235.6 217.247 242.047 210.8 250 210.8C257.953 210.8 264.4 217.247 264.4 225.2C264.4 231.006 262.377 232.627 251.48 248.425C250.764 249.458 249.235 249.458 248.52 248.425ZM250 231.2C253.313 231.2 256 228.514 256 225.2C256 221.886 253.313 219.2 250 219.2C246.686 219.2 244 221.886 244 225.2C244 228.514 246.686 231.2 250 231.2Z" fill="#777777" fill-opacity="0.3"/>
</svg>