<svg width="48" height="48" fill="none" xmlns="http://www.w3.org/2000/svg"><path d="M2 24C2 14.618 2 9.927 4.48 6.695A12 12 0 0 1 6.695 4.48C9.927 2 14.618 2 24 2s14.074 0 17.305 2.48a12 12 0 0 1 2.215 2.215C46 9.927 46 14.618 46 24s0 14.074-2.48 17.305a11.999 11.999 0 0 1-2.215 2.215C38.074 46 33.382 46 24 46S9.927 46 6.695 43.52a12 12 0 0 1-2.215-2.215C2 38.074 2 33.382 2 24Z" fill="url(#a)"/><path d="M18.4 35c-2.24 0-3.36 0-4.216-.436a4 4 0 0 1-1.748-1.748C12 31.96 12 30.84 12 28.6v-3.742c0-2.24 0-3.36.436-4.216a4 4 0 0 1 1.748-1.748c.856-.436 1.976-.436 4.216-.436h3.645c2.24 0 3.36 0 4.216.436a4 4 0 0 1 1.748 1.748c.436.855.436 1.975.436 4.216V28.6c0 2.24 0 3.36-.436 4.216a4 4 0 0 1-1.748 1.748c-.855.436-1.976.436-4.216.436H18.4Z" fill="url(#b)"/><path d="M19.287 14a2.416 2.416 0 0 1 2.416-2.416h11.88a2.416 2.416 0 1 1 0 4.832h-11.88A2.416 2.416 0 0 1 19.287 14Z" fill="url(#c)"/><path d="M33.231 35a2.769 2.769 0 0 1-2.769-2.769V21.226a2.769 2.769 0 0 1 5.538 0v11.005C36 33.761 34.76 35 33.231 35Z" fill="url(#d)"/><path d="M12 14a2.634 2.634 0 1 1 5.267 0A2.634 2.634 0 0 1 12 14Z" fill="url(#e)"/><defs><linearGradient id="b" x1="20.223" y1="18.457" x2="20.223" y2="35" gradientUnits="userSpaceOnUse"><stop stop-color="#F2E9FF"/><stop offset="1" stop-color="#E2CDFF"/></linearGradient><linearGradient id="c" x1="27.643" y1="11.584" x2="27.643" y2="22.458" gradientUnits="userSpaceOnUse"><stop stop-color="#F2E9FF"/><stop offset="1" stop-color="#E2CDFF"/></linearGradient><linearGradient id="d" x1="33.231" y1="18.457" x2="33.231" y2="35" gradientUnits="userSpaceOnUse"><stop stop-color="#F2E9FF"/><stop offset="1" stop-color="#E2CDFF"/></linearGradient><linearGradient id="e" x1="14.633" y1="11.366" x2="14.633" y2="23.217" gradientUnits="userSpaceOnUse"><stop stop-color="#F2E9FF"/><stop offset="1" stop-color="#E2CDFF"/></linearGradient><radialGradient id="a" cx="0" cy="0" r="1" gradientUnits="userSpaceOnUse" gradientTransform="rotate(-49.921 51.589 15.518) scale(53.584)"><stop offset=".225" stop-color="#6B21FF"/><stop offset="1" stop-color="#C387FF"/></radialGradient></defs></svg>